<svg width="600" height="500" viewBox="0 0 600 500" fill="none" xmlns="http://www.w3.org/2000/svg">
<path d="M511.05 359.639L451.42 325.209L391.49 359.809L451.12 394.239L511.05 359.639Z" fill="#D9DADB" stroke="#141414" stroke-width="4" stroke-linejoin="round"/>
<path d="M451.42 325.209L391.79 290.779L331.86 325.379L391.49 359.809L451.42 325.209Z" fill="#D9DADB" stroke="#141414" stroke-width="4" stroke-linejoin="round"/>
<path d="M451.12 394.239L391.49 359.809L331.57 394.409L391.2 428.829L451.12 394.239Z" fill="#D9DADB" stroke="#141414" stroke-width="4" stroke-linejoin="round"/>
<path d="M391.49 359.809L331.86 325.379L271.94 359.979L331.57 394.409L391.49 359.809Z" fill="#D9DADB" stroke="#141414" stroke-width="4" stroke-linejoin="round"/>
<path d="M570.68 394.069L511.05 359.639L451.12 394.239L510.75 428.659L570.68 394.069Z" fill="#D9DADB" stroke="#141414" stroke-width="4" stroke-linejoin="round"/>
<path d="M510.75 428.66L451.12 394.24L391.2 428.83L450.83 463.26L510.75 428.66Z" fill="#D9DADB" stroke="#141414" stroke-width="4" stroke-linejoin="round"/>
<path d="M577.24 344.401L517.61 309.971L457.68 344.571L517.31 379.001L577.24 344.401Z" fill="#D9DADB" stroke="#141414" stroke-width="4" stroke-linejoin="round"/>
<path d="M378.51 301.85V227.79L466.89 176.76V250.82L378.51 301.85Z" fill="#141414"/>
<mask id="mask0_106_4261" style="mask-type:luminance" maskUnits="userSpaceOnUse" x="378" y="176" width="89" height="126">
<path d="M378.51 301.85V227.79L466.89 176.76V250.82L378.51 301.85Z" fill="white"/>
</mask>
<g mask="url(#mask0_106_4261)">
<path d="M445.351 258.579C456.974 238.448 456.009 216.131 443.195 208.733C430.382 201.335 410.572 211.658 398.949 231.789C387.326 251.921 388.292 274.237 401.105 281.635C413.919 289.033 433.728 278.711 445.351 258.579Z" fill="#9BCFAF" stroke="#141414" stroke-width="4" stroke-linejoin="round"/>
<path d="M422.159 245.19L449.749 215.32C448.059 212.49 445.849 210.27 443.199 208.74C430.469 201.39 410.499 211.8 398.949 231.79C397.299 234.65 395.869 237.61 394.689 240.64L422.149 245.19H422.159Z" fill="#F39300" stroke="#141414" stroke-width="4" stroke-linejoin="round"/>
<path d="M422.16 245.191L400.47 229.301C399.95 230.121 399.44 230.951 398.96 231.791C394.57 239.401 391.8 247.701 391.05 255.511L422.17 245.181L422.16 245.191Z" fill="white" stroke="#141414" stroke-width="4" stroke-linejoin="round"/>
<path d="M428.931 249.098C432.327 243.215 432.045 236.693 428.3 234.531C424.555 232.368 418.765 235.385 415.369 241.268C411.972 247.151 412.255 253.673 416 255.835C419.745 257.997 425.534 254.981 428.931 249.098Z" fill="#141414" stroke="#141414" stroke-width="4" stroke-linejoin="round"/>
</g>
<path d="M378.51 301.85V227.79L466.89 176.76V250.82L378.51 301.85Z" stroke="#141414" stroke-width="4" stroke-linejoin="round"/>
<path d="M290.12 162.76V264.82L378.51 315.85V213.79L290.12 162.76Z" fill="#AAC9E7" stroke="#141414" stroke-width="4" stroke-linejoin="round"/>
<path d="M290.12 162.76L378.51 111.73L466.89 162.76L378.51 213.79L290.12 162.76Z" fill="#AAC9E7" stroke="#141414" stroke-width="4" stroke-linejoin="round"/>
<path d="M378.51 315.85V213.79L466.89 162.76V264.82L378.51 315.85Z" fill="#AAC9E7" stroke="#141414" stroke-width="4" stroke-linejoin="round"/>
<path d="M396.86 264.96C392.09 267.71 388.19 265.46 388.19 259.96C388.19 255.15 391.6 249.24 395.77 246.83L449.02 216.09C453.79 213.34 457.69 215.59 457.69 221.09C457.69 225.9 454.28 231.81 450.11 234.22L396.86 264.96Z" fill="#141414" stroke="#141414" stroke-width="4" stroke-linejoin="round"/>
<path d="M517.46 280.58L457.83 246.15L397.9 280.75L457.53 315.18L517.46 280.58Z" fill="#D9DADB" stroke="#141414" stroke-width="4" stroke-linejoin="round"/>
<mask id="mask1_106_4261" style="mask-type:luminance" maskUnits="userSpaceOnUse" x="388" y="214" width="134" height="113">
<path d="M457.67 220.89C457.57 215.54 453.72 213.38 449.01 216.09L395.76 246.83C391.59 249.24 388.18 255.14 388.18 259.96C388.18 261.78 390.65 326.22 390.65 326.22L442.06 314.3L507.5 292.52L521.54 246.44L457.67 220.89Z" fill="white"/>
</mask>
<g mask="url(#mask1_106_4261)">
<path d="M486.4 243.19L426.77 208.77L366.84 243.36L426.47 277.79L486.4 243.19Z" fill="#D9DADB" stroke="#141414" stroke-width="4" stroke-linejoin="round"/>
</g>
<path d="M390.26 265.23C388.97 264.23 388.19 262.42 388.19 259.96C388.19 255.15 391.6 249.24 395.77 246.83L449.02 216.09C453.79 213.34 457.69 215.59 457.69 221.09" stroke="#141414" stroke-width="4" stroke-linejoin="round"/>
<path d="M334.013 241.475C337.797 239.291 338.083 232.704 334.654 226.764C331.224 220.824 325.377 217.779 321.593 219.963C317.81 222.147 317.523 228.734 320.953 234.674C324.383 240.614 330.23 243.659 334.013 241.475Z" fill="#141414" stroke="#141414" stroke-width="4" stroke-linejoin="round"/>
<path d="M182.729 392.029L271.109 340.999V238.939L182.729 289.969V392.029Z" fill="#9185BE" stroke="#141414" stroke-width="4" stroke-linejoin="round"/>
<path d="M182.73 392.029L94.3398 340.999V238.939L182.73 289.969V392.029Z" fill="#9185BE" stroke="#141414" stroke-width="4" stroke-linejoin="round"/>
<path d="M94.3398 238.94L182.73 289.97L271.11 238.94L182.73 187.91L94.3398 238.94Z" fill="#9185BE" stroke="#141414" stroke-width="4" stroke-linejoin="round"/>
<path d="M109.33 230.29L169.12 264.8L228.9 230.29L169.12 195.77L109.33 230.29Z" fill="#141414"/>
<path d="M109.33 230.29L169.12 264.8L228.9 230.29L169.12 195.77L109.33 230.29Z" stroke="#141414" stroke-width="4" stroke-linejoin="round"/>
<path d="M109.33 230.29L169.12 264.8L192.65 251.21L169.12 195.77L109.33 230.29Z" fill="#9185BE" stroke="#141414" stroke-width="4" stroke-linejoin="round"/>
<path d="M142.107 184.363L148.828 244.951L164.75 243.185L158.029 182.597L142.107 184.363Z" fill="#9BCFAF" stroke="#141414" stroke-width="4" stroke-miterlimit="10"/>
<path d="M192.829 236.34C186.899 231.18 177.899 231.8 172.729 237.73C167.559 243.66 168.189 252.66 174.119 257.83C175.149 258.73 176.269 259.43 177.449 259.98L197.649 248.32C198.029 243.94 196.399 239.44 192.829 236.34Z" fill="#FFE70E"/>
<path d="M192.829 236.34C186.899 231.18 177.899 231.8 172.729 237.73C167.559 243.66 168.189 252.66 174.119 257.83C175.149 258.73 176.269 259.43 177.449 259.98L197.649 248.32C198.029 243.94 196.399 239.44 192.829 236.34Z" stroke="#141414" stroke-width="4" stroke-linejoin="round"/>
<path d="M154.269 234.23C148.339 229.07 139.339 229.69 134.169 235.62C132.359 237.71 131.269 240.17 130.859 242.71L153.889 256.01C154.509 255.5 155.109 254.95 155.659 254.32C160.819 248.39 160.199 239.39 154.269 234.22V234.23Z" fill="#F39300"/>
<path d="M154.269 234.23C148.339 229.07 139.339 229.69 134.169 235.62C132.359 237.71 131.269 240.17 130.859 242.71L153.889 256.01C154.509 255.5 155.109 254.95 155.659 254.32C160.819 248.39 160.199 239.39 154.269 234.22V234.23Z" stroke="#141414" stroke-width="4" stroke-linejoin="round"/>
<path d="M130.679 168.371C138.544 168.371 144.919 161.995 144.919 154.131C144.919 146.266 138.544 139.891 130.679 139.891C122.815 139.891 116.439 146.266 116.439 154.131C116.439 161.995 122.815 168.371 130.679 168.371Z" fill="#9BCFAF" stroke="#141414" stroke-width="4" stroke-linejoin="round"/>
<path d="M215.961 103.831L155.455 96.4023L153.503 112.303L214.008 119.732L215.961 103.831Z" fill="#F39300" stroke="#141414" stroke-width="4" stroke-miterlimit="10"/>
<path d="M159.355 64.5952L98.8496 57.166L96.8973 73.0666L157.403 80.4958L159.355 64.5952Z" fill="#9BCFAF" stroke="#141414" stroke-width="4" stroke-miterlimit="10"/>
<path d="M233.398 51.9722L172.81 58.6934L174.576 74.6157L235.164 67.8946L233.398 51.9722Z" fill="white" stroke="#141414" stroke-width="4" stroke-miterlimit="10"/>
<path d="M153.504 112.306L92.998 104.877L91.0457 120.778L151.551 128.207L153.504 112.306Z" fill="white" stroke="#141414" stroke-width="4" stroke-miterlimit="10"/>
<path d="M157.412 80.4995L96.9062 73.0703L94.9539 88.9709L155.46 96.4001L157.412 80.4995Z" fill="white" stroke="#141414" stroke-width="4" stroke-miterlimit="10"/>
<path d="M217.905 87.9174L157.399 80.4883L155.447 96.3889L215.953 103.818L217.905 87.9174Z" fill="#FFE70E" stroke="#141414" stroke-width="4" stroke-miterlimit="10"/>
<path d="M212.054 135.626L151.549 128.197L149.596 144.098L210.102 151.527L212.054 135.626Z" fill="#F39300" stroke="#141414" stroke-width="4" stroke-miterlimit="10"/>
<path d="M196.877 167.443L144.084 136.963L136.074 150.837L188.867 181.317L196.877 167.443Z" fill="white" stroke="#141414" stroke-width="4" stroke-miterlimit="10"/>
<path d="M116.9 204.311C120.904 204.311 124.15 201.065 124.15 197.061C124.15 193.056 120.904 189.811 116.9 189.811C112.896 189.811 109.65 193.056 109.65 197.061C109.65 201.065 112.896 204.311 116.9 204.311Z" fill="#FFE70E" stroke="#141414" stroke-width="4" stroke-linecap="round" stroke-linejoin="round"/>
<path d="M538.8 269.52C594.14 116.55 530.85 64.1901 495.81 134.31C480.67 164.61 519.01 184.58 521.55 139.88C525.48 70.6501 466.9 59.6401 436.23 108.07" stroke="#141414" stroke-width="4" stroke-linecap="round" stroke-linejoin="round"/>
<path d="M424.02 152.829C436.712 152.829 447 142.541 447 129.849C447 117.158 436.712 106.869 424.02 106.869C411.329 106.869 401.04 117.158 401.04 129.849C401.04 142.541 411.329 152.829 424.02 152.829Z" fill="#9BCFAF" stroke="#141414" stroke-width="4" stroke-linecap="round" stroke-linejoin="round"/>
<path d="M412.15 131.099L420.69 140.269L436.36 120.459" stroke="#141414" stroke-width="4" stroke-linecap="round" stroke-linejoin="round"/>
<path d="M182.73 289.969V392.029L271.11 443.059V340.999L182.73 289.969Z" fill="#F5B4CB" stroke="#141414" stroke-width="4" stroke-linejoin="round"/>
<path d="M182.73 289.969L271.11 238.939L359.5 289.969L271.11 340.999L182.73 289.969Z" fill="#F5B4CB" stroke="#141414" stroke-width="4" stroke-linejoin="round"/>
<path d="M271.11 443.059V340.999L359.5 289.969V392.029L271.11 443.059Z" fill="#F5B4CB" stroke="#141414" stroke-width="4" stroke-linejoin="round"/>
<path d="M241.461 358.389C234.181 346.179 221.761 339.919 213.731 344.409C213.681 344.439 213.651 344.469 213.601 344.499L202.281 351.029L207.371 359.449C207.701 364.249 209.341 369.559 212.381 374.649C215.511 379.889 219.581 384.029 223.851 386.699L228.921 395.089L240.241 388.549L240.111 388.629C248.141 384.139 248.751 370.609 241.461 358.399V358.389Z" fill="white"/>
<path d="M241.461 358.389C234.181 346.179 221.761 339.919 213.731 344.409C213.681 344.439 213.651 344.469 213.601 344.499L202.281 351.029L207.371 359.449C207.701 364.249 209.341 369.559 212.381 374.649C215.511 379.889 219.581 384.029 223.851 386.699L228.921 395.089L240.241 388.549L240.111 388.629C248.141 384.139 248.751 370.609 241.461 358.399V358.389Z" stroke="#141414" stroke-width="4" stroke-linejoin="round"/>
<path d="M229.243 394.89C237.042 390.018 237.257 376.291 229.723 364.229C222.189 352.168 209.759 346.339 201.959 351.211C194.16 356.082 193.945 369.809 201.48 381.871C209.014 393.933 221.444 399.761 229.243 394.89Z" fill="white" stroke="#141414" stroke-width="4" stroke-linejoin="round"/>
<path d="M222.871 368.99L230.141 364.93" stroke="#141414" stroke-width="4" stroke-linecap="round" stroke-linejoin="round"/>
<path d="M272.49 299.689C279.35 299.689 284.91 296.148 284.91 291.779C284.91 287.411 279.35 283.869 272.49 283.869C265.631 283.869 260.07 287.411 260.07 291.779C260.07 296.148 265.631 299.689 272.49 299.689Z" fill="#141414" stroke="#141414" stroke-width="4" stroke-linejoin="round"/>
<path d="M326.67 231.289L286.76 254.329C277.92 259.429 272.48 268.859 272.48 279.059V289.969" stroke="#141414" stroke-width="4" stroke-linecap="round" stroke-linejoin="round"/>
<path d="M326.67 231.289L286.76 254.329C277.92 259.429 272.48 268.859 272.48 279.059V289.969" stroke="#F5B4CB" stroke-width="12" stroke-linecap="round" stroke-linejoin="round"/>
<path d="M326.67 231.289L286.76 254.329C277.92 259.429 272.48 268.859 272.48 279.059V289.969" stroke="#141414" stroke-width="20" stroke-linecap="round" stroke-linejoin="round"/>
<path d="M326.67 231.289L286.76 254.329C277.92 259.429 272.48 268.859 272.48 279.059V289.969" stroke="#141414" stroke-width="20" stroke-linecap="round" stroke-linejoin="round"/>
<path d="M326.67 231.289L286.76 254.329C277.92 259.429 272.48 268.859 272.48 279.059V289.969" stroke="#141414" stroke-width="20" stroke-linecap="round" stroke-linejoin="round"/>
<path d="M326.67 231.289L286.76 254.329C277.92 259.429 272.48 268.859 272.48 279.059V289.969" stroke="#F5B4CB" stroke-width="12" stroke-linecap="round" stroke-linejoin="round"/>
<path d="M326.67 231.289L286.76 254.329C277.92 259.429 272.48 268.859 272.48 279.059V289.969" stroke="#F5B4CB" stroke-width="12" stroke-linecap="round" stroke-linejoin="round"/>
<path d="M326.67 231.289L286.76 254.329C277.92 259.429 272.48 268.859 272.48 279.059V289.969" stroke="#F5B4CB" stroke-width="12" stroke-linecap="round" stroke-linejoin="round"/>
<path d="M124.15 66.23C132.015 66.23 138.39 59.8545 138.39 51.99C138.39 44.1255 132.015 37.75 124.15 37.75C116.286 37.75 109.91 44.1255 109.91 51.99C109.91 59.8545 116.286 66.23 124.15 66.23Z" fill="#F39300" stroke="#141414" stroke-width="4" stroke-linejoin="round"/>
<path d="M41.5304 102.091L77.6304 93.4108C79.5504 92.9508 81.0304 95.1008 79.9204 96.7308L59.0004 127.401C58.4804 128.161 57.3204 128.611 56.4204 128.411L56.2104 128.361C55.4304 128.181 54.6904 127.381 54.5704 126.591L52.7104 114.211C52.6104 113.551 52.2104 112.971 51.6304 112.651L40.8904 106.631C40.0904 106.181 39.5304 105.061 39.6604 104.151C39.7904 103.241 40.6204 102.311 41.5204 102.101L41.5304 102.091Z" fill="white" stroke="#141414" stroke-width="4" stroke-linecap="round" stroke-linejoin="round"/>
<path d="M450.83 438.209C460.595 438.209 468.51 433.934 468.51 428.659C468.51 423.385 460.595 419.109 450.83 419.109C441.066 419.109 433.15 423.385 433.15 428.659C433.15 433.934 441.066 438.209 450.83 438.209Z" fill="#F39300" stroke="#141414" stroke-width="4" stroke-linejoin="round"/>
<path d="M391.2 403.7C400.964 403.7 408.88 399.424 408.88 394.15C408.88 388.875 400.964 384.6 391.2 384.6C381.435 384.6 373.52 388.875 373.52 394.15C373.52 399.424 381.435 403.7 391.2 403.7Z" fill="#FFE70E" stroke="#141414" stroke-width="4" stroke-linejoin="round"/>
<path d="M457.68 290.219C467.444 290.219 475.36 285.943 475.36 280.669C475.36 275.395 467.444 271.119 457.68 271.119C447.916 271.119 440 275.395 440 280.669C440 285.943 447.916 290.219 457.68 290.219Z" fill="#FFE70E" stroke="#141414" stroke-width="4" stroke-linejoin="round"/>
<path d="M412.01 434.34H336.07C329.443 434.34 324.07 439.712 324.07 446.34V459.69C324.07 466.317 329.443 471.69 336.07 471.69H412.01C418.638 471.69 424.01 466.317 424.01 459.69V446.34C424.01 439.712 418.638 434.34 412.01 434.34Z" fill="white" stroke="#141414" stroke-width="4" stroke-linecap="round" stroke-linejoin="round"/>
<path d="M353.24 453.021H392.79" stroke="#141414" stroke-width="4" stroke-linecap="round" stroke-linejoin="round"/>
<path d="M371.311 458.731C374.464 458.731 377.021 456.174 377.021 453.021C377.021 449.867 374.464 447.311 371.311 447.311C368.157 447.311 365.601 449.867 365.601 453.021C365.601 456.174 368.157 458.731 371.311 458.731Z" fill="white" stroke="#141414" stroke-width="4" stroke-linecap="round" stroke-linejoin="round"/>
<path d="M345.3 453.021H335.45" stroke="#141414" stroke-width="4" stroke-linecap="round" stroke-linejoin="round"/>
<path d="M412.5 453.021H401.08" stroke="#141414" stroke-width="4" stroke-linecap="round" stroke-linejoin="round"/>
<path d="M406.79 458.731V447.311" stroke="#141414" stroke-width="4" stroke-linecap="round" stroke-linejoin="round"/>
<path d="M192.43 420.88C80.3003 485.98 -39.1997 334.94 120.01 163.98" stroke="#141414" stroke-width="4" stroke-linecap="round" stroke-linejoin="round"/>
<path d="M188.65 430.91C194.35 430.91 198.97 426.289 198.97 420.59C198.97 414.89 194.35 410.27 188.65 410.27C182.95 410.27 178.33 414.89 178.33 420.59C178.33 426.289 182.95 430.91 188.65 430.91Z" fill="#9BCFAF" stroke="#141414" stroke-width="4" stroke-linecap="round" stroke-linejoin="round"/>
<path d="M543.11 336.15L522.14 282.77L512.79 282.96L491.82 337.18C491.31 338.49 491.03 339.84 491.01 341.24C490.88 350.69 502.61 358.19 517.22 357.98C531.83 357.77 543.78 349.94 543.91 340.48C543.93 338.98 543.65 337.52 543.11 336.14V336.15Z" fill="#9BCFAF" stroke="#141414" stroke-width="4" stroke-linejoin="round"/>
<path d="M517.46 290.42C528.069 290.42 536.67 281.819 536.67 271.21C536.67 260.601 528.069 252 517.46 252C506.851 252 498.25 260.601 498.25 271.21C498.25 281.819 506.851 290.42 517.46 290.42Z" fill="#9BCFAF" stroke="#141414" stroke-width="4" stroke-linejoin="round"/>
<path d="M538.83 279.861C544.529 279.861 549.15 275.24 549.15 269.541C549.15 263.841 544.529 259.221 538.83 259.221C533.13 259.221 528.51 263.841 528.51 269.541C528.51 275.24 533.13 279.861 538.83 279.861Z" fill="#FFE70E" stroke="#141414" stroke-width="4" stroke-linecap="round" stroke-linejoin="round"/>
</svg>
