<svg width="202" height="136" viewBox="0 0 202 136" fill="none" xmlns="http://www.w3.org/2000/svg">
<g clip-path="url(#clip0_34_249)">
<path d="M167.121 77.5706L133.869 96.7769L100.617 77.5706L133.869 58.3643L167.121 77.5706Z" fill="#D5D4D3" stroke="#222222" stroke-linecap="round" stroke-linejoin="round"/>
<path d="M167.121 77.5706L133.869 96.7769L100.617 77.5706L133.869 58.3643L167.121 77.5706Z" fill="#D5D4D3" stroke="#222222" stroke-linecap="round" stroke-linejoin="round"/>
<path d="M167.121 39.1514L133.869 58.3577L100.617 39.1514L133.869 19.9451L167.121 39.1514Z" fill="#9185BE" stroke="#222222" stroke-width="3" stroke-linecap="round" stroke-linejoin="round"/>
<path d="M133.869 58.3549V96.7467L100.617 77.5404V39.1486L133.869 58.3549Z" fill="#898583" stroke="#222222" stroke-linecap="round" stroke-linejoin="round"/>
<path d="M167.121 39.1486V77.5404L133.869 96.7467V58.3549L167.121 39.1486Z" fill="#3B3735" stroke="#222222" stroke-linecap="round" stroke-linejoin="round"/>
<path d="M67.3445 97.0862L34.0923 116.293L0.840223 97.0862L34.0923 77.8799L67.3445 97.0862Z" fill="#D5D4D3" stroke="#222222" stroke-linecap="round" stroke-linejoin="round"/>
<path d="M67.3445 97.0862L34.0923 116.293L0.840223 97.0862L34.0923 77.8799L67.3445 97.0862Z" fill="#D5D4D3" stroke="#222222" stroke-linecap="round" stroke-linejoin="round"/>
<path d="M67.3445 58.6853L34.0923 77.8917L0.840223 58.6853L34.0923 39.479L67.3445 58.6853Z" fill="#F5B4CB" stroke="#222222" stroke-width="3" stroke-linecap="round" stroke-linejoin="round"/>
<path d="M34.0923 77.8888V116.281L0.840223 97.0743V58.6825L34.0923 77.8888Z" fill="#F5B4CB" stroke="#222222" stroke-width="3" stroke-linecap="round" stroke-linejoin="round"/>
<path d="M67.3443 58.6825V97.0743L34.0922 116.281V77.8888L67.3443 58.6825Z" fill="#3B3735" stroke="#222222" stroke-linecap="round" stroke-linejoin="round"/>
<path d="M133.849 97.1045L100.596 116.311L67.3443 97.1045L100.596 77.8982L133.849 97.1045Z" fill="#D5D4D3" stroke="#222222" stroke-linecap="round" stroke-linejoin="round"/>
<path d="M133.849 97.1045L100.596 116.311L67.3443 97.1045L100.596 77.8982L133.849 97.1045Z" fill="#D5D4D3" stroke="#222222" stroke-linecap="round" stroke-linejoin="round"/>
<path d="M133.849 58.6853L100.596 77.8917L67.3444 58.6853L100.596 39.479L133.849 58.6853Z" fill="#D5D4D3" stroke="#222222" stroke-linecap="round" stroke-linejoin="round"/>
<path d="M100.596 77.8888V116.281L67.3443 97.0743V58.6825L100.596 77.8888Z" fill="#898583" stroke="#222222" stroke-linecap="round" stroke-linejoin="round"/>
<path d="M133.848 58.6825V97.0743L100.596 116.281V77.8888L133.848 58.6825Z" fill="#AAC9E7" stroke="#222222" stroke-width="3" stroke-linecap="round" stroke-linejoin="round"/>
<path d="M200.374 96.7659L167.121 115.972L133.869 96.7659L167.121 77.5596L200.374 96.7659Z" fill="#D5D4D3" stroke="#222222" stroke-linecap="round" stroke-linejoin="round"/>
<path d="M200.374 96.7659L167.121 115.972L133.869 96.7659L167.121 77.5596L200.374 96.7659Z" fill="#D5D4D3" stroke="#222222" stroke-linecap="round" stroke-linejoin="round"/>
<path d="M200.374 58.365L167.121 77.5714L133.869 58.365L167.121 39.1587L200.374 58.365Z" fill="#AAC9E7" stroke="#222222" stroke-width="3" stroke-linecap="round" stroke-linejoin="round"/>
<path d="M167.121 77.5685V115.96L133.869 96.754V58.3622L167.121 77.5685Z" fill="#AAC9E7" stroke="#222222" stroke-width="3" stroke-linecap="round" stroke-linejoin="round"/>
<path d="M200.373 58.3622V96.754L167.121 115.96V77.5685L200.373 58.3622Z" fill="#AAC9E7" stroke="#222222" stroke-width="3" stroke-linecap="round" stroke-linejoin="round"/>
<path d="M133.376 58.3692L100.124 77.5755L66.8716 58.3692L100.124 39.1628L133.376 58.3692Z" fill="#D5D4D3" stroke="#222222" stroke-linecap="round" stroke-linejoin="round"/>
<path d="M133.376 58.3692L100.124 77.5755L66.8716 58.3692L100.124 39.1628L133.376 58.3692Z" fill="#D5D4D3" stroke="#222222" stroke-linecap="round" stroke-linejoin="round"/>
<path d="M133.376 19.9683L100.124 39.1746L66.8716 19.9683L100.124 0.761963L133.376 19.9683Z" fill="#9185BE" stroke="#222222" stroke-width="3" stroke-linecap="round" stroke-linejoin="round"/>
<path d="M100.124 39.1718V77.5636L66.8716 58.3573V19.9655L100.124 39.1718Z" fill="#9185BE" stroke="#222222" stroke-width="3" stroke-linecap="round" stroke-linejoin="round"/>
<path d="M133.376 19.9655V58.3573L100.124 77.5636V39.1718L133.376 19.9655Z" fill="#9185BE" stroke="#222222" stroke-width="3" stroke-linecap="round" stroke-linejoin="round"/>
<path d="M100.596 116.307L67.3443 135.513L34.0922 116.307L67.3443 97.1006L100.596 116.307Z" fill="#D5D4D3" stroke="#222222" stroke-linecap="round" stroke-linejoin="round"/>
<path d="M100.596 116.307L67.3443 135.513L34.0922 116.307L67.3443 97.1006L100.596 116.307Z" fill="#D5D4D3" stroke="#222222" stroke-linecap="round" stroke-linejoin="round"/>
<path d="M100.596 77.906L67.3443 97.1124L34.0922 77.906L67.3443 58.6997L100.596 77.906Z" fill="#F5B4CB" stroke="#222222" stroke-width="3" stroke-linecap="round" stroke-linejoin="round"/>
<path d="M67.3443 97.1095V135.501L34.0922 116.295V77.9032L67.3443 97.1095Z" fill="#F5B4CB" stroke="#222222" stroke-width="3" stroke-linecap="round" stroke-linejoin="round"/>
<path d="M100.596 77.9032V116.295L67.3441 135.501V97.1095L100.596 77.9032Z" fill="#F5B4CB" stroke="#222222" stroke-width="3" stroke-linecap="round" stroke-linejoin="round"/>
</g>
<defs>
<clipPath id="clip0_34_249">
<rect width="201.359" height="136" fill="white" transform="translate(-0.000488281 -0.00390625)"/>
</clipPath>
</defs>
</svg>
