<svg   className="w-full h-auto"
    preserveAspectRatio="xMidYMid meet" viewBox="0 0 673 739" fill="none" xmlns="http://www.w3.org/2000/svg">
<path d="M516.104 150.856L516.069 84.1939L573.817 50.8929L573.852 117.555L516.104 150.856Z" fill="#8DC8A4" stroke="#222222" stroke-width="6" stroke-linecap="round" stroke-linejoin="round"/>
<path d="M516.077 84.1985L458.326 50.8558L516.074 17.5548L573.825 50.8975L516.077 84.1985Z" fill="#8DC8A4" stroke="#222222" stroke-width="6" stroke-linecap="round" stroke-linejoin="round"/>
<path d="M516.111 150.861L458.36 117.518L458.326 50.8566L516.077 84.1993L516.111 150.861Z" fill="#8DC8A4" stroke="#222222" stroke-width="6" stroke-linecap="round" stroke-linejoin="round"/>
<rect width="1" height="1" transform="translate(149.257 257.848) rotate(120)" fill="white"/>
<path d="M503.816 318.186L342.805 411.318L181.794 318.186L342.805 225.055L503.816 318.186Z" fill="white" stroke="#222222" stroke-width="6" stroke-linecap="round" stroke-linejoin="round"/>
<path d="M342.854 225.219V411.381L181.843 504.512V318.35L342.854 225.219Z" fill="white" stroke="#222222" stroke-width="6" stroke-linecap="round" stroke-linejoin="round"/>
<path d="M261.862 240.091L261.827 173.429L319.575 140.128L319.61 206.79L261.862 240.091Z" fill="#AAC9E7" stroke="#222222" stroke-width="6" stroke-linecap="round" stroke-linejoin="round"/>
<path d="M261.835 173.434L204.084 140.091L261.832 106.79L319.583 140.133L261.835 173.434Z" fill="#AAC9E7" stroke="#222222" stroke-width="6" stroke-linecap="round" stroke-linejoin="round"/>
<path d="M261.869 240.096L204.118 206.754L204.084 140.092L261.835 173.435L261.869 240.096Z" fill="#AAC9E7" stroke="#222222" stroke-width="6" stroke-linecap="round" stroke-linejoin="round"/>
<path d="M268.314 389.111L268.279 322.449L326.027 289.148L326.062 355.81L268.314 389.111Z" fill="#F5B4CB" stroke="#222222" stroke-width="6" stroke-linecap="round" stroke-linejoin="round"/>
<path d="M268.287 322.453L210.536 289.111L268.284 255.81L326.035 289.152L268.287 322.453Z" fill="#F5B4CB" stroke="#222222" stroke-width="6" stroke-linecap="round" stroke-linejoin="round"/>
<path d="M268.321 389.116L210.57 355.773L210.536 289.111L268.287 322.454L268.321 389.116Z" fill="#F5B4CB" stroke="#222222" stroke-width="6" stroke-linecap="round" stroke-linejoin="round"/>
<path d="M429.861 306.107L429.827 239.445L487.575 206.144L487.609 272.806L429.861 306.107Z" fill="#FFE70E" stroke="#222222" stroke-width="6" stroke-linecap="round" stroke-linejoin="round"/>
<path d="M429.834 239.45L372.083 206.107L429.831 172.806L487.583 206.149L429.834 239.45Z" fill="#FFE70E" stroke="#222222" stroke-width="6" stroke-linecap="round" stroke-linejoin="round"/>
<path d="M429.869 306.112L372.117 272.77L372.083 206.108L429.834 239.45L429.869 306.112Z" fill="#FFE70E" stroke="#222222" stroke-width="6" stroke-linecap="round" stroke-linejoin="round"/>
<path d="M341.058 464.917L341.023 398.255L398.771 364.954L398.806 431.616L341.058 464.917Z" fill="#9185BE" stroke="#222222" stroke-width="6" stroke-linecap="round" stroke-linejoin="round"/>
<path d="M341.031 398.26L283.28 364.917L341.028 331.616L398.779 364.959L341.031 398.26Z" fill="#9185BE" stroke="#222222" stroke-width="6" stroke-linecap="round" stroke-linejoin="round"/>
<path d="M341.065 464.922L283.314 431.58L283.279 364.918L341.031 398.261L341.065 464.922Z" fill="#9185BE" stroke="#222222" stroke-width="6" stroke-linecap="round" stroke-linejoin="round"/>
<path d="M342.81 411.286V597.449L181.799 504.317V318.155L342.81 411.286Z" fill="white" stroke="#222222" stroke-width="6" stroke-linecap="round" stroke-linejoin="round"/>
<path d="M343.37 410.83L271.691 480.14L110.37 387.45L182.048 318.14L343.37 410.83Z" fill="white" stroke="#222222" stroke-width="6" stroke-linecap="round" stroke-linejoin="round"/>
<path d="M503.82 318.153V504.315L342.809 597.446V411.284L503.82 318.153Z" fill="white" stroke="#222222" stroke-width="6" stroke-linecap="round" stroke-linejoin="round"/>
<path d="M343.365 410.828L415.043 480.138L576.365 387.449L504.687 318.138L343.365 410.828Z" fill="white" stroke="#222222" stroke-width="6" stroke-linecap="round" stroke-linejoin="round"/>
</svg>
