<svg width="610" height="1397" viewBox="0 0 220 1297" fill="none" xmlns="http://www.w3.org/2000/svg">
<g clip-path="url(#clip0_159_1039)">
<path d="M533.735 1183.52L364.417 1323.87L158.238 1247.34L327.556 1106.99L533.735 1183.52Z" fill="#9185BE" stroke="#141414" stroke-width="6" stroke-linecap="round" stroke-linejoin="round"/>
<path d="M533.735 1183.52L364.417 1323.87L158.238 1247.34L327.556 1106.99L533.735 1183.52Z" fill="#9185BE" stroke="#141414" stroke-width="6" stroke-linecap="round" stroke-linejoin="round"/>
<path d="M496.888 966.718L327.57 1107.07L121.391 1030.53L290.709 890.183L496.888 966.718Z" fill="#9185BE" stroke="#141414" stroke-width="6" stroke-linecap="round" stroke-linejoin="round"/>
<path d="M327.563 1107.03L364.404 1323.8L158.225 1247.26L121.385 1030.49L327.563 1107.03Z" fill="#9185BE" stroke="#141414" stroke-width="6" stroke-linecap="round" stroke-linejoin="round"/>
<path d="M496.883 966.677L533.724 1183.45L364.406 1323.8L327.566 1107.03L496.883 966.677Z" fill="#9185BE" stroke="#141414" stroke-width="6" stroke-linecap="round" stroke-linejoin="round"/>
</g>

<path d="M350.056 732.764L322.503 742.798L300.044 723.946L327.597 713.911L350.056 732.764Z" fill="#AAC9E7" stroke="#141414" style="stroke-width:4" stroke-linecap="round" stroke-linejoin="round"/>
<path d="M350.056 732.764L322.503 742.798L300.044 723.946L327.597 713.911L350.056 732.764Z" fill="#AAC9E7" stroke="#141414" style="stroke-width:4" stroke-linecap="round" stroke-linejoin="round"/>
<path d="M355.148 703.887L327.595 713.921L305.135 695.069L332.688 685.034L355.148 703.887Z" fill="#AAC9E7" stroke="#141414" style="stroke-width:4" stroke-linecap="round" stroke-linejoin="round"/>
<path d="M327.596 713.915L322.505 742.787L300.045 723.934L305.136 695.062L327.596 713.915Z" fill="#AAC9E7" stroke="#141414" style="stroke-width:4" stroke-linecap="round" stroke-linejoin="round"/>
<path d="M355.149 703.882L350.058 732.753L322.505 742.788L327.596 713.916L355.149 703.882Z" fill="#AAC9E7" stroke="#141414" style="stroke-width:4" stroke-linecap="round" stroke-linejoin="round"/>
<defs>
<clipPath id="clip0_159_1039">
<rect width="486.799" height="503.984" fill="white" transform="translate(45.249 899.414) rotate(-9.64547)"/>
</clipPath>
<clipPath id="clip1_159_1039">
<rect width="253" height="290" fill="white" transform="translate(91.061 0.414062)"/>
</clipPath>
</defs>
</svg>
