<svg width="316" height="62" viewBox="0 0 316 62" fill="none" xmlns="http://www.w3.org/2000/svg">
<path d="M53.8761 45.8197L28.0974 60.7095L2.3187 45.8197L28.0974 30.93L53.8761 45.8197Z" fill="#D5D4D3" stroke="#222222" stroke-width="2" stroke-linecap="round" stroke-linejoin="round"/>
<path d="M53.8761 45.8197L28.0974 60.7095L2.3187 45.8197L28.0974 30.93L53.8761 45.8197Z" fill="#D5D4D3" stroke="#222222" stroke-width="2" stroke-linecap="round" stroke-linejoin="round"/>
<path d="M53.8762 16.0514L28.0975 30.9411L2.31878 16.0514L28.0975 1.16167L53.8762 16.0514Z" fill="white" stroke="#1074D5" stroke-width="2" stroke-linecap="round" stroke-linejoin="round"/>
<path d="M28.0974 30.9356V60.6989L2.3187 45.8092L2.3187 16.0458L28.0974 30.9356Z" fill="white" stroke="#3C2593" stroke-width="2" stroke-linecap="round" stroke-linejoin="round"/>
<path d="M53.8761 16.0458V45.8092L28.0974 60.6989V30.9356L53.8761 16.0458Z" fill="white" stroke="#C10648" stroke-width="2" stroke-linecap="round" stroke-linejoin="round"/>
<path d="M300.928 25.4787H303.756V28.076C304.633 26.9582 305.564 26.1582 306.551 25.6759C307.559 25.1937 308.611 24.9526 309.707 24.9526C311.636 24.9526 313.06 25.4896 313.981 26.5636C314.923 27.6157 315.395 29.15 315.395 31.1665V42.4764H312.534V31.7254C312.534 30.1473 312.238 29.0404 311.647 28.4048C311.077 27.7472 310.211 27.4185 309.049 27.4185C308.436 27.4185 307.811 27.528 307.175 27.7472C306.54 27.9664 305.97 28.3171 305.466 28.7993C304.918 29.2815 304.501 29.7966 304.216 30.3446C303.931 30.8706 303.789 31.561 303.789 32.4158V42.4764H300.928V25.4787Z" fill="#222222"/>
<path d="M292.954 25.4745H295.815V42.4721H292.954V25.4745ZM292.888 18.9976H295.815V22.3182H292.888V18.9976Z" fill="#222222"/>
<path d="M284.912 18.9976H287.772V42.4721H284.912V18.9976Z" fill="#222222"/>
<path d="M272.181 25.4698H275.008V28.1C275.644 27.1575 276.389 26.4342 277.244 25.9301C278.099 25.426 279.008 25.1739 279.973 25.1739C280.608 25.1739 281.112 25.2177 281.485 25.3054L281.123 27.9685C280.904 27.9246 280.685 27.8918 280.466 27.8699C280.247 27.826 280.006 27.8041 279.743 27.8041C279.217 27.8041 278.68 27.9027 278.132 28.1C277.606 28.2753 277.09 28.5822 276.586 29.0206C276.104 29.437 275.721 29.9192 275.436 30.4672C275.173 31.0151 275.041 31.6508 275.041 32.3741V42.4675H272.181V25.4698Z" fill="#222222"/>
<path d="M252.216 34.0926C252.216 32.1199 252.555 30.4541 253.235 29.0952C253.936 27.7363 254.89 26.7061 256.095 26.0047C257.301 25.3033 258.682 24.9526 260.238 24.9526C261.991 24.9526 263.416 25.3143 264.512 26.0376C265.608 26.739 266.419 27.7144 266.945 28.9637C267.471 30.213 267.734 31.6377 267.734 33.2378V34.6844H255.109C255.196 36.5255 255.668 37.9941 256.523 39.09C257.399 40.164 258.638 40.701 260.238 40.701C261.662 40.701 262.704 40.438 263.361 39.9119C264.041 39.364 264.49 38.6297 264.709 37.7091H267.471C267.186 39.3311 266.452 40.6243 265.268 41.5887C264.106 42.5312 262.43 43.0024 260.238 43.0024C257.673 43.0024 255.69 42.2133 254.287 40.6352C252.906 39.0571 252.216 36.8762 252.216 34.0926ZM255.832 29.8514C255.481 30.6624 255.262 31.561 255.175 32.5474H264.841C264.753 30.8158 264.38 29.4897 263.723 28.5692C263.087 27.6267 261.914 27.1554 260.205 27.1554C259.043 27.1554 258.112 27.3965 257.41 27.8787C256.709 28.3609 256.183 29.0185 255.832 29.8514Z" fill="#222222"/>
<path d="M231.737 18.9976H239.529C241.764 18.9976 243.474 19.2716 244.658 19.8195C245.863 20.3456 246.696 21.0689 247.156 21.9895C247.617 22.8881 247.847 23.8963 247.847 25.0142C247.847 26.0882 247.595 27.0526 247.09 27.9074C246.608 28.7622 245.753 29.4746 244.526 30.0444C246.104 30.6362 247.167 31.4363 247.715 32.4445C248.285 33.4527 248.57 34.5267 248.57 35.6665C248.57 36.9378 248.296 38.0885 247.748 39.1186C247.222 40.1488 246.345 40.9707 245.118 41.5844C243.89 42.1762 242.225 42.4721 240.12 42.4721H231.737V18.9976ZM245.545 35.7651C245.545 34.3843 245.129 33.3322 244.296 32.6089C243.485 31.8637 242.137 31.491 240.252 31.491H234.696V39.9734H240.022C241.468 39.9734 242.586 39.8091 243.375 39.4803C244.186 39.1296 244.745 38.6364 245.052 38.0008C245.381 37.3652 245.545 36.6199 245.545 35.7651ZM244.888 25.1128C244.888 23.8415 244.471 22.921 243.638 22.3511C242.827 21.7812 241.425 21.4963 239.43 21.4963H234.696V28.9266H239.923C241.677 28.9266 242.937 28.6088 243.704 27.9732C244.493 27.3156 244.888 26.3622 244.888 25.1128Z" fill="#222222"/>
<path d="M205.921 42.4721H203.094V18.9976H205.954V27.8416C206.656 26.9211 207.467 26.2087 208.387 25.7046C209.33 25.2005 210.415 24.9484 211.642 24.9484C213.264 24.9484 214.612 25.332 215.686 26.0991C216.76 26.8444 217.56 27.8855 218.086 29.2225C218.612 30.5595 218.875 32.1048 218.875 33.8582C218.875 35.7213 218.568 37.3432 217.955 38.7241C217.341 40.083 216.464 41.1351 215.324 41.8803C214.207 42.6256 212.87 42.9982 211.313 42.9982C210.349 42.9982 209.395 42.8009 208.453 42.4064C207.511 41.9899 206.667 41.2885 205.921 40.3022V42.4721ZM205.921 33.2993V34.45C205.921 36.6419 206.393 38.22 207.335 39.1844C208.278 40.1488 209.472 40.631 210.919 40.631C211.861 40.631 212.694 40.4118 213.417 39.9734C214.163 39.5351 214.755 38.8227 215.193 37.8364C215.631 36.8282 215.85 35.5131 215.85 33.8911C215.85 32.2253 215.62 30.9212 215.16 29.9787C214.7 29.0143 214.108 28.3348 213.385 27.9403C212.683 27.5238 211.938 27.3156 211.149 27.3156C209.68 27.3156 208.442 27.8197 207.434 28.828C206.426 29.8143 205.921 31.3047 205.921 33.2993Z" fill="#222222"/>
<path d="M183.913 36.7509V25.4739H186.773V36.192C186.773 37.7701 187.036 38.8879 187.562 39.5455C188.088 40.203 188.921 40.5318 190.061 40.5318C191.354 40.5318 192.505 40.0715 193.513 39.1509C194.061 38.6687 194.477 38.1646 194.762 37.6386C195.047 37.0906 195.19 36.3892 195.19 35.5344V25.4739H198.05V42.4716H195.222V39.8414C194.411 40.9373 193.513 41.7373 192.526 42.2414C191.562 42.7456 190.521 42.9976 189.403 42.9976C187.474 42.9976 186.072 42.4716 185.195 41.4195C184.34 40.3674 183.913 38.8112 183.913 36.7509Z" fill="#222222"/>
<path d="M175.522 31.7541H163.653V42.4721H160.629V18.9976H163.653V28.9266H175.522V18.9976H178.547V42.4721H175.522V31.7541Z" fill="#222222"/>
<path d="M132.815 37.7749C132.815 36.6132 133.056 35.6707 133.538 34.9474C134.042 34.2241 134.7 33.6542 135.511 33.2378C136.343 32.8213 137.275 32.5254 138.305 32.3501C139.357 32.1747 140.42 32.0651 141.494 32.0213L144.42 31.9227V31.2651C144.42 29.8185 144.114 28.7774 143.5 28.1418C142.886 27.5061 141.889 27.1883 140.508 27.1883C139.149 27.1883 138.152 27.4185 137.516 27.8787C136.88 28.3171 136.464 28.9308 136.267 29.7199L133.669 29.424C133.976 27.8678 134.711 26.739 135.872 26.0376C137.034 25.3143 138.612 24.9526 140.607 24.9526C143.061 24.9526 144.782 25.5225 145.768 26.6623C146.755 27.802 147.248 29.3911 147.248 31.4295V42.4764H144.486V40.1421C143.872 40.8873 143.094 41.5339 142.152 42.0818C141.209 42.6079 140.037 42.8709 138.634 42.8709C136.924 42.8709 135.522 42.4544 134.426 41.6215C133.352 40.7667 132.815 39.4845 132.815 37.7749ZM135.741 37.7091C135.741 38.5639 135.993 39.2544 136.497 39.7804C137.023 40.2845 137.878 40.5366 139.061 40.5366C140.661 40.5366 141.955 40.1421 142.941 39.353C143.927 38.5639 144.42 37.4023 144.42 35.868V33.9611L141.692 34.0597C140.157 34.1035 138.952 34.2789 138.075 34.5858C137.22 34.8707 136.617 35.2762 136.267 35.8022C135.916 36.3063 135.741 36.942 135.741 37.7091Z" fill="#222222"/>
<path d="M122.68 36.9413V27.7356H120.05V25.4671H122.68V20.8314H125.54V25.4671H130.044V27.7356H125.54V37.6975C125.54 38.5304 125.726 39.1989 126.099 39.703C126.472 40.2072 127.041 40.4592 127.809 40.4592C128.291 40.4592 128.718 40.4264 129.091 40.3606C129.463 40.2729 129.792 40.1853 130.077 40.0976L130.57 42.3004C130.132 42.4538 129.65 42.5744 129.124 42.662C128.62 42.7716 128.017 42.8264 127.315 42.8264C126.044 42.8264 125.069 42.5744 124.389 42.0702C123.732 41.5661 123.282 40.8757 123.041 39.9989C122.8 39.1003 122.68 38.0811 122.68 36.9413Z" fill="#222222"/>
<path d="M102.248 37.7749C102.248 36.6132 102.489 35.6707 102.971 34.9474C103.476 34.2241 104.133 33.6542 104.944 33.2378C105.777 32.8213 106.709 32.5254 107.739 32.3501C108.791 32.1747 109.854 32.0651 110.928 32.0213L113.854 31.9227V31.2651C113.854 29.8185 113.547 28.7774 112.933 28.1418C112.32 27.5061 111.322 27.1883 109.941 27.1883C108.583 27.1883 107.585 27.4185 106.95 27.8787C106.314 28.3171 105.898 28.9308 105.7 29.7199L103.103 29.424C103.41 27.8678 104.144 26.739 105.306 26.0376C106.467 25.3143 108.046 24.9526 110.04 24.9526C112.495 24.9526 114.216 25.5225 115.202 26.6623C116.188 27.802 116.681 29.3911 116.681 31.4295V42.4764H113.92V40.1421C113.306 40.8873 112.528 41.5339 111.585 42.0818C110.643 42.6079 109.47 42.8709 108.067 42.8709C106.358 42.8709 104.955 42.4544 103.859 41.6215C102.785 40.7667 102.248 39.4845 102.248 37.7749ZM105.174 37.7091C105.174 38.5639 105.426 39.2544 105.93 39.7804C106.456 40.2845 107.311 40.5366 108.495 40.5366C110.095 40.5366 111.388 40.1421 112.374 39.353C113.361 38.5639 113.854 37.4023 113.854 35.868V33.9611L111.125 34.0597C109.591 34.1035 108.385 34.2789 107.509 34.5858C106.654 34.8707 106.051 35.2762 105.7 35.8022C105.35 36.3063 105.174 36.942 105.174 37.7091Z" fill="#222222"/>
<path d="M79.6055 18.9976H87.8248C91.2222 18.9976 93.8852 19.951 95.8141 21.8579C97.7648 23.7648 98.7401 26.669 98.7401 30.5705C98.7401 34.5158 97.6881 37.4857 95.5839 39.4803C93.5017 41.4749 90.6633 42.4721 87.0687 42.4721H79.6055V18.9976ZM95.5839 30.6362C95.5839 27.7649 94.9702 25.5402 93.7428 23.9621C92.5373 22.384 90.5646 21.5949 87.8248 21.5949H82.6302V39.8419H87.2002C90.1153 39.8419 92.2414 39.031 93.5784 37.409C94.9154 35.7651 95.5839 33.5075 95.5839 30.6362Z" fill="#222222"/>
</svg>
