<svg width="205" height="140" viewBox="0 0 205 140" fill="none" xmlns="http://www.w3.org/2000/svg">
<g clip-path="url(#clip0_74_310)">
<path d="M169.122 79.3167L135.87 98.523L102.618 79.3167L135.87 60.1104L169.122 79.3167Z" fill="#9185BE" stroke="#141414" stroke-width="4" stroke-linecap="round" stroke-linejoin="round"/>
<path d="M169.122 79.3167L135.87 98.523L102.618 79.3167L135.87 60.1104L169.122 79.3167Z" fill="#9185BE" stroke="#141414" stroke-width="4" stroke-linecap="round" stroke-linejoin="round"/>
<path d="M169.122 40.8975L135.87 60.1038L102.618 40.8975L135.87 21.6912L169.122 40.8975Z" fill="#9185BE" stroke="#141414" stroke-width="4" stroke-linecap="round" stroke-linejoin="round"/>
<path d="M135.87 60.101V98.4928L102.618 79.2865V40.8947L135.87 60.101Z" fill="#141414" stroke="#141414" stroke-width="4" stroke-linecap="round" stroke-linejoin="round"/>
<path d="M169.122 40.8947V79.2865L135.87 98.4928V60.101L169.122 40.8947Z" fill="#9185BE" stroke="#141414" stroke-width="4" stroke-linecap="round" stroke-linejoin="round"/>
<path d="M69.3449 98.8323L36.0928 118.039L2.8407 98.8323L36.0928 79.626L69.3449 98.8323Z" fill="#F5B4CB" stroke="#141414" stroke-width="4" stroke-linecap="round" stroke-linejoin="round"/>
<path d="M69.3449 98.8323L36.0928 118.039L2.8407 98.8323L36.0928 79.626L69.3449 98.8323Z" fill="#F5B4CB" stroke="#141414" stroke-width="4" stroke-linecap="round" stroke-linejoin="round"/>
<path d="M69.3449 60.4314L36.0928 79.6377L2.8407 60.4314L36.0928 41.2251L69.3449 60.4314Z" fill="#F5B4CB" stroke="#141414" stroke-width="4" stroke-linecap="round" stroke-linejoin="round"/>
<path d="M36.0928 79.6349V118.027L2.8407 98.8204V60.4286L36.0928 79.6349Z" fill="#F5B4CB" stroke="#141414" stroke-width="4" stroke-linecap="round" stroke-linejoin="round"/>
<path d="M69.3448 60.4286V98.8204L36.0927 118.027V79.6349L69.3448 60.4286Z" fill="#141414" stroke="#141414" stroke-width="4" stroke-linecap="round" stroke-linejoin="round"/>
<path d="M135.849 98.8506L102.597 118.057L69.3448 98.8506L102.597 79.6443L135.849 98.8506Z" fill="#AAC9E7" stroke="#141414" stroke-width="4" stroke-linecap="round" stroke-linejoin="round"/>
<path d="M135.849 98.8506L102.597 118.057L69.3448 98.8506L102.597 79.6443L135.849 98.8506Z" fill="#AAC9E7" stroke="#141414" stroke-width="4" stroke-linecap="round" stroke-linejoin="round"/>
<path d="M135.849 60.4314L102.597 79.6377L69.3448 60.4314L102.597 41.2251L135.849 60.4314Z" fill="#AAC9E7" stroke="#141414" stroke-width="4" stroke-linecap="round" stroke-linejoin="round"/>
<path d="M102.597 79.6349V118.027L69.3448 98.8204V60.4286L102.597 79.6349Z" fill="#141414" stroke="#141414" stroke-width="4" stroke-linecap="round" stroke-linejoin="round"/>
<path d="M135.849 60.4286V98.8204L102.597 118.027V79.6349L135.849 60.4286Z" fill="#AAC9E7" stroke="#141414" stroke-width="4" stroke-linecap="round" stroke-linejoin="round"/>
<path d="M202.374 98.512L169.122 117.718L135.87 98.512L169.122 79.3057L202.374 98.512Z" fill="#AAC9E7" stroke="#141414" stroke-width="4" stroke-linecap="round" stroke-linejoin="round"/>
<path d="M202.374 98.512L169.122 117.718L135.87 98.512L169.122 79.3057L202.374 98.512Z" fill="#AAC9E7" stroke="#141414" stroke-width="4" stroke-linecap="round" stroke-linejoin="round"/>
<path d="M202.374 60.1111L169.122 79.3174L135.87 60.1111L169.122 40.9048L202.374 60.1111Z" fill="#AAC9E7" stroke="#141414" stroke-width="4" stroke-linecap="round" stroke-linejoin="round"/>
<path d="M169.122 79.3146V117.706L135.87 98.5001V60.1083L169.122 79.3146Z" fill="#AAC9E7" stroke="#141414" stroke-width="4" stroke-linecap="round" stroke-linejoin="round"/>
<path d="M202.374 60.1083V98.5001L169.122 117.706V79.3146L202.374 60.1083Z" fill="#AAC9E7" stroke="#141414" stroke-width="4" stroke-linecap="round" stroke-linejoin="round"/>
<path d="M135.376 60.1153L102.124 79.3216L68.8721 60.1153L102.124 40.9089L135.376 60.1153Z" fill="#9185BE" stroke="#141414" stroke-width="4" stroke-linecap="round" stroke-linejoin="round"/>
<path d="M135.376 60.1153L102.124 79.3216L68.8721 60.1153L102.124 40.9089L135.376 60.1153Z" fill="#9185BE" stroke="#141414" stroke-width="4" stroke-linecap="round" stroke-linejoin="round"/>
<path d="M135.376 21.7144L102.124 40.9207L68.8721 21.7144L102.124 2.50806L135.376 21.7144Z" fill="#9185BE" stroke="#141414" stroke-width="4" stroke-linecap="round" stroke-linejoin="round"/>
<path d="M102.124 40.9179V79.3097L68.8721 60.1034V21.7115L102.124 40.9179Z" fill="#9185BE" stroke="#141414" stroke-width="4" stroke-linecap="round" stroke-linejoin="round"/>
<path d="M135.376 21.7115V60.1034L102.124 79.3097V40.9179L135.376 21.7115Z" fill="#9185BE" stroke="#141414" stroke-width="4" stroke-linecap="round" stroke-linejoin="round"/>
<path d="M102.597 118.053L69.3448 137.259L36.0927 118.053L69.3448 98.8467L102.597 118.053Z" fill="#F5B4CB" stroke="#141414" stroke-width="4" stroke-linecap="round" stroke-linejoin="round"/>
<path d="M102.597 118.053L69.3448 137.259L36.0927 118.053L69.3448 98.8467L102.597 118.053Z" fill="#F5B4CB" stroke="#141414" stroke-width="4" stroke-linecap="round" stroke-linejoin="round"/>
<path d="M102.597 79.6521L69.3448 98.8584L36.0927 79.6521L69.3448 60.4458L102.597 79.6521Z" fill="#F5B4CB" stroke="#141414" stroke-width="4" stroke-linecap="round" stroke-linejoin="round"/>
<path d="M69.3448 98.8556V137.247L36.0927 118.041V79.6493L69.3448 98.8556Z" fill="#F5B4CB" stroke="#141414" stroke-width="4" stroke-linecap="round" stroke-linejoin="round"/>
<path d="M102.597 79.6493V118.041L69.3446 137.247V98.8556L102.597 79.6493Z" fill="#F5B4CB" stroke="#141414" stroke-width="4" stroke-linecap="round" stroke-linejoin="round"/>
</g>
<defs>
<clipPath id="clip0_74_310">
<rect width="205" height="139" fill="white" transform="translate(0 0.335938)"/>
</clipPath>
</defs>
</svg>
