<svg width="139" height="140" viewBox="0 0 139 140" fill="none" xmlns="http://www.w3.org/2000/svg">
<path d="M135.795 98.5916L102.543 117.798L69.2913 98.5916L102.543 79.3853L135.795 98.5916Z" fill="#AAC9E7" stroke="#141414" stroke-width="4" stroke-linecap="round" stroke-linejoin="round"/>
<path d="M135.795 98.5916L102.543 117.798L69.2913 98.5916L102.543 79.3853L135.795 98.5916Z" fill="#AAC9E7" stroke="#141414" stroke-width="4" stroke-linecap="round" stroke-linejoin="round"/>
<path d="M135.795 60.1907L102.543 79.397L69.2913 60.1907L102.543 40.9844L135.795 60.1907Z" fill="#AAC9E7" stroke="#141414" stroke-width="4" stroke-linecap="round" stroke-linejoin="round"/>
<path d="M102.543 79.3942V117.786L69.2913 98.5797V60.1879L102.543 79.3942Z" fill="#AAC9E7" stroke="#141414" stroke-width="4" stroke-linecap="round" stroke-linejoin="round"/>
<path d="M135.795 60.1879V98.5797L102.543 117.786V79.3942L135.795 60.1879Z" fill="#AAC9E7" stroke="#141414" stroke-width="4" stroke-linecap="round" stroke-linejoin="round"/>
<path d="M69.2913 98.5838L36.0392 117.79L2.78711 98.5838L36.0392 79.3774L69.2913 98.5838Z" fill="#9185BE" stroke="#141414" stroke-width="4" stroke-linecap="round" stroke-linejoin="round"/>
<path d="M69.2913 98.5838L36.0392 117.79L2.78711 98.5838L36.0392 79.3774L69.2913 98.5838Z" fill="#9185BE" stroke="#141414" stroke-width="4" stroke-linecap="round" stroke-linejoin="round"/>
<path d="M69.2913 60.1829L36.0392 79.3892L2.78711 60.1829L36.0392 40.9766L69.2913 60.1829Z" fill="#9185BE" stroke="#141414" stroke-width="4" stroke-linecap="round" stroke-linejoin="round"/>
<path d="M36.0392 79.3864V117.778L2.78711 98.5719V60.1801L36.0392 79.3864Z" fill="#9185BE" stroke="#141414" stroke-width="4" stroke-linecap="round" stroke-linejoin="round"/>
<path d="M69.2912 60.1801V98.5719L36.0391 117.778V79.3864L69.2912 60.1801Z" fill="#9185BE" stroke="#141414" stroke-width="4" stroke-linecap="round" stroke-linejoin="round"/>
<path d="M102.543 117.771L69.2912 136.978L36.0391 117.771L69.2912 98.5649L102.543 117.771Z" fill="#9185BE" stroke="#141414" stroke-width="4" stroke-linecap="round" stroke-linejoin="round"/>
<path d="M102.543 117.771L69.2912 136.978L36.0391 117.771L69.2912 98.5649L102.543 117.771Z" fill="#9185BE" stroke="#141414" stroke-width="4" stroke-linecap="round" stroke-linejoin="round"/>
<path d="M102.543 79.3704L69.2912 98.5767L36.0391 79.3704L69.2912 60.1641L102.543 79.3704Z" fill="#9185BE" stroke="#141414" stroke-width="4" stroke-linecap="round" stroke-linejoin="round"/>
<path d="M69.2912 98.5739V136.966L36.0391 117.759V79.3676L69.2912 98.5739Z" fill="#9185BE" stroke="#141414" stroke-width="4" stroke-linecap="round" stroke-linejoin="round"/>
<path d="M102.543 79.3676V117.759L69.291 136.966V98.5739L102.543 79.3676Z" fill="#9185BE" stroke="#141414" stroke-width="4" stroke-linecap="round" stroke-linejoin="round"/>
<path d="M135.795 60.1619L102.543 79.3682L69.2913 60.1619L102.543 40.9556L135.795 60.1619Z" fill="#AAC9E7" stroke="#141414" stroke-width="4" stroke-linecap="round" stroke-linejoin="round"/>
<path d="M135.795 60.1619L102.543 79.3682L69.2913 60.1619L102.543 40.9556L135.795 60.1619Z" fill="#AAC9E7" stroke="#141414" stroke-width="4" stroke-linecap="round" stroke-linejoin="round"/>
<path d="M135.795 21.761L102.543 40.9673L69.2913 21.761L102.543 2.55469L135.795 21.761Z" fill="#AAC9E7" stroke="#141414" stroke-width="4" stroke-linecap="round" stroke-linejoin="round"/>
<path d="M102.543 40.9645V79.3563L69.2913 60.15V21.7582L102.543 40.9645Z" fill="#AAC9E7" stroke="#141414" stroke-width="4" stroke-linecap="round" stroke-linejoin="round"/>
<path d="M135.795 21.7582V60.15L102.543 79.3563V40.9645L135.795 21.7582Z" fill="#AAC9E7" stroke="#141414" stroke-width="4" stroke-linecap="round" stroke-linejoin="round"/>
</svg>
