<svg width="105" height="179" viewBox="0 0 105 179" fill="none" xmlns="http://www.w3.org/2000/svg">
<path d="M68.9791 156.037L35.727 175.243L2.47485 156.037L35.727 136.831L68.9791 156.037Z" fill="#9185BE" stroke="#141414" stroke-width="4" stroke-linecap="round" stroke-linejoin="round"/>
<path d="M68.9791 156.037L35.727 175.243L2.47485 156.037L35.727 136.831L68.9791 156.037Z" fill="#9185BE" stroke="#141414" stroke-width="4" stroke-linecap="round" stroke-linejoin="round"/>
<path d="M68.9791 117.636L35.727 136.842L2.47485 117.636L35.727 98.4297L68.9791 117.636Z" fill="#9185BE" stroke="#141414" stroke-width="4" stroke-linecap="round" stroke-linejoin="round"/>
<path d="M35.727 136.84V175.231L2.47485 156.025V117.633L35.727 136.84Z" fill="#9185BE" stroke="#141414" stroke-width="4" stroke-linecap="round" stroke-linejoin="round"/>
<path d="M68.9789 117.633V156.025L35.7268 175.231V136.84L68.9789 117.633Z" fill="#9185BE" stroke="#141414" stroke-width="4" stroke-linecap="round" stroke-linejoin="round"/>
<path d="M102.231 98.4353L68.9792 117.642L35.7271 98.4353L68.9792 79.229L102.231 98.4353Z" fill="#9185BE" stroke="#141414" stroke-width="4" stroke-linecap="round" stroke-linejoin="round"/>
<path d="M102.231 98.4353L68.9792 117.642L35.7271 98.4353L68.9792 79.229L102.231 98.4353Z" fill="#9185BE" stroke="#141414" stroke-width="4" stroke-linecap="round" stroke-linejoin="round"/>
<path d="M102.231 60.0344L68.9792 79.2408L35.7271 60.0344L68.9792 40.8281L102.231 60.0344Z" fill="#9185BE" stroke="#141414" stroke-width="4" stroke-linecap="round" stroke-linejoin="round"/>
<path d="M68.9792 79.2379V117.63L35.7271 98.4235V60.0316L68.9792 79.2379Z" fill="#9185BE" stroke="#141414" stroke-width="4" stroke-linecap="round" stroke-linejoin="round"/>
<path d="M102.231 60.0316V98.4235L68.979 117.63V79.2379L102.231 60.0316Z" fill="#9185BE" stroke="#141414" stroke-width="4" stroke-linecap="round" stroke-linejoin="round"/>
<path d="M102.231 60.0135L68.9792 79.2198L35.7271 60.0135L68.9792 40.8071L102.231 60.0135Z" fill="#AAC9E7" stroke="#141414" stroke-width="4" stroke-linecap="round" stroke-linejoin="round"/>
<path d="M102.231 60.0135L68.9792 79.2198L35.7271 60.0135L68.9792 40.8071L102.231 60.0135Z" fill="#AAC9E7" stroke="#141414" stroke-width="4" stroke-linecap="round" stroke-linejoin="round"/>
<path d="M102.231 21.6126L68.9792 40.8189L35.7271 21.6126L68.9792 2.40625L102.231 21.6126Z" fill="#AAC9E7" stroke="#141414" stroke-width="4" stroke-linecap="round" stroke-linejoin="round"/>
<path d="M68.9792 40.8161V79.2079L35.7271 60.0016V21.6097L68.9792 40.8161Z" fill="#AAC9E7" stroke="#141414" stroke-width="4" stroke-linecap="round" stroke-linejoin="round"/>
<path d="M102.231 21.6097V60.0016L68.979 79.2079V40.8161L102.231 21.6097Z" fill="#AAC9E7" stroke="#141414" stroke-width="4" stroke-linecap="round" stroke-linejoin="round"/>
<path d="M68.9791 117.623L35.727 136.829L2.47485 117.623L35.727 98.4165L68.9791 117.623Z" fill="#F5B4CB" stroke="#141414" stroke-width="4" stroke-linecap="round" stroke-linejoin="round"/>
<path d="M68.9791 117.623L35.727 136.829L2.47485 117.623L35.727 98.4165L68.9791 117.623Z" fill="#F5B4CB" stroke="#141414" stroke-width="4" stroke-linecap="round" stroke-linejoin="round"/>
<path d="M68.9791 79.2219L35.727 98.4283L2.47485 79.2219L35.727 60.0156L68.9791 79.2219Z" fill="#F5B4CB" stroke="#141414" stroke-width="4" stroke-linecap="round" stroke-linejoin="round"/>
<path d="M35.727 98.4254V136.817L2.47485 117.611V79.2191L35.727 98.4254Z" fill="#F5B4CB" stroke="#141414" stroke-width="4" stroke-linecap="round" stroke-linejoin="round"/>
<path d="M68.9789 79.2191V117.611L35.7268 136.817V98.4254L68.9789 79.2191Z" fill="#F5B4CB" stroke="#141414" stroke-width="4" stroke-linecap="round" stroke-linejoin="round"/>
</svg>
