<svg width="105" height="121" viewBox="0 0 105 121" fill="none" xmlns="http://www.w3.org/2000/svg">
<g clip-path="url(#clip0_74_279)">
<path d="M69.3447 79.6541L36.0926 98.8604L2.84052 79.6541L36.0926 60.4478L69.3447 79.6541Z" fill="#9185BE" stroke="#141414" stroke-width="4" stroke-linecap="round" stroke-linejoin="round"/>
<path d="M69.3447 79.6541L36.0926 98.8604L2.84052 79.6541L36.0926 60.4478L69.3447 79.6541Z" fill="#9185BE" stroke="#141414" stroke-width="4" stroke-linecap="round" stroke-linejoin="round"/>
<path d="M69.3447 41.2532L36.0926 60.4595L2.84052 41.2532L36.0926 22.0469L69.3447 41.2532Z" fill="#9185BE" stroke="#141414" stroke-width="4" stroke-linecap="round" stroke-linejoin="round"/>
<path d="M36.0926 60.4567V98.8485L2.84052 79.6422V41.2504L36.0926 60.4567Z" fill="#9185BE" stroke="#141414" stroke-width="4" stroke-linecap="round" stroke-linejoin="round"/>
<path d="M69.3446 41.2504V79.6422L36.0925 98.8485V60.4567L69.3446 41.2504Z" fill="#9185BE" stroke="#141414" stroke-width="4" stroke-linecap="round" stroke-linejoin="round"/>
<path d="M102.597 98.8889L69.3448 118.095L36.0927 98.8889L69.3448 79.6826L102.597 98.8889Z" fill="#F5B4CB" stroke="#141414" stroke-width="4" stroke-linecap="round" stroke-linejoin="round"/>
<path d="M102.597 98.8889L69.3448 118.095L36.0927 98.8889L69.3448 79.6826L102.597 98.8889Z" fill="#F5B4CB" stroke="#141414" stroke-width="4" stroke-linecap="round" stroke-linejoin="round"/>
<path d="M102.597 60.4881L69.3448 79.6944L36.0927 60.4881L69.3448 41.2817L102.597 60.4881Z" fill="#F5B4CB" stroke="#141414" stroke-width="4" stroke-linecap="round" stroke-linejoin="round"/>
<path d="M69.3448 79.6916V118.083L36.0927 98.8771V60.4852L69.3448 79.6916Z" fill="#F5B4CB" stroke="#141414" stroke-width="4" stroke-linecap="round" stroke-linejoin="round"/>
<path d="M102.597 60.4852V98.8771L69.3446 118.083V79.6916L102.597 60.4852Z" fill="#F5B4CB" stroke="#141414" stroke-width="4" stroke-linecap="round" stroke-linejoin="round"/>
<path d="M102.597 60.4707L69.3449 79.6771L36.0928 60.4707L69.3449 41.2644L102.597 60.4707Z" fill="#AAC9E7" stroke="#141414" stroke-width="4" stroke-linecap="round" stroke-linejoin="round"/>
<path d="M102.597 60.4707L69.3449 79.6771L36.0928 60.4707L69.3449 41.2644L102.597 60.4707Z" fill="#AAC9E7" stroke="#141414" stroke-width="4" stroke-linecap="round" stroke-linejoin="round"/>
<path d="M102.597 22.0515L69.3449 41.2579L36.0928 22.0515L69.3449 2.84521L102.597 22.0515Z" fill="#AAC9E7" stroke="#141414" stroke-width="4" stroke-linecap="round" stroke-linejoin="round"/>
<path d="M69.3449 41.255V79.6469L36.0928 60.4405V22.0487L69.3449 41.255Z" fill="#AAC9E7" stroke="#141414" stroke-width="4" stroke-linecap="round" stroke-linejoin="round"/>
<path d="M102.597 22.0487V60.4405L69.3447 79.6469V41.255L102.597 22.0487Z" fill="#AAC9E7" stroke="#141414" stroke-width="4" stroke-linecap="round" stroke-linejoin="round"/>
</g>
<defs>
<clipPath id="clip0_74_279">
<rect width="105" height="120" fill="white" transform="translate(0 0.835938)"/>
</clipPath>
</defs>
</svg>
