<svg width="1512" height="804" viewBox="0 0 1512 804" fill="none" xmlns="http://www.w3.org/2000/svg">
<g clip-path="url(#clip0_0_1)">
<path d="M770.246 230.427L728.784 271.904L672.138 256.715L713.6 215.237L770.246 230.427Z" fill="#D5D4D3" stroke="#222222" stroke-width="4" stroke-linecap="round" stroke-linejoin="round"/>
<path d="M770.246 230.427L728.784 271.904L672.138 256.715L713.6 215.237L770.246 230.427Z" fill="#D5D4D3" stroke="#222222" stroke-width="4" stroke-linecap="round" stroke-linejoin="round"/>
<path d="M755.068 173.781L713.606 215.258L656.96 200.069L698.422 158.592L755.068 173.781Z" fill="#AAC9E7" stroke="#222222" stroke-width="4" stroke-linecap="round" stroke-linejoin="round"/>
<path d="M713.603 215.248L728.779 271.884L672.133 256.694L656.957 200.059L713.603 215.248Z" fill="#AAC9E7" stroke="#222222" stroke-width="4" stroke-linecap="round" stroke-linejoin="round"/>
<path d="M755.065 173.771L770.24 230.407L728.778 271.884L713.603 215.248L755.065 173.771Z" fill="#AAC9E7" stroke="#222222" stroke-width="4" stroke-linecap="round" stroke-linejoin="round"/>
</g>
<g clip-path="url(#clip1_0_1)">
<path d="M550.077 631.258L483.991 648.979L435.619 600.589L501.705 582.868L550.077 631.258Z" fill="#D5D4D3" stroke="#222222" stroke-width="4" stroke-linecap="round" stroke-linejoin="round"/>
<path d="M550.077 631.258L483.991 648.979L435.619 600.589L501.705 582.868L550.077 631.258Z" fill="#D5D4D3" stroke="#222222" stroke-width="4" stroke-linecap="round" stroke-linejoin="round"/>
<path d="M567.785 565.172L501.698 582.893L453.326 534.503L519.413 516.782L567.785 565.172Z" fill="#9185BE" stroke="#222222" stroke-width="4" stroke-linecap="round" stroke-linejoin="round"/>
<path d="M501.702 582.88L483.997 648.956L435.625 600.566L453.33 534.49L501.702 582.88Z" fill="#9185BE" stroke="#222222" stroke-width="4" stroke-linecap="round" stroke-linejoin="round"/>
<path d="M567.788 565.16L550.084 631.235L483.997 648.956L501.702 582.88L567.788 565.16Z" fill="#9185BE" stroke="#222222" stroke-width="4" stroke-linecap="round" stroke-linejoin="round"/>
</g>
<g clip-path="url(#clip2_0_1)">
<path d="M1565.99 623.807L1396.67 764.158L1190.49 687.624L1359.81 547.272L1565.99 623.807Z" fill="#D5D4D3" stroke="#222222" stroke-width="4" stroke-linecap="round" stroke-linejoin="round"/>
<path d="M1565.99 623.807L1396.67 764.158L1190.49 687.624L1359.81 547.272L1565.99 623.807Z" fill="#D5D4D3" stroke="#222222" stroke-width="4" stroke-linecap="round" stroke-linejoin="round"/>
<path d="M1529.14 407.002L1359.83 547.353L1153.65 470.819L1322.96 330.467L1529.14 407.002Z" fill="#AAC9E7" stroke="#222222" stroke-width="4" stroke-linecap="round" stroke-linejoin="round"/>
<path d="M1359.82 547.313L1396.66 764.081L1190.48 687.547L1153.64 470.778L1359.82 547.313Z" fill="#AAC9E7" stroke="#222222" stroke-width="4" stroke-linecap="round" stroke-linejoin="round"/>
<path d="M1529.14 406.961L1565.98 623.729L1396.66 764.08L1359.82 547.312L1529.14 406.961Z" fill="#AAC9E7" stroke="#222222" stroke-width="4" stroke-linecap="round" stroke-linejoin="round"/>
</g>
<g clip-path="url(#clip3_0_1)">
<path d="M335.156 239.963L155.488 419.697L-89.9758 353.876L89.692 174.142L335.156 239.963Z" fill="#D5D4D3" stroke="#222222" stroke-width="4" stroke-linecap="round" stroke-linejoin="round"/>
<path d="M335.156 239.963L155.488 419.697L-89.9758 353.876L89.692 174.142L335.156 239.963Z" fill="#D5D4D3" stroke="#222222" stroke-width="4" stroke-linecap="round" stroke-linejoin="round"/>
<path d="M269.384 -5.50095L89.7161 174.233L-155.748 108.413L23.9198 -71.3216L269.384 -5.50095Z" fill="#9185BE" stroke="#222222" stroke-width="4" stroke-linecap="round" stroke-linejoin="round"/>
<path d="M89.7042 174.188L155.465 419.609L-89.9992 353.789L-155.76 108.367L89.7042 174.188Z" fill="#9185BE" stroke="#222222" stroke-width="4" stroke-linecap="round" stroke-linejoin="round"/>
<path d="M269.375 -5.54752L335.136 239.874L155.468 419.609L89.7073 174.187L269.375 -5.54752Z" fill="#9185BE" stroke="#222222" stroke-width="4" stroke-linecap="round" stroke-linejoin="round"/>
</g>
<g clip-path="url(#clip4_0_1)">
<path d="M1119.81 186.794L1092.26 196.828L1069.8 177.975L1097.35 167.941L1119.81 186.794Z" fill="#D5D4D3" stroke="#222222" stroke-width="2" stroke-linecap="round" stroke-linejoin="round"/>
<path d="M1119.81 186.794L1092.26 196.828L1069.8 177.975L1097.35 167.941L1119.81 186.794Z" fill="#D5D4D3" stroke="#222222" stroke-width="2" stroke-linecap="round" stroke-linejoin="round"/>
<path d="M1124.9 157.917L1097.35 167.952L1074.89 149.099L1102.44 139.065L1124.9 157.917Z" fill="#F5B4CB" stroke="#222222" stroke-width="2" stroke-linecap="round" stroke-linejoin="round"/>
<path d="M1097.35 167.946L1092.26 196.818L1069.8 177.965L1074.89 149.094L1097.35 167.946Z" fill="#F5B4CB" stroke="#222222" stroke-width="2" stroke-linecap="round" stroke-linejoin="round"/>
<path d="M1124.9 157.912L1119.81 186.784L1092.26 196.818L1097.35 167.946L1124.9 157.912Z" fill="#F5B4CB" stroke="#222222" stroke-width="2" stroke-linecap="round" stroke-linejoin="round"/>
</g>
<g clip-path="url(#clip5_0_1)">
<path d="M342.281 711.228L219.553 782.115L96.8248 711.228L219.553 640.34L342.281 711.228Z" fill="#D5D4D3" stroke="#222222" stroke-width="4" stroke-linecap="round" stroke-linejoin="round"/>
<path d="M342.281 711.228L219.553 782.115L96.8248 711.228L219.553 640.34L342.281 711.228Z" fill="#D5D4D3" stroke="#222222" stroke-width="4" stroke-linecap="round" stroke-linejoin="round"/>
<path d="M342.281 569.505L219.553 640.393L96.8245 569.505L219.553 498.618L342.281 569.505Z" fill="#F5B4CB" stroke="#222222" stroke-width="4" stroke-linecap="round" stroke-linejoin="round"/>
<path d="M219.553 640.366V782.065L96.8248 711.177V569.479L219.553 640.366Z" fill="#F5B4CB" stroke="#222222" stroke-width="4" stroke-linecap="round" stroke-linejoin="round"/>
<path d="M342.281 569.479V711.177L219.553 782.065V640.366L342.281 569.479Z" fill="#F5B4CB" stroke="#222222" stroke-width="4" stroke-linecap="round" stroke-linejoin="round"/>
</g>
<defs>
<clipPath id="clip0_0_1">
<rect width="104.4" height="120" fill="white" transform="translate(648.086 171.129) rotate(-15)"/>
</clipPath>
<clipPath id="clip1_0_1">
<rect width="121.8" height="140" fill="white" transform="translate(461.242 500.086) rotate(15)"/>
</clipPath>
<clipPath id="clip2_0_1">
<rect width="391.5" height="450" fill="white" transform="translate(1130.64 359.66) rotate(-9.64547)"/>
</clipPath>
<clipPath id="clip3_0_1">
<rect width="452.4" height="520" fill="white" transform="translate(-194.203 -16.9962) rotate(-15)"/>
</clipPath>
<clipPath id="clip4_0_1">
<rect width="67.5377" height="69.1601" fill="white" transform="translate(1070.01 128.081) rotate(10)"/>
</clipPath>
<clipPath id="clip5_0_1">
<rect width="252.3" height="290" fill="white" transform="translate(94.2109 496.398)"/>
</clipPath>
</defs>
</svg>
