<svg width="1513" height="860" viewBox="0 0 1513 860" fill="none" xmlns="http://www.w3.org/2000/svg">
<g clip-path="url(#clip0_0_1)">
<path d="M794.021 253.167L752.559 294.644L695.914 279.454L737.376 237.977L794.021 253.167Z" fill="#AAC9E7" stroke="#141414" stroke-width="6" stroke-linecap="round" stroke-linejoin="round"/>
<path d="M794.021 253.167L752.559 294.644L695.914 279.454L737.376 237.977L794.021 253.167Z" fill="#AAC9E7" stroke="#141414" stroke-width="6" stroke-linecap="round" stroke-linejoin="round"/>
<path d="M778.843 196.521L737.381 237.998L680.736 222.809L722.198 181.332L778.843 196.521Z" fill="#AAC9E7" stroke="#141414" stroke-width="6" stroke-linecap="round" stroke-linejoin="round"/>
<path d="M737.378 237.987L752.554 294.623L695.908 279.434L680.733 222.798L737.378 237.987Z" fill="#AAC9E7" stroke="#141414" stroke-width="6" stroke-linecap="round" stroke-linejoin="round"/>
<path d="M778.84 196.51L794.016 253.146L752.554 294.623L737.378 237.988L778.84 196.51Z" fill="#AAC9E7" stroke="#141414" stroke-width="6" stroke-linecap="round" stroke-linejoin="round"/>
</g>
<g clip-path="url(#clip1_0_1)">
<path d="M573.853 634L507.766 651.721L459.394 603.331L525.481 585.61L573.853 634Z" fill="#9185BE" stroke="#141414" stroke-width="6" stroke-linecap="round" stroke-linejoin="round"/>
<path d="M573.853 634L507.766 651.721L459.394 603.331L525.481 585.61L573.853 634Z" fill="#9185BE" stroke="#141414" stroke-width="6" stroke-linecap="round" stroke-linejoin="round"/>
<path d="M591.56 567.914L525.474 585.635L477.102 537.245L543.188 519.524L591.56 567.914Z" fill="#9185BE" stroke="#141414" stroke-width="6" stroke-linecap="round" stroke-linejoin="round"/>
<path d="M525.477 585.622L507.773 651.698L459.401 603.308L477.105 537.232L525.477 585.622Z" fill="#9185BE" stroke="#141414" stroke-width="6" stroke-linecap="round" stroke-linejoin="round"/>
<path d="M591.564 567.903L573.859 633.978L507.773 651.699L525.477 585.624L591.564 567.903Z" fill="#9185BE" stroke="#141414" stroke-width="6" stroke-linecap="round" stroke-linejoin="round"/>
</g>
<g clip-path="url(#clip2_0_1)">
<path d="M1569.77 646.546L1400.45 786.897L1194.27 710.363L1363.59 570.011L1569.77 646.546Z" fill="#AAC9E7" stroke="#141414" stroke-width="6" stroke-linecap="round" stroke-linejoin="round"/>
<path d="M1569.77 646.546L1400.45 786.897L1194.27 710.363L1363.59 570.011L1569.77 646.546Z" fill="#AAC9E7" stroke="#141414" stroke-width="6" stroke-linecap="round" stroke-linejoin="round"/>
<path d="M1532.92 429.741L1363.6 570.092L1157.42 493.558L1326.74 353.207L1532.92 429.741Z" fill="#AAC9E7" stroke="#141414" stroke-width="6" stroke-linecap="round" stroke-linejoin="round"/>
<path d="M1363.59 570.052L1400.43 786.82L1194.26 710.286L1157.42 493.518L1363.59 570.052Z" fill="#AAC9E7" stroke="#141414" stroke-width="6" stroke-linecap="round" stroke-linejoin="round"/>
<path d="M1532.91 429.701L1569.75 646.469L1400.44 786.82L1363.6 570.052L1532.91 429.701Z" fill="#AAC9E7" stroke="#141414" stroke-width="6" stroke-linecap="round" stroke-linejoin="round"/>
</g>
<g clip-path="url(#clip3_0_1)">
<path d="M358.931 262.7L179.264 442.434L-66.2004 376.613L113.467 196.879L358.931 262.7Z" fill="#9185BE" stroke="#141414" stroke-width="6" stroke-linecap="round" stroke-linejoin="round"/>
<path d="M358.931 262.7L179.264 442.434L-66.2004 376.613L113.467 196.879L358.931 262.7Z" fill="#9185BE" stroke="#141414" stroke-width="6" stroke-linecap="round" stroke-linejoin="round"/>
<path d="M293.159 17.2368L113.491 196.971L-131.973 131.151L47.6952 -48.5838L293.159 17.2368Z" fill="#9185BE" stroke="#141414" stroke-width="6" stroke-linecap="round" stroke-linejoin="round"/>
<path d="M113.48 196.925L179.24 442.347L-66.2239 376.526L-131.984 131.104L113.48 196.925Z" fill="#9185BE" stroke="#141414" stroke-width="6" stroke-linecap="round" stroke-linejoin="round"/>
<path d="M293.15 17.1906L358.911 262.612L179.243 442.347L113.483 196.925L293.15 17.1906Z" fill="#9185BE" stroke="#141414" stroke-width="6" stroke-linecap="round" stroke-linejoin="round"/>
</g>
<g clip-path="url(#clip4_0_1)">
<path d="M1143.59 209.531L1116.03 219.565L1093.57 200.712L1121.13 190.678L1143.59 209.531Z" fill="#F5B4CB" stroke="#141414" style="stroke-width:4" stroke-linecap="round" stroke-linejoin="round"/>
<path d="M1143.59 209.531L1116.03 219.565L1093.57 200.712L1121.13 190.678L1143.59 209.531Z" fill="#F5B4CB" stroke="#141414" style="stroke-width:4" stroke-linecap="round" stroke-linejoin="round"/>
<path d="M1148.68 180.655L1121.13 190.689L1098.67 171.836L1126.22 161.802L1148.68 180.655Z" fill="#F5B4CB" stroke="#141414" style="stroke-width:4" stroke-linecap="round" stroke-linejoin="round"/>
<path d="M1121.13 190.684L1116.04 219.555L1093.58 200.703L1098.67 171.831L1121.13 190.684Z" fill="#F5B4CB" stroke="#141414" style="stroke-width:4" stroke-linecap="round" stroke-linejoin="round"/>
<path d="M1148.68 180.65L1143.59 209.521L1116.04 219.555L1121.13 190.684L1148.68 180.65Z" fill="#F5B4CB" stroke="#141414" style="stroke-width:4" stroke-linecap="round" stroke-linejoin="round"/>
</g>
<g clip-path="url(#clip5_0_1)">
<path d="M366.057 713.97L243.328 784.857L120.6 713.97L243.328 643.082L366.057 713.97Z" fill="#F5B4CB" stroke="#141414" stroke-width="6" stroke-linecap="round" stroke-linejoin="round"/>
<path d="M366.057 713.97L243.328 784.857L120.6 713.97L243.328 643.082L366.057 713.97Z" fill="#F5B4CB" stroke="#141414" stroke-width="6" stroke-linecap="round" stroke-linejoin="round"/>
<path d="M366.056 572.247L243.328 643.134L120.6 572.247L243.328 501.359L366.056 572.247Z" fill="#F5B4CB" stroke="#141414" stroke-width="6" stroke-linecap="round" stroke-linejoin="round"/>
<path d="M243.329 643.108V784.806L120.6 713.919V572.221L243.329 643.108Z" fill="#F5B4CB" stroke="#141414" stroke-width="6" stroke-linecap="round" stroke-linejoin="round"/>
<path d="M366.057 572.221V713.919L243.328 784.806V643.108L366.057 572.221Z" fill="#F5B4CB" stroke="#141414" stroke-width="6" stroke-linecap="round" stroke-linejoin="round"/>
</g>
<defs>
<clipPath id="clip0_0_1">
<rect width="147.935" height="147.228" fill="white" transform="translate(646.96 186.125) rotate(-15)"/>
</clipPath>
<clipPath id="clip1_0_1">
<rect width="170.24" height="170.24" fill="white" transform="translate(465.271 481.336) rotate(15)"/>
</clipPath>
<clipPath id="clip2_0_1">
<rect width="486.799" height="503.984" fill="white" transform="translate(1081.28 362.438) rotate(-9.64547)"/>
</clipPath>
<clipPath id="clip3_0_1">
<rect width="608.957" height="609.664" fill="white" transform="translate(-259.54 -18.5547) rotate(-15)"/>
</clipPath>
<clipPath id="clip4_0_1">
<rect width="70.0283" height="72.4618" fill="white" transform="translate(1092.77 148.82) rotate(10)"/>
</clipPath>
<clipPath id="clip5_0_1">
<rect width="253" height="290" fill="white" transform="translate(116.96 498.086)"/>
</clipPath>
</defs>
</svg>
