<svg width="84" height="84" viewBox="0 0 84 84" fill="none" xmlns="http://www.w3.org/2000/svg">
<path d="M75.6255 42.0005C50.0739 39.9653 44.8294 27.6089 42.0002 3.45508C39.1711 27.6089 33.9266 39.9653 8.375 42.0005C33.9266 44.0357 39.1711 56.3922 42.0002 80.546C44.8294 56.3922 50.0739 44.0357 75.6255 42.0005Z" fill="#AAC9E7"/>
<path d="M41.8156 2C42.5496 2 43.1672 2.55266 43.2526 3.28551C44.6603 15.3675 46.6454 24.1248 51.2138 30.1392C55.7005 36.046 62.8873 39.5495 75.3777 40.5497C76.1299 40.6099 76.7101 41.2415 76.7101 42C76.7101 42.7585 76.1299 43.3901 75.3777 43.4503C62.8873 44.4505 55.7005 47.954 51.2138 53.8608C46.6454 59.8752 44.6603 68.6325 43.2526 80.7145C43.1672 81.4473 42.5496 82 41.8156 82C41.0818 81.9999 40.4641 81.4473 40.3787 80.7145C38.971 68.6326 36.9866 59.8752 32.4182 53.8608C27.9314 47.9539 20.7442 44.4505 8.25356 43.4503C7.50155 43.3899 6.92188 42.7585 6.92188 42C6.92188 41.2415 7.50155 40.6101 8.25356 40.5497C20.7442 39.5495 27.9314 36.0461 32.4182 30.1392C36.9866 24.1248 38.971 15.3674 40.3787 3.28551C40.4641 2.55274 41.0818 2.00012 41.8156 2ZM41.8156 13.446C40.414 20.9558 38.3411 27.1346 34.7178 31.9048C30.9501 36.8649 25.6205 40.1675 18.0197 41.9993C25.6206 43.8311 30.9501 47.1351 34.7178 52.0952C38.341 56.8653 40.414 63.0438 41.8156 70.5533C43.2173 63.0438 45.2903 56.8653 48.9135 52.0952C52.6811 47.135 58.0108 43.8311 65.6115 41.9993C58.0109 40.1674 52.6811 36.8649 48.9135 31.9048C45.2901 27.1346 43.2173 20.9558 41.8156 13.446Z" fill="black"/>
</svg>
