<svg width="617" height="402" viewBox="0 0 617 402" fill="none" xmlns="http://www.w3.org/2000/svg">
<g clip-path="url(#clip0_599_1355)">
<path d="M252.404 254.586V254.752C252.404 256.968 251.656 259.183 250.188 260.955C249.469 261.841 248.582 262.617 247.502 263.226L180.463 301.938L162.298 312.432L138.511 326.167C132.89 329.407 125.94 329.407 120.318 326.167L55.3278 288.646L43.67 281.917L7.33953 260.955L3.7674 258.878C2.43824 258.103 1.6629 256.857 1.44137 255.528C1.16446 253.7 1.93981 251.706 3.7674 250.654L7.06262 248.743L30.5168 235.203L121.509 182.673C126.383 179.849 132.447 179.849 137.348 182.673L247.502 246.307C250.715 248.162 252.348 251.346 252.404 254.586Z" fill="#222222" stroke="#222222" stroke-miterlimit="10"/>
<path d="M1.43589 267.519C1.43589 267.519 1.4082 267.269 1.4082 267.131" stroke="#222222" stroke-miterlimit="10"/>
<path d="M1.44043 255.528V255.168" stroke="#222222" stroke-miterlimit="10"/>
<path d="M252.403 254.758V267.136C252.403 270.403 250.769 273.698 247.502 275.581L180.462 314.293L162.297 324.788L138.51 338.523C132.889 341.763 125.939 341.763 120.317 338.523L55.3269 301.002L43.669 294.273L3.76646 271.234C2.32654 270.403 1.55119 268.963 1.44043 267.523V255.533C1.66196 256.862 2.4373 258.108 3.76646 258.884L7.33859 260.961L43.669 281.923L55.3269 288.651L120.317 326.173C125.939 329.412 132.889 329.412 138.51 326.173L162.297 312.438L180.462 301.943L247.502 263.231C248.581 262.622 249.468 261.847 250.188 260.961C251.655 259.188 252.403 256.973 252.403 254.758Z" fill="#EAE7F9" stroke="#222222" stroke-miterlimit="10"/>
<path d="M252.4 268.26V267.152" stroke="#222222" stroke-miterlimit="10"/>
<path d="M406.777 165.473V165.639C406.777 167.854 406.029 170.07 404.562 171.842C403.842 172.728 402.955 173.503 401.876 174.112L334.836 212.824L316.671 223.319L292.884 237.054C287.263 240.294 280.313 240.294 274.691 237.054L209.701 199.533L198.043 192.804L161.713 171.842L158.14 169.765C156.811 168.99 156.036 167.744 155.814 166.414C155.538 164.587 156.313 162.593 158.14 161.541L161.436 159.63L184.89 146.089L275.882 93.5598C280.756 90.7353 286.82 90.7353 291.721 93.5598L401.876 157.193C405.088 159.049 406.721 162.233 406.777 165.473Z" fill="#222222" stroke="#222222" stroke-miterlimit="10"/>
<path d="M155.81 178.407C155.81 178.407 155.782 178.158 155.782 178.02" stroke="#222222" stroke-miterlimit="10"/>
<path d="M155.814 166.417V166.057" stroke="#222222" stroke-miterlimit="10"/>
<path d="M406.777 165.645V178.022C406.777 181.29 405.143 184.585 401.876 186.468L334.836 225.18L316.671 235.675L292.884 249.409C287.263 252.649 280.313 252.649 274.691 249.409L209.701 211.888L198.043 205.159L158.14 182.121C156.701 181.29 155.925 179.85 155.814 178.41V166.42C156.036 167.749 156.811 168.995 158.14 169.77L161.713 171.847L198.043 192.809L209.701 199.538L274.691 237.059C280.313 240.299 287.263 240.299 292.884 237.059L316.671 223.325L334.836 212.83L401.876 174.118C402.955 173.509 403.842 172.733 404.562 171.847C406.029 170.075 406.777 167.86 406.777 165.645Z" fill="#EAE7F9" stroke="#222222" stroke-miterlimit="10"/>
<path d="M406.773 179.127V178.02" stroke="#222222" stroke-miterlimit="10"/>
<path d="M460.611 314.184V314.35C460.611 316.565 459.863 318.781 458.395 320.553C457.676 321.439 456.789 322.214 455.71 322.823L388.67 361.535L370.505 372.03L346.718 385.765C341.097 389.005 334.147 389.005 328.525 385.765L263.535 348.244L251.877 341.515L215.547 320.553L211.974 318.476C210.645 317.701 209.87 316.455 209.648 315.125C209.371 313.298 210.147 311.304 211.974 310.252L215.27 308.341L238.724 294.8L329.716 242.271C334.59 239.446 340.654 239.446 345.555 242.271L455.71 305.904C458.922 307.76 460.555 310.944 460.611 314.184Z" fill="#222222" stroke="#222222" stroke-miterlimit="10"/>
<path d="M209.644 327.118C209.644 327.118 209.616 326.869 209.616 326.73" stroke="#222222" stroke-miterlimit="10"/>
<path d="M209.648 315.126V314.766" stroke="#222222" stroke-miterlimit="10"/>
<path d="M460.611 314.355V326.733C460.611 330.001 458.977 333.296 455.71 335.179L388.67 373.891L370.505 384.386L346.718 398.12C341.097 401.36 334.147 401.36 328.525 398.12L263.535 360.599L251.877 353.87L211.974 330.832C210.535 330.001 209.759 328.561 209.648 327.121V315.131C209.87 316.46 210.645 317.706 211.974 318.481L215.547 320.558L251.877 341.52L263.535 348.249L328.525 385.77C334.147 389.01 341.097 389.01 346.718 385.77L370.505 372.036L388.67 361.541L455.71 322.829C456.789 322.22 457.676 321.444 458.396 320.558C459.863 318.786 460.611 316.571 460.611 314.355Z" fill="#EAE7F9" stroke="#222222" stroke-miterlimit="10"/>
<path d="M460.607 327.838V326.73" stroke="#222222" stroke-miterlimit="10"/>
<path d="M614.99 225.043V225.209C614.99 227.425 614.242 229.64 612.774 231.412C612.054 232.298 611.168 233.074 610.088 233.683L543.049 272.395L524.884 282.89L501.097 296.624C495.476 299.864 488.525 299.864 482.904 296.624L417.914 259.103L406.256 252.374L369.925 231.412L366.353 229.335C365.024 228.56 364.249 227.314 364.027 225.985C363.75 224.157 364.526 222.163 366.353 221.111L369.649 219.2L393.103 205.66L484.095 153.13C488.969 150.306 495.033 150.306 499.934 153.13L610.088 216.764C613.301 218.619 614.934 221.803 614.99 225.043Z" fill="#222222" stroke="#222222" stroke-miterlimit="10"/>
<path d="M364.022 237.978C364.022 237.978 363.994 237.728 363.994 237.59" stroke="#222222" stroke-miterlimit="10"/>
<path d="M364.026 225.985V225.625" stroke="#222222" stroke-miterlimit="10"/>
<path d="M614.989 225.215V237.593C614.989 240.86 613.355 244.155 610.087 246.038L543.048 284.75L524.883 295.245L501.096 308.98C495.475 312.22 488.525 312.22 482.903 308.98L417.913 271.459L406.255 264.73L366.352 241.691C364.912 240.86 364.137 239.42 364.026 237.98V225.99C364.248 227.319 365.023 228.565 366.352 229.341L369.924 231.418L406.255 252.38L417.913 259.108L482.903 296.63C488.525 299.869 495.475 299.869 501.096 296.63L524.883 282.895L543.048 272.4L610.087 233.688C611.167 233.079 612.053 232.304 612.773 231.418C614.241 229.645 614.989 227.43 614.989 225.215Z" fill="#EAE7F9" stroke="#222222" stroke-miterlimit="10"/>
<path d="M614.986 238.719V237.611" stroke="#222222" stroke-miterlimit="10"/>
<path d="M559.749 75.3984V75.5645C559.749 77.7798 559.002 79.9951 557.534 81.7673C556.814 82.6534 555.928 83.4287 554.848 84.0379L487.809 122.75L469.643 133.245L445.857 146.979C440.236 150.219 433.285 150.219 427.664 146.979L362.674 109.458L351.016 102.729L314.685 81.7673L311.113 79.6905C309.784 78.9151 309.009 77.669 308.787 76.3399C308.51 74.5123 309.286 72.5185 311.113 71.4663L314.408 69.5556L337.862 56.0148L428.855 3.51288C433.728 0.688414 439.793 0.688414 444.694 3.51288L554.848 67.1465C558.06 69.0018 559.694 72.1862 559.749 75.4261V75.3984Z" fill="#222222" stroke="#222222" stroke-miterlimit="10"/>
<path d="M308.782 88.3603C308.782 88.3603 308.754 88.1111 308.754 87.9727" stroke="#222222" stroke-miterlimit="10"/>
<path d="M308.787 76.3678V76.0078" stroke="#222222" stroke-miterlimit="10"/>
<path d="M559.749 75.5977V87.9755C559.749 91.243 558.116 94.5382 554.848 96.4212L487.809 135.133L469.643 145.628L445.857 159.363C440.236 162.602 433.285 162.602 427.664 159.363L362.674 121.841L351.016 115.113L311.113 92.0737C309.673 91.243 308.898 89.8031 308.787 88.3632V76.373C309.009 77.7022 309.784 78.9483 311.113 79.7236L314.685 81.8004L351.016 102.762L362.674 109.491L427.664 147.012C433.285 150.252 440.236 150.252 445.857 147.012L469.643 133.278L487.809 122.783L554.848 84.0711C555.928 83.4619 556.814 82.6865 557.534 81.8004C559.002 80.0282 559.749 77.8129 559.749 75.5977Z" fill="#EAE7F9" stroke="#222222" stroke-miterlimit="10"/>
<path d="M559.746 89.0803V87.9727" stroke="#222222" stroke-miterlimit="10"/>
<path d="M63.7171 237.085L74.3504 230.938L142.581 270.342L177.111 250.404L186.609 257.438L142.775 282.747L63.6895 237.085H63.7171Z" fill="white"/>
<path d="M290.754 292.196L301.415 286.049L380.5 331.711L369.867 337.858L290.782 292.196H290.754Z" fill="white"/>
<path d="M424.611 216.958L434.774 211.088L527.372 226.429L467.781 192.036L477.944 186.166L557.029 231.828L547.254 237.477L454.407 222.413L513.887 256.75L503.724 262.62L424.639 216.958H424.611Z" fill="white"/>
<path d="M247.028 179.578C238.167 174.455 231.992 169.332 228.503 164.182C225.014 159.031 224.045 154.13 225.596 149.478C227.146 144.826 231.078 140.672 237.42 137.017C243.816 133.334 250.988 131.036 258.963 130.122C266.938 129.236 275.328 129.79 284.106 131.783C292.884 133.805 301.718 137.349 310.579 142.472C319.44 147.595 325.67 152.718 329.298 157.813C332.925 162.936 333.95 167.809 332.399 172.461C330.849 177.113 326.861 181.295 320.381 185.033C314.04 188.688 306.868 190.986 298.866 191.9C290.863 192.814 282.417 192.26 273.584 190.266C264.723 188.245 255.889 184.701 247.028 179.578ZM257.939 173.153C267.381 178.609 276.658 181.931 285.712 183.15C294.767 184.368 302.798 182.956 309.748 178.913C316.588 174.953 318.997 170.357 316.975 165.095C314.954 159.834 309.222 154.462 299.752 149.007C290.365 143.58 281.116 140.284 271.95 139.094C262.784 137.903 254.782 139.288 247.942 143.22C240.964 147.235 238.555 151.887 240.687 157.148C242.819 162.409 248.579 167.726 257.939 173.153Z" fill="white"/>
<path d="M398.421 91.1036C390.308 86.4238 384.299 81.5502 380.478 76.5382C376.656 71.5262 375.272 66.6249 376.407 61.8897C377.542 57.1546 381.419 52.8625 388.065 49.0135C395.929 44.4722 404.098 42.2015 412.571 42.1738C421.017 42.1738 429.435 43.7799 437.798 47.0474L429.103 54.1086C423.786 52.1425 418.636 51.0626 413.651 50.8965C408.667 50.7026 403.599 52.0872 398.477 55.0501C393.797 57.7361 391.332 60.7267 391.056 63.9942C390.779 67.2618 392.274 70.6677 395.514 74.2122C398.754 77.7566 403.378 81.2456 409.359 84.707C418.802 90.1621 428.078 93.5127 437.133 94.7588C446.188 96.0049 454.412 94.5096 461.75 90.2729C464.935 88.4176 467.538 86.4238 469.476 84.264C471.442 82.1041 472.605 79.8611 472.993 77.5074L455.824 67.594L439.625 76.9536L429.324 71L455.409 55.9362L487.863 74.6829C488.029 78.7535 486.617 82.741 483.626 86.59C480.635 90.439 476.786 93.7342 472.051 96.4756C461.806 102.374 450.231 104.866 437.299 103.869C424.368 102.9 411.408 98.6632 398.394 91.159L398.421 91.1036Z" fill="white"/>
</g>
<defs>
<clipPath id="clip0_599_1355">
<rect width="616.371" height="401.933" fill="white"/>
</clipPath>
</defs>
</svg>
