<?xml version="1.0" encoding="UTF-8"?><svg id="uuid-410bb9e2-fa6a-4b81-8172-0b82921ec1f2" xmlns="http://www.w3.org/2000/svg" xmlns:xlink="http://www.w3.org/1999/xlink" viewBox="0 0 617 402"><defs><clipPath id="uuid-825f4674-813b-40fb-81fc-86a1984a72e8"><rect width="616.37" height="401.93" style="fill:none;"/></clipPath></defs><g style="clip-path:url(#uuid-825f4674-813b-40fb-81fc-86a1984a72e8);"><path d="M252.4,254.59v.17c0,2.22-.75,4.43-2.22,6.2-.72.89-1.61,1.66-2.69,2.27l-67.04,38.71-18.16,10.49-23.79,13.73c-5.62,3.24-12.57,3.24-18.19,0l-64.99-37.52-11.66-6.73-36.33-20.96-3.57-2.08c-1.33-.77-2.1-2.02-2.33-3.35-.28-1.83.5-3.82,2.33-4.87l3.3-1.91,23.45-13.54,90.99-52.53c4.87-2.82,10.94-2.82,15.84,0l110.15,63.63c3.21,1.85,4.85,5.04,4.9,8.28Z" style="fill:#222; stroke:#222; stroke-miterlimit:10;"/><path d="M1.44,267.52s-.03-.25-.03-.39" style="fill:none; stroke:#222; stroke-miterlimit:10;"/><path d="M1.44,255.53v-.36" style="fill:none; stroke:#222; stroke-miterlimit:10;"/><path d="M252.4,268.26v-1.11" style="fill:none; stroke:#222; stroke-miterlimit:10;"/><path d="M406.78,165.47v.17c0,2.21-.75,4.43-2.21,6.2-.72.89-1.61,1.66-2.69,2.27l-67.04,38.71-18.17,10.49-23.79,13.74c-5.62,3.24-12.57,3.24-18.19,0l-64.99-37.52-11.66-6.73-36.33-20.96-3.57-2.08c-1.33-.77-2.1-2.02-2.33-3.35-.28-1.83.5-3.82,2.33-4.87l3.3-1.91,23.45-13.54,90.99-52.53c4.87-2.82,10.94-2.82,15.84,0l110.15,63.63c3.21,1.86,4.85,5.04,4.9,8.28Z" style="fill:#222; stroke:#222; stroke-miterlimit:10;"/><path d="M155.81,178.41s-.03-.25-.03-.39" style="fill:none; stroke:#222; stroke-miterlimit:10;"/><path d="M155.81,166.42v-.36" style="fill:none; stroke:#222; stroke-miterlimit:10;"/><path d="M406.77,179.13v-1.11" style="fill:none; stroke:#222; stroke-miterlimit:10;"/><path d="M460.61,314.18v.17c0,2.21-.75,4.43-2.22,6.2-.72.89-1.61,1.66-2.68,2.27l-67.04,38.71-18.17,10.49-23.79,13.74c-5.62,3.24-12.57,3.24-18.19,0l-64.99-37.52-11.66-6.73-36.33-20.96-3.57-2.08c-1.33-.78-2.1-2.02-2.33-3.35-.28-1.83.5-3.82,2.33-4.87l3.3-1.91,23.45-13.54,90.99-52.53c4.87-2.82,10.94-2.82,15.84,0l110.15,63.63c3.21,1.86,4.85,5.04,4.9,8.28Z" style="fill:#222; stroke:#222; stroke-miterlimit:10;"/><path d="M209.64,327.12s-.03-.25-.03-.39" style="fill:none; stroke:#222; stroke-miterlimit:10;"/><path d="M209.65,315.13v-.36" style="fill:none; stroke:#222; stroke-miterlimit:10;"/><path d="M460.61,327.84v-1.11" style="fill:none; stroke:#222; stroke-miterlimit:10;"/><path d="M614.99,225.04v.17c0,2.22-.75,4.43-2.22,6.2-.72.89-1.61,1.66-2.69,2.27l-67.04,38.71-18.17,10.5-23.79,13.73c-5.62,3.24-12.57,3.24-18.19,0l-64.99-37.52-11.66-6.73-36.33-20.96-3.57-2.08c-1.33-.78-2.1-2.02-2.33-3.35-.28-1.83.5-3.82,2.33-4.87l3.3-1.91,23.45-13.54,90.99-52.53c4.87-2.82,10.94-2.82,15.84,0l110.15,63.63c3.21,1.85,4.85,5.04,4.9,8.28Z" style="fill:#222; stroke:#222; stroke-miterlimit:10;"/><path d="M364.02,237.98s-.03-.25-.03-.39" style="fill:none; stroke:#222; stroke-miterlimit:10;"/><path d="M364.03,225.99v-.36" style="fill:none; stroke:#222; stroke-miterlimit:10;"/><path d="M614.99,238.72v-1.11" style="fill:none; stroke:#222; stroke-miterlimit:10;"/><path d="M559.75,75.4v.17c0,2.22-.75,4.43-2.22,6.2-.72.89-1.61,1.66-2.69,2.27l-67.04,38.71-18.17,10.49-23.79,13.73c-5.62,3.24-12.57,3.24-18.19,0l-64.99-37.52-11.66-6.73-36.33-20.96-3.57-2.08c-1.33-.78-2.1-2.02-2.33-3.35-.28-1.83.5-3.82,2.33-4.87l3.29-1.91,23.45-13.54L428.86,3.51c4.87-2.82,10.94-2.82,15.84,0l110.15,63.63c3.21,1.86,4.85,5.04,4.9,8.28v-.03Z" style="fill:#222; stroke:#222; stroke-miterlimit:10;"/><path d="M308.78,88.36s-.03-.25-.03-.39" style="fill:none; stroke:#222; stroke-miterlimit:10;"/><path d="M308.79,76.37v-.36" style="fill:none; stroke:#222; stroke-miterlimit:10;"/><path d="M559.75,89.08v-1.11" style="fill:none; stroke:#222; stroke-miterlimit:10;"/><path d="M63.72,237.09l10.63-6.15,68.23,39.4,34.53-19.94,9.5,7.03-43.83,25.31-79.09-45.66h.03Z" style="fill:#fff;"/><path d="M290.75,292.2l10.66-6.15,79.08,45.66-10.63,6.15-79.08-45.66h-.03Z" style="fill:#fff;"/><path d="M424.61,216.96l10.16-5.87,92.6,15.34-59.59-34.39,10.16-5.87,79.08,45.66-9.77,5.65-92.85-15.06,59.48,34.34-10.16,5.87-79.08-45.66h-.03Z" style="fill:#fff;"/><path d="M247.03,179.58c-8.86-5.12-15.04-10.25-18.52-15.4-3.49-5.15-4.46-10.05-2.91-14.7,1.55-4.65,5.48-8.81,11.82-12.46,6.4-3.68,13.57-5.98,21.54-6.9,7.97-.89,16.36-.33,25.14,1.66,8.78,2.02,17.61,5.57,26.47,10.69,8.86,5.12,15.09,10.25,18.72,15.34,3.63,5.12,4.65,10,3.1,14.65-1.55,4.65-5.54,8.83-12.02,12.57-6.34,3.65-13.51,5.95-21.52,6.87-8,.91-16.45.36-25.28-1.63-8.86-2.02-17.7-5.57-26.56-10.69ZM257.94,173.15c9.44,5.46,18.72,8.78,27.77,10,9.05,1.22,17.09-.19,24.04-4.24,6.84-3.96,9.25-8.56,7.23-13.82-2.02-5.26-7.75-10.63-17.22-16.09-9.39-5.43-18.64-8.72-27.8-9.91-9.17-1.19-17.17.19-24.01,4.13-6.98,4.01-9.39,8.67-7.26,13.93s7.89,10.58,17.25,16.01Z" style="fill:#fff;"/><path d="M398.42,91.1c-8.11-4.68-14.12-9.55-17.94-14.57-3.82-5.01-5.21-9.91-4.07-14.65,1.13-4.74,5.01-9.03,11.66-12.88,7.86-4.54,16.03-6.81,24.51-6.84,8.45,0,16.86,1.61,25.23,4.87l-8.7,7.06c-5.32-1.97-10.47-3.05-15.45-3.21-4.98-.19-10.05,1.19-15.17,4.15-4.68,2.69-7.14,5.68-7.42,8.94-.28,3.27,1.22,6.67,4.46,10.22,3.24,3.54,7.86,7.03,13.85,10.49,9.44,5.46,18.72,8.81,27.77,10.05,9.05,1.25,17.28-.25,24.62-4.49,3.18-1.86,5.79-3.85,7.73-6.01,1.97-2.16,3.13-4.4,3.52-6.76l-17.17-9.91-16.2,9.36-10.3-5.95,26.08-15.06,32.45,18.75c.17,4.07-1.25,8.06-4.24,11.91-2.99,3.85-6.84,7.14-11.58,9.89-10.24,5.9-21.82,8.39-34.75,7.39-12.93-.97-25.89-5.21-38.9-12.71l.03-.06Z" style="fill:#fff;"/></g></svg>