<svg width="410" height="250" viewBox="0 0 410 250" fill="none" xmlns="http://www.w3.org/2000/svg">
<path d="M268.667 127.696L206.5 163.603L144.333 127.696L206.5 91.7886L268.667 127.696Z" fill="#FFE70E" stroke="#141414" stroke-width="6" stroke-linecap="round" stroke-linejoin="round"/>
<path d="M268.667 127.696L206.5 163.603L144.333 127.696L206.5 91.7886L268.667 127.696Z" fill="#FFE70E" stroke="#141414" stroke-width="6" stroke-linecap="round" stroke-linejoin="round"/>
<path d="M268.667 55.9073L206.5 91.8146L144.333 55.9073L206.5 20L268.667 55.9073Z" fill="#FFE70E" stroke="#141414" stroke-width="6" stroke-linecap="round" stroke-linejoin="round"/>
<path d="M206.5 91.8013V163.577L144.333 127.67V55.894L206.5 91.8013Z" fill="#FFE70E" stroke="#141414" stroke-width="6" stroke-linecap="round" stroke-linejoin="round"/>
<path d="M268.667 55.894V127.67L206.5 163.577V91.8013L268.667 55.894Z" fill="#FFE70E" stroke="#141414" stroke-width="6" stroke-linecap="round" stroke-linejoin="round"/>
<path d="M206.5 163.643L144.333 199.55L82.1665 163.643L144.333 127.735L206.5 163.643Z" fill="#FFE70E" stroke="#141414" stroke-width="6" stroke-linecap="round" stroke-linejoin="round"/>
<path d="M206.5 163.643L144.333 199.55L82.1665 163.643L144.333 127.735L206.5 163.643Z" fill="#FFE70E" stroke="#141414" stroke-width="6" stroke-linecap="round" stroke-linejoin="round"/>
<path d="M206.5 91.8541L144.333 127.761L82.1665 91.8541L144.333 55.9468L206.5 91.8541Z" fill="#FFE70E" stroke="#141414" stroke-width="6" stroke-linecap="round" stroke-linejoin="round"/>
<path d="M144.333 127.749V199.524L82.1665 163.617V91.8413L144.333 127.749Z" fill="#FFE70E" stroke="#141414" stroke-width="6" stroke-linecap="round" stroke-linejoin="round"/>
<path d="M206.5 91.8413V163.617L144.333 199.524V127.749L206.5 91.8413Z" fill="#FFE70E" stroke="#141414" stroke-width="6" stroke-linecap="round" stroke-linejoin="round"/>
<path d="M144.333 199.537L82.1667 235.444L20 199.537L82.1667 163.629L144.333 199.537Z" fill="#FFE70E" stroke="#141414" stroke-width="6" stroke-linecap="round" stroke-linejoin="round"/>
<path d="M144.333 199.537L82.1667 235.444L20 199.537L82.1667 163.629L144.333 199.537Z" fill="#FFE70E" stroke="#141414" stroke-width="6" stroke-linecap="round" stroke-linejoin="round"/>
<path d="M144.333 127.748L82.1667 163.655L20 127.748L82.1667 91.8408L144.333 127.748Z" fill="#FFE70E" stroke="#141414" stroke-width="6" stroke-linecap="round" stroke-linejoin="round"/>
<path d="M82.1667 163.643V235.418L20 199.511V127.735L82.1667 163.643Z" fill="#FFE70E" stroke="#141414" stroke-width="6" stroke-linecap="round" stroke-linejoin="round"/>
<path d="M144.333 127.735V199.511L82.1665 235.418V163.643L144.333 127.735Z" fill="#FFE70E" stroke="#141414" stroke-width="6" stroke-linecap="round" stroke-linejoin="round"/>
<path d="M198.108 41.9893C201.83 41.9893 205.537 42.6973 209.214 44.1338C209.38 44.1985 209.499 44.3467 209.526 44.5225C209.554 44.6983 209.486 44.8761 209.348 44.9883L205.582 48.0459C205.445 48.1571 205.259 48.1881 205.094 48.127C202.834 47.2913 200.656 46.8365 198.559 46.7666H198.557C196.509 46.687 194.407 47.2536 192.255 48.498L192.253 48.499C190.278 49.6325 189.388 50.8112 189.289 51.9805C189.186 53.2015 189.736 54.545 191.09 56.0264C192.446 57.5104 194.403 58.9913 196.968 60.4756H196.967C201.01 62.8115 204.966 64.2363 208.812 64.7656C212.633 65.2914 216.082 64.6603 219.155 62.8857C220.504 62.0999 221.585 61.2677 222.379 60.3828L222.381 60.3799C223.083 59.6089 223.514 58.8327 223.71 58.043L216.839 54.0742L210.074 57.9834C209.919 58.0728 209.728 58.0729 209.573 57.9834L205.112 55.4053C204.958 55.3159 204.863 55.151 204.863 54.9727C204.863 54.7941 204.959 54.6293 205.113 54.54L216.409 48.0166L216.469 47.9863C216.611 47.9278 216.774 47.9385 216.909 48.0166L230.963 56.1348L231.017 56.1699C231.134 56.2594 231.207 56.3973 231.213 56.5469C231.291 58.449 230.626 60.2887 229.273 62.0303C227.935 63.7534 226.216 65.2217 224.116 66.4375L224.115 66.4385C219.584 69.047 214.47 70.1438 208.778 69.7051V69.7041C203.093 69.2778 197.409 67.4167 191.719 64.1357C191.67 64.1075 191.628 64.0708 191.593 64.0303C188.116 62.0093 185.499 59.887 183.812 57.6738C182.096 55.4242 181.424 53.1505 181.961 50.9111C182.499 48.6679 184.315 46.7158 187.245 45.0186L187.898 44.6533C191.174 42.8884 194.579 42.0008 198.106 41.9893H198.108Z" fill="#141414" stroke="black" stroke-linejoin="round"/>
<path d="M135.703 78.0615C139.179 77.6753 142.828 77.9177 146.635 78.7822L146.637 78.7832C150.449 79.6611 154.277 81.1985 158.109 83.4141C161.931 85.6237 164.669 87.8601 166.281 90.125L166.282 90.126C167.899 92.4099 168.405 94.6621 167.677 96.8457C166.958 99.0009 165.133 100.872 162.306 102.503V102.504C159.526 104.106 156.389 105.11 152.9 105.508C149.411 105.906 145.738 105.663 141.908 104.799H141.907C138.059 103.921 134.231 102.383 130.398 100.167C126.577 97.9575 123.858 95.7187 122.303 93.4229C120.747 91.1268 120.271 88.8667 120.997 86.6885C121.715 84.5354 123.513 82.6753 126.284 81.0781H126.285C129.088 79.4645 132.225 78.4609 135.701 78.0625L135.703 78.0615ZM141.255 82.8965C137.42 82.3983 134.108 82.9803 131.289 84.6006C129.837 85.4361 128.922 86.3038 128.467 87.1797C128.024 88.0321 127.99 88.9396 128.396 89.9434C129.244 92.0334 131.582 94.2387 135.569 96.5508C139.566 98.8596 143.476 100.257 147.278 100.769C151.061 101.278 154.385 100.685 157.252 99.0176H157.253C158.675 98.1942 159.576 97.3374 160.03 96.4688C160.473 95.6222 160.517 94.7179 160.131 93.7129C159.33 91.6292 157.008 89.402 152.974 87.0781H152.973C149.001 84.7818 145.104 83.3965 141.255 82.8965Z" fill="#141414" stroke="black" stroke-linejoin="round"/>
<path d="M56.4097 118.41C56.552 118.351 56.7146 118.361 56.8501 118.439L91.9077 138.685L109.526 128.513L109.592 128.48C109.751 128.418 109.934 128.44 110.074 128.544L114.989 132.184C115.124 132.284 115.199 132.445 115.19 132.613C115.18 132.782 115.087 132.934 114.941 133.019L92.2573 146.115C92.1027 146.204 91.9119 146.204 91.7573 146.115L50.8335 122.486C50.6376 122.373 50.5416 122.142 50.6001 121.924C50.6424 121.766 50.758 121.643 50.9038 121.587L56.3501 118.439L56.4097 118.41Z" fill="#141414" stroke="black" stroke-linejoin="round"/>
<path d="M392.999 127.827L330.832 163.734L268.666 127.827L330.832 91.9199L392.999 127.827Z" fill="#FFE70E" stroke="#141414" stroke-width="6" stroke-linecap="round" stroke-linejoin="round"/>
<path d="M392.999 127.827L330.832 163.734L268.666 127.827L330.832 91.9199L392.999 127.827Z" fill="#FFE70E" stroke="#141414" stroke-width="6" stroke-linecap="round" stroke-linejoin="round"/>
<path d="M392.999 56.0386L330.832 91.9459L268.666 56.0386L330.832 20.1313L392.999 56.0386Z" fill="#FFE70E" stroke="#141414" stroke-width="6" stroke-linecap="round" stroke-linejoin="round"/>
<path d="M330.832 91.9327V163.708L268.666 127.801V56.0254L330.832 91.9327Z" fill="#FFE70E" stroke="#141414" stroke-width="6" stroke-linecap="round" stroke-linejoin="round"/>
<path d="M392.999 56.0254V127.801L330.833 163.708V91.9327L392.999 56.0254Z" fill="#FFE70E" stroke="#141414" stroke-width="6" stroke-linecap="round" stroke-linejoin="round"/>
<path d="M330.833 163.643L268.666 199.55L206.5 163.643L268.666 127.735L330.833 163.643Z" fill="#FFE70E" stroke="#141414" stroke-width="6" stroke-linecap="round" stroke-linejoin="round"/>
<path d="M330.833 163.643L268.666 199.55L206.5 163.643L268.666 127.735L330.833 163.643Z" fill="#FFE70E" stroke="#141414" stroke-width="6" stroke-linecap="round" stroke-linejoin="round"/>
<path d="M330.833 91.8541L268.666 127.761L206.5 91.8541L268.666 55.9468L330.833 91.8541Z" fill="#FFE70E" stroke="#141414" stroke-width="6" stroke-linecap="round" stroke-linejoin="round"/>
<path d="M268.666 127.749V199.524L206.5 163.617V91.8413L268.666 127.749Z" fill="#FFE70E" stroke="#141414" stroke-width="6" stroke-linecap="round" stroke-linejoin="round"/>
<path d="M330.833 91.8413V163.617L268.667 199.524V127.749L330.833 91.8413Z" fill="#FFE70E" stroke="#141414" stroke-width="6" stroke-linecap="round" stroke-linejoin="round"/>
<path d="M325.453 40.1719C325.595 40.1132 325.758 40.123 325.893 40.2012L357.763 58.6016C357.918 58.6909 358.013 58.8566 358.013 59.0352C358.013 59.2136 357.918 59.3785 357.763 59.4678L353.825 61.7441C353.725 61.8018 353.607 61.8231 353.494 61.8047L318.769 56.1709L340.377 68.6455C340.532 68.7348 340.627 68.8996 340.627 69.0781C340.627 69.2567 340.532 69.4214 340.377 69.5107L336.283 71.877C336.128 71.9663 335.936 71.9663 335.782 71.877L303.959 53.5029C303.819 53.4446 303.709 53.3253 303.667 53.1719C303.609 52.9534 303.705 52.7225 303.901 52.6094L307.997 50.2441L308.074 50.207C308.154 50.1774 308.242 50.1695 308.328 50.1836L342.925 55.9141L321.297 43.4326C321.143 43.3434 321.048 43.1783 321.047 43C321.047 42.8214 321.143 42.6558 321.297 42.5664L325.393 40.2012L325.453 40.1719Z" fill="#141414" stroke="black" stroke-linejoin="round"/>
<path d="M250.771 78.0781C250.913 78.0195 251.076 78.0303 251.211 78.1084L292.136 101.737C292.291 101.827 292.386 101.992 292.386 102.17C292.386 102.348 292.291 102.513 292.136 102.603L286.633 105.784C286.479 105.873 286.288 105.873 286.133 105.784L245.269 82.1895C245.121 82.1339 245.004 82.0108 244.961 81.8516C244.903 81.633 244.999 81.4022 245.195 81.2891L250.711 78.1074L250.771 78.0781Z" fill="#141414" stroke="black" stroke-linejoin="round"/>
</svg>
