<svg width="618" height="403" viewBox="0 0 618 403" fill="none" xmlns="http://www.w3.org/2000/svg">
<path d="M253.22 254.769V254.935C253.22 257.15 252.472 259.366 251.004 261.138C250.284 262.024 249.398 262.799 248.318 263.408L181.279 302.12L163.114 312.615L139.327 326.35C133.706 329.59 126.755 329.59 121.134 326.35L56.1437 288.829L44.4859 282.1L8.15545 261.138L4.58332 259.061C3.25416 258.286 2.47882 257.039 2.25729 255.71C1.98038 253.883 2.75573 251.889 4.58332 250.837L7.87854 248.926L31.3327 235.385L122.325 182.856C127.199 180.031 133.263 180.031 138.164 182.856L248.318 246.489C251.531 248.345 253.164 251.529 253.22 254.769Z" fill="#222222" stroke="#222222" stroke-miterlimit="10"/>
<path d="M2.252 267.702C2.252 267.702 2.2243 267.453 2.2243 267.314" stroke="#222222" stroke-miterlimit="10"/>
<path d="M2.25671 255.711V255.351" stroke="#222222" stroke-miterlimit="10"/>
<path d="M253.219 254.94V267.318C253.219 270.586 251.585 273.881 248.318 275.764L181.278 314.476L163.113 324.97L139.327 338.705C133.705 341.945 126.755 341.945 121.134 338.705L56.1432 301.184L44.4853 294.455L4.58275 271.416C3.14282 270.586 2.36748 269.146 2.25671 267.706V255.716C2.47824 257.045 3.25359 258.291 4.58275 259.066L8.15487 261.143L44.4853 282.105L56.1432 288.834L121.134 326.355C126.755 329.595 133.705 329.595 139.327 326.355L163.113 312.62L181.278 302.125L248.318 263.414C249.398 262.804 250.284 262.029 251.004 261.143C252.471 259.371 253.219 257.155 253.219 254.94Z" fill="#EAE7F9" stroke="#222222" stroke-miterlimit="10"/>
<path d="M253.216 268.444V267.336" stroke="#222222" stroke-miterlimit="10"/>
<path d="M407.594 165.658V165.824C407.594 168.039 406.846 170.254 405.379 172.026C404.659 172.913 403.773 173.688 402.693 174.297L335.653 213.009L317.488 223.504L293.701 237.238C288.08 240.478 281.13 240.478 275.509 237.238L210.518 199.717L198.86 192.988L162.53 172.026L158.958 169.95C157.629 169.174 156.853 167.928 156.632 166.599C156.355 164.771 157.13 162.778 158.958 161.725L162.253 159.815L185.707 146.274L276.699 93.7443C281.573 90.9199 287.637 90.9199 292.538 93.7443L402.693 157.378C405.905 159.233 407.539 162.418 407.594 165.658Z" fill="#222222" stroke="#222222" stroke-miterlimit="10"/>
<path d="M156.626 178.591C156.626 178.591 156.599 178.342 156.599 178.203" stroke="#222222" stroke-miterlimit="10"/>
<path d="M156.631 166.6V166.24" stroke="#222222" stroke-miterlimit="10"/>
<path d="M407.593 165.829V178.207C407.593 181.474 405.96 184.769 402.692 186.652L335.653 225.364L317.487 235.859L293.701 249.594C288.08 252.834 281.129 252.834 275.508 249.594L210.518 212.073L198.86 205.344L158.957 182.305C157.517 181.474 156.742 180.034 156.631 178.594V166.604C156.853 167.933 157.628 169.179 158.957 169.955L162.529 172.032L198.86 192.994L210.518 199.722L275.508 237.244C281.129 240.483 288.08 240.483 293.701 237.244L317.487 223.509L335.653 213.014L402.692 174.302C403.772 173.693 404.658 172.918 405.378 172.032C406.846 170.259 407.593 168.044 407.593 165.829Z" fill="#EAE7F9" stroke="#222222" stroke-miterlimit="10"/>
<path d="M407.59 179.311V178.203" stroke="#222222" stroke-miterlimit="10"/>
<path d="M461.428 314.368V314.534C461.428 316.749 460.68 318.965 459.213 320.737C458.493 321.623 457.607 322.398 456.527 323.008L389.487 361.719L371.322 372.214L347.535 385.949C341.914 389.189 334.964 389.189 329.342 385.949L264.352 348.428L252.694 341.699L216.364 320.737L212.792 318.66C211.462 317.885 210.687 316.639 210.466 315.309C210.189 313.482 210.964 311.488 212.792 310.436L216.087 308.525L239.541 294.984L330.533 242.455C335.407 239.63 341.471 239.63 346.372 242.455L456.527 306.088C459.739 307.944 461.373 311.128 461.428 314.368Z" fill="#222222" stroke="#222222" stroke-miterlimit="10"/>
<path d="M210.46 327.301C210.46 327.301 210.433 327.052 210.433 326.914" stroke="#222222" stroke-miterlimit="10"/>
<path d="M210.465 315.31V314.95" stroke="#222222" stroke-miterlimit="10"/>
<path d="M461.427 314.539V326.917C461.427 330.185 459.794 333.48 456.526 335.363L389.487 374.075L371.321 384.57L347.535 398.304C341.914 401.544 334.963 401.544 329.342 398.304L264.351 360.783L252.694 354.054L212.791 331.015C211.351 330.185 210.576 328.745 210.465 327.305V315.315C210.687 316.644 211.462 317.89 212.791 318.665L216.363 320.742L252.694 341.704L264.351 348.433L329.342 385.954C334.963 389.194 341.914 389.194 347.535 385.954L371.321 372.219L389.487 361.725L456.526 323.013C457.606 322.404 458.492 321.628 459.212 320.742C460.68 318.97 461.427 316.755 461.427 314.539Z" fill="#EAE7F9" stroke="#222222" stroke-miterlimit="10"/>
<path d="M461.424 328.021V326.914" stroke="#222222" stroke-miterlimit="10"/>
<path d="M615.806 225.227V225.393C615.806 227.608 615.058 229.824 613.591 231.596C612.871 232.482 611.985 233.257 610.905 233.866L543.865 272.578L525.7 283.073L501.914 296.808C496.292 300.048 489.342 300.048 483.721 296.808L418.73 259.287L407.072 252.558L370.742 231.596L367.17 229.519C365.841 228.744 365.065 227.498 364.844 226.168C364.567 224.341 365.342 222.347 367.17 221.295L370.465 219.384L393.919 205.843L484.911 153.314C489.785 150.489 495.849 150.489 500.75 153.314L610.905 216.947C614.117 218.803 615.751 221.987 615.806 225.227Z" fill="#222222" stroke="#222222" stroke-miterlimit="10"/>
<path d="M364.839 238.16C364.839 238.16 364.811 237.911 364.811 237.772" stroke="#222222" stroke-miterlimit="10"/>
<path d="M364.843 226.169V225.809" stroke="#222222" stroke-miterlimit="10"/>
<path d="M615.805 225.398V237.776C615.805 241.044 614.172 244.339 610.904 246.222L543.865 284.934L525.699 295.428L501.913 309.163C496.292 312.403 489.341 312.403 483.72 309.163L418.73 271.642L407.072 264.913L367.169 241.874C365.729 241.044 364.954 239.604 364.843 238.164V226.174C365.065 227.503 365.84 228.749 367.169 229.524L370.741 231.601L407.072 252.563L418.73 259.292L483.72 296.813C489.341 300.053 496.292 300.053 501.913 296.813L525.699 283.078L543.865 272.583L610.904 233.872C611.984 233.262 612.87 232.487 613.59 231.601C615.058 229.829 615.805 227.613 615.805 225.398Z" fill="#EAE7F9" stroke="#222222" stroke-miterlimit="10"/>
<path d="M615.802 238.902V237.794" stroke="#222222" stroke-miterlimit="10"/>
<path d="M560.566 75.582V75.7481C560.566 77.9634 559.818 80.1787 558.351 81.9509C557.631 82.837 556.745 83.6123 555.665 84.2215L488.625 122.933L470.46 133.428L446.674 147.163C441.052 150.403 434.102 150.403 428.481 147.163L363.49 109.642L351.832 102.913L315.502 81.9509L311.93 79.8741C310.601 79.0987 309.825 77.8526 309.604 76.5235C309.327 74.6959 310.102 72.7021 311.93 71.6499L315.225 69.7392L338.679 56.1984L429.671 3.69648C434.545 0.872008 440.609 0.872008 445.51 3.69648L555.665 67.3301C558.877 69.1854 560.511 72.3698 560.566 75.6097V75.582Z" fill="#222222" stroke="#222222" stroke-miterlimit="10"/>
<path d="M309.598 88.5429C309.598 88.5429 309.571 88.2937 309.571 88.1553" stroke="#222222" stroke-miterlimit="10"/>
<path d="M309.603 76.5519V76.1919" stroke="#222222" stroke-miterlimit="10"/>
<path d="M560.566 75.781V88.1588C560.566 91.4264 558.932 94.7216 555.664 96.6045L488.625 135.316L470.459 145.811L446.673 159.546C441.052 162.786 434.101 162.786 428.48 159.546L363.49 122.025L351.832 115.296L311.929 92.2571C310.489 91.4264 309.714 89.9864 309.603 88.5465V76.5564C309.825 77.8855 310.6 79.1316 311.929 79.907L315.501 81.9838L351.832 102.946L363.49 109.675L428.48 147.196C434.101 150.436 441.052 150.436 446.673 147.196L470.459 133.461L488.625 122.966L555.664 84.2544C556.744 83.6452 557.63 82.8699 558.35 81.9838C559.818 80.2116 560.566 77.9963 560.566 75.781Z" fill="#EAE7F9" stroke="#222222" stroke-miterlimit="10"/>
<path d="M560.562 89.2629V88.1553" stroke="#222222" stroke-miterlimit="10"/>
<path d="M64.5331 237.268L75.1664 231.12L143.397 270.524L177.927 250.587L187.425 257.621L143.591 282.93L64.5054 237.268H64.5331Z" fill="white"/>
<path d="M291.571 292.379L302.232 286.232L381.317 331.894L370.683 338.041L291.598 292.379H291.571Z" fill="white"/>
<path d="M425.428 217.142L435.59 211.272L528.189 226.612L468.598 192.22L478.76 186.35L557.846 232.012L548.071 237.661L455.223 222.597L514.703 256.934L504.541 262.804L425.455 217.142H425.428Z" fill="white"/>
<path d="M247.845 179.762C238.984 174.639 232.809 169.516 229.32 164.366C225.831 159.215 224.862 154.314 226.412 149.662C227.963 145.01 231.895 140.856 238.236 137.201C244.633 133.518 251.805 131.22 259.78 130.306C267.755 129.42 276.145 129.974 284.923 131.968C293.701 133.989 302.534 137.534 311.396 142.656C320.257 147.779 326.487 152.902 330.115 157.997C333.742 163.12 334.767 167.993 333.216 172.646C331.665 177.298 327.678 181.479 321.198 185.217C314.857 188.872 307.685 191.171 299.682 192.085C291.68 192.998 283.234 192.444 274.401 190.451C265.539 188.429 256.706 184.885 247.845 179.762ZM258.755 173.338C268.198 178.793 277.474 182.116 286.529 183.334C295.584 184.553 303.614 183.14 310.565 179.097C317.404 175.138 319.814 170.541 317.792 165.28C315.771 160.018 310.039 154.646 300.568 149.191C291.181 143.764 281.932 140.469 272.767 139.278C263.601 138.087 255.598 139.472 248.759 143.404C241.781 147.419 239.372 152.071 241.504 157.332C243.636 162.594 249.396 167.91 258.755 173.338Z" fill="white"/>
<path d="M399.238 91.287C391.124 86.6072 385.115 81.7336 381.294 76.7215C377.473 71.7095 376.088 66.8082 377.224 62.0731C378.359 57.3379 382.236 53.0459 388.881 49.1968C396.746 44.6555 404.914 42.3849 413.388 42.3572C421.834 42.3572 430.252 43.9632 438.614 47.2308L429.919 54.2919C424.603 52.3259 419.452 51.2459 414.468 51.0798C409.483 50.886 404.416 52.2705 399.293 55.2334C394.613 57.9194 392.149 60.9101 391.872 64.1776C391.595 67.4451 393.09 70.8511 396.33 74.3955C399.57 77.9399 404.195 81.429 410.176 84.8904C419.618 90.3455 428.895 93.6961 437.95 94.9421C447.005 96.1882 455.229 94.6929 462.567 90.4562C465.751 88.6009 468.354 86.6072 470.293 84.4473C472.259 82.2874 473.422 80.0445 473.809 77.6907L456.641 67.7774L440.442 77.1369L430.141 71.1834L456.226 56.1195L488.679 74.8663C488.845 78.9368 487.433 82.9243 484.443 86.7733C481.452 90.6224 477.603 93.9176 472.868 96.659C462.622 102.557 451.047 105.049 438.116 104.052C425.184 103.083 412.225 98.8465 399.21 91.3423L399.238 91.287Z" fill="white"/>
</svg>
