<svg width="230" height="260" viewBox="0 0 230 260" fill="none" xmlns="http://www.w3.org/2000/svg">
<mask id="mask0_137_70" style="mask-type:luminance" maskUnits="userSpaceOnUse" x="104" y="104" width="106" height="121">
<path d="M209.299 105.453V224.453H105.299V105.453H209.299Z" fill="white" stroke="white"/>
</mask>
<g mask="url(#mask0_137_70)">
<path d="M174.14 183.773L140.89 202.983L107.64 183.773L140.89 164.563L174.14 183.773Z" fill="#9185BE" stroke="#141414" stroke-width="4" stroke-linecap="round" stroke-linejoin="round"/>
<path d="M174.14 183.773L140.89 202.983L107.64 183.773L140.89 164.563L174.14 183.773Z" fill="#9185BE" stroke="#141414" stroke-width="4" stroke-linecap="round" stroke-linejoin="round"/>
<path d="M174.14 145.373L140.89 164.583L107.64 145.373L140.89 126.163L174.14 145.373Z" fill="#AAC9E7" stroke="#141414" stroke-width="4" stroke-linecap="round" stroke-linejoin="round"/>
<path d="M140.89 164.573V202.963L107.64 183.753V145.363L140.89 164.573Z" fill="#AAC9E7" stroke="#141414" stroke-width="4" stroke-linecap="round" stroke-linejoin="round"/>
<path d="M174.14 145.363V183.753L140.89 202.963V164.573L174.14 145.363Z" fill="#9185BE" stroke="#141414" stroke-width="4" stroke-linecap="round" stroke-linejoin="round"/>
<path d="M207.39 203.003L174.14 222.213L140.89 203.003L174.14 183.793L207.39 203.003Z" fill="#F5B4CB" stroke="#141414" stroke-width="4" stroke-linecap="round" stroke-linejoin="round"/>
<path d="M207.39 203.003L174.14 222.213L140.89 203.003L174.14 183.793L207.39 203.003Z" fill="#F5B4CB" stroke="#141414" stroke-width="4" stroke-linecap="round" stroke-linejoin="round"/>
<path d="M207.39 164.603L174.14 183.813L140.89 164.603L174.14 145.393L207.39 164.603Z" fill="#F5B4CB" stroke="#141414" stroke-width="4" stroke-linecap="round" stroke-linejoin="round"/>
<path d="M174.14 183.813V222.203L140.89 202.993V164.603L174.14 183.813Z" fill="#F5B4CB" stroke="#141414" stroke-width="4" stroke-linecap="round" stroke-linejoin="round"/>
<path d="M207.39 164.603V202.993L174.14 222.203V183.813L207.39 164.603Z" fill="#F5B4CB" stroke="#141414" stroke-width="4" stroke-linecap="round" stroke-linejoin="round"/>
<path d="M207.39 164.583L174.14 183.793L140.89 164.583L174.14 145.373L207.39 164.583Z" fill="#AAC9E7" stroke="#141414" stroke-width="4" stroke-linecap="round" stroke-linejoin="round"/>
<path d="M207.39 164.583L174.14 183.793L140.89 164.583L174.14 145.373L207.39 164.583Z" fill="#AAC9E7" stroke="#141414" stroke-width="4" stroke-linecap="round" stroke-linejoin="round"/>
<path d="M207.39 126.173L174.14 145.383L140.89 126.173L174.14 106.963L207.39 126.173Z" fill="#9185BE" stroke="#141414" stroke-width="4" stroke-linecap="round" stroke-linejoin="round"/>
<path d="M174.14 145.373V183.763L140.89 164.553V126.163L174.14 145.373Z" fill="#9185BE" stroke="#141414" stroke-width="4" stroke-linecap="round" stroke-linejoin="round"/>
<path d="M207.39 126.163V164.553L174.14 183.763V145.373L207.39 126.163Z" fill="#9185BE" stroke="#141414" stroke-width="4" stroke-linecap="round" stroke-linejoin="round"/>
</g>
<path d="M50.746 232.01C49.7216 234.427 48.137 236.54 46.1043 238.189C44.0715 239.837 41.6707 240.974 39.1097 241.47C36.5488 241.982 33.8919 241.854 31.395 241.102C28.8981 240.349 26.6092 238.989 24.7526 237.148C22.8959 235.308 21.5194 233.051 20.7351 230.554C19.9508 228.057 19.7908 225.416 20.2709 222.839C20.7511 220.262 21.8555 217.861 23.4721 215.813C25.1047 213.764 27.2014 212.147 29.6023 211.107" stroke="black" stroke-width="4" stroke-linecap="round" stroke-linejoin="round"/>
<path d="M52.0102 225.784C52.0102 223.687 51.594 221.607 50.7937 219.654C49.9934 217.717 48.809 215.941 47.3205 214.468C45.832 212.979 44.0713 211.795 42.1346 210.995C40.1979 210.194 38.1172 209.778 36.0044 209.778V225.784H52.0102Z" fill="#141414" stroke="black" stroke-width="4.05734" stroke-linecap="round" stroke-linejoin="round"/>
<rect x="147.701" y="20" width="57" height="32" rx="16" fill="#141414"/>
<path d="M164.073 40V38.176H166.017V40H164.073ZM170.816 40.144C170.208 40.144 169.668 40.012 169.196 39.748C168.732 39.476 168.364 39.108 168.092 38.644C167.828 38.172 167.696 37.632 167.696 37.024C167.696 36.416 167.828 35.88 168.092 35.416C168.364 34.944 168.732 34.576 169.196 34.312C169.668 34.04 170.208 33.904 170.816 33.904C171.576 33.904 172.216 34.104 172.736 34.504C173.256 34.896 173.588 35.44 173.732 36.136H172.088C172.016 35.864 171.864 35.648 171.632 35.488C171.4 35.32 171.124 35.236 170.804 35.236C170.532 35.236 170.28 35.308 170.048 35.452C169.816 35.596 169.632 35.8 169.496 36.064C169.36 36.328 169.292 36.648 169.292 37.024C169.292 37.392 169.36 37.712 169.496 37.984C169.632 38.256 169.816 38.464 170.048 38.608C170.28 38.744 170.532 38.812 170.804 38.812C171.124 38.812 171.4 38.736 171.632 38.584C171.864 38.424 172.016 38.2 172.088 37.912H173.732C173.596 38.584 173.264 39.124 172.736 39.532C172.216 39.94 171.576 40.144 170.816 40.144ZM178.206 40.144C177.422 40.144 176.774 39.96 176.262 39.592C175.758 39.224 175.474 38.732 175.41 38.116H177.006C177.062 38.364 177.202 38.564 177.426 38.716C177.658 38.868 177.938 38.944 178.266 38.944C178.61 38.944 178.87 38.88 179.046 38.752C179.23 38.624 179.322 38.468 179.322 38.284C179.322 38.132 179.258 38.012 179.13 37.924C179.002 37.836 178.774 37.772 178.446 37.732C178.326 37.716 178.17 37.692 177.978 37.66C177.786 37.628 177.63 37.6 177.51 37.576C177.182 37.512 176.882 37.408 176.61 37.264C176.338 37.12 176.118 36.928 175.95 36.688C175.79 36.448 175.71 36.148 175.71 35.788C175.71 35.26 175.906 34.816 176.298 34.456C176.698 34.088 177.278 33.904 178.038 33.904C178.798 33.904 179.402 34.072 179.85 34.408C180.298 34.744 180.55 35.216 180.606 35.824H179.094C179.07 35.584 178.954 35.404 178.746 35.284C178.546 35.164 178.314 35.104 178.05 35.104C177.738 35.104 177.498 35.164 177.33 35.284C177.162 35.396 177.078 35.536 177.078 35.704C177.078 35.992 177.342 36.184 177.87 36.28C177.95 36.288 178.05 36.304 178.17 36.328C178.298 36.344 178.43 36.364 178.566 36.388C178.702 36.404 178.81 36.42 178.89 36.436C179.122 36.468 179.35 36.52 179.574 36.592C179.798 36.664 179.998 36.764 180.174 36.892C180.358 37.012 180.502 37.176 180.606 37.384C180.718 37.592 180.774 37.848 180.774 38.152C180.774 38.544 180.674 38.892 180.474 39.196C180.274 39.492 179.982 39.724 179.598 39.892C179.222 40.06 178.758 40.144 178.206 40.144ZM184.232 40L182.036 34.048H183.68L185.18 38.524L186.668 34.048H188.3L186.116 40H184.232Z" fill="white"/>
<path d="M173.994 128.344C174.385 128.735 175.018 128.735 175.408 128.344L181.772 121.98C182.163 121.59 182.163 120.957 181.772 120.566C181.382 120.176 180.749 120.176 180.358 120.566L174.701 126.223L169.044 120.566C168.654 120.176 168.021 120.176 167.63 120.566C167.24 120.957 167.24 121.59 167.63 121.98L173.994 128.344ZM175.701 61.9999C175.701 61.4476 175.253 60.9999 174.701 60.9999C174.149 60.9999 173.701 61.4476 173.701 61.9999H174.701H175.701ZM175.701 127.541C175.701 126.989 175.253 126.541 174.701 126.541C174.149 126.541 173.701 126.989 173.701 127.541H174.701L175.701 127.541ZM173.701 121.766C173.701 122.319 174.149 122.766 174.701 122.766C175.253 122.766 175.701 122.319 175.701 121.766H174.701H173.701ZM175.701 121.574C175.701 121.022 175.253 120.574 174.701 120.574C174.149 120.574 173.701 121.022 173.701 121.574H174.701H175.701ZM173.701 115.799C173.701 116.352 174.149 116.799 174.701 116.799C175.253 116.799 175.701 116.352 175.701 115.799H174.701H173.701ZM175.701 115.607C175.701 115.055 175.253 114.607 174.701 114.607C174.149 114.607 173.701 115.055 173.701 115.607H174.701H175.701ZM173.701 109.832C173.701 110.385 174.149 110.832 174.701 110.832C175.253 110.832 175.701 110.385 175.701 109.832H174.701H173.701ZM175.701 109.64C175.701 109.088 175.253 108.64 174.701 108.64C174.149 108.64 173.701 109.088 173.701 109.64H174.701H175.701ZM173.701 103.865C173.701 104.418 174.149 104.865 174.701 104.865C175.253 104.865 175.701 104.418 175.701 103.865H174.701H173.701ZM175.701 103.673C175.701 103.121 175.253 102.673 174.701 102.673C174.149 102.673 173.701 103.121 173.701 103.673H174.701H175.701ZM173.701 97.8983C173.701 98.4506 174.149 98.8983 174.701 98.8983C175.253 98.8983 175.701 98.4506 175.701 97.8983H174.701H173.701ZM175.701 97.7058C175.701 97.1536 175.253 96.7058 174.701 96.7058C174.149 96.7058 173.701 97.1536 173.701 97.7058H174.701H175.701ZM173.701 91.9313C173.701 92.4836 174.149 92.9313 174.701 92.9313C175.253 92.9313 175.701 92.4836 175.701 91.9313H174.701H173.701ZM175.701 91.7388C175.701 91.1865 175.253 90.7388 174.701 90.7388C174.149 90.7388 173.701 91.1865 173.701 91.7388H174.701H175.701ZM173.701 85.9643C173.701 86.5166 174.149 86.9643 174.701 86.9643C175.253 86.9643 175.701 86.5166 175.701 85.9643H174.701H173.701ZM175.701 85.7718C175.701 85.2195 175.253 84.7718 174.701 84.7718C174.149 84.7718 173.701 85.2195 173.701 85.7718H174.701H175.701ZM173.701 79.9972C173.701 80.5495 174.149 80.9972 174.701 80.9972C175.253 80.9972 175.701 80.5495 175.701 79.9972H174.701H173.701ZM175.701 79.8048C175.701 79.2525 175.253 78.8048 174.701 78.8048C174.149 78.8048 173.701 79.2525 173.701 79.8048H174.701H175.701ZM173.701 74.0302C173.701 74.5825 174.149 75.0302 174.701 75.0302C175.253 75.0302 175.701 74.5825 175.701 74.0302H174.701H173.701ZM175.701 73.8377C175.701 73.2854 175.253 72.8377 174.701 72.8377C174.149 72.8377 173.701 73.2854 173.701 73.8377H174.701H175.701ZM173.701 68.0632C173.701 68.6155 174.149 69.0632 174.701 69.0632C175.253 69.0632 175.701 68.6155 175.701 68.0632H174.701H173.701ZM175.701 67.8707C175.701 67.3184 175.253 66.8707 174.701 66.8707C174.149 66.8707 173.701 67.3184 173.701 67.8707H174.701H175.701ZM173.701 62.0962C173.701 62.6484 174.149 63.0962 174.701 63.0962C175.253 63.0962 175.701 62.6484 175.701 62.0962H174.701H173.701ZM174.701 127.637H175.701V127.541L174.701 127.541H173.701V127.637H174.701ZM174.701 121.766H175.701V121.574H174.701H173.701V121.766H174.701ZM174.701 115.799H175.701V115.607H174.701H173.701V115.799H174.701ZM174.701 109.832H175.701V109.64H174.701H173.701V109.832H174.701ZM174.701 103.865H175.701V103.673H174.701H173.701V103.865H174.701ZM174.701 97.8983H175.701V97.7058H174.701H173.701V97.8983H174.701ZM174.701 91.9313H175.701V91.7388H174.701H173.701V91.9313H174.701ZM174.701 85.9643H175.701V85.7718H174.701H173.701V85.9643H174.701ZM174.701 79.9972H175.701V79.8048H174.701H173.701V79.9972H174.701ZM174.701 74.0302H175.701V73.8377H174.701H173.701V74.0302H174.701ZM174.701 68.0632H175.701V67.8707H174.701H173.701V68.0632H174.701ZM174.701 62.0962H175.701V61.9999H174.701H173.701V62.0962H174.701Z" fill="#141414"/>
<path d="M65.6907 209.553C65.5664 210.091 65.902 210.628 66.4401 210.753L75.2094 212.777C75.7475 212.901 76.2845 212.566 76.4087 212.028C76.533 211.49 76.1975 210.953 75.6593 210.829L67.8644 209.029L69.664 201.234C69.7882 200.696 69.4527 200.159 68.9145 200.035C68.3764 199.91 67.8395 200.246 67.7152 200.784L65.6907 209.553ZM122.859 175.844C123.327 175.551 123.469 174.934 123.177 174.466C122.884 173.998 122.267 173.855 121.799 174.148L122.329 174.996L122.859 175.844ZM67.2766 210.575C67.7449 210.283 67.8874 209.666 67.5947 209.197C67.302 208.729 66.6851 208.587 66.2167 208.879L66.7467 209.727L67.2766 210.575ZM71.1138 205.819C70.6455 206.112 70.503 206.729 70.7957 207.197C71.0884 207.666 71.7053 207.808 72.1737 207.515L71.6437 206.667L71.1138 205.819ZM72.3369 207.413C72.8053 207.121 72.9477 206.504 72.655 206.035C72.3624 205.567 71.7454 205.425 71.2771 205.717L71.807 206.565L72.3369 207.413ZM76.1742 202.657C75.7058 202.95 75.5634 203.567 75.856 204.035C76.1487 204.504 76.7656 204.646 77.234 204.353L76.7041 203.505L76.1742 202.657ZM77.3972 204.251C77.8656 203.959 78.008 203.342 77.7154 202.873C77.4227 202.405 76.8058 202.263 76.3374 202.555L76.8673 203.403L77.3972 204.251ZM81.2345 199.495C80.7661 199.788 80.6237 200.405 80.9163 200.873C81.209 201.341 81.826 201.484 82.2943 201.191L81.7644 200.343L81.2345 199.495ZM82.4576 201.089C82.9259 200.797 83.0683 200.18 82.7757 199.711C82.483 199.243 81.8661 199.1 81.3977 199.393L81.9276 200.241L82.4576 201.089ZM86.2948 196.333C85.8264 196.626 85.684 197.243 85.9767 197.711C86.2693 198.179 86.8863 198.322 87.3546 198.029L86.8247 197.181L86.2948 196.333ZM87.5179 197.927C87.9862 197.635 88.1287 197.018 87.836 196.549C87.5433 196.081 86.9264 195.938 86.458 196.231L86.988 197.079L87.5179 197.927ZM91.3551 193.171C90.8868 193.464 90.7443 194.081 91.037 194.549C91.3297 195.017 91.9466 195.16 92.415 194.867L91.885 194.019L91.3551 193.171ZM92.5782 194.765C93.0466 194.472 93.189 193.856 92.8963 193.387C92.6037 192.919 91.9867 192.776 91.5184 193.069L92.0483 193.917L92.5782 194.765ZM96.4155 190.009C95.9471 190.302 95.8047 190.919 96.0973 191.387C96.39 191.855 97.0069 191.998 97.4753 191.705L96.9454 190.857L96.4155 190.009ZM97.6385 191.603C98.1069 191.31 98.2493 190.694 97.9567 190.225C97.664 189.757 97.0471 189.614 96.5787 189.907L97.1086 190.755L97.6385 191.603ZM101.476 186.847C101.007 187.14 100.865 187.757 101.158 188.225C101.45 188.693 102.067 188.836 102.536 188.543L102.006 187.695L101.476 186.847ZM102.699 188.441C103.167 188.148 103.31 187.531 103.017 187.063C102.724 186.595 102.107 186.452 101.639 186.745L102.169 187.593L102.699 188.441ZM106.536 183.685C106.068 183.978 105.925 184.595 106.218 185.063C106.511 185.531 107.128 185.674 107.596 185.381L107.066 184.533L106.536 183.685ZM107.759 185.279C108.228 184.986 108.37 184.369 108.077 183.901C107.785 183.433 107.168 183.29 106.699 183.583L107.229 184.431L107.759 185.279ZM111.596 180.523C111.128 180.816 110.986 181.432 111.278 181.901C111.571 182.369 112.188 182.512 112.656 182.219L112.126 181.371L111.596 180.523ZM112.82 182.117C113.288 181.824 113.43 181.207 113.138 180.739C112.845 180.271 112.228 180.128 111.76 180.421L112.29 181.269L112.82 182.117ZM116.657 177.361C116.188 177.654 116.046 178.27 116.339 178.739C116.631 179.207 117.248 179.35 117.717 179.057L117.187 178.209L116.657 177.361ZM117.88 178.955C118.348 178.662 118.491 178.045 118.198 177.577C117.905 177.109 117.288 176.966 116.82 177.259L117.35 178.107L117.88 178.955ZM121.717 174.199C121.249 174.491 121.106 175.108 121.399 175.577C121.692 176.045 122.309 176.188 122.777 175.895L122.247 175.047L121.717 174.199ZM66.665 209.778L67.195 210.626L67.2766 210.575L66.7467 209.727L66.2167 208.879L66.1351 208.93L66.665 209.778ZM71.6437 206.667L72.1737 207.515L72.3369 207.413L71.807 206.565L71.2771 205.717L71.1138 205.819L71.6437 206.667ZM76.7041 203.505L77.234 204.353L77.3972 204.251L76.8673 203.403L76.3374 202.555L76.1742 202.657L76.7041 203.505ZM81.7644 200.343L82.2943 201.191L82.4576 201.089L81.9276 200.241L81.3977 199.393L81.2345 199.495L81.7644 200.343ZM86.8247 197.181L87.3546 198.029L87.5179 197.927L86.988 197.079L86.458 196.231L86.2948 196.333L86.8247 197.181ZM91.885 194.019L92.415 194.867L92.5782 194.765L92.0483 193.917L91.5184 193.069L91.3551 193.171L91.885 194.019ZM96.9454 190.857L97.4753 191.705L97.6385 191.603L97.1086 190.755L96.5787 189.907L96.4155 190.009L96.9454 190.857ZM102.006 187.695L102.536 188.543L102.699 188.441L102.169 187.593L101.639 186.745L101.476 186.847L102.006 187.695ZM107.066 184.533L107.596 185.381L107.759 185.279L107.229 184.431L106.699 183.583L106.536 183.685L107.066 184.533ZM112.126 181.371L112.656 182.219L112.82 182.117L112.29 181.269L111.76 180.421L111.596 180.523L112.126 181.371ZM117.187 178.209L117.717 179.057L117.88 178.955L117.35 178.107L116.82 177.259L116.657 177.361L117.187 178.209ZM122.247 175.047L122.777 175.895L122.859 175.844L122.329 174.996L121.799 174.148L121.717 174.199L122.247 175.047Z" fill="#141414"/>
</svg>
