<svg width="668" height="680" viewBox="450 100 10 620" fill="none" xmlns="http://www.w3.org/2000/svg">
<path d="M320.738 216.413L280.738 239.517L240.738 216.413L280.738 193.31L320.738 216.413Z" fill="#F5B4CB" stroke="#141414" stroke-width="6" stroke-linecap="round" stroke-linejoin="round"/>
<path d="M320.738 216.413L280.738 239.517L240.738 216.413L280.738 193.31L320.738 216.413Z" fill="#F5B4CB" stroke="#141414" stroke-width="6" stroke-linecap="round" stroke-linejoin="round"/>
<path d="M320.738 170.222L280.738 193.326L240.738 170.222L280.738 147.119L320.738 170.222Z" fill="#F5B4CB" stroke="#141414" stroke-width="6" stroke-linecap="round" stroke-linejoin="round"/>
<path d="M280.738 193.318V239.501L240.738 216.397V170.214L280.738 193.318Z" fill="#F5B4CB" stroke="#141414" stroke-width="6" stroke-linecap="round" stroke-linejoin="round"/>
<path d="M320.738 170.214V216.397L280.738 239.501V193.318L320.738 170.214Z" fill="#F5B4CB" stroke="#141414" stroke-width="6" stroke-linecap="round" stroke-linejoin="round"/>
<path d="M641.075 291.488L611.075 308.816L581.075 291.488L611.075 274.16L641.075 291.488Z" fill="#AAC9E7" stroke="#141414" stroke-width="6" stroke-linecap="round" stroke-linejoin="round"/>
<path d="M641.075 291.488L611.075 308.816L581.075 291.488L611.075 274.16L641.075 291.488Z" fill="#AAC9E7" stroke="#141414" stroke-width="6" stroke-linecap="round" stroke-linejoin="round"/>
<path d="M641.075 256.845L611.075 274.173L581.075 256.845L611.075 239.518L641.075 256.845Z" fill="#AAC9E7" stroke="#141414" stroke-width="6" stroke-linecap="round" stroke-linejoin="round"/>
<path d="M611.075 274.167V308.804L581.075 291.476V256.839L611.075 274.167Z" fill="#AAC9E7" stroke="#141414" stroke-width="6" stroke-linecap="round" stroke-linejoin="round"/>
<path d="M641.075 256.839V291.476L611.075 308.804V274.167L641.075 256.839Z" fill="#AAC9E7" stroke="#141414" stroke-width="6" stroke-linecap="round" stroke-linejoin="round"/>
<path d="M641.074 77.279L621.074 88.8309L601.074 77.279L621.074 65.7271L641.074 77.279Z" fill="#FFE70E" stroke="#141414" stroke-width="4" stroke-linecap="round" stroke-linejoin="round"/>
<path d="M641.074 77.279L621.074 88.8309L601.074 77.279L621.074 65.7271L641.074 77.279Z" fill="#FFE70E" stroke="#141414" stroke-width="4" stroke-linecap="round" stroke-linejoin="round"/>
<path d="M641.074 54.1837L621.074 65.7357L601.074 54.1837L621.074 42.6318L641.074 54.1837Z" fill="#FFE70E" stroke="#141414" stroke-width="4" stroke-linecap="round" stroke-linejoin="round"/>
<path d="M621.074 65.7316V88.8229L601.074 77.271V54.1797L621.074 65.7316Z" fill="#FFE70E" stroke="#141414" stroke-width="4" stroke-linecap="round" stroke-linejoin="round"/>
<path d="M641.074 54.1797V77.271L621.074 88.8229V65.7316L641.074 54.1797Z" fill="#FFE70E" stroke="#141414" stroke-width="4" stroke-linecap="round" stroke-linejoin="round"/>
<path d="M87.9823 326.135L67.9824 337.687L47.9824 326.135L67.9824 314.583L87.9823 326.135Z" fill="#AAC9E7" stroke="#141414" stroke-width="4" stroke-linecap="round" stroke-linejoin="round"/>
<path d="M87.9823 326.135L67.9824 337.687L47.9824 326.135L67.9824 314.583L87.9823 326.135Z" fill="#AAC9E7" stroke="#141414" stroke-width="4" stroke-linecap="round" stroke-linejoin="round"/>
<path d="M87.9823 303.04L67.9824 314.592L47.9824 303.04L67.9824 291.488L87.9823 303.04Z" fill="#AAC9E7" stroke="#141414" stroke-width="4" stroke-linecap="round" stroke-linejoin="round"/>
<path d="M67.9824 314.588V337.679L47.9824 326.127V303.036L67.9824 314.588Z" fill="#AAC9E7" stroke="#141414" stroke-width="4" stroke-linecap="round" stroke-linejoin="round"/>
<path d="M87.9824 303.036V326.127L67.9824 337.679V314.588L87.9824 303.036Z" fill="#AAC9E7" stroke="#141414" stroke-width="4" stroke-linecap="round" stroke-linejoin="round"/>
<path d="M107.982 83.047L97.9824 88.823L87.9824 83.047L97.9824 77.271L107.982 83.047Z" fill="#FFE70E" stroke="#141414" stroke-width="2.5" stroke-linecap="round" stroke-linejoin="round"/>
<path d="M107.982 83.047L97.9824 88.823L87.9824 83.047L97.9824 77.271L107.982 83.047Z" fill="#FFE70E" stroke="#141414" stroke-width="2.5" stroke-linecap="round" stroke-linejoin="round"/>
<path d="M107.983 71.4996L97.9834 77.2756L87.9834 71.4996L97.9834 65.7236L107.983 71.4996Z" fill="#FFE70E" stroke="#141414" stroke-width="2.5" stroke-linecap="round" stroke-linejoin="round"/>
<path d="M97.9824 77.2731V88.8188L87.9824 83.0428V71.4971L97.9824 77.2731Z" fill="#FFE70E" stroke="#141414" stroke-width="2.5" stroke-linecap="round" stroke-linejoin="round"/>
<path d="M107.982 71.4971V83.0428L97.9824 88.8188V77.2731L107.982 71.4971Z" fill="#FFE70E" stroke="#141414" stroke-width="2.5" stroke-linecap="round" stroke-linejoin="round"/>
<path d="M471.744 175.988L461.744 181.764L451.744 175.988L461.744 170.212L471.744 175.988Z" fill="#9185BE" stroke="#141414" stroke-width="2.5" stroke-linecap="round" stroke-linejoin="round"/>
<path d="M471.744 175.988L461.744 181.764L451.744 175.988L461.744 170.212L471.744 175.988Z" fill="#9185BE" stroke="#141414" stroke-width="2.5" stroke-linecap="round" stroke-linejoin="round"/>
<path d="M471.744 164.441L461.744 170.217L451.744 164.441L461.744 158.665L471.744 164.441Z" fill="#9185BE" stroke="#141414" stroke-width="2.5" stroke-linecap="round" stroke-linejoin="round"/>
<path d="M461.744 170.214V181.76L451.744 175.984V164.438L461.744 170.214Z" fill="#9185BE" stroke="#141414" stroke-width="2.5" stroke-linecap="round" stroke-linejoin="round"/>
<path d="M471.744 164.438V175.984L461.744 181.76V170.214L471.744 164.438Z" fill="#9185BE" stroke="#141414" stroke-width="2.5" stroke-linecap="round" stroke-linejoin="round"/>
<path d="M274.022 395.222C269.533 395.222 265.477 397.061 262.557 399.981C256.175 406.362 252.39 433.078 252.39 433.078C252.39 433.078 279.105 429.293 285.487 422.911C288.407 419.991 290.246 415.935 290.246 411.446C290.246 402.469 282.999 395.222 274.022 395.222ZM277.861 415.286C276.347 416.8 266.126 419.396 266.126 419.396C266.126 419.396 268.668 409.229 270.236 407.66C271.156 406.633 272.508 406.038 274.022 406.038C276.996 406.038 279.43 408.472 279.43 411.446C279.43 412.96 278.835 414.312 277.861 415.286ZM335.781 387.921C370.177 353.526 358.712 326.756 358.712 326.756C358.712 326.756 331.942 315.291 297.547 349.686L284.081 346.982C280.565 346.279 276.888 347.415 274.292 349.957L252.39 371.913L279.43 383.487L301.981 406.038L313.554 433.078L335.457 411.176C337.999 408.634 339.134 404.956 338.431 401.387L335.781 387.921ZM281.647 372.67L271.318 368.236L281.972 357.582L289.759 359.15C286.677 363.639 283.918 368.344 281.647 372.67ZM317.232 414.15L312.797 403.821C317.124 401.549 321.829 398.791 326.263 395.709L327.832 403.496L317.232 414.15ZM328.102 380.296C320.963 387.434 309.823 393.275 306.254 395.06L290.408 379.214C292.139 375.699 297.979 364.558 305.172 357.366C330.482 332.056 349.68 335.788 349.68 335.788C349.68 335.788 353.412 354.986 328.102 380.296ZM322.694 373.59C328.643 373.59 333.51 368.723 333.51 362.774C333.51 356.825 328.643 351.958 322.694 351.958C316.745 351.958 311.878 356.825 311.878 362.774C311.878 368.723 316.745 373.59 322.694 373.59Z" fill="#141414"/>
<path d="M277.861 415.286C276.347 416.8 266.126 419.396 266.126 419.396C266.126 419.396 268.668 409.229 270.236 407.66C271.156 406.633 272.508 406.038 274.022 406.038C276.996 406.038 279.43 408.472 279.43 411.446C279.43 412.96 278.835 414.312 277.861 415.286Z" fill="#F39300"/>
<path d="M586.074 597.838L503.909 645.296L421.744 597.838L503.909 550.38L586.074 597.838Z" fill="#9185BE" stroke="#141414" stroke-width="8" stroke-linecap="round" stroke-linejoin="round"/>
<path d="M586.074 597.838L503.909 645.296L421.744 597.838L503.909 550.38L586.074 597.838Z" fill="#9185BE" stroke="#141414" stroke-width="8" stroke-linecap="round" stroke-linejoin="round"/>
<path d="M586.074 502.956L503.909 550.414L421.744 502.956L503.909 455.498L586.074 502.956Z" fill="#9185BE" stroke="#141414" stroke-width="8" stroke-linecap="round" stroke-linejoin="round"/>
<path d="M503.909 550.396V645.261L421.744 597.803V502.938L503.909 550.396Z" fill="#9185BE" stroke="#141414" stroke-width="8" stroke-linecap="round" stroke-linejoin="round"/>
<path d="M586.074 502.938V597.803L503.909 645.261V550.396L586.074 502.938Z" fill="#9185BE" stroke="#141414" stroke-width="8" stroke-linecap="round" stroke-linejoin="round"/>
</svg>
