<svg
  id="svg46"
  xmlns="http://www.w3.org/2000/svg"
  width="344.27814"
  height="299.20319"
  viewBox="0 0 344.27814 299.20319">

  <g
    id="g22"
    transform="translate(-1.5018584 -23.3418)"
    clip-path="url(#clip2_87_440)"
    fill="#9185be"
    stroke="#141414"
    stroke-width="1"
    stroke-linecap="round"
    stroke-linejoin="round">
    <path id="path18" d="m172.323,244.797 -37.22,21.499 -37.2208,-21.499 37.2208,-21.498 z"/>
    <path id="path19" d="m172.323,244.797 -37.22,21.499 -37.2208,-21.499 37.2208,-21.498 z"/>
    <path id="path20" d="m172.323,201.817 -37.22,21.498 -37.2207,-21.498 37.2207,-21.499 z"/>
    <path id="path21" d="M135.103,223.307 V266.28 L97.8822,244.782 v-42.973 z"/>
    <path id="path22" d="m172.323,201.809 v42.973 l-37.221,21.498 v-42.973 z"/>
  </g>

  <g
    id="g36"
    transform="translate(-1.5018584 -23.3418)"
    clip-path="url(#clip4_87_440)"
    fill="#f5b4cb"
    stroke="#141414"
    stroke-width="1"
    stroke-linecap="round"
    stroke-linejoin="round">
    <path id="path32" d="m209.536,266.078 -37.22,21.499 -37.221,-21.499 37.221,-21.498 z"/>
    <path id="path33" d="m209.536,266.078 -37.22,21.499 -37.221,-21.499 37.221,-21.498 z"/>
    <path id="path34" d="m209.536,223.098 -37.22,21.498 -37.22,-21.498 37.22,-21.498 z"/>
    <path id="path35" d="m172.316,244.588 v42.974 L135.095,266.063 V223.09 Z"/>
    <path id="path36" d="m209.536,223.09  v42.973 l-37.22,21.499 v-42.974 z"/>
  </g>

  <g
    id="g41"
    transform="translate(-1.5018584 -23.3418)"
    clip-path="url(#clip5_87_440)"
    fill="#aac9e7"
    stroke="#141414"
    stroke-width="1"
    stroke-linecap="round"
    stroke-linejoin="round">
    <path id="path37" d="m209.536,223.09 -37.22,21.498 -37.221,-21.498 37.221,-21.498 z"/>
    <path id="path38" d="m209.536,223.09 -37.22,21.498 -37.221,-21.498 37.221,-21.498 z"/>
    <path id="path39" d="m209.536,180.11  -37.22,21.498 -37.221,-21.498 37.221,-21.499 z"/>
    <path id="path40" d="m172.316,201.602 v42.973 l-37.221,-21.498 v-42.973 z"/>
    <path id="path41" d="m209.536,180.104 v42.973 l-37.22,21.498 v-42.973 z"/>
  </g>

</svg>
