<?xml version="1.0" encoding="UTF-8"?><svg id="uuid-9e93c3c0-4832-434a-9a04-87646321eecd" xmlns="http://www.w3.org/2000/svg" xmlns:xlink="http://www.w3.org/1999/xlink" viewBox="0 0 252.65 233.99"><defs><mask id="uuid-ff07d791-0f1b-419c-9476-b313740c622f" x="3.26" y="77.18" width="105.75" height="38.14" maskUnits="userSpaceOnUse"><g id="uuid-7ef0fccc-e957-4d1a-9bdf-864535df3863"><path d="M5,96.25c0-9.57,7.76-17.34,17.34-17.34h67.61c9.57,0,17.34,7.76,17.34,17.34s-7.76,17.34-17.34,17.34H22.33c-9.57,0-17.34-7.76-17.34-17.34Z" style="fill:#fff;"/></g></mask><mask id="uuid-ccdcdc2e-f4d1-41f3-a724-e5d4be362db5" x="139.75" y="4.14" width="95.16" height="56.94" maskUnits="userSpaceOnUse"><g id="uuid-0881c05d-4781-44e7-abe3-d6c1a3159b50"><path d="M141.31,15.06c0-5.17,4.19-9.36,9.36-9.36h73.32c5.17,0,9.36,4.19,9.36,9.36v35.1c0,5.17-4.19,9.36-9.36,9.36h-73.32c-5.17,0-9.36-4.19-9.36-9.36V15.06Z" style="fill:#fff;"/></g></mask><clipPath id="uuid-18477888-12ab-4136-87be-6c9e3a4e1d9e"><rect x="116.98" y="104.04" width="105" height="120" style="fill:none;"/></clipPath></defs><path d="M5,96.25c0-9.57,7.76-17.34,17.34-17.34h67.61c9.57,0,17.34,7.76,17.34,17.34s-7.76,17.34-17.34,17.34H22.33c-9.57,0-17.34-7.76-17.34-17.34Z" style="fill:#141414;"/><g style="mask:url(#uuid-ff07d791-0f1b-419c-9476-b313740c622f);"><path d="M22.33,78.91v1.73h67.61v-3.47H22.33v1.73ZM89.94,113.58v-1.73H22.33v3.47h67.61v-1.73ZM22.33,113.58v-1.73c-8.62,0-15.6-6.99-15.6-15.6h-3.47c0,10.53,8.54,19.07,19.07,19.07v-1.73ZM107.28,96.25h-1.73c0,8.62-6.99,15.6-15.6,15.6v3.47c10.53,0,19.07-8.54,19.07-19.07h-1.73ZM89.94,78.91v1.73c8.62,0,15.6,6.99,15.6,15.6h3.47c0-10.53-8.54-19.07-19.07-19.07v1.73ZM22.33,78.91v-1.73c-10.53,0-19.07,8.54-19.07,19.07h3.47c0-8.62,6.99-15.6,15.6-15.6v-1.73Z" style="fill:#141414;"/></g><path d="M36.52,101.35v-2.99h3.12v2.99h-3.12ZM46.46,101.61c-1.08,0-2.05-.24-2.9-.73-.84-.48-1.5-1.15-1.98-2-.48-.87-.73-1.86-.73-2.99s.24-2.12.73-2.97c.48-.87,1.14-1.54,1.98-2.02.85-.48,1.82-.73,2.9-.73,1.35,0,2.49.35,3.41,1.06.92.7,1.51,1.66,1.76,2.88h-2.51c-.15-.59-.46-1.04-.95-1.36-.48-.34-1.06-.51-1.74-.51-.54,0-1.06.15-1.54.44-.47.28-.85.69-1.14,1.23-.28.53-.42,1.19-.42,1.98s.14,1.44.42,2c.29.54.67.95,1.14,1.23.48.28,1,.42,1.54.42.68,0,1.25-.16,1.74-.48s.8-.78.95-1.39h2.51c-.24,1.17-.82,2.13-1.76,2.86-.92.72-2.06,1.08-3.41,1.08ZM57.85,101.61c-1.38,0-2.53-.32-3.45-.97-.91-.65-1.43-1.55-1.56-2.73h2.49c.1.54.39.98.86,1.3s1.06.48,1.76.48,1.22-.14,1.58-.42c.38-.28.57-.62.57-1.03,0-.34-.12-.59-.37-.77-.23-.18-.67-.32-1.32-.42-.25-.04-.54-.09-.88-.13-.34-.06-.63-.12-.88-.18-.56-.1-1.09-.28-1.58-.53-.48-.25-.88-.59-1.19-1.01-.31-.44-.46-.99-.46-1.65,0-.95.36-1.75,1.08-2.4.72-.66,1.74-.99,3.06-.99s2.35.29,3.15.88c.81.57,1.27,1.43,1.39,2.57h-2.38c-.04-.53-.27-.92-.68-1.17-.41-.25-.9-.37-1.47-.37-.6,0-1.08.12-1.43.37-.35.25-.53.56-.53.92,0,.67.54,1.11,1.61,1.3.16.03.35.07.55.11.22.03.44.07.66.11.24.03.43.06.59.09.38.04.77.13,1.17.26.4.12.76.29,1.1.51s.61.51.81.88.31.83.31,1.39c0,.7-.18,1.33-.55,1.87-.35.53-.86.95-1.54,1.25-.67.31-1.49.46-2.44.46ZM66.94,101.35l-4.07-10.91h2.53l2.99,8.6,2.97-8.6h2.53l-4.07,10.91h-2.88Z" style="fill:#fff;"/><path d="M141.82,15.37c0-5.05,4.1-9.15,9.15-9.15h71.68c5.05,0,9.15,4.1,9.15,9.15v34.31c0,5.05-4.1,9.15-9.15,9.15h-71.68c-5.05,0-9.15-4.1-9.15-9.15V15.37Z" style="fill:#f2efe9;"/><g style="mask:url(#uuid-ccdcdc2e-f4d1-41f3-a724-e5d4be362db5);"><path d="M150.67,5.7v1.56h73.32v-3.12h-73.32v1.56ZM233.35,15.06h-1.56v35.1h3.12V15.06h-1.56ZM223.99,59.52v-1.56h-73.32v3.12h73.32v-1.56ZM141.31,50.16h1.56V15.06h-3.12v35.1h1.56ZM150.67,59.52v-1.56c-4.31,0-7.8-3.49-7.8-7.8h-3.12c0,6.03,4.89,10.92,10.92,10.92v-1.56ZM233.35,50.16h-1.56c0,4.31-3.49,7.8-7.8,7.8v3.12c6.03,0,10.92-4.89,10.92-10.92h-1.56ZM223.99,5.7v1.56c4.31,0,7.8,3.49,7.8,7.8h3.12c0-6.03-4.89-10.92-10.92-10.92v1.56ZM150.67,5.7v-1.56c-6.03,0-10.92,4.89-10.92,10.92h3.12c0-4.31,3.49-7.8,7.8-7.8v-1.56Z" style="fill:#141414;"/></g><path d="M197.55,37.05c-.64,1.51-1.63,2.83-2.9,3.86-1.27,1.03-2.77,1.74-4.37,2.05-1.6.32-3.26.24-4.82-.23-1.56-.47-2.99-1.32-4.15-2.47-1.16-1.15-2.02-2.56-2.51-4.12-.49-1.56-.59-3.21-.29-4.82.3-1.61.99-3.11,2-4.39,1.02-1.28,2.33-2.29,3.83-2.94" style="fill:none; stroke:#000; stroke-linecap:round; stroke-linejoin:round; stroke-width:2px;"/><path d="M198.34,33.16c0-1.31-.26-2.61-.76-3.83-.5-1.21-1.24-2.32-2.17-3.24-.93-.93-2.03-1.67-3.24-2.17-1.21-.5-2.51-.76-3.83-.76v10h10Z" style="fill:#141414; stroke:#000; stroke-linecap:round; stroke-linejoin:round; stroke-width:2px;"/><g style="clip-path:url(#uuid-18477888-12ab-4136-87be-6c9e3a4e1d9e);"><path d="M186.32,182.86l-33.25,19.21-33.25-19.21,33.25-19.21,33.25,19.21Z" style="fill:#9185be; stroke:#141414; stroke-linecap:round; stroke-linejoin:round; stroke-width:4px;"/><path d="M186.32,182.86l-33.25,19.21-33.25-19.21,33.25-19.21,33.25,19.21Z" style="fill:#9185be; stroke:#141414; stroke-linecap:round; stroke-linejoin:round; stroke-width:4px;"/><path d="M186.32,144.46l-33.25,19.21-33.25-19.21,33.25-19.21,33.25,19.21Z" style="fill:#9185be; stroke:#141414; stroke-linecap:round; stroke-linejoin:round; stroke-width:4px;"/><path d="M153.07,163.66v38.39l-33.25-19.21v-38.39l33.25,19.21Z" style="fill:#9185be; stroke:#141414; stroke-linecap:round; stroke-linejoin:round; stroke-width:4px;"/><path d="M186.32,144.45v38.39l-33.25,19.21v-38.39l33.25-19.21Z" style="fill:#9185be; stroke:#141414; stroke-linecap:round; stroke-linejoin:round; stroke-width:4px;"/><path d="M219.57,202.09l-33.25,19.21-33.25-19.21,33.25-19.21,33.25,19.21Z" style="fill:#f5b4cb; stroke:#141414; stroke-linecap:round; stroke-linejoin:round; stroke-width:4px;"/><path d="M219.57,202.09l-33.25,19.21-33.25-19.21,33.25-19.21,33.25,19.21Z" style="fill:#f5b4cb; stroke:#141414; stroke-linecap:round; stroke-linejoin:round; stroke-width:4px;"/><path d="M219.57,163.69l-33.25,19.21-33.25-19.21,33.25-19.21,33.25,19.21Z" style="fill:#f5b4cb; stroke:#141414; stroke-linecap:round; stroke-linejoin:round; stroke-width:4px;"/><path d="M186.32,182.9v38.39l-33.25-19.21v-38.39l33.25,19.21Z" style="fill:#f5b4cb; stroke:#141414; stroke-linecap:round; stroke-linejoin:round; stroke-width:4px;"/><path d="M219.57,163.69v38.39l-33.25,19.21v-38.39l33.25-19.21Z" style="fill:#f5b4cb; stroke:#141414; stroke-linecap:round; stroke-linejoin:round; stroke-width:4px;"/><path d="M219.57,163.67l-33.25,19.21-33.25-19.21,33.25-19.21,33.25,19.21Z" style="fill:#aac9e7; stroke:#141414; stroke-linecap:round; stroke-linejoin:round; stroke-width:4px;"/><path d="M219.57,163.67l-33.25,19.21-33.25-19.21,33.25-19.21,33.25,19.21Z" style="fill:#aac9e7; stroke:#141414; stroke-linecap:round; stroke-linejoin:round; stroke-width:4px;"/><path d="M219.57,125.26l-33.25,19.21-33.25-19.21,33.25-19.21,33.25,19.21Z" style="fill:#aac9e7; stroke:#141414; stroke-linecap:round; stroke-linejoin:round; stroke-width:4px;"/><path d="M186.32,144.46v38.39l-33.25-19.21v-38.39l33.25,19.21Z" style="fill:#aac9e7; stroke:#141414; stroke-linecap:round; stroke-linejoin:round; stroke-width:4px;"/><path d="M219.57,125.25v38.39l-33.25,19.21v-38.39l33.25-19.21Z" style="fill:#aac9e7; stroke:#141414; stroke-linecap:round; stroke-linejoin:round; stroke-width:4px;"/></g><path d="M73.51,119.2c-.9-.64-2.15-.43-2.79.47s-.43,2.15.47,2.79l1.16-1.63,1.16-1.63ZM113.42,151.79c1.09-.18,1.82-1.22,1.64-2.3l-2.99-17.75c-.18-1.09-1.22-1.82-2.3-1.64s-1.82,1.22-1.64,2.3l2.66,15.78-15.78,2.66c-1.09.18-1.82,1.22-1.64,2.3s1.22,1.82,2.3,1.64l17.75-2.99ZM71.23,122.49c.9.64,2.15.43,2.79-.47s.43-2.15-.47-2.79l-1.16,1.63-1.16,1.63ZM80.26,124c-.9-.64-2.15-.43-2.79.47s-.43,2.15.47,2.79l1.16-1.63,1.16-1.63ZM78.02,127.32c.9.64,2.15.43,2.79-.47s.43-2.15-.47-2.79l-1.16,1.63-1.16,1.63ZM87.05,128.83c-.9-.64-2.15-.43-2.79.47s-.43,2.15.47,2.79l1.16-1.63,1.16-1.63ZM84.81,132.15c.9.64,2.15.43,2.79-.47s.43-2.15-.47-2.79l-1.16,1.63-1.16,1.63ZM93.84,133.66c-.9-.64-2.15-.43-2.79.47s-.43,2.15.47,2.79l1.16-1.63,1.16-1.63ZM91.6,136.98c.9.64,2.15.43,2.79-.47s.43-2.15-.47-2.79l-1.16,1.63-1.16,1.63ZM100.63,138.49c-.9-.64-2.15-.43-2.79.47s-.43,2.15.47,2.79l1.16-1.63,1.16-1.63ZM98.39,141.81c.9.64,2.15.43,2.79-.47s.43-2.15-.47-2.79l-1.16,1.63-1.16,1.63ZM107.42,143.32c-.9-.64-2.15-.43-2.79.47s-.43,2.15.47,2.79l1.16-1.63,1.16-1.63ZM105.18,146.64c.9.64,2.15.43,2.79-.47s.43-2.15-.47-2.79l-1.16,1.63-1.16,1.63ZM114.21,148.15c-.9-.64-2.15-.43-2.79.47s-.43,2.15.47,2.79l1.16-1.63,1.16-1.63ZM72.35,120.83l-1.16,1.63.04.03,1.16-1.63,1.16-1.63-.04-.03-1.16,1.63ZM79.1,125.63l-1.16,1.63.08.06,1.16-1.63,1.16-1.63-.08-.06-1.16,1.63ZM85.89,130.46l-1.16,1.63.08.06,1.16-1.63,1.16-1.63-.08-.06-1.16,1.63ZM92.68,135.29l-1.16,1.63.08.06,1.16-1.63,1.16-1.63-.08-.06-1.16,1.63ZM99.47,140.12l-1.16,1.63.08.06,1.16-1.63,1.16-1.63-.08-.06-1.16,1.63ZM106.26,144.95l-1.16,1.63.08.06,1.16-1.63,1.16-1.63-.08-.06-1.16,1.63ZM113.05,149.78l-1.16,1.63.04.03,1.16-1.63,1.16-1.63-.04-.03-1.16,1.63Z" style="fill:#141414;"/><path d="M184.53,118.22c0,1.11.89,2,2,2s2-.89,2-2h-2s-2,0-2,0ZM187.96,66.81c-.78-.78-2.05-.78-2.83,0l-12.73,12.73c-.78.78-.78,2.05,0,2.83s2.05.78,2.83,0l11.32-11.31,11.31,11.32c.78.78,2.05.78,2.83,0s.78-2.05,0-2.83l-12.73-12.73ZM188.53,118.17c0-1.11-.89-2-2-2s-2,.89-2,2h2s2,0,2,0ZM184.53,109.94c0,1.1.89,2,2,2s2-.89,2-2h-2s-2,0-2,0ZM188.53,109.84c0-1.1-.89-2-2-2s-2,.9-2,2h2s2,0,2,0ZM184.53,101.61c0,1.1.89,2,2,2s2-.9,2-2h-2s-2,0-2,0ZM188.53,101.5c0-1.11-.89-2-2-2s-2,.89-2,2h2s2,0,2,0ZM184.54,93.27c0,1.1.89,2,2,2s2-.9,2-2h-2s-2,0-2,0ZM188.54,93.17c0-1.11-.89-2-2-2s-2,.89-2,2h2s2,0,2,0ZM184.54,84.94c0,1.1.89,2,2,2s2-.89,2-2h-2s-2,0-2,0ZM188.54,84.84c0-1.1-.89-2-2-2s-2,.9-2,2h2s2,0,2,0ZM184.54,76.61c0,1.1.89,2,2,2s2-.9,2-2h-2s-2,0-2,0ZM188.54,76.5c0-1.11-.89-2-2-2s-2,.89-2,2h2s2,0,2,0ZM184.54,68.27c0,1.1.89,2,2,2s2-.9,2-2h-2s-2,0-2,0ZM186.53,118.22h2s0-.05,0-.05h-2s-2,0-2,0v.05s2,0,2,0ZM186.53,109.94h2s0-.1,0-.1h-2s-2,0-2,0v.1s2,0,2,0ZM186.53,101.61h2s0-.1,0-.1h-2s-2,0-2,0v.1s2,0,2,0ZM186.54,93.27h2s0-.1,0-.1h-2s-2,0-2,0v.1s2,0,2,0ZM186.54,84.94h2s0-.1,0-.1h-2s-2,0-2,0v.1s2,0,2,0ZM186.54,76.61h2s0-.1,0-.1h-2s-2,0-2,0v.1s2,0,2,0ZM186.54,68.27h2s0-.05,0-.05h-2s-2,0-2,0v.05s2,0,2,0Z" style="fill:#141414;"/></svg>