<?xml version="1.0" encoding="UTF-8"?><svg id="uuid-992e2b1c-3ac2-4b4b-b20d-878f022f3c2e" xmlns="http://www.w3.org/2000/svg" xmlns:xlink="http://www.w3.org/1999/xlink" viewBox="0 0 378.49 349.14"><defs><mask id="uuid-d2654237-991f-48ed-bfed-e040d8a47cca" x="3.39" y="47.13" width="244" height="88" maskUnits="userSpaceOnUse"><g id="uuid-a112ab45-d3b0-4357-ba81-f281af11585f"><path d="M7.39,91.13c0-22.09,17.91-40,40-40h156c22.09,0,40,17.91,40,40s-17.91,40-40,40H47.39c-22.09,0-40-17.91-40-40Z" style="fill:#fff;"/></g></mask><mask id="uuid-71ce81a1-4231-438e-9b19-16ee284d26fd" x="194.65" y="161.86" width="183.11" height="109.56" maskUnits="userSpaceOnUse"><g id="uuid-ea9d3d52-f16b-4074-b59c-73c3c994e295"><path d="M197.65,182.88c0-9.95,8.06-18.01,18.01-18.01h141.08c9.95,0,18.01,8.06,18.01,18.01v67.54c0,9.95-8.06,18.01-18.01,18.01h-141.08c-9.95,0-18.01-8.06-18.01-18.01v-67.54Z" style="fill:#fff;"/></g></mask><clipPath id="uuid-376151e4-7630-4dcf-8d11-e0c61015a3d0"><rect x="31.25" y="175.33" width="105" height="120" style="fill:none;"/></clipPath></defs><path d="M70.22,138.21c0-1.1-.89-2-2-2s-2,.9-2,2h4ZM66.81,189.62c.78.78,2.05.78,2.83,0l12.73-12.73c.78-.78.78-2.05,0-2.83s-2.05-.78-2.83,0l-11.31,11.31-11.31-11.31c-.78-.78-2.05-.78-2.83,0s-.78,2.05,0,2.83l12.73,12.73ZM66.22,138.26c0,1.11.89,2,2,2s2-.89,2-2h-4ZM70.22,146.49c0-1.1-.89-2-2-2s-2,.9-2,2h4ZM66.22,146.6c0,1.1.89,2,2,2s2-.9,2-2h-4ZM70.22,154.83c0-1.1-.89-2-2-2s-2,.9-2,2h4ZM66.22,154.93c0,1.1.89,2,2,2s2-.9,2-2h-4ZM70.22,163.16c0-1.11-.89-2-2-2s-2,.89-2,2h4ZM66.22,163.26c0,1.11.89,2,2,2s2-.89,2-2h-4ZM70.22,171.49c0-1.1-.89-2-2-2s-2,.9-2,2h4ZM66.22,171.6c0,1.1.89,2,2,2s2-.9,2-2h-4ZM70.22,179.83c0-1.1-.89-2-2-2s-2,.9-2,2h4ZM66.22,179.93c0,1.1.89,2,2,2s2-.9,2-2h-4ZM70.22,188.16c0-1.11-.89-2-2-2s-2,.89-2,2h4ZM68.22,138.21h-2v.05h4v-.05h-2ZM68.22,146.49h-2v.1h4v-.1h-2ZM68.22,154.83h-2v.1h4v-.1h-2ZM68.22,163.16h-2v.1h4v-.1h-2ZM68.22,171.49h-2v.1h4v-.1h-2ZM68.22,179.83h-2v.1h4v-.1h-2ZM68.22,188.16h-2v.05h4v-.05h-2Z" style="fill:#141414;"/><path d="M142.18,209.74c-1.11,0-2,.9-2,2s.89,2,2,2v-4ZM193.59,213.15c.78-.78.78-2.05,0-2.83l-12.73-12.73c-.78-.78-2.05-.78-2.83,0s-.78,2.05,0,2.83l11.31,11.31-11.31,11.31c-.78.78-.78,2.05,0,2.83s2.05.78,2.83,0l12.73-12.73ZM142.23,213.74c1.11,0,2-.9,2-2s-.89-2-2-2v4ZM150.46,209.74c-1.1,0-2,.9-2,2s.9,2,2,2v-4ZM150.56,213.74c1.1,0,2-.9,2-2s-.9-2-2-2v4ZM158.79,209.74c-1.1,0-2,.9-2,2s.9,2,2,2v-4ZM158.9,213.74c1.11,0,2-.9,2-2s-.89-2-2-2v4ZM167.13,209.74c-1.1,0-2,.9-2,2s.9,2,2,2v-4ZM167.23,213.74c1.11,0,2-.9,2-2s-.89-2-2-2v4ZM175.46,209.74c-1.1,0-2,.9-2,2s.9,2,2,2v-4ZM175.56,213.74c1.1,0,2-.9,2-2s-.9-2-2-2v4ZM183.79,209.74c-1.1,0-2,.9-2,2s.9,2,2,2v-4ZM183.9,213.74c1.11,0,2-.9,2-2s-.89-2-2-2v4ZM192.13,209.74c-1.1,0-2,.9-2,2s.9,2,2,2v-4ZM142.18,211.74v2h.05v-4h-.05v2ZM150.46,211.74v2h.1v-4h-.1v2ZM158.79,211.74v2h.1v-4h-.1v2ZM167.13,211.74v2h.1v-4h-.1v2ZM175.46,211.74v2h.1v-4h-.1v2ZM183.79,211.74v2h.1v-4h-.1v2ZM192.13,211.74v2h.05v-4h-.05v2Z" style="fill:#141414;"/><path d="M7.39,91.13c0-22.09,17.91-40,40-40h156c22.09,0,40,17.91,40,40s-17.91,40-40,40H47.39c-22.09,0-40-17.91-40-40Z" style="fill:#141414;"/><g style="mask:url(#uuid-d2654237-991f-48ed-bfed-e040d8a47cca);"><path d="M47.39,51.13v4h156v-8H47.39v4ZM203.39,131.13v-4H47.39v8h156v-4ZM47.39,131.13v-4c-19.88,0-36-16.12-36-36H3.39c0,24.3,19.7,44,44,44v-4ZM243.39,91.13h-4c0,19.88-16.12,36-36,36v8c24.3,0,44-19.7,44-44h-4ZM203.39,51.13v4c19.88,0,36,16.12,36,36h8c0-24.3-19.7-44-44-44v4ZM47.39,51.13v-4c-24.3,0-44,19.7-44,44h8c0-19.88,16.12-36,36-36v-4Z" style="fill:#141414;"/></g><path d="M47.75,87.4c-1.52,0-2.88-.34-4.05-1.01-1.16-.67-2.07-1.61-2.73-2.79-.65-1.2-.97-2.59-.97-4.16s.32-2.95.97-4.14c.66-1.2,1.57-2.14,2.73-2.82,1.17-.67,2.52-1.01,4.05-1.01s2.89.34,4.05,1.01c1.16.67,2.06,1.61,2.71,2.82.66,1.19.99,2.57.99,4.14s-.33,2.96-.99,4.16c-.65,1.19-1.55,2.12-2.71,2.79s-2.51,1.01-4.05,1.01ZM47.77,84.63c.94,0,1.75-.21,2.42-.62.69-.43,1.23-1.03,1.61-1.8.38-.78.57-1.7.57-2.77s-.19-1.99-.57-2.77c-.38-.78-.92-1.37-1.61-1.78-.67-.43-1.48-.64-2.42-.64s-1.75.21-2.44.64c-.69.41-1.23,1-1.61,1.78-.38.78-.57,1.7-.57,2.77s.19,1.99.57,2.77c.38.78.92,1.38,1.61,1.8.69.41,1.5.62,2.44.62ZM56.94,91.97v-15.75h3.08v1.5c.35-.47.81-.88,1.36-1.23.57-.35,1.3-.53,2.2-.53,1.01,0,1.92.25,2.73.75.81.5,1.45,1.18,1.91,2.05.47.87.7,1.85.7,2.95s-.23,2.06-.7,2.93c-.47.87-1.11,1.55-1.91,2.05-.81.48-1.72.73-2.73.73-.81,0-1.51-.15-2.11-.44-.59-.29-1.07-.7-1.45-1.23v6.25h-3.08ZM62.86,84.71c.57,0,1.08-.13,1.52-.4.45-.26.81-.62,1.06-1.08.25-.45.37-.97.37-1.54s-.12-1.11-.37-1.56c-.25-.47-.6-.84-1.06-1.1-.44-.26-.95-.4-1.52-.4s-1.08.13-1.52.4-.79.62-1.03,1.08c-.25.45-.37.98-.37,1.56s.12,1.11.37,1.56c.25.45.59.81,1.03,1.08s.95.4,1.52.4ZM75.55,87.4c-1.13,0-2.13-.23-2.99-.7-.87-.48-1.54-1.14-2.02-1.98-.48-.85-.73-1.83-.73-2.93s.23-2.13.7-3.01c.48-.88,1.16-1.57,2.02-2.07.87-.5,1.87-.75,3.01-.75s2.05.23,2.88.7,1.49,1.11,1.96,1.94c.47.81.7,1.73.7,2.77v.51c0,.18-.01.36-.04.55h-9.04v-1.85h5.96c-.04-.65-.29-1.16-.75-1.54-.44-.4-.99-.59-1.65-.59-.5,0-.96.11-1.39.33-.41.22-.74.56-.99,1.01-.23.44-.35,1-.35,1.69v.64c0,.56.11,1.05.33,1.47.23.41.55.73.95.97.41.22.88.33,1.41.33s.95-.11,1.3-.33c.35-.23.62-.54.81-.9h3.15c-.21.7-.56,1.34-1.06,1.91-.48.56-1.09,1-1.8,1.34-.7.32-1.5.48-2.38.48ZM82.38,87.13v-10.91h3.08v1.61c.35-.57.83-1.03,1.43-1.36.62-.34,1.33-.51,2.16-.51,1.38,0,2.43.44,3.17,1.32.73.87,1.1,2.12,1.1,3.76v6.09h-3.08v-5.81c0-.89-.18-1.58-.55-2.05-.35-.48-.92-.73-1.69-.73-.73,0-1.34.26-1.83.79-.47.51-.7,1.23-.7,2.16v5.63h-3.08ZM101.89,87.13v-15.4h5.41c1.8,0,3.29.32,4.44.97,1.17.63,2.04,1.53,2.6,2.68.57,1.14.86,2.49.86,4.05s-.29,2.89-.86,4.05c-.56,1.16-1.42,2.06-2.6,2.71-1.16.63-2.64.95-4.44.95h-5.41ZM104.97,84.49h2.16c1.25,0,2.22-.2,2.93-.59.72-.41,1.23-.99,1.54-1.74.31-.76.46-1.67.46-2.73s-.15-1.97-.46-2.73c-.31-.76-.82-1.34-1.54-1.74-.7-.41-1.68-.62-2.93-.62h-2.16v10.14ZM119.81,87.4c-.81,0-1.5-.15-2.09-.44-.59-.29-1.04-.69-1.36-1.19-.31-.5-.46-1.05-.46-1.65,0-1.13.4-2,1.21-2.62.82-.63,1.89-.95,3.21-.95.63,0,1.17.04,1.61.13.45.09.82.18,1.1.26v-.53c0-.72-.21-1.24-.64-1.56-.41-.32-.94-.48-1.58-.48-.44,0-.84.09-1.19.26-.35.18-.58.5-.68.97h-2.88c.09-.78.35-1.44.77-1.98.44-.54,1-.95,1.69-1.23.69-.29,1.45-.44,2.29-.44,1.64,0,2.93.39,3.87,1.17.95.76,1.43,1.86,1.43,3.3v2.27c0,.56.03.98.09,1.25.07.26.18.43.33.51.15.07.34.11.57.11h.09v2.57h-.68c-.79,0-1.45-.1-1.98-.29-.53-.21-.92-.59-1.17-1.17-.38.5-.87.91-1.47,1.23-.6.32-1.29.48-2.07.48ZM120.53,85.07c.43,0,.79-.09,1.08-.26.31-.19.57-.45.77-.77.21-.34.36-.71.46-1.12-.29-.09-.64-.17-1.03-.24-.38-.09-.77-.13-1.17-.13-.45,0-.84.12-1.17.35-.32.22-.48.54-.48.97,0,.35.14.65.42.88.28.22.65.33,1.12.33ZM132.48,87.13c-.76,0-1.41-.09-1.94-.26-.51-.18-.9-.51-1.17-1.01-.26-.51-.4-1.25-.4-2.2v-4.86h-1.87v-2.57h1.87v-2.99h3.08v2.99h2.68v2.57h-2.68v4.49c0,.34.04.59.11.77.07.18.21.3.4.37.21.06.48.09.81.09h1.3v2.62h-2.2ZM139.14,87.4c-.81,0-1.5-.15-2.09-.44-.59-.29-1.04-.69-1.36-1.19-.31-.5-.46-1.05-.46-1.65,0-1.13.4-2,1.21-2.62.82-.63,1.89-.95,3.21-.95.63,0,1.17.04,1.61.13.45.09.82.18,1.1.26v-.53c0-.72-.21-1.24-.64-1.56-.41-.32-.94-.48-1.58-.48-.44,0-.84.09-1.19.26-.35.18-.58.5-.68.97h-2.88c.09-.78.35-1.44.77-1.98.44-.54,1.01-.95,1.69-1.23.69-.29,1.45-.44,2.29-.44,1.64,0,2.93.39,3.87,1.17.95.76,1.43,1.86,1.43,3.3v2.27c0,.56.03.98.09,1.25.07.26.18.43.33.51.15.07.34.11.57.11h.09v2.57h-.68c-.79,0-1.45-.1-1.98-.29-.53-.21-.92-.59-1.17-1.17-.38.5-.87.91-1.47,1.23-.6.32-1.29.48-2.07.48ZM139.87,85.07c.43,0,.79-.09,1.08-.26.31-.19.57-.45.77-.77.21-.34.36-.71.46-1.12-.29-.09-.64-.17-1.03-.24-.38-.09-.77-.13-1.17-.13-.45,0-.84.12-1.17.35-.32.22-.48.54-.48.97,0,.35.14.65.42.88.28.22.65.33,1.12.33ZM154.53,87.13v-15.4h5.87c1.25,0,2.27.21,3.08.64.82.41,1.43.98,1.83,1.72.41.72.62,1.53.62,2.44,0,.84-.2,1.62-.59,2.35-.38.72-.98,1.31-1.8,1.76-.81.44-1.85.66-3.12.66h-2.79v5.83h-3.08ZM157.61,78.82h2.6c.91,0,1.57-.21,1.98-.62.41-.41.62-.97.62-1.67s-.21-1.28-.62-1.67c-.41-.41-1.07-.62-1.98-.62h-2.6v4.58ZM171.99,87.4c-1.1,0-2.1-.24-2.99-.73-.88-.48-1.58-1.16-2.11-2.02-.51-.87-.77-1.86-.77-2.97s.26-2.12.77-2.97c.53-.87,1.24-1.54,2.13-2.02.89-.48,1.88-.73,2.97-.73s2.09.24,2.97.73c.89.48,1.6,1.16,2.11,2.02.53.85.79,1.84.79,2.97s-.26,2.1-.79,2.97c-.51.87-1.22,1.54-2.11,2.02-.88.48-1.87.73-2.97.73ZM171.99,84.74c.5,0,.95-.11,1.36-.33.41-.23.73-.58.97-1.03.25-.45.37-1.02.37-1.69s-.12-1.24-.37-1.69c-.25-.45-.58-.79-.99-1.01-.4-.23-.84-.35-1.32-.35s-.95.12-1.36.35c-.41.22-.74.56-.99,1.01-.25.44-.37,1-.37,1.69s.12,1.24.35,1.69c.25.45.58.8.99,1.03.41.22.87.33,1.36.33ZM179.12,87.13v-10.91h3.08v1.65c.29-.54.66-.97,1.1-1.28.44-.32.94-.48,1.5-.48h1.34v2.73h-1.65c-.54,0-.98.14-1.32.42-.34.28-.59.7-.75,1.25-.15.54-.22,1.21-.22,2v4.62h-3.08ZM192.14,87.13c-.76,0-1.41-.09-1.94-.26-.51-.18-.9-.51-1.17-1.01-.26-.51-.4-1.25-.4-2.2v-4.86h-1.87v-2.57h1.87v-2.99h3.08v2.99h2.68v2.57h-2.68v4.49c0,.34.04.59.11.77.07.18.21.3.4.37.21.06.48.09.81.09h1.3v2.62h-2.2ZM198.81,87.4c-.81,0-1.5-.15-2.09-.44-.59-.29-1.04-.69-1.36-1.19-.31-.5-.46-1.05-.46-1.65,0-1.13.4-2,1.21-2.62.82-.63,1.89-.95,3.21-.95.63,0,1.17.04,1.61.13.45.09.82.18,1.1.26v-.53c0-.72-.21-1.24-.64-1.56-.41-.32-.94-.48-1.58-.48-.44,0-.84.09-1.19.26-.35.18-.58.5-.68.97h-2.88c.09-.78.35-1.44.77-1.98.44-.54,1.01-.95,1.69-1.23.69-.29,1.45-.44,2.29-.44,1.64,0,2.93.39,3.87,1.17.95.76,1.43,1.86,1.43,3.3v2.27c0,.56.03.98.09,1.25.07.26.18.43.33.51.15.07.34.11.57.11h.09v2.57h-.68c-.79,0-1.45-.1-1.98-.29-.53-.21-.92-.59-1.17-1.17-.38.5-.87.91-1.47,1.23-.6.32-1.29.48-2.07.48ZM199.53,85.07c.43,0,.78-.09,1.08-.26.31-.19.57-.45.77-.77.21-.34.36-.71.46-1.12-.29-.09-.64-.17-1.03-.24-.38-.09-.77-.13-1.17-.13-.45,0-.84.12-1.17.35-.32.22-.48.54-.48.97,0,.35.14.65.42.88.28.22.65.33,1.12.33ZM207.2,87.13v-15.84h3.08v15.84h-3.08Z" style="fill:#fff;"/><path d="M40.29,111.13v-2.99h3.12v2.99h-3.12ZM50.24,111.4c-1.08,0-2.05-.24-2.9-.73-.84-.48-1.5-1.15-1.98-2-.48-.87-.73-1.86-.73-2.99s.24-2.12.73-2.97c.48-.87,1.14-1.54,1.98-2.02.85-.48,1.82-.73,2.9-.73,1.35,0,2.49.35,3.41,1.06.92.7,1.51,1.66,1.76,2.88h-2.51c-.15-.59-.46-1.04-.95-1.36-.48-.34-1.06-.51-1.74-.51-.54,0-1.06.15-1.54.44-.47.28-.85.69-1.14,1.23-.28.53-.42,1.19-.42,1.98s.14,1.44.42,2c.29.54.67.95,1.14,1.23.48.28,1,.42,1.54.42.68,0,1.25-.16,1.74-.48s.8-.78.95-1.39h2.51c-.24,1.17-.82,2.13-1.76,2.86-.92.72-2.06,1.08-3.41,1.08ZM61.63,111.4c-1.38,0-2.53-.32-3.45-.97-.91-.65-1.43-1.55-1.56-2.73h2.49c.1.54.39.98.86,1.3s1.06.48,1.76.48,1.22-.14,1.58-.42c.38-.28.57-.62.57-1.03,0-.34-.12-.59-.37-.77-.23-.18-.67-.32-1.32-.42-.25-.04-.54-.09-.88-.13-.34-.06-.63-.12-.88-.18-.56-.1-1.09-.28-1.58-.53-.48-.25-.88-.59-1.19-1.01-.31-.44-.46-.99-.46-1.65,0-.95.36-1.75,1.08-2.4.72-.66,1.74-.99,3.06-.99s2.35.29,3.15.88c.81.57,1.27,1.43,1.39,2.57h-2.38c-.04-.53-.27-.92-.68-1.17-.41-.25-.9-.37-1.47-.37-.6,0-1.08.12-1.43.37-.35.25-.53.56-.53.92,0,.67.54,1.11,1.61,1.3.16.03.35.07.55.11.22.03.44.07.66.11.24.03.43.06.59.09.38.04.77.13,1.17.26.4.12.76.29,1.1.51s.61.51.81.88.31.83.31,1.39c0,.7-.18,1.33-.55,1.87-.35.53-.86.95-1.54,1.25-.67.31-1.49.46-2.44.46ZM70.72,111.13l-4.07-10.91h2.53l2.99,8.6,2.97-8.6h2.53l-4.07,10.91h-2.88Z" style="fill:#fff;"/><path d="M308.76,14.26c-1.52,0-2.88-.34-4.05-1.01-1.16-.67-2.07-1.61-2.73-2.79-.64-1.2-.97-2.59-.97-4.16s.32-2.95.97-4.14c.66-1.2,1.57-2.14,2.73-2.82,1.17-.67,2.52-1.01,4.05-1.01s2.89.34,4.05,1.01c1.16.67,2.06,1.61,2.71,2.82.66,1.19.99,2.57.99,4.14s-.33,2.96-.99,4.16c-.65,1.19-1.55,2.12-2.71,2.79s-2.51,1.01-4.05,1.01ZM308.78,11.49c.94,0,1.74-.21,2.42-.62.69-.43,1.22-1.03,1.61-1.8.38-.78.57-1.7.57-2.77s-.19-1.99-.57-2.77c-.38-.78-.92-1.37-1.61-1.78-.67-.43-1.48-.64-2.42-.64s-1.75.21-2.44.64c-.69.41-1.22,1-1.61,1.78-.38.78-.57,1.7-.57,2.77s.19,1.99.57,2.77c.38.78.92,1.38,1.61,1.8.69.41,1.5.62,2.44.62ZM317.95,18.84V3.08h3.08v1.5c.35-.47.81-.88,1.36-1.23.57-.35,1.3-.53,2.2-.53,1.01,0,1.92.25,2.73.75.81.5,1.45,1.18,1.91,2.05.47.87.7,1.85.7,2.95s-.23,2.06-.7,2.93c-.47.87-1.11,1.55-1.91,2.05-.81.48-1.72.73-2.73.73-.81,0-1.51-.15-2.11-.44-.59-.29-1.07-.7-1.45-1.23v6.25h-3.08ZM323.87,11.58c.57,0,1.08-.13,1.52-.4.46-.26.81-.62,1.06-1.08.25-.45.37-.97.37-1.54s-.12-1.11-.37-1.56c-.25-.47-.6-.84-1.06-1.1-.44-.26-.95-.4-1.52-.4s-1.08.13-1.52.4-.78.62-1.03,1.08c-.25.45-.37.98-.37,1.56s.12,1.11.37,1.56c.25.45.59.81,1.03,1.08s.95.4,1.52.4ZM336.55,14.26c-1.13,0-2.13-.23-2.99-.7-.86-.48-1.54-1.14-2.02-1.98-.48-.85-.73-1.83-.73-2.93s.23-2.13.7-3.01c.48-.88,1.16-1.57,2.02-2.07.87-.5,1.87-.75,3.01-.75s2.05.23,2.88.7,1.49,1.11,1.96,1.94c.47.81.7,1.73.7,2.77v.51c0,.18-.01.36-.04.55h-9.04v-1.85h5.96c-.04-.65-.29-1.16-.75-1.54-.44-.4-.99-.59-1.65-.59-.5,0-.96.11-1.39.33-.41.22-.74.56-.99,1.01-.23.44-.35,1-.35,1.69v.64c0,.56.11,1.05.33,1.47.24.41.55.73.95.97.41.22.88.33,1.41.33s.95-.11,1.3-.33c.35-.23.62-.54.81-.9h3.15c-.2.7-.56,1.34-1.06,1.91-.48.56-1.09,1-1.8,1.34-.7.32-1.5.48-2.38.48ZM343.38,14V3.08h3.08v1.61c.35-.57.83-1.03,1.43-1.36.62-.34,1.33-.51,2.16-.51,1.38,0,2.43.44,3.17,1.32.73.87,1.1,2.12,1.1,3.76v6.09h-3.08v-5.81c0-.89-.18-1.58-.55-2.05-.35-.48-.92-.73-1.69-.73-.73,0-1.34.26-1.83.79-.47.51-.7,1.23-.7,2.16v5.63h-3.08ZM362.9,14V-1.4h5.41c1.8,0,3.28.32,4.44.97,1.17.63,2.04,1.53,2.6,2.68.57,1.14.86,2.49.86,4.05s-.29,2.89-.86,4.05c-.56,1.16-1.42,2.06-2.6,2.71-1.16.63-2.64.95-4.44.95h-5.41ZM365.98,11.36h2.16c1.25,0,2.22-.2,2.93-.59.72-.41,1.23-.99,1.54-1.74.31-.76.46-1.67.46-2.73s-.15-1.97-.46-2.73c-.31-.76-.82-1.34-1.54-1.74-.7-.41-1.68-.62-2.93-.62h-2.16v10.14ZM380.81,14.26c-.81,0-1.5-.15-2.09-.44-.59-.29-1.04-.69-1.36-1.19-.31-.5-.46-1.05-.46-1.65,0-1.13.4-2,1.21-2.62.82-.63,1.89-.95,3.21-.95.63,0,1.17.04,1.61.13.45.09.82.18,1.1.26v-.53c0-.72-.21-1.24-.64-1.56-.41-.32-.94-.48-1.58-.48-.44,0-.84.09-1.19.26-.35.18-.58.5-.68.97h-2.88c.09-.78.35-1.44.77-1.98.44-.54,1.01-.95,1.69-1.23.69-.29,1.45-.44,2.29-.44,1.64,0,2.93.39,3.87,1.17.95.76,1.43,1.86,1.43,3.3v2.27c0,.56.03.98.09,1.25.07.26.18.43.33.51.15.07.34.11.57.11h.09v2.57h-.68c-.79,0-1.45-.1-1.98-.29-.53-.21-.92-.59-1.17-1.17-.38.5-.87.91-1.47,1.23-.6.32-1.29.48-2.07.48ZM381.54,11.93c.43,0,.78-.09,1.08-.26.31-.19.57-.45.77-.77.21-.34.36-.71.46-1.12-.29-.09-.64-.17-1.03-.24-.38-.09-.77-.13-1.17-.13-.45,0-.84.12-1.17.35-.32.22-.48.54-.48.97,0,.35.14.65.42.88.28.22.65.33,1.12.33ZM393.49,14c-.76,0-1.41-.09-1.94-.26-.51-.18-.9-.51-1.17-1.01-.26-.51-.4-1.25-.4-2.2v-4.86h-1.87v-2.57h1.87V.09h3.08v2.99h2.68v2.57h-2.68v4.49c0,.34.04.59.11.77.07.18.21.3.4.37.21.06.48.09.81.09h1.3v2.62h-2.2ZM400.15,14.26c-.81,0-1.5-.15-2.09-.44-.59-.29-1.04-.69-1.36-1.19-.31-.5-.46-1.05-.46-1.65,0-1.13.4-2,1.21-2.62.82-.63,1.89-.95,3.21-.95.63,0,1.17.04,1.61.13.45.09.82.18,1.1.26v-.53c0-.72-.21-1.24-.64-1.56-.41-.32-.94-.48-1.58-.48-.44,0-.84.09-1.19.26-.35.18-.58.5-.68.97h-2.88c.09-.78.35-1.44.77-1.98.44-.54,1.01-.95,1.69-1.23.69-.29,1.45-.44,2.29-.44,1.64,0,2.93.39,3.87,1.17.95.76,1.43,1.86,1.43,3.3v2.27c0,.56.03.98.09,1.25.07.26.18.43.33.51.15.07.34.11.57.11h.09v2.57h-.68c-.79,0-1.45-.1-1.98-.29-.53-.21-.92-.59-1.17-1.17-.38.5-.87.91-1.47,1.23-.6.32-1.29.48-2.07.48ZM400.87,11.93c.43,0,.78-.09,1.08-.26.31-.19.56-.45.77-.77.21-.34.36-.71.46-1.12-.29-.09-.64-.17-1.03-.24-.38-.09-.77-.13-1.17-.13-.45,0-.84.12-1.17.35-.32.22-.48.54-.48.97,0,.35.14.65.42.88.28.22.65.33,1.12.33ZM415.53,14V-1.4h5.87c1.25,0,2.27.21,3.08.64.82.41,1.43.98,1.83,1.72.41.72.62,1.53.62,2.44,0,.84-.2,1.62-.59,2.35-.38.72-.98,1.31-1.8,1.76-.81.44-1.85.66-3.12.66h-2.79v5.83h-3.08ZM418.61,5.68h2.6c.91,0,1.57-.21,1.98-.62.41-.41.62-.97.62-1.67s-.21-1.28-.62-1.67c-.41-.41-1.07-.62-1.98-.62h-2.6v4.58ZM433,14.26c-1.1,0-2.1-.24-2.99-.73-.88-.48-1.58-1.16-2.11-2.02-.51-.87-.77-1.86-.77-2.97s.26-2.12.77-2.97c.53-.87,1.24-1.54,2.13-2.02.89-.48,1.88-.73,2.97-.73s2.09.24,2.97.73c.89.48,1.6,1.16,2.11,2.02.53.85.79,1.84.79,2.97s-.26,2.1-.79,2.97c-.51.87-1.22,1.54-2.11,2.02-.88.48-1.87.73-2.97.73ZM433,11.6c.5,0,.95-.11,1.36-.33.41-.23.73-.58.97-1.03.25-.45.37-1.02.37-1.69s-.12-1.24-.37-1.69c-.25-.45-.58-.79-.99-1.01-.4-.23-.84-.35-1.32-.35s-.95.12-1.36.35c-.41.22-.74.56-.99,1.01-.25.44-.37,1-.37,1.69s.12,1.24.35,1.69c.25.45.58.8.99,1.03.41.22.86.33,1.36.33ZM440.13,14V3.08h3.08v1.65c.29-.54.66-.97,1.1-1.28.44-.32.94-.48,1.5-.48h1.34v2.73h-1.65c-.54,0-.98.14-1.32.42-.34.28-.59.7-.75,1.25-.15.54-.22,1.21-.22,2v4.62h-3.08ZM453.15,14c-.76,0-1.41-.09-1.94-.26-.51-.18-.9-.51-1.17-1.01-.26-.51-.4-1.25-.4-2.2v-4.86h-1.87v-2.57h1.87V.09h3.08v2.99h2.68v2.57h-2.68v4.49c0,.34.04.59.11.77.07.18.21.3.4.37.21.06.48.09.81.09h1.3v2.62h-2.2ZM459.81,14.26c-.81,0-1.5-.15-2.09-.44-.59-.29-1.04-.69-1.36-1.19-.31-.5-.46-1.05-.46-1.65,0-1.13.4-2,1.21-2.62.82-.63,1.89-.95,3.21-.95.63,0,1.17.04,1.61.13.46.09.82.18,1.1.26v-.53c0-.72-.21-1.24-.64-1.56-.41-.32-.94-.48-1.58-.48-.44,0-.84.09-1.19.26-.35.18-.58.5-.68.97h-2.88c.09-.78.35-1.44.77-1.98.44-.54,1.01-.95,1.69-1.23.69-.29,1.45-.44,2.29-.44,1.64,0,2.93.39,3.87,1.17.95.76,1.43,1.86,1.43,3.3v2.27c0,.56.03.98.09,1.25.07.26.18.43.33.51.15.07.34.11.57.11h.09v2.57h-.68c-.79,0-1.45-.1-1.98-.29-.53-.21-.92-.59-1.17-1.17-.38.5-.87.91-1.47,1.23-.6.32-1.29.48-2.07.48ZM460.54,11.93c.43,0,.78-.09,1.08-.26.31-.19.57-.45.77-.77.21-.34.36-.71.46-1.12-.29-.09-.64-.17-1.03-.24-.38-.09-.77-.13-1.17-.13-.45,0-.84.12-1.17.35-.32.22-.48.54-.48.97,0,.35.14.65.42.88.28.22.65.33,1.12.33ZM468.21,14V-1.84h3.08v15.84h-3.08Z" style="fill:#fff;"/><path d="M305.3,38l-4.14-15.4h2.57l3.34,14.04h-.7l3.85-14.04h2.66l3.76,14.06h-.7l3.34-14.06h2.6l-4.22,15.4h-2.84l-3.59-12.87h.53l-3.67,12.87h-2.79ZM323.97,38v-15.4h9.72v1.96h-7.3v4.75h6.05v1.94h-6.05v6.75h-2.42ZM340.6,38.26c-.75,0-1.47-.1-2.18-.29-.7-.21-1.34-.52-1.91-.95-.57-.43-1.04-.97-1.41-1.63-.37-.66-.59-1.44-.66-2.35h2.29c.1.76.35,1.38.73,1.85.38.45.85.78,1.41.99.56.19,1.14.29,1.76.29s1.17-.09,1.67-.26c.5-.19.89-.47,1.19-.84.29-.38.44-.85.44-1.41,0-.51-.15-.97-.44-1.36-.28-.4-.84-.67-1.69-.81l-2.86-.53c-1.17-.22-2.11-.7-2.82-1.45-.7-.75-1.06-1.64-1.06-2.66,0-.95.24-1.76.73-2.42.5-.67,1.15-1.19,1.96-1.54.82-.37,1.72-.55,2.68-.55s1.91.18,2.71.53c.81.35,1.46.88,1.96,1.58.51.69.82,1.58.92,2.66h-2.33c-.09-.66-.29-1.19-.59-1.58-.31-.4-.69-.68-1.14-.86-.45-.18-.95-.26-1.5-.26-.5,0-.99.08-1.47.24-.48.16-.88.42-1.19.77-.29.34-.44.78-.44,1.34,0,.51.19.96.57,1.34.38.37.94.62,1.67.75l2.66.51c1.28.23,2.26.7,2.95,1.39.7.69,1.06,1.64,1.06,2.86,0,.78-.16,1.46-.48,2.05-.32.57-.76,1.06-1.3,1.45-.54.38-1.15.67-1.83.88-.66.19-1.34.29-2.05.29Z" style="fill:#fff;"/><path d="M198.65,183.47c0-9.72,7.88-17.61,17.61-17.61h137.92c9.72,0,17.61,7.88,17.61,17.61v66.03c0,9.72-7.88,17.61-17.61,17.61h-137.92c-9.72,0-17.61-7.88-17.61-17.61v-66.03Z" style="fill:#f2efe9;"/><g style="mask:url(#uuid-71ce81a1-4231-438e-9b19-16ee284d26fd);"><path d="M215.66,164.87v3h141.08v-6h-141.08v3ZM374.76,182.88h-3v67.54h6v-67.54h-3ZM356.75,268.43v-3h-141.08v6h141.08v-3ZM197.65,250.41h3v-67.54h-6v67.54h3ZM215.66,268.43v-3c-8.29,0-15.01-6.72-15.01-15.01h-6c0,11.6,9.41,21.01,21.01,21.01v-3ZM374.76,250.41h-3c0,8.29-6.72,15.01-15.01,15.01v6c11.6,0,21.01-9.41,21.01-21.01h-3ZM356.75,164.87v3c8.29,0,15.01,6.72,15.01,15.01h6c0-11.6-9.41-21.01-21.01-21.01v3ZM215.66,164.87v-3c-11.6,0-21.01,9.41-21.01,21.01h6c0-8.29,6.72-15.01,15.01-15.01v-3Z" style="fill:#141414;"/></g><path d="M214.27,211.89v-15.4h3.08v15.4h-3.08ZM219.18,211.89v-10.91h3.08v1.61c.35-.57.83-1.03,1.43-1.36.62-.34,1.34-.51,2.16-.51,1.38,0,2.43.44,3.17,1.32.73.86,1.1,2.12,1.1,3.76v6.09h-3.08v-5.81c0-.9-.18-1.58-.55-2.05-.35-.48-.92-.73-1.69-.73-.73,0-1.34.26-1.83.79-.47.51-.7,1.23-.7,2.16v5.63h-3.08ZM236.03,211.89c-.76,0-1.41-.09-1.94-.26-.51-.18-.9-.51-1.17-1.01-.26-.51-.4-1.25-.4-2.2v-4.86h-1.87v-2.57h1.87v-2.99h3.08v2.99h2.68v2.57h-2.68v4.49c0,.34.04.59.11.77.07.18.21.3.4.37.21.06.48.09.81.09h1.3v2.62h-2.2ZM244.19,212.15c-1.13,0-2.13-.23-2.99-.7-.86-.48-1.54-1.14-2.02-1.98-.48-.85-.73-1.83-.73-2.93s.24-2.13.7-3.01c.48-.88,1.16-1.57,2.02-2.07.86-.5,1.87-.75,3.01-.75,1.09,0,2.05.24,2.88.7s1.49,1.11,1.96,1.94c.47.81.7,1.73.7,2.77v.51c0,.18-.02.36-.04.55h-9.04v-1.85h5.96c-.04-.64-.29-1.16-.75-1.54-.44-.4-.99-.59-1.65-.59-.5,0-.96.11-1.39.33-.41.22-.74.56-.99,1.01-.23.44-.35,1.01-.35,1.69v.64c0,.56.11,1.05.33,1.47.23.41.55.73.95.97.41.22.88.33,1.41.33s.95-.11,1.3-.33c.35-.24.62-.54.81-.9h3.15c-.21.7-.56,1.34-1.06,1.91-.48.56-1.08,1.01-1.8,1.34-.7.32-1.5.48-2.38.48ZM251.02,211.89v-10.91h3.08v1.65c.29-.54.66-.97,1.1-1.28.44-.32.94-.48,1.5-.48h1.34v2.73h-1.65c-.54,0-.98.14-1.32.42-.34.28-.59.7-.75,1.25-.15.54-.22,1.21-.22,2v4.62h-3.08ZM262.71,212.15c-.81,0-1.5-.15-2.09-.44-.59-.29-1.04-.69-1.36-1.19-.31-.5-.46-1.05-.46-1.65,0-1.13.4-2,1.21-2.62.82-.63,1.89-.95,3.21-.95.63,0,1.17.04,1.61.13.46.09.82.18,1.1.26v-.53c0-.72-.21-1.24-.64-1.56-.41-.32-.94-.48-1.58-.48-.44,0-.84.09-1.19.26s-.58.5-.68.97h-2.88c.09-.78.35-1.44.77-1.98.44-.54,1.01-.95,1.69-1.23.69-.29,1.45-.44,2.29-.44,1.64,0,2.93.39,3.87,1.17.95.76,1.43,1.86,1.43,3.3v2.27c0,.56.03.97.09,1.25.07.26.18.43.33.51.15.07.34.11.57.11h.09v2.57h-.68c-.79,0-1.45-.09-1.98-.29-.53-.21-.92-.59-1.17-1.17-.38.5-.87.91-1.47,1.23-.6.32-1.29.48-2.07.48ZM263.44,209.82c.42,0,.78-.09,1.08-.26.31-.19.57-.45.77-.77.21-.34.36-.71.46-1.12-.29-.09-.64-.17-1.03-.24-.38-.09-.77-.13-1.17-.13-.46,0-.84.12-1.17.35-.32.22-.48.54-.48.97,0,.35.14.65.42.88.28.22.65.33,1.12.33ZM274.03,208.92l-1.5-1.76,5.37-6.18h3.59l-7.46,7.94ZM271.11,211.89v-15.84h3.08v15.84h-3.08ZM278.52,211.89l-4.11-5.35,1.85-1.83,6.03,7.17h-3.76ZM287.09,211.89c-.76,0-1.41-.09-1.94-.26-.51-.18-.9-.51-1.17-1.01-.26-.51-.4-1.25-.4-2.2v-4.86h-1.87v-2.57h1.87v-2.99h3.08v2.99h2.68v2.57h-2.68v4.49c0,.34.04.59.11.77.07.18.2.3.4.37.21.06.48.09.81.09h1.3v2.62h-2.2ZM290.27,211.89v-10.91h3.08v10.91h-3.08ZM290.4,199.24v-2.86h2.86v2.86h-2.86ZM298.34,211.89l-3.98-10.91h3.23l2.64,8.01,2.62-8.01h3.21l-3.98,10.91h-3.74ZM311.67,212.15c-1.13,0-2.13-.23-2.99-.7-.86-.48-1.54-1.14-2.02-1.98-.48-.85-.73-1.83-.73-2.93s.24-2.13.7-3.01c.48-.88,1.16-1.57,2.02-2.07.87-.5,1.87-.75,3.01-.75s2.05.24,2.88.7,1.49,1.11,1.96,1.94c.47.81.7,1.73.7,2.77v.51c0,.18-.01.36-.04.55h-9.04v-1.85h5.96c-.04-.64-.29-1.16-.75-1.54-.44-.4-.99-.59-1.65-.59-.5,0-.96.11-1.39.33-.41.22-.74.56-.99,1.01-.23.44-.35,1.01-.35,1.69v.64c0,.56.11,1.05.33,1.47.23.41.55.73.95.97.41.22.88.33,1.41.33s.95-.11,1.3-.33c.35-.24.62-.54.81-.9h3.15c-.21.7-.56,1.34-1.06,1.91-.48.56-1.09,1.01-1.8,1.34-.7.32-1.5.48-2.38.48ZM322.5,212.15c-1.47,0-2.67-.34-3.61-1.03-.94-.69-1.47-1.59-1.58-2.71h3.15c.1.42.35.77.75,1.03.4.25.86.37,1.41.37.6,0,1.06-.1,1.36-.31.32-.22.48-.48.48-.79,0-.25-.12-.45-.35-.59-.23-.16-.64-.27-1.21-.33-.21-.03-.49-.07-.86-.13-.35-.06-.64-.11-.86-.15-.62-.12-1.18-.31-1.69-.57-.5-.28-.9-.64-1.19-1.08-.29-.45-.44-1.01-.44-1.65,0-.98.37-1.81,1.1-2.49.73-.67,1.81-1.01,3.23-1.01s2.57.32,3.39.95c.84.63,1.3,1.5,1.41,2.62h-2.97c-.04-.4-.24-.7-.59-.9-.35-.21-.76-.31-1.21-.31-.56,0-.98.1-1.25.29-.28.19-.42.42-.42.7,0,.45.45.76,1.36.92.13.02.32.04.55.09.25.03.5.07.75.11.26.03.47.06.62.09.44.06.86.16,1.28.31.42.13.8.32,1.12.55.34.23.6.54.79.92.19.38.29.85.29,1.41,0,.73-.18,1.38-.55,1.94-.37.56-.91.99-1.63,1.3-.7.31-1.58.46-2.62.46ZM214.27,235.89v-15.4h5.41c1.8,0,3.29.32,4.44.97,1.17.63,2.04,1.53,2.6,2.68.57,1.14.86,2.49.86,4.05s-.29,2.89-.86,4.05c-.56,1.16-1.42,2.06-2.6,2.71-1.16.63-2.64.95-4.44.95h-5.41ZM217.35,233.25h2.16c1.25,0,2.22-.2,2.93-.59.72-.41,1.23-.99,1.54-1.74.31-.76.46-1.67.46-2.73s-.15-1.96-.46-2.73c-.31-.76-.82-1.34-1.54-1.74-.7-.41-1.68-.62-2.93-.62h-2.16v10.14ZM232.18,236.15c-.81,0-1.5-.15-2.09-.44-.59-.29-1.04-.69-1.36-1.19-.31-.5-.46-1.05-.46-1.65,0-1.13.4-2,1.21-2.62.82-.63,1.89-.95,3.21-.95.63,0,1.17.04,1.61.13.45.09.82.18,1.1.26v-.53c0-.72-.21-1.24-.64-1.56-.41-.32-.94-.48-1.58-.48-.44,0-.84.09-1.19.26s-.58.5-.68.97h-2.88c.09-.78.34-1.44.77-1.98.44-.54,1-.95,1.69-1.23.69-.29,1.45-.44,2.29-.44,1.64,0,2.93.39,3.87,1.17.95.76,1.43,1.86,1.43,3.3v2.27c0,.56.03.97.09,1.25.07.26.18.43.33.51.15.07.34.11.57.11h.09v2.57h-.68c-.79,0-1.45-.09-1.98-.29-.53-.21-.92-.59-1.17-1.17-.38.5-.87.91-1.47,1.23-.6.32-1.29.48-2.07.48ZM232.91,233.82c.42,0,.78-.09,1.08-.26.31-.19.56-.45.77-.77.21-.34.36-.71.46-1.12-.29-.09-.64-.17-1.03-.24-.38-.09-.77-.13-1.17-.13-.46,0-.84.12-1.17.35-.32.22-.48.54-.48.97,0,.35.14.65.42.88.28.22.65.33,1.12.33ZM245.24,236.15c-1.47,0-2.67-.34-3.61-1.03-.94-.69-1.47-1.59-1.58-2.71h3.15c.1.42.35.77.75,1.03.4.25.86.37,1.41.37.6,0,1.06-.1,1.36-.31.32-.22.48-.48.48-.79,0-.25-.12-.45-.35-.59-.23-.16-.64-.27-1.21-.33-.21-.03-.49-.07-.86-.13-.35-.06-.64-.11-.86-.15-.62-.12-1.18-.31-1.69-.57-.5-.28-.9-.64-1.19-1.08-.29-.45-.44-1.01-.44-1.65,0-.98.37-1.81,1.1-2.49.73-.67,1.81-1.01,3.23-1.01s2.57.32,3.39.95c.84.63,1.3,1.5,1.41,2.62h-2.97c-.04-.4-.24-.7-.59-.9-.35-.21-.76-.31-1.21-.31-.56,0-.98.1-1.25.29-.28.19-.42.42-.42.7,0,.45.45.76,1.36.92.13.02.32.04.55.09.25.03.5.07.75.11.26.03.47.06.62.09.44.06.86.16,1.28.31.42.13.8.32,1.12.55.34.23.6.54.79.92.19.38.29.85.29,1.41,0,.73-.18,1.38-.55,1.94-.37.56-.91.99-1.63,1.3-.7.31-1.58.46-2.62.46ZM251.47,235.89v-15.84h3.08v6.53c.35-.57.84-1.03,1.45-1.36.63-.34,1.35-.51,2.16-.51,1.36,0,2.41.44,3.15,1.32.73.86,1.1,2.12,1.1,3.76v6.09h-3.06v-5.81c0-.9-.18-1.58-.53-2.05-.35-.48-.92-.73-1.69-.73s-1.36.26-1.85.79c-.48.51-.73,1.23-.73,2.16v5.63h-3.08ZM270.69,236.15c-.81,0-1.51-.15-2.11-.44-.59-.29-1.07-.7-1.45-1.23v1.41h-3.08v-15.84h3.08v6.42c.35-.47.81-.88,1.36-1.23.57-.35,1.3-.53,2.2-.53,1.01,0,1.92.25,2.73.75.81.5,1.44,1.18,1.91,2.05.47.86.7,1.85.7,2.95s-.23,2.06-.7,2.93c-.47.86-1.11,1.55-1.91,2.05-.81.48-1.72.73-2.73.73ZM269.96,233.47c.57,0,1.08-.13,1.52-.4.45-.26.81-.62,1.06-1.08.25-.46.37-.97.37-1.54s-.12-1.11-.37-1.56c-.25-.47-.6-.84-1.06-1.1-.44-.26-.95-.4-1.52-.4s-1.08.13-1.52.4c-.44.26-.78.62-1.03,1.08-.25.46-.37.97-.37,1.56s.12,1.11.37,1.56c.25.45.59.81,1.03,1.08.44.26.95.4,1.52.4ZM282.78,236.15c-1.1,0-2.1-.24-2.99-.73-.88-.48-1.58-1.16-2.11-2.02-.51-.86-.77-1.85-.77-2.97s.26-2.12.77-2.97c.53-.86,1.24-1.54,2.13-2.02s1.89-.73,2.97-.73,2.09.24,2.97.73c.9.48,1.6,1.16,2.11,2.02.53.85.79,1.84.79,2.97s-.26,2.1-.79,2.97c-.51.87-1.22,1.54-2.11,2.02-.88.48-1.87.73-2.97.73ZM282.78,233.49c.5,0,.95-.11,1.36-.33.41-.23.73-.58.97-1.03.25-.45.37-1.02.37-1.69s-.12-1.24-.37-1.69c-.25-.45-.58-.79-.99-1.01-.4-.23-.84-.35-1.32-.35s-.95.12-1.36.35c-.41.22-.74.56-.99,1.01-.25.44-.37,1.01-.37,1.69s.12,1.24.35,1.69c.25.46.58.8.99,1.03.41.22.86.33,1.36.33ZM293.5,236.15c-.81,0-1.5-.15-2.09-.44-.59-.29-1.04-.69-1.36-1.19-.31-.5-.46-1.05-.46-1.65,0-1.13.4-2,1.21-2.62.82-.63,1.89-.95,3.21-.95.63,0,1.17.04,1.61.13.46.09.82.18,1.1.26v-.53c0-.72-.21-1.24-.64-1.56-.41-.32-.94-.48-1.58-.48-.44,0-.84.09-1.19.26s-.58.5-.68.97h-2.88c.09-.78.34-1.44.77-1.98.44-.54,1.01-.95,1.69-1.23.69-.29,1.45-.44,2.29-.44,1.64,0,2.93.39,3.87,1.17.95.76,1.43,1.86,1.43,3.3v2.27c0,.56.03.97.09,1.25.07.26.18.43.33.51.15.07.34.11.57.11h.09v2.57h-.68c-.79,0-1.45-.09-1.98-.29-.53-.21-.92-.59-1.17-1.17-.38.5-.87.91-1.47,1.23-.6.32-1.29.48-2.07.48ZM294.22,233.82c.42,0,.78-.09,1.08-.26.31-.19.57-.45.77-.77.2-.34.36-.71.46-1.12-.29-.09-.64-.17-1.03-.24-.38-.09-.77-.13-1.17-.13-.46,0-.84.12-1.17.35-.32.22-.48.54-.48.97,0,.35.14.65.42.88.28.22.65.33,1.12.33ZM302.11,235.89v-10.91h3.08v1.65c.29-.54.66-.97,1.1-1.28.44-.32.94-.48,1.5-.48h1.34v2.73h-1.65c-.54,0-.98.14-1.32.42-.34.28-.59.7-.75,1.25-.15.54-.22,1.21-.22,2v4.62h-3.08ZM314.39,236.15c-1.01,0-1.93-.25-2.75-.75-.81-.5-1.45-1.18-1.91-2.05-.47-.88-.7-1.86-.7-2.95s.23-2.07.7-2.93c.47-.86,1.11-1.54,1.91-2.02.82-.5,1.74-.75,2.75-.75.81,0,1.5.15,2.09.44.6.29,1.09.7,1.45,1.23v-6.34h3.08v15.84h-3.08v-1.5c-.34.47-.79.88-1.36,1.23-.56.35-1.28.53-2.18.53ZM315.09,233.47c.57,0,1.08-.13,1.52-.4.44-.26.78-.62,1.03-1.08.25-.47.37-.99.37-1.56s-.12-1.11-.37-1.56c-.25-.46-.59-.81-1.03-1.08-.44-.26-.95-.4-1.52-.4s-1.06.13-1.52.4c-.44.26-.78.62-1.03,1.08-.25.44-.37.95-.37,1.54s.12,1.12.37,1.58c.25.45.59.81,1.03,1.08.46.26.96.4,1.52.4Z" style="fill:#141414;"/><path d="M355.23,224.41c-.64,1.51-1.63,2.83-2.9,3.86-1.27,1.03-2.77,1.74-4.37,2.05-1.6.32-3.26.24-4.82-.23-1.56-.47-2.99-1.32-4.15-2.47-1.16-1.15-2.02-2.56-2.51-4.12-.49-1.56-.59-3.21-.29-4.82.3-1.61.99-3.11,2-4.39,1.02-1.28,2.33-2.29,3.83-2.94" style="fill:none; stroke:#000; stroke-linecap:round; stroke-linejoin:round; stroke-width:2px;"/><path d="M356.02,220.52c0-1.31-.26-2.61-.76-3.83-.5-1.21-1.24-2.32-2.17-3.24-.93-.93-2.03-1.67-3.24-2.17-1.21-.5-2.51-.76-3.83-.76v10h10Z" style="fill:#141414; stroke:#000; stroke-linecap:round; stroke-linejoin:round; stroke-width:2px;"/><g style="clip-path:url(#uuid-376151e4-7630-4dcf-8d11-e0c61015a3d0);"><path d="M100.6,254.15l-33.25,19.21-33.25-19.21,33.25-19.21,33.25,19.21Z" style="fill:#9185be; stroke:#141414; stroke-linecap:round; stroke-linejoin:round; stroke-width:4px;"/><path d="M100.6,254.15l-33.25,19.21-33.25-19.21,33.25-19.21,33.25,19.21Z" style="fill:#9185be; stroke:#141414; stroke-linecap:round; stroke-linejoin:round; stroke-width:4px;"/><path d="M100.6,215.75l-33.25,19.21-33.25-19.21,33.25-19.21,33.25,19.21Z" style="fill:#9185be; stroke:#141414; stroke-linecap:round; stroke-linejoin:round; stroke-width:4px;"/><path d="M67.35,234.96v38.39l-33.25-19.21v-38.39l33.25,19.21Z" style="fill:#9185be; stroke:#141414; stroke-linecap:round; stroke-linejoin:round; stroke-width:4px;"/><path d="M100.6,215.75v38.39l-33.25,19.21v-38.39l33.25-19.21Z" style="fill:#9185be; stroke:#141414; stroke-linecap:round; stroke-linejoin:round; stroke-width:4px;"/><path d="M133.85,273.39l-33.25,19.21-33.25-19.21,33.25-19.21,33.25,19.21Z" style="fill:#f5b4cb; stroke:#141414; stroke-linecap:round; stroke-linejoin:round; stroke-width:4px;"/><path d="M133.85,273.39l-33.25,19.21-33.25-19.21,33.25-19.21,33.25,19.21Z" style="fill:#f5b4cb; stroke:#141414; stroke-linecap:round; stroke-linejoin:round; stroke-width:4px;"/><path d="M133.85,234.99l-33.25,19.21-33.25-19.21,33.25-19.21,33.25,19.21Z" style="fill:#f5b4cb; stroke:#141414; stroke-linecap:round; stroke-linejoin:round; stroke-width:4px;"/><path d="M100.6,254.19v38.39l-33.25-19.21v-38.39l33.25,19.21Z" style="fill:#f5b4cb; stroke:#141414; stroke-linecap:round; stroke-linejoin:round; stroke-width:4px;"/><path d="M133.85,234.98v38.39l-33.25,19.21v-38.39l33.25-19.21Z" style="fill:#f5b4cb; stroke:#141414; stroke-linecap:round; stroke-linejoin:round; stroke-width:4px;"/><path d="M133.85,234.97l-33.25,19.21-33.25-19.21,33.25-19.21,33.25,19.21Z" style="fill:#aac9e7; stroke:#141414; stroke-linecap:round; stroke-linejoin:round; stroke-width:4px;"/><path d="M133.85,234.97l-33.25,19.21-33.25-19.21,33.25-19.21,33.25,19.21Z" style="fill:#aac9e7; stroke:#141414; stroke-linecap:round; stroke-linejoin:round; stroke-width:4px;"/><path d="M133.85,196.55l-33.25,19.21-33.25-19.21,33.25-19.21,33.25,19.21Z" style="fill:#aac9e7; stroke:#141414; stroke-linecap:round; stroke-linejoin:round; stroke-width:4px;"/><path d="M100.6,215.75v38.39l-33.25-19.21v-38.39l33.25,19.21Z" style="fill:#aac9e7; stroke:#141414; stroke-linecap:round; stroke-linejoin:round; stroke-width:4px;"/><path d="M133.85,196.55v38.39l-33.25,19.21v-38.39l33.25-19.21Z" style="fill:#aac9e7; stroke:#141414; stroke-linecap:round; stroke-linejoin:round; stroke-width:4px;"/></g></svg>