<svg width="379" height="437" viewBox="0 0 379 437" fill="none" xmlns="http://www.w3.org/2000/svg">
<g clip-path="url(#clip0_48_639)">
<path d="M251.799 110.305L189.632 146.212L127.465 110.305L189.632 74.3975L251.799 110.305Z" fill="#D5D4D3" stroke="#1D1D1B" stroke-width="6" stroke-linecap="round" stroke-linejoin="round"/>
<path d="M251.799 110.305L189.632 146.212L127.465 110.305L189.632 74.3975L251.799 110.305Z" fill="#D5D4D3" stroke="#1D1D1B" stroke-width="6" stroke-linecap="round" stroke-linejoin="round"/>
<path d="M251.799 38.5162L189.632 74.4234L127.465 38.5162L189.632 2.60889L251.799 38.5162Z" fill="#F5B4CB" stroke="#1D1D1B" stroke-width="6" stroke-linecap="round" stroke-linejoin="round"/>
<path d="M189.632 74.4104V146.186L127.465 110.279V38.5032L189.632 74.4104Z" fill="#F5B4CB" stroke="#1D1D1B" stroke-width="6" stroke-linecap="round" stroke-linejoin="round"/>
<path d="M251.799 38.5032V110.279L189.632 146.186V74.4104L251.799 38.5032Z" fill="#F5B4CB" stroke="#1D1D1B" stroke-width="6" stroke-linecap="round" stroke-linejoin="round"/>
<path d="M251.799 254.585L189.632 290.493L127.465 254.585L189.632 218.678L251.799 254.585Z" fill="#D5D4D3" stroke="#1D1D1B" stroke-width="6" stroke-linecap="round" stroke-linejoin="round"/>
<path d="M251.799 254.585L189.632 290.493L127.465 254.585L189.632 218.678L251.799 254.585Z" fill="#D5D4D3" stroke="#1D1D1B" stroke-width="6" stroke-linecap="round" stroke-linejoin="round"/>
<path d="M251.799 182.766L189.632 218.673L127.465 182.766L189.632 146.859L251.799 182.766Z" fill="#FFE70E" stroke="#1D1D1B" stroke-width="6" stroke-linecap="round" stroke-linejoin="round"/>
<path d="M189.632 218.66V290.436L127.465 254.529V182.753L189.632 218.66Z" fill="#FFE70E" stroke="#1D1D1B" stroke-width="6" stroke-linecap="round" stroke-linejoin="round"/>
<path d="M251.799 182.753V254.529L189.632 290.436V218.66L251.799 182.753Z" fill="#FFE70E" stroke="#1D1D1B" stroke-width="6" stroke-linecap="round" stroke-linejoin="round"/>
<path d="M376.404 181.912L314.237 217.819L252.071 181.912L314.237 146.005L376.404 181.912Z" fill="#D5D4D3" stroke="#1D1D1B" stroke-width="6" stroke-linecap="round" stroke-linejoin="round"/>
<path d="M376.404 181.912L314.237 217.819L252.071 181.912L314.237 146.005L376.404 181.912Z" fill="#D5D4D3" stroke="#1D1D1B" stroke-width="6" stroke-linecap="round" stroke-linejoin="round"/>
<path d="M376.404 110.124L314.237 146.031L252.071 110.124L314.237 74.2163L376.404 110.124Z" fill="#9185BE" stroke="#1D1D1B" stroke-width="6" stroke-linecap="round" stroke-linejoin="round"/>
<path d="M314.237 146.018V217.794L252.071 181.886V110.111L314.237 146.018Z" fill="#9185BE" stroke="#1D1D1B" stroke-width="6" stroke-linecap="round" stroke-linejoin="round"/>
<path d="M376.404 110.111V181.886L314.237 217.794V146.018L376.404 110.111Z" fill="#9185BE" stroke="#1D1D1B" stroke-width="6" stroke-linecap="round" stroke-linejoin="round"/>
<path d="M375.276 325.488L313.109 361.395L250.942 325.488L313.109 289.581L375.276 325.488Z" fill="#D5D4D3" stroke="#1D1D1B" stroke-width="6" stroke-linecap="round" stroke-linejoin="round"/>
<path d="M375.276 325.488L313.109 361.395L250.942 325.488L313.109 289.581L375.276 325.488Z" fill="#D5D4D3" stroke="#1D1D1B" stroke-width="6" stroke-linecap="round" stroke-linejoin="round"/>
<path d="M375.276 253.699L313.109 289.607L250.942 253.699L313.109 217.792L375.276 253.699Z" fill="#8DC8A4" stroke="#1D1D1B" stroke-width="6" stroke-linecap="round" stroke-linejoin="round"/>
<path d="M313.109 289.594V361.369L250.942 325.462V253.686L313.109 289.594Z" fill="#8DC8A4" stroke="#1D1D1B" stroke-width="6" stroke-linecap="round" stroke-linejoin="round"/>
<path d="M375.275 253.686V325.462L313.109 361.369V289.594L375.275 253.686Z" fill="#8DC8A4" stroke="#1D1D1B" stroke-width="6" stroke-linecap="round" stroke-linejoin="round"/>
<path d="M127.232 182.857L65.0649 218.764L2.89819 182.857L65.0649 146.95L127.232 182.857Z" fill="#D5D4D3" stroke="#1D1D1B" stroke-width="6" stroke-linecap="round" stroke-linejoin="round"/>
<path d="M127.232 182.857L65.0649 218.764L2.89819 182.857L65.0649 146.95L127.232 182.857Z" fill="#D5D4D3" stroke="#1D1D1B" stroke-width="6" stroke-linecap="round" stroke-linejoin="round"/>
<path d="M127.232 111.068L65.0649 146.976L2.89819 111.068L65.0649 75.1611L127.232 111.068Z" fill="#AAC9E7" stroke="#1D1D1B" stroke-width="6" stroke-linecap="round" stroke-linejoin="round"/>
<path d="M65.0649 146.963V218.738L2.89819 182.831V111.055L65.0649 146.963Z" fill="#AAC9E7" stroke="#1D1D1B" stroke-width="6" stroke-linecap="round" stroke-linejoin="round"/>
<path d="M127.231 111.055V182.831L65.0648 218.738V146.963L127.231 111.055Z" fill="#AAC9E7" stroke="#1D1D1B" stroke-width="6" stroke-linecap="round" stroke-linejoin="round"/>
<path d="M127.737 326.738L65.5701 362.645L3.40344 326.738L65.5701 290.83L127.737 326.738Z" fill="#D5D4D3" stroke="#1D1D1B" stroke-width="6" stroke-linecap="round" stroke-linejoin="round"/>
<path d="M127.737 326.738L65.5701 362.645L3.40344 326.738L65.5701 290.83L127.737 326.738Z" fill="#D5D4D3" stroke="#1D1D1B" stroke-width="6" stroke-linecap="round" stroke-linejoin="round"/>
<path d="M127.737 254.949L65.5701 290.857L3.40344 254.949L65.5701 219.042L127.737 254.949Z" fill="#008564" stroke="#1D1D1B" stroke-width="6" stroke-linecap="round" stroke-linejoin="round"/>
<path d="M65.5701 290.844V362.619L3.40344 326.712V254.936L65.5701 290.844Z" fill="#008564" stroke="#1D1D1B" stroke-width="6" stroke-linecap="round" stroke-linejoin="round"/>
<path d="M127.737 254.936V326.712L65.5701 362.619V290.844L127.737 254.936Z" fill="#008564" stroke="#1D1D1B" stroke-width="6" stroke-linecap="round" stroke-linejoin="round"/>
<path d="M251.799 398.853L189.632 434.76L127.465 398.853L189.632 362.945L251.799 398.853Z" fill="#D5D4D3" stroke="#1D1D1B" stroke-width="6" stroke-linecap="round" stroke-linejoin="round"/>
<path d="M251.799 398.853L189.632 434.76L127.465 398.853L189.632 362.945L251.799 398.853Z" fill="#D5D4D3" stroke="#1D1D1B" stroke-width="6" stroke-linecap="round" stroke-linejoin="round"/>
<path d="M251.799 327.064L189.632 362.971L127.465 327.064L189.632 291.157L251.799 327.064Z" fill="#F39300" stroke="#1D1D1B" stroke-width="6" stroke-linecap="round" stroke-linejoin="round"/>
<path d="M189.632 362.958V434.734L127.465 398.827V327.051L189.632 362.958Z" fill="#F39300" stroke="#1D1D1B" stroke-width="6" stroke-linecap="round" stroke-linejoin="round"/>
<path d="M251.799 327.051V398.827L189.632 434.734V362.958L251.799 327.051Z" fill="#F39300" stroke="#1D1D1B" stroke-width="6" stroke-linecap="round" stroke-linejoin="round"/>
</g>
<defs>
<clipPath id="clip0_48_639">
<rect width="377.396" height="436.023" fill="white" transform="translate(0.953125 0.668945)"/>
</clipPath>
</defs>
</svg>
