<svg width="171" height="66" viewBox="0 0 171 66" fill="none" xmlns="http://www.w3.org/2000/svg">
<g clip-path="url(#clip0_81_853)">
<mask id="mask0_81_853" style="mask-type:luminance" maskUnits="userSpaceOnUse" x="0" y="0" width="171" height="66">
<path d="M170.862 0.0527344H0.861816V65.726H170.862V0.0527344Z" fill="white"/>
</mask>
<g mask="url(#mask0_81_853)">
<path d="M2.43267 64.7653L33.2841 33.1403C33.4774 32.9422 33.5144 32.6359 33.3532 32.4109C31.4765 29.7912 28.0154 29.3372 26.7324 27.5772C22.9318 22.3637 21.9675 19.4129 20.3344 19.5959C20.2203 19.6087 20.1186 19.6701 20.0385 19.7523L8.89328 31.1769C2.48167 37.7492 1.56221 52.2199 1.39359 64.3368C1.38597 64.8843 2.05027 65.1571 2.43267 64.7653Z" fill="#017CEE"/>
<path d="M65.5744 63.9849L33.9493 33.1334C33.7512 32.9401 33.4449 32.903 33.2199 33.0642C30.6003 34.941 30.1462 38.402 28.3862 39.6851C23.1728 43.4855 20.222 44.45 20.405 46.0832C20.4178 46.1972 20.4792 46.2989 20.5614 46.3789L31.986 57.5242C38.5583 63.9358 53.0289 64.8552 65.1458 65.0237C65.6934 65.0316 65.9662 64.3673 65.5744 63.9849Z" fill="#00AD46"/>
<path fill-rule="evenodd" clip-rule="evenodd" d="M31.9858 57.5236C28.3957 54.0215 26.73 47.0928 33.6127 32.8047C22.4269 37.8036 18.5071 44.3746 20.4354 46.2559L31.9858 57.5236Z" fill="#04D659"/>
<path d="M64.7919 0.843109L33.9406 32.4681C33.7473 32.6662 33.7102 32.9725 33.8714 33.1975C35.7481 35.8172 39.2094 36.2712 40.4921 38.0312C44.2929 43.2446 45.2573 46.1954 46.8902 46.0126C47.0042 45.9998 47.1059 45.9383 47.1863 45.8561L58.3312 34.4315C64.7432 27.8591 65.6626 13.3886 65.8311 1.27154C65.8386 0.723985 65.1744 0.451126 64.7919 0.843109Z" fill="#00C7D4"/>
<path fill-rule="evenodd" clip-rule="evenodd" d="M58.3316 34.4316C54.8291 38.0216 47.9004 39.6874 33.6123 32.8047C38.6112 43.9904 45.1823 47.9105 47.0635 45.9819L58.3316 34.4316Z" fill="#11E1EE"/>
<path d="M1.65106 1.62508L33.2761 32.4765C33.4742 32.6698 33.7804 32.7068 34.0055 32.5457C36.6251 30.6689 37.0792 27.2079 38.839 25.9248C44.0527 22.1243 47.0035 21.1599 46.8204 19.5268C46.8076 19.4127 46.746 19.311 46.6642 19.2309L35.2394 8.0857C28.667 1.67409 14.1965 0.754625 2.0795 0.586003C1.53194 0.578381 1.25908 1.24268 1.65106 1.62508Z" fill="#E43921"/>
<path fill-rule="evenodd" clip-rule="evenodd" d="M35.2392 8.08594C38.8292 11.5883 40.4951 18.5168 33.6123 32.805C44.798 27.8062 48.7181 21.235 46.7896 19.3538L35.2392 8.08594Z" fill="#FF7557"/>
<path fill-rule="evenodd" clip-rule="evenodd" d="M8.89365 31.1774C12.396 27.5872 19.3245 25.9216 33.6127 32.8043C28.6138 21.6185 22.0427 17.6986 20.1615 19.6269L8.89365 31.1774Z" fill="#0CB6FF"/>
<path d="M33.6344 34.1793C34.3963 34.1698 35.0062 33.5446 34.9968 32.7828C34.9873 32.0209 34.3621 31.411 33.6003 31.4204C32.8384 31.4299 32.2285 32.0551 32.2379 32.8169C32.2473 33.5788 32.8726 34.1887 33.6344 34.1793Z" fill="#4A4848"/>
<path d="M74.4268 21.6048C74.3619 21.6048 74.3048 21.5804 74.256 21.5315C74.2073 21.4827 74.1829 21.4258 74.1829 21.3607C74.1829 21.2956 74.187 21.2508 74.1949 21.2264L77.2218 13.33C77.2868 13.151 77.417 13.0615 77.6125 13.0615H78.4422C78.6374 13.0615 78.7676 13.151 78.8329 13.33L81.8475 21.2264L81.8719 21.3607C81.8719 21.4258 81.8475 21.4827 81.7987 21.5315C81.7499 21.5804 81.6929 21.6048 81.6276 21.6048H81.0054C80.9157 21.6048 80.8466 21.5844 80.7979 21.5437C80.7491 21.4949 80.7164 21.4461 80.7003 21.3973L80.0289 19.6642H76.0258L75.3545 21.3973C75.3383 21.4461 75.3016 21.4949 75.2445 21.5437C75.1957 21.5844 75.1308 21.6048 75.0494 21.6048H74.4268ZM79.675 18.6146L78.0272 14.282L76.3797 18.6146H79.675ZM83.3111 23.9237C83.2296 23.9237 83.1606 23.8952 83.1035 23.8383C83.0548 23.7894 83.0304 23.7243 83.0304 23.643V15.539C83.0304 15.4577 83.0548 15.3926 83.1035 15.3438C83.1606 15.2868 83.2296 15.2583 83.3111 15.2583H83.8725C83.9539 15.2583 84.0188 15.2868 84.0676 15.3438C84.1247 15.3926 84.1532 15.4577 84.1532 15.539V16.076C84.6088 15.4495 85.276 15.1363 86.1545 15.1363C87.009 15.1363 87.6478 15.4048 88.0707 15.9418C88.5019 16.4788 88.7338 17.1704 88.7665 18.0166C88.7747 18.1061 88.7788 18.2444 88.7788 18.4315C88.7788 18.6187 88.7747 18.757 88.7665 18.8465C88.7338 19.6846 88.5019 20.3762 88.0707 20.9213C87.6395 21.4583 87.0008 21.7268 86.1545 21.7268C85.3087 21.7268 84.6493 21.4217 84.1776 20.8115V23.643C84.1776 23.7243 84.1532 23.7894 84.1044 23.8383C84.0556 23.8952 83.9903 23.9237 83.9089 23.9237H83.3111ZM85.8982 20.7382C86.4762 20.7382 86.895 20.5592 87.1554 20.2012C87.4241 19.8432 87.5705 19.3713 87.5948 18.7855C87.6031 18.7041 87.6072 18.5862 87.6072 18.4315C87.6072 16.8938 87.0376 16.1249 85.8982 16.1249C85.3368 16.1249 84.9139 16.312 84.629 16.6863C84.3525 17.0524 84.202 17.4918 84.1776 18.0044L84.1652 18.4682L84.1776 18.9442C84.1937 19.4242 84.3483 19.8432 84.6414 20.2012C84.9341 20.5592 85.3533 20.7382 85.8982 20.7382ZM92.058 21.7268C91.6595 21.7268 91.2894 21.6454 90.9476 21.4827C90.6057 21.32 90.3332 21.1003 90.1298 20.8237C89.9347 20.5389 89.8367 20.2257 89.8367 19.8839C89.8367 19.3469 90.0567 18.9075 90.4961 18.5658C90.9434 18.2159 91.5454 17.9881 92.3023 17.8823L94.1209 17.626V17.2721C94.1209 16.4422 93.6447 16.0272 92.693 16.0272C92.335 16.0272 92.0419 16.1045 91.8141 16.2591C91.5863 16.4056 91.4155 16.5805 91.3014 16.7839C91.2771 16.8571 91.2444 16.91 91.2039 16.9426C91.1712 16.9751 91.1224 16.9914 91.0575 16.9914H90.5325C90.4593 16.9914 90.3944 16.967 90.3374 16.9182C90.2886 16.8612 90.2642 16.7961 90.2642 16.7229C90.2721 16.5276 90.3618 16.3079 90.5325 16.0639C90.7115 15.8116 90.984 15.596 91.3502 15.417C91.7165 15.2298 92.168 15.1363 92.705 15.1363C93.6162 15.1363 94.2714 15.3519 94.6699 15.7831C95.0685 16.2062 95.2681 16.7351 95.2681 17.3697V21.3241C95.2681 21.4054 95.2396 21.4746 95.1826 21.5315C95.1338 21.5804 95.0685 21.6048 94.9874 21.6048H94.426C94.3446 21.6048 94.2755 21.5804 94.2185 21.5315C94.1697 21.4746 94.1453 21.4054 94.1453 21.3241V20.7993C93.9663 21.0596 93.7058 21.2793 93.364 21.4583C93.0225 21.6373 92.5871 21.7268 92.058 21.7268ZM92.3143 20.8115C92.8435 20.8115 93.2747 20.6406 93.6083 20.2989C93.9498 19.949 94.1209 19.4486 94.1209 18.7977V18.456L92.705 18.6634C92.1274 18.7448 91.6921 18.8831 91.399 19.0784C91.1063 19.2656 90.9596 19.5056 90.9596 19.7985C90.9596 20.1239 91.0939 20.3762 91.3626 20.5552C91.6309 20.7261 91.9484 20.8115 92.3143 20.8115ZM99.5857 21.7268C98.715 21.7268 98.0313 21.4827 97.5352 20.9945C97.0469 20.4982 96.7865 19.8066 96.7538 18.9197L96.7418 18.4315L96.7538 17.9434C96.7865 17.0565 97.0469 16.369 97.5352 15.8808C98.0313 15.3845 98.715 15.1363 99.5857 15.1363C100.171 15.1363 100.668 15.2421 101.074 15.4536C101.481 15.6652 101.783 15.9255 101.978 16.2347C102.181 16.5439 102.291 16.8531 102.307 17.1622C102.315 17.2436 102.291 17.3087 102.234 17.3575C102.177 17.4064 102.108 17.4308 102.026 17.4308H101.441C101.359 17.4308 101.298 17.4145 101.258 17.3819C101.217 17.3494 101.176 17.2843 101.136 17.1867C100.997 16.7961 100.802 16.5195 100.55 16.3568C100.298 16.1859 99.9801 16.1004 99.5977 16.1004C99.0933 16.1004 98.6906 16.2591 98.3893 16.5764C98.0966 16.8856 97.9378 17.3616 97.9134 18.0044L97.9014 18.4438L97.9134 18.8587C97.9378 19.5096 98.0966 19.9897 98.3893 20.2989C98.6824 20.6081 99.085 20.7626 99.5977 20.7626C99.9801 20.7626 100.298 20.6813 100.55 20.5186C100.802 20.3477 100.997 20.067 101.136 19.6764C101.176 19.5788 101.217 19.5137 101.258 19.4812C101.298 19.4405 101.359 19.4201 101.441 19.4201H102.026C102.108 19.4201 102.177 19.4486 102.234 19.5056C102.291 19.5544 102.315 19.6195 102.307 19.7008C102.291 20.0019 102.181 20.3111 101.978 20.6284C101.783 20.9376 101.481 21.198 101.074 21.4095C100.676 21.621 100.179 21.7268 99.5857 21.7268ZM104.05 21.6048C103.968 21.6048 103.899 21.5804 103.842 21.5315C103.793 21.4746 103.769 21.4054 103.769 21.3241V13.2202C103.769 13.1388 103.793 13.0737 103.842 13.0249C103.899 12.9679 103.968 12.9395 104.05 12.9395H104.66C104.741 12.9395 104.806 12.9679 104.855 13.0249C104.912 13.0737 104.94 13.1388 104.94 13.2202V16.0639C105.177 15.7628 105.453 15.535 105.77 15.3804C106.088 15.2176 106.482 15.1363 106.954 15.1363C107.735 15.1363 108.342 15.3885 108.773 15.893C109.212 16.3893 109.432 17.0524 109.432 17.8823V21.3241C109.432 21.4054 109.403 21.4746 109.346 21.5315C109.297 21.5804 109.233 21.6048 109.151 21.6048H108.541C108.459 21.6048 108.39 21.5804 108.333 21.5315C108.285 21.4746 108.26 21.4054 108.26 21.3241V17.9434C108.26 17.3657 108.118 16.9182 107.833 16.6008C107.556 16.2835 107.153 16.1249 106.625 16.1249C106.112 16.1249 105.701 16.2876 105.392 16.6131C105.091 16.9304 104.94 17.3738 104.94 17.9434V21.3241C104.94 21.4054 104.912 21.4746 104.855 21.5315C104.806 21.5804 104.741 21.6048 104.66 21.6048H104.05ZM113.732 21.7268C112.894 21.7268 112.223 21.4705 111.719 20.9579C111.222 20.4372 110.95 19.7293 110.901 18.8343L110.889 18.4193L110.901 18.0166C110.958 17.1379 111.235 16.4381 111.731 15.9174C112.235 15.3966 112.898 15.1363 113.72 15.1363C114.623 15.1363 115.323 15.4251 115.819 16.0028C116.316 16.5724 116.564 17.3453 116.564 18.3217V18.5292C116.564 18.6105 116.535 18.6797 116.478 18.7367C116.43 18.7855 116.365 18.8099 116.283 18.8099H112.06V18.9197C112.085 19.4486 112.243 19.9002 112.536 20.2744C112.837 20.6406 113.232 20.8237 113.72 20.8237C114.095 20.8237 114.4 20.7504 114.635 20.604C114.88 20.4494 115.059 20.2907 115.172 20.128C115.246 20.0304 115.298 19.9734 115.331 19.9572C115.372 19.9327 115.441 19.9205 115.539 19.9205H116.137C116.21 19.9205 116.271 19.9409 116.32 19.9815C116.369 20.0222 116.393 20.0792 116.393 20.1524C116.393 20.3314 116.279 20.547 116.051 20.7993C115.832 21.0515 115.518 21.2712 115.112 21.4583C114.713 21.6373 114.253 21.7268 113.732 21.7268ZM115.404 17.9678V17.9311C115.404 17.3697 115.25 16.9141 114.94 16.5642C114.639 16.2062 114.233 16.0272 113.72 16.0272C113.207 16.0272 112.801 16.2062 112.5 16.5642C112.207 16.9141 112.06 17.3697 112.06 17.9311V17.9678H115.404Z" fill="#51504F"/>
<path d="M74.1949 21.2265L74.1074 21.1929L74.1059 21.1968L74.1949 21.2265ZM77.2219 13.3301L77.3093 13.3636L77.31 13.3621L77.2219 13.3301ZM78.8329 13.3301L78.7447 13.3621L78.7451 13.3635L78.8329 13.3301ZM81.8475 21.2265L81.9398 21.2097C81.9387 21.204 81.9372 21.1984 81.9349 21.193L81.8475 21.2265ZM81.8719 21.3608H81.9657C81.9657 21.3551 81.965 21.3495 81.9642 21.344L81.8719 21.3608ZM80.7979 21.5438L80.7314 21.6102C80.7333 21.6121 80.7356 21.6141 80.7378 21.6159L80.7979 21.5438ZM80.7003 21.3974L80.7892 21.3677L80.7877 21.3635L80.7003 21.3974ZM80.0289 19.6643L80.1164 19.6304C80.1025 19.5943 80.0676 19.5705 80.0289 19.5705V19.6643ZM76.0258 19.6643V19.5705C75.9872 19.5705 75.9523 19.5943 75.9384 19.6304L76.0258 19.6643ZM75.3545 21.3974L75.267 21.3635L75.2655 21.3677L75.3545 21.3974ZM75.2445 21.5438L75.3046 21.6159L75.3057 21.615L75.2445 21.5438ZM79.675 18.6147V18.7085C79.7058 18.7085 79.7347 18.6934 79.7523 18.668C79.7696 18.6426 79.7737 18.6102 79.7628 18.5813L79.675 18.6147ZM78.0272 14.282L78.115 14.2487C78.1011 14.2123 78.0662 14.1882 78.0272 14.1882C77.9885 14.1882 77.9536 14.2123 77.9398 14.2487L78.0272 14.282ZM76.3797 18.6147L76.2919 18.5813C76.281 18.6102 76.2848 18.6426 76.3024 18.668C76.3201 18.6934 76.349 18.7085 76.3797 18.7085V18.6147ZM74.4268 21.511C74.3885 21.511 74.3547 21.4977 74.3225 21.4653L74.1896 21.598C74.2549 21.6632 74.3352 21.6987 74.4268 21.6987V21.511ZM74.3225 21.4653C74.2902 21.4329 74.2767 21.3993 74.2767 21.3608H74.0891C74.0891 21.4524 74.1243 21.5327 74.1896 21.598L74.3225 21.4653ZM74.2767 21.3608C74.2767 21.2949 74.2812 21.2644 74.2842 21.2562L74.1059 21.1968C74.0924 21.2374 74.0891 21.2964 74.0891 21.3608H74.2767ZM74.2827 21.2601L77.3093 13.3636L77.134 13.2965L74.1074 21.1929L74.2827 21.2601ZM77.31 13.3621C77.3374 13.2871 77.3753 13.2376 77.4215 13.206C77.4677 13.1743 77.5292 13.1554 77.6125 13.1554V12.9677C77.5003 12.9677 77.3994 12.9936 77.3153 13.0514C77.2309 13.1093 77.1716 13.194 77.1337 13.298L77.31 13.3621ZM77.6125 13.1554H78.4423V12.9677H77.6125V13.1554ZM78.4423 13.1554C78.5256 13.1554 78.5871 13.1743 78.6333 13.206C78.6791 13.2376 78.7173 13.2871 78.7447 13.3621L78.9211 13.298C78.8832 13.194 78.8239 13.1093 78.7395 13.0514C78.6554 12.9936 78.5545 12.9677 78.4423 12.9677V13.1554ZM78.7451 13.3635L81.7597 21.26L81.9349 21.193L78.9204 13.2966L78.7451 13.3635ZM81.7552 21.2433L81.7796 21.3775L81.9642 21.344L81.9398 21.2097L81.7552 21.2433ZM81.7781 21.3608C81.7781 21.3993 81.7646 21.4329 81.7323 21.4653L81.8648 21.598C81.9301 21.5327 81.9657 21.4524 81.9657 21.3608H81.7781ZM81.7323 21.4653C81.7 21.4977 81.6662 21.511 81.6276 21.511V21.6987C81.7192 21.6987 81.7998 21.6632 81.8648 21.598L81.7323 21.4653ZM81.6276 21.511H81.0054V21.6987H81.6276V21.511ZM81.0054 21.511C80.9288 21.511 80.8842 21.4936 80.8579 21.4718L80.7378 21.6159C80.8091 21.6754 80.9026 21.6987 81.0054 21.6987V21.511ZM80.8643 21.4775C80.8223 21.4356 80.7994 21.3988 80.7892 21.3677L80.6113 21.427C80.6335 21.4936 80.6755 21.5544 80.7314 21.6102L80.8643 21.4775ZM80.7877 21.3635L80.1164 19.6304L79.9415 19.6982L80.6128 21.4313L80.7877 21.3635ZM80.0289 19.5705H76.0258V19.7581H80.0289V19.5705ZM75.9384 19.6304L75.267 21.3635L75.4419 21.4313L76.1133 19.6982L75.9384 19.6304ZM75.2655 21.3677C75.2565 21.3946 75.2333 21.4301 75.1837 21.4726L75.3057 21.615C75.3699 21.5599 75.4198 21.4977 75.4434 21.427L75.2655 21.3677ZM75.1845 21.4718C75.1571 21.4948 75.1151 21.511 75.0494 21.511V21.6987C75.1466 21.6987 75.2348 21.6742 75.3046 21.6159L75.1845 21.4718ZM75.0494 21.511H74.4268V21.6987H75.0494V21.511ZM79.7628 18.5813L78.115 14.2487L77.9398 14.3154L79.5872 18.648L79.7628 18.5813ZM77.9398 14.2487L76.2919 18.5813L76.4675 18.648L78.115 14.3154L77.9398 14.2487ZM76.3797 18.7085H79.675V18.5209H76.3797V18.7085ZM84.0676 15.3438L83.9963 15.4049C83.9997 15.4085 84.0031 15.412 84.0065 15.4151L84.0676 15.3438ZM84.1532 16.0761H84.0594C84.0594 16.1168 84.0856 16.1528 84.1243 16.1653C84.163 16.1779 84.205 16.1642 84.229 16.1313L84.1532 16.0761ZM88.0707 15.9419L87.9972 15.9999L87.9975 16.0006L88.0707 15.9419ZM88.7665 18.0167L88.6727 18.0203L88.673 18.0251L88.7665 18.0167ZM88.7665 18.8466L88.673 18.8381L88.6727 18.843L88.7665 18.8466ZM88.0707 20.9214L88.1439 20.9801L88.1443 20.9796L88.0707 20.9214ZM84.1776 20.8115L84.2519 20.7542C84.2271 20.7224 84.1851 20.7098 84.1472 20.7227C84.1093 20.7357 84.0838 20.7714 84.0838 20.8115H84.1776ZM84.1044 23.8383L84.038 23.772C84.0361 23.7737 84.0346 23.7754 84.0331 23.7773L84.1044 23.8383ZM87.1554 20.2013L87.0804 20.145L87.0796 20.1461L87.1554 20.2013ZM87.5949 18.7856L87.5014 18.7762C87.5014 18.778 87.501 18.7798 87.501 18.7817L87.5949 18.7856ZM84.1776 18.0045L84.0838 18V18.002L84.1776 18.0045ZM84.1652 18.4682L84.0714 18.4658V18.4706L84.1652 18.4682ZM84.1776 18.9442L84.0838 18.9466V18.9474L84.1776 18.9442ZM83.3111 23.8299C83.2544 23.8299 83.209 23.8111 83.17 23.772L83.0371 23.9046C83.1118 23.9794 83.2049 24.0176 83.3111 24.0176V23.8299ZM83.17 23.772C83.1418 23.7439 83.1242 23.7043 83.1242 23.643H82.9366C82.9366 23.7445 82.9677 23.8351 83.0371 23.9046L83.17 23.772ZM83.1242 23.643V15.5391H82.9366V23.643H83.1242ZM83.1242 15.5391C83.1242 15.4779 83.1418 15.4383 83.17 15.4102L83.0371 15.2775C82.9677 15.347 82.9366 15.4377 82.9366 15.5391H83.1242ZM83.17 15.4102C83.209 15.371 83.2544 15.3522 83.3111 15.3522V15.1646C83.2049 15.1646 83.1118 15.2027 83.0371 15.2775L83.17 15.4102ZM83.3111 15.3522H83.8725V15.1646H83.3111V15.3522ZM83.8725 15.3522C83.9292 15.3522 83.9671 15.3706 83.9963 15.4049L84.1389 15.2828C84.0706 15.2031 83.9787 15.1646 83.8725 15.1646V15.3522ZM84.0065 15.4151C84.041 15.4444 84.0594 15.4825 84.0594 15.5391H84.247C84.247 15.433 84.2084 15.3409 84.1288 15.2726L84.0065 15.4151ZM84.0594 15.5391V16.0761H84.247V15.5391H84.0594ZM84.229 16.1313C84.6643 15.5326 85.3012 15.2302 86.1545 15.2302V15.0425C85.2505 15.0425 84.5532 15.3666 84.0774 16.021L84.229 16.1313ZM86.1545 15.2302C86.988 15.2302 87.5964 15.4911 87.9972 15.9999L88.1446 15.8838C87.6992 15.3187 87.0301 15.0425 86.1545 15.0425V15.2302ZM87.9975 16.0006C88.4137 16.5186 88.6408 17.1895 88.6727 18.0203L88.8603 18.0131C88.8273 17.1515 88.5905 16.4391 88.1439 15.8831L87.9975 16.0006ZM88.673 18.0251C88.6809 18.1102 88.685 18.245 88.685 18.4316H88.8727C88.8727 18.244 88.8685 18.1021 88.8599 18.0082L88.673 18.0251ZM88.685 18.4316C88.685 18.6183 88.6809 18.753 88.673 18.8381L88.8599 18.8551C88.8685 18.7611 88.8727 18.6192 88.8727 18.4316H88.685ZM88.6727 18.843C88.6408 19.6653 88.4137 20.3366 87.9972 20.8632L88.1443 20.9796C88.5905 20.4158 88.8273 19.7039 88.8603 18.8502L88.6727 18.843ZM87.9975 20.8626C87.5885 21.3724 86.9798 21.6331 86.1545 21.6331V21.8207C87.0222 21.8207 87.6909 21.5443 88.1439 20.9801L87.9975 20.8626ZM86.1545 21.6331C85.3342 21.6331 84.7041 21.3389 84.2519 20.7542L84.1033 20.8689C84.5949 21.5046 85.2828 21.8207 86.1545 21.8207V21.6331ZM84.0838 20.8115V23.643H84.2714V20.8115H84.0838ZM84.0838 23.643C84.0838 23.7043 84.0661 23.7439 84.038 23.772L84.1708 23.9046C84.2403 23.8351 84.2714 23.7445 84.2714 23.643H84.0838ZM84.0331 23.7773C84.0038 23.8115 83.9656 23.8299 83.9089 23.8299V24.0176C84.0151 24.0176 84.1074 23.979 84.1757 23.8993L84.0331 23.7773ZM83.9089 23.8299H83.3111V24.0176H83.9089V23.8299ZM85.8982 20.8321C86.496 20.8321 86.9483 20.6459 87.2312 20.2565L87.0796 20.1461C86.8421 20.4727 86.4563 20.6445 85.8982 20.6445V20.8321ZM87.2305 20.2576C87.5134 19.8804 87.6635 19.3884 87.6887 18.7895L87.501 18.7817C87.4774 19.3543 87.3344 19.8062 87.0804 20.145L87.2305 20.2576ZM87.6883 18.7949C87.6969 18.7088 87.7011 18.5871 87.7011 18.4316H87.5134C87.5134 18.5853 87.5093 18.6996 87.5014 18.7762L87.6883 18.7949ZM87.7011 18.4316C87.7011 17.6539 87.5573 17.0535 87.2552 16.6457C86.9494 16.2327 86.4912 16.0311 85.8982 16.0311V16.2188C86.4446 16.2188 86.8409 16.4016 87.1044 16.7575C87.3719 17.1186 87.5134 17.6716 87.5134 18.4316H87.7011ZM85.8982 16.0311C85.3139 16.0311 84.8606 16.2273 84.5544 16.6295L84.7037 16.7432C84.9672 16.3968 85.3601 16.2188 85.8982 16.2188V16.0311ZM84.5544 16.6295C84.265 17.0125 84.1089 17.4709 84.0838 18L84.2714 18.0089C84.2951 17.5129 84.4399 17.0922 84.7041 16.7429L84.5544 16.6295ZM84.0838 18.002L84.0714 18.4658L84.259 18.4707L84.2714 18.0069L84.0838 18.002ZM84.0714 18.4706L84.0838 18.9466L84.2714 18.9418L84.259 18.4658L84.0714 18.4706ZM84.0838 18.9474C84.1007 19.4471 84.2624 19.8861 84.5686 20.2607L84.7139 20.1419C84.4347 19.8005 84.2868 19.4014 84.2714 18.941L84.0838 18.9474ZM84.5686 20.2607C84.8827 20.6445 85.3308 20.8321 85.8982 20.8321V20.6445C85.3759 20.6445 84.9859 20.4741 84.7139 20.1419L84.5686 20.2607ZM90.1298 20.8237L90.0525 20.8768L90.0544 20.8793L90.1298 20.8237ZM90.4961 18.5659L90.5535 18.6399L90.5539 18.6398L90.4961 18.5659ZM92.3023 17.8824L92.3151 17.9753H92.3155L92.3023 17.8824ZM94.1209 17.6261L94.134 17.719C94.1802 17.7125 94.2147 17.6729 94.2147 17.6261H94.1209ZM91.8141 16.2592L91.8647 16.3381L91.8666 16.3368L91.8141 16.2592ZM91.3015 16.784L91.2196 16.7381C91.2166 16.7433 91.2144 16.7487 91.2125 16.7543L91.3015 16.784ZM91.2039 16.9427L91.1453 16.8694C91.1423 16.8716 91.1401 16.8739 91.1375 16.8763L91.2039 16.9427ZM90.3374 16.9182L90.2661 16.9793C90.2691 16.9829 90.2725 16.9863 90.2762 16.9895L90.3374 16.9182ZM90.2642 16.723L90.1704 16.719V16.723H90.2642ZM90.5325 16.0639L90.456 16.0096L90.4556 16.0101L90.5325 16.0639ZM91.3502 15.4171L91.3915 15.5013L91.393 15.5006L91.3502 15.4171ZM94.6699 15.7832L94.6013 15.8469L94.6016 15.8475L94.6699 15.7832ZM94.2185 21.5316L94.1472 21.5927C94.1502 21.5963 94.1536 21.5997 94.1573 21.6028L94.2185 21.5316ZM94.1453 20.7993H94.2391C94.2391 20.7582 94.2121 20.7219 94.1731 20.7097C94.1337 20.6976 94.0913 20.7123 94.068 20.7462L94.1453 20.7993ZM94.1209 18.456H94.2147C94.2147 18.4288 94.2027 18.4029 94.1821 18.385C94.1614 18.3672 94.134 18.3593 94.107 18.3632L94.1209 18.456ZM92.705 18.6635L92.7181 18.7564L92.7185 18.7563L92.705 18.6635ZM91.399 19.0785L91.4497 19.1575L91.4512 19.1565L91.399 19.0785ZM91.3626 20.5552L91.3105 20.6333L91.312 20.6344L91.3626 20.5552ZM92.058 21.6331C91.6726 21.6331 91.3165 21.5545 90.9877 21.3981L90.907 21.5675C91.2621 21.7366 91.6463 21.8207 92.058 21.8207V21.6331ZM90.9877 21.3981C90.6586 21.2413 90.3989 21.0311 90.2053 20.7682L90.0544 20.8793C90.2676 21.1697 90.5528 21.3988 90.907 21.5675L90.9877 21.3981ZM90.2072 20.7707C90.0225 20.5014 89.9306 20.2066 89.9306 19.884H89.7429C89.7429 20.2449 89.8465 20.5766 90.0525 20.8768L90.2072 20.7707ZM89.9306 19.884C89.9306 19.3771 90.1362 18.9647 90.5535 18.6399L90.4383 18.4918C89.9771 18.8506 89.7429 19.3168 89.7429 19.884H89.9306ZM90.5539 18.6398C90.9844 18.303 91.5694 18.0796 92.3151 17.9753L92.2892 17.7895C91.5217 17.8968 90.9025 18.1289 90.4383 18.4918L90.5539 18.6398ZM92.3155 17.9753L94.134 17.719L94.1078 17.5332L92.2892 17.7895L92.3155 17.9753ZM94.2147 17.6261V17.2722H94.0271V17.6261H94.2147ZM94.2147 17.2722C94.2147 16.8392 94.0898 16.4983 93.8256 16.2678C93.5636 16.0395 93.1805 15.9335 92.693 15.9335V16.1211C93.1572 16.1211 93.4882 16.2226 93.7021 16.4092C93.9138 16.5937 94.0271 16.8753 94.0271 17.2722H94.2147ZM92.693 15.9335C92.3215 15.9335 92.0089 16.0137 91.7615 16.1816L91.8666 16.3368C92.0749 16.1955 92.3481 16.1211 92.693 16.1211V15.9335ZM91.7634 16.1803C91.5247 16.3337 91.342 16.5193 91.2196 16.7381L91.3833 16.8298C91.4887 16.6418 91.6478 16.4776 91.8647 16.3381L91.7634 16.1803ZM91.2125 16.7543C91.1911 16.8181 91.1664 16.8523 91.1453 16.8694L91.2624 17.0159C91.3225 16.9678 91.363 16.8963 91.3904 16.8136L91.2125 16.7543ZM91.1375 16.8763C91.1288 16.8851 91.1082 16.8976 91.0575 16.8976V17.0853C91.1371 17.0853 91.214 17.0653 91.2703 17.009L91.1375 16.8763ZM91.0575 16.8976H90.5325V17.0853H91.0575V16.8976ZM90.5325 16.8976C90.4822 16.8976 90.4387 16.8816 90.3985 16.847L90.2762 16.9895C90.3498 17.0525 90.4364 17.0853 90.5325 17.0853V16.8976ZM90.4087 16.8572C90.3738 16.8168 90.358 16.7732 90.358 16.723H90.1704C90.1704 16.8192 90.203 16.9058 90.2661 16.9793L90.4087 16.8572ZM90.3576 16.7269C90.3648 16.5566 90.444 16.3543 90.6094 16.1177L90.4556 16.0101C90.2796 16.2617 90.1794 16.4988 90.1704 16.719L90.3576 16.7269ZM90.6091 16.1182C90.7764 15.8822 91.035 15.6756 91.3915 15.5013L91.309 15.3328C90.9333 15.5165 90.6466 15.7412 90.456 16.0096L90.6091 16.1182ZM91.393 15.5006C91.7424 15.322 92.1785 15.2302 92.705 15.2302V15.0425C92.1575 15.0425 91.6902 15.1379 91.3075 15.3335L91.393 15.5006ZM92.705 15.2302C93.6045 15.2302 94.2279 15.4433 94.6013 15.8469L94.739 15.7195C94.3145 15.2606 93.6282 15.0425 92.705 15.0425V15.2302ZM94.6016 15.8475C94.9825 16.2516 95.1743 16.7567 95.1743 17.3698H95.3619C95.3619 16.7136 95.1548 16.161 94.7382 15.7189L94.6016 15.8475ZM95.1743 17.3698V21.3241H95.3619V17.3698H95.1743ZM95.1743 21.3241C95.1743 21.3809 95.1555 21.4261 95.1161 21.4653L95.249 21.598C95.3237 21.5232 95.3619 21.4301 95.3619 21.3241H95.1743ZM95.1161 21.4653C95.088 21.4934 95.0486 21.511 94.9874 21.511V21.6987C95.0887 21.6987 95.1796 21.6675 95.249 21.598L95.1161 21.4653ZM94.9874 21.511H94.426V21.6987H94.9874V21.511ZM94.426 21.511C94.3648 21.511 94.3179 21.4933 94.2793 21.4604L94.1573 21.6028C94.2327 21.6675 94.3243 21.6987 94.426 21.6987V21.511ZM94.2898 21.4706C94.2568 21.4321 94.2391 21.3851 94.2391 21.3241H94.0515C94.0515 21.4259 94.0826 21.5172 94.1472 21.5927L94.2898 21.4706ZM94.2391 21.3241V20.7993H94.0515V21.3241H94.2391ZM94.068 20.7462C93.8991 20.9915 93.6518 21.2018 93.3204 21.3753L93.4075 21.5415C93.7599 21.357 94.0331 21.1279 94.2226 20.8525L94.068 20.7462ZM93.3204 21.3753C92.9962 21.5451 92.5774 21.6331 92.058 21.6331V21.8207C92.5969 21.8207 93.0484 21.7296 93.4075 21.5415L93.3204 21.3753ZM92.3143 20.9054C92.8656 20.9054 93.3219 20.7263 93.6755 20.3645L93.5411 20.2334C93.227 20.555 92.8209 20.7177 92.3143 20.7177V20.9054ZM93.6755 20.3645C94.0391 19.9919 94.2147 19.4648 94.2147 18.7978H94.0271C94.0271 19.4325 93.8605 19.9062 93.5411 20.2334L93.6755 20.3645ZM94.2147 18.7978V18.456H94.0271V18.7978H94.2147ZM94.107 18.3632L92.6915 18.5707L92.7185 18.7563L94.1344 18.5488L94.107 18.3632ZM92.6919 18.5706C92.1083 18.6528 91.6568 18.7938 91.3472 19.0004L91.4512 19.1565C91.727 18.9726 92.1462 18.8369 92.7181 18.7564L92.6919 18.5706ZM91.3487 18.9994C91.0346 19.2001 90.8658 19.4672 90.8658 19.7986H91.0534C91.0534 19.544 91.178 19.3312 91.4497 19.1575L91.3487 18.9994ZM90.8658 19.7986C90.8658 20.1551 91.0155 20.4367 91.3105 20.6333L91.4144 20.4772C91.1724 20.3158 91.0534 20.093 91.0534 19.7986H90.8658ZM91.312 20.6344C91.5979 20.8162 91.933 20.9054 92.3143 20.9054V20.7177C91.9634 20.7177 91.664 20.636 91.4129 20.4761L91.312 20.6344ZM97.5352 20.9946L97.4684 21.0604L97.4695 21.0615L97.5352 20.9946ZM96.7538 18.9198L96.6604 18.9222V18.9233L96.7538 18.9198ZM96.7418 18.4316L96.648 18.4293V18.434L96.7418 18.4316ZM96.7538 17.9435L96.6604 17.94V17.9411L96.7538 17.9435ZM101.978 16.2348L101.898 16.2849L101.899 16.2863L101.978 16.2348ZM102.307 17.1623L102.213 17.1673L102.214 17.1717L102.307 17.1623ZM101.136 17.1867L101.047 17.2181L101.049 17.2228L101.136 17.1867ZM100.55 16.3568L100.497 16.4345L100.499 16.4357L100.55 16.3568ZM97.9134 18.0045L97.8196 18.0009V18.0018L97.9134 18.0045ZM97.9014 18.4438L97.8076 18.4412C97.8076 18.443 97.8076 18.4448 97.8076 18.4466L97.9014 18.4438ZM97.9134 18.8588L97.8196 18.8615V18.8623L97.9134 18.8588ZM100.55 20.5186L100.6 20.5975L100.602 20.5963L100.55 20.5186ZM101.136 19.6765L101.049 19.6404L101.047 19.6452L101.136 19.6765ZM101.258 19.4812L101.316 19.5545C101.319 19.5523 101.321 19.55 101.324 19.5476L101.258 19.4812ZM102.234 19.5057L102.168 19.572C102.169 19.5737 102.171 19.5753 102.173 19.5769L102.234 19.5057ZM102.307 19.7009L102.214 19.6916L102.213 19.6958L102.307 19.7009ZM101.978 20.6285L101.899 20.5779L101.898 20.5784L101.978 20.6285ZM101.074 21.4096L101.031 21.3263L101.03 21.3267L101.074 21.4096ZM99.5857 21.6331C98.733 21.6331 98.0756 21.3946 97.6008 20.9277L97.4695 21.0615C97.9874 21.571 98.6966 21.8207 99.5857 21.8207V21.6331ZM97.602 20.9288C97.1344 20.4534 96.8796 19.7865 96.8477 18.9164L96.6604 18.9233C96.6934 19.8269 96.9595 20.5432 97.4684 21.0604L97.602 20.9288ZM96.8477 18.9175L96.8357 18.4293L96.648 18.434L96.6604 18.9222L96.8477 18.9175ZM96.8357 18.434L96.8477 17.9458L96.6604 17.9411L96.648 18.4293L96.8357 18.434ZM96.8477 17.9469C96.8796 17.0767 97.1344 16.4142 97.6016 15.9472L97.4687 15.8145C96.9595 16.3238 96.6934 17.0364 96.6604 17.94L96.8477 17.9469ZM97.6016 15.9472C98.0763 15.4725 98.7334 15.2302 99.5857 15.2302V15.0425C98.6963 15.0425 97.9866 15.2966 97.4687 15.8145L97.6016 15.9472ZM99.5857 15.2302C100.16 15.2302 100.641 15.334 101.031 15.5369L101.118 15.3704C100.694 15.1503 100.182 15.0425 99.5857 15.0425V15.2302ZM101.031 15.5369C101.427 15.7427 101.714 15.9929 101.898 16.2849L102.057 16.1847C101.851 15.8583 101.536 15.5877 101.118 15.3704L101.031 15.5369ZM101.899 16.2863C102.095 16.5844 102.198 16.8777 102.213 17.1673L102.401 17.1574C102.384 16.8286 102.267 16.5036 102.056 16.1832L101.899 16.2863ZM102.214 17.1717C102.219 17.2257 102.204 17.2595 102.173 17.2864L102.295 17.4288C102.378 17.358 102.412 17.2617 102.401 17.153L102.214 17.1717ZM102.173 17.2864C102.135 17.3193 102.088 17.337 102.026 17.337V17.5246C102.128 17.5246 102.219 17.4935 102.295 17.4288L102.173 17.2864ZM102.026 17.337H101.441V17.5246H102.026V17.337ZM101.441 17.337C101.369 17.337 101.333 17.3223 101.316 17.3087L101.199 17.4553C101.263 17.5068 101.349 17.5246 101.441 17.5246V17.337ZM101.316 17.3087C101.295 17.2919 101.262 17.2459 101.222 17.1506L101.049 17.2228C101.091 17.3229 101.139 17.4071 101.199 17.4553L101.316 17.3087ZM101.224 17.1554C101.081 16.7526 100.876 16.4556 100.6 16.278L100.499 16.4357C100.728 16.5836 100.913 16.8398 101.047 17.2181L101.224 17.1554ZM100.602 16.2791C100.331 16.0954 99.994 16.0067 99.5977 16.0067V16.1943C99.9662 16.1943 100.264 16.2766 100.497 16.4345L100.602 16.2791ZM99.5977 16.0067C99.0719 16.0067 98.643 16.173 98.3214 16.5119L98.4576 16.6411C98.7379 16.3453 99.1147 16.1943 99.5977 16.1943V16.0067ZM98.3214 16.5119C98.0065 16.8443 97.8444 17.3466 97.8196 18.0009L98.0073 18.008C98.0313 17.3767 98.1866 16.9271 98.4576 16.6411L98.3214 16.5119ZM97.8196 18.0018L97.8076 18.4412L97.9949 18.4464L98.0073 18.0071L97.8196 18.0018ZM97.8076 18.4466L97.8196 18.8615L98.0073 18.856L97.9949 18.4411L97.8076 18.4466ZM97.8196 18.8623C97.8444 19.5244 98.0061 20.0309 98.3214 20.3635L98.4576 20.2344C98.1866 19.9486 98.0313 19.495 98.0073 18.8553L97.8196 18.8623ZM98.3214 20.3635C98.6355 20.6951 99.0652 20.8565 99.5977 20.8565V20.6689C99.1053 20.6689 98.7293 20.5211 98.4576 20.2344L98.3214 20.3635ZM99.5977 20.8565C99.9932 20.8565 100.329 20.7723 100.6 20.5975L100.499 20.4398C100.265 20.5904 99.9669 20.6689 99.5977 20.6689V20.8565ZM100.602 20.5963C100.876 20.4108 101.081 20.1106 101.224 19.7078L101.047 19.6452C100.913 20.0235 100.728 20.2847 100.497 20.441L100.602 20.5963ZM101.222 19.7126C101.262 19.6174 101.295 19.5714 101.316 19.5545L101.199 19.408C101.139 19.4562 101.091 19.5403 101.049 19.6404L101.222 19.7126ZM101.324 19.5476C101.341 19.5307 101.374 19.514 101.441 19.514V19.3264C101.345 19.3264 101.256 19.3504 101.191 19.4149L101.324 19.5476ZM101.441 19.514H102.026V19.3264H101.441V19.514ZM102.026 19.514C102.083 19.514 102.129 19.5328 102.168 19.572L102.3 19.4393C102.225 19.3645 102.132 19.3264 102.026 19.3264V19.514ZM102.173 19.5769C102.204 19.6037 102.219 19.6375 102.214 19.6916L102.401 19.7103C102.412 19.6016 102.378 19.5052 102.295 19.4344L102.173 19.5769ZM102.213 19.6958C102.198 19.9771 102.096 20.2708 101.899 20.5779L102.056 20.6791C102.267 20.3515 102.383 20.0268 102.401 19.706L102.213 19.6958ZM101.898 20.5784C101.714 20.8704 101.427 21.1205 101.031 21.3263L101.118 21.4928C101.536 21.2755 101.851 21.005 102.057 20.6786L101.898 20.5784ZM101.03 21.3267C100.649 21.5291 100.169 21.6331 99.5857 21.6331V21.8207C100.19 21.8207 100.702 21.7131 101.118 21.4924L101.03 21.3267ZM103.842 21.5316L103.771 21.5927C103.774 21.5963 103.777 21.5997 103.781 21.6028L103.842 21.5316ZM104.855 13.0249L104.784 13.086C104.787 13.0896 104.79 13.093 104.794 13.0962L104.855 13.0249ZM104.94 16.0639H104.847C104.847 16.1039 104.872 16.1395 104.91 16.1526C104.948 16.1657 104.99 16.1533 105.014 16.1218L104.94 16.0639ZM105.77 15.3804L105.812 15.4648L105.813 15.4639L105.77 15.3804ZM108.773 15.8931L108.701 15.954L108.703 15.9552L108.773 15.8931ZM108.333 21.5316L108.262 21.5927C108.265 21.5963 108.269 21.5997 108.272 21.6028L108.333 21.5316ZM107.833 16.6009L107.762 16.6626L107.763 16.6636L107.833 16.6009ZM104.05 21.511C103.988 21.511 103.942 21.4933 103.903 21.4604L103.781 21.6028C103.856 21.6675 103.948 21.6987 104.05 21.6987V21.511ZM103.913 21.4706C103.88 21.4321 103.863 21.3851 103.863 21.3241H103.675C103.675 21.4259 103.706 21.5172 103.771 21.5927L103.913 21.4706ZM103.863 21.3241V13.2202H103.675V21.3241H103.863ZM103.863 13.2202C103.863 13.1589 103.88 13.1194 103.908 13.0913L103.776 12.9586C103.706 13.0281 103.675 13.1188 103.675 13.2202H103.863ZM103.908 13.0913C103.948 13.0521 103.993 13.0333 104.05 13.0333V12.8457C103.943 12.8457 103.85 12.8838 103.776 12.9586L103.908 13.0913ZM104.05 13.0333H104.66V12.8457H104.05V13.0333ZM104.66 13.0333C104.716 13.0333 104.754 13.0517 104.784 13.086L104.926 12.9639C104.858 12.8842 104.766 12.8457 104.66 12.8457V13.0333ZM104.794 13.0962C104.828 13.1255 104.847 13.1636 104.847 13.2202H105.034C105.034 13.1141 104.996 13.022 104.916 12.9537L104.794 13.0962ZM104.847 13.2202V16.0639H105.034V13.2202H104.847ZM105.014 16.1218C105.242 15.831 105.508 15.6127 105.812 15.4648L105.729 15.2961C105.398 15.4574 105.11 15.6948 104.867 16.0061L105.014 16.1218ZM105.813 15.4639C106.114 15.3098 106.493 15.2302 106.954 15.2302V15.0425C106.472 15.0425 106.062 15.1256 105.727 15.297L105.813 15.4639ZM106.954 15.2302C107.713 15.2302 108.291 15.4741 108.701 15.954L108.844 15.8321C108.392 15.303 107.757 15.0425 106.954 15.0425V15.2302ZM108.703 15.9552C109.123 16.4304 109.338 17.0694 109.338 17.8824H109.526C109.526 17.0355 109.301 16.3483 108.843 15.8309L108.703 15.9552ZM109.338 17.8824V21.3241H109.526V17.8824H109.338ZM109.338 21.3241C109.338 21.3809 109.319 21.4261 109.28 21.4653L109.413 21.598C109.487 21.5232 109.526 21.4301 109.526 21.3241H109.338ZM109.28 21.4653C109.252 21.4934 109.212 21.511 109.151 21.511V21.6987C109.252 21.6987 109.343 21.6675 109.413 21.598L109.28 21.4653ZM109.151 21.511H108.541V21.6987H109.151V21.511ZM108.541 21.511C108.48 21.511 108.433 21.4933 108.395 21.4604L108.272 21.6028C108.348 21.6675 108.439 21.6987 108.541 21.6987V21.511ZM108.405 21.4706C108.372 21.4321 108.354 21.3851 108.354 21.3241H108.166C108.166 21.4259 108.198 21.5172 108.262 21.5927L108.405 21.4706ZM108.354 21.3241V17.9435H108.166V21.3241H108.354ZM108.354 17.9435C108.354 17.3509 108.208 16.8781 107.903 16.5383L107.763 16.6636C108.028 16.9584 108.166 17.3806 108.166 17.9435H108.354ZM107.904 16.5393C107.605 16.1965 107.173 16.0311 106.625 16.0311V16.2188C107.134 16.2188 107.508 16.3707 107.762 16.6626L107.904 16.5393ZM106.625 16.0311C106.09 16.0311 105.654 16.2017 105.324 16.5485L105.46 16.6777C105.749 16.3736 106.134 16.2188 106.625 16.2188V16.0311ZM105.324 16.5485C105.002 16.888 104.847 17.3573 104.847 17.9435H105.034C105.034 17.3904 105.18 16.9728 105.46 16.6777L105.324 16.5485ZM104.847 17.9435V21.3241H105.034V17.9435H104.847ZM104.847 21.3241C104.847 21.3809 104.828 21.4261 104.788 21.4653L104.921 21.598C104.996 21.5232 105.034 21.4301 105.034 21.3241H104.847ZM104.788 21.4653C104.76 21.4934 104.721 21.511 104.66 21.511V21.6987C104.761 21.6987 104.852 21.6675 104.921 21.598L104.788 21.4653ZM104.66 21.511H104.05V21.6987H104.66V21.511ZM111.719 20.958L111.651 21.0227L111.652 21.0238L111.719 20.958ZM110.901 18.8344L110.807 18.8371V18.8395L110.901 18.8344ZM110.889 18.4194L110.795 18.4166C110.795 18.4184 110.795 18.4203 110.795 18.4222L110.889 18.4194ZM110.901 18.0167L110.807 18.0106V18.0138L110.901 18.0167ZM111.731 15.9174L111.664 15.8522L111.663 15.8527L111.731 15.9174ZM115.819 16.0029L115.748 16.064L115.749 16.0645L115.819 16.0029ZM112.06 18.81V18.7161C112.008 18.7161 111.966 18.7581 111.966 18.81H112.06ZM112.06 18.9198H111.966L111.967 18.9241L112.06 18.9198ZM112.536 20.2745L112.463 20.3324L112.464 20.3341L112.536 20.2745ZM114.635 20.604L114.685 20.6838L114.686 20.6833L114.635 20.604ZM115.172 20.1281L115.097 20.0718L115.096 20.0743L115.172 20.1281ZM115.331 19.9572L115.373 20.0411C115.375 20.04 115.377 20.0389 115.38 20.0376L115.331 19.9572ZM116.051 20.7993L115.981 20.7364L115.98 20.7377L116.051 20.7993ZM115.112 21.4584L115.15 21.544L115.151 21.5436L115.112 21.4584ZM115.404 17.9678V18.0617C115.456 18.0617 115.498 18.0197 115.498 17.9678H115.404ZM114.94 16.5643L114.869 16.6247L114.87 16.6264L114.94 16.5643ZM112.5 16.5643L112.428 16.5039L112.428 16.5041L112.5 16.5643ZM112.06 17.9678H111.966C111.966 18.0197 112.008 18.0617 112.06 18.0617V17.9678ZM113.732 21.6331C112.915 21.6331 112.269 21.3839 111.786 20.8922L111.652 21.0238C112.177 21.5573 112.874 21.8207 113.732 21.8207V21.6331ZM111.787 20.8933C111.309 20.3924 111.042 19.7076 110.994 18.8293L110.807 18.8395C110.857 19.7511 111.136 20.4821 111.651 21.0227L111.787 20.8933ZM110.995 18.8316L110.982 18.4167L110.795 18.4222L110.807 18.8371L110.995 18.8316ZM110.982 18.4223L110.995 18.0195L110.807 18.0138L110.795 18.4166L110.982 18.4223ZM110.994 18.0227C111.05 17.1609 111.321 16.4836 111.799 15.9822L111.663 15.8527C111.148 16.3927 110.865 17.115 110.807 18.0106L110.994 18.0227ZM111.798 15.9827C112.282 15.4827 112.92 15.2302 113.72 15.2302V15.0425C112.877 15.0425 112.188 15.3107 111.664 15.8522L111.798 15.9827ZM113.72 15.2302C114.602 15.2302 115.273 15.511 115.748 16.064L115.891 15.9417C115.373 15.3394 114.645 15.0425 113.72 15.0425V15.2302ZM115.749 16.0645C116.226 16.6125 116.47 17.3613 116.47 18.3218H116.658C116.658 17.3295 116.405 16.5324 115.89 15.9412L115.749 16.0645ZM116.47 18.3218V18.5293H116.658V18.3218H116.47ZM116.47 18.5293C116.47 18.586 116.451 18.6312 116.412 18.6704L116.545 18.8031C116.619 18.7283 116.658 18.6352 116.658 18.5293H116.47ZM116.412 18.6704C116.384 18.6985 116.344 18.7161 116.283 18.7161V18.9038C116.385 18.9038 116.475 18.8726 116.545 18.8031L116.412 18.6704ZM116.283 18.7161H112.06V18.9038H116.283V18.7161ZM111.966 18.81V18.9198H112.154V18.81H111.966ZM111.967 18.9241C111.992 19.4701 112.156 19.941 112.463 20.3324L112.61 20.2167C112.331 19.8595 112.178 19.4272 112.154 18.9155L111.967 18.9241ZM112.464 20.3341C112.783 20.7227 113.205 20.9176 113.72 20.9176V20.7299C113.259 20.7299 112.891 20.5587 112.609 20.215L112.464 20.3341ZM113.72 20.9176C114.106 20.9176 114.43 20.8422 114.685 20.6838L114.586 20.5243C114.369 20.6589 114.083 20.7299 113.72 20.7299V20.9176ZM114.686 20.6833C114.936 20.5249 115.126 20.3583 115.249 20.1819L115.096 20.0743C114.992 20.2233 114.823 20.3741 114.585 20.5248L114.686 20.6833ZM115.247 20.1844C115.283 20.1369 115.312 20.1011 115.336 20.076C115.348 20.0634 115.357 20.0544 115.364 20.0483C115.372 20.0417 115.375 20.0404 115.373 20.0411L115.289 19.8733C115.257 19.8895 115.226 19.9188 115.198 19.9483C115.169 19.9801 115.135 20.0216 115.097 20.0718L115.247 20.1844ZM115.38 20.0376C115.397 20.0273 115.444 20.0144 115.539 20.0144V19.8268C115.438 19.8268 115.347 19.8383 115.283 19.8768L115.38 20.0376ZM115.539 20.0144H116.137V19.8268H115.539V20.0144ZM116.137 20.0144C116.192 20.0144 116.23 20.0292 116.26 20.0537L116.38 19.9096C116.312 19.8527 116.228 19.8268 116.137 19.8268V20.0144ZM116.26 20.0537C116.284 20.0737 116.299 20.1024 116.299 20.1525H116.487C116.487 20.0561 116.454 19.9709 116.38 19.9096L116.26 20.0537ZM116.299 20.1525C116.299 20.2948 116.206 20.4879 115.981 20.7364L116.121 20.8622C116.352 20.6063 116.487 20.3681 116.487 20.1525H116.299ZM115.98 20.7377C115.772 20.9771 115.471 21.1898 115.072 21.3731L115.151 21.5436C115.566 21.3527 115.891 21.126 116.122 20.861L115.98 20.7377ZM115.073 21.3728C114.689 21.5454 114.242 21.6331 113.732 21.6331V21.8207C114.264 21.8207 114.737 21.7293 115.15 21.544L115.073 21.3728ZM115.498 17.9678V17.9312H115.31V17.9678H115.498ZM115.498 17.9312C115.498 17.3518 115.338 16.8725 115.011 16.5022L114.87 16.6264C115.162 16.9558 115.31 17.3878 115.31 17.9312H115.498ZM115.013 16.5039C114.692 16.1225 114.257 15.9335 113.72 15.9335V16.1211C114.208 16.1211 114.587 16.2901 114.869 16.6247L115.013 16.5039ZM113.72 15.9335C113.183 15.9335 112.748 16.1225 112.428 16.5039L112.571 16.6247C112.853 16.2901 113.232 16.1211 113.72 16.1211V15.9335ZM112.428 16.5041C112.118 16.8744 111.966 17.353 111.966 17.9312H112.154C112.154 17.3866 112.296 16.9539 112.572 16.6245L112.428 16.5041ZM111.966 17.9312V17.9678H112.154V17.9312H111.966ZM112.06 18.0617H115.404V17.874H112.06V18.0617Z" fill="#51504F"/>
<path d="M71.8892 50.2692C71.7237 50.2692 71.5792 50.2069 71.455 50.0831C71.3311 49.9588 71.2688 49.8144 71.2688 49.6489C71.2688 49.4834 71.2793 49.37 71.3 49.3077L78.9898 29.2466C79.1549 28.7918 79.4859 28.5645 79.982 28.5645H82.0903C82.5864 28.5645 82.917 28.7918 83.0825 29.2466L90.7411 49.3077L90.8031 49.6489C90.8031 49.8144 90.7411 49.9588 90.6169 50.0831C90.4931 50.2069 90.3482 50.2692 90.1831 50.2692H88.6017C88.3743 50.2692 88.1987 50.2174 88.0744 50.1142C87.9506 49.99 87.8677 49.8661 87.8264 49.7419L86.1211 45.3392H75.9511L74.2455 49.7419C74.2042 49.8661 74.1112 49.99 73.9667 50.1142C73.8425 50.2174 73.677 50.2692 73.4706 50.2692H71.8892ZM85.222 42.6725L81.0361 31.6651L76.8503 42.6725H85.222ZM94.1806 31.138C93.9738 31.138 93.7981 31.076 93.6533 30.952C93.5291 30.8073 93.4672 30.6316 93.4672 30.4249V28.7505C93.4672 28.5438 93.5291 28.3681 93.6533 28.2234C93.7981 28.0787 93.9738 28.0064 94.1806 28.0064H96.1339C96.3406 28.0064 96.5163 28.0787 96.6608 28.2234C96.8056 28.3681 96.878 28.5438 96.878 28.7505V30.4249C96.878 30.6316 96.8056 30.8073 96.6608 30.952C96.5163 31.076 96.3406 31.138 96.1339 31.138H94.1806ZM94.4286 50.2692C94.2218 50.2692 94.0462 50.2069 93.9013 50.0831C93.7771 49.9382 93.7152 49.7626 93.7152 49.5558V34.8588C93.7152 34.6521 93.7771 34.4867 93.9013 34.3627C94.0462 34.218 94.2218 34.1456 94.4286 34.1456H95.9166C96.1234 34.1456 96.2889 34.218 96.4127 34.3627C96.5576 34.4867 96.63 34.6521 96.63 34.8588V49.5558C96.63 49.7626 96.5576 49.9382 96.4127 50.0831C96.2889 50.2069 96.1234 50.2692 95.9166 50.2692H94.4286ZM101.938 50.2692C101.731 50.2692 101.555 50.2069 101.411 50.0831C101.287 49.9382 101.225 49.7626 101.225 49.5558V34.8898C101.225 34.6831 101.287 34.5074 101.411 34.3627C101.555 34.218 101.731 34.1456 101.938 34.1456H103.364C103.571 34.1456 103.747 34.218 103.891 34.3627C104.036 34.5074 104.108 34.6831 104.108 34.8898V36.2541C104.956 34.8485 106.403 34.1456 108.449 34.1456H109.658C109.865 34.1456 110.031 34.218 110.155 34.3627C110.299 34.4867 110.371 34.6521 110.371 34.8588V36.1301C110.371 36.3368 110.299 36.5022 110.155 36.6262C110.031 36.7502 109.865 36.8122 109.658 36.8122H107.798C106.682 36.8122 105.803 37.1429 105.163 37.8044C104.522 38.4454 104.201 39.3239 104.201 40.44V49.5558C104.201 49.7626 104.129 49.9382 103.984 50.0831C103.839 50.2069 103.664 50.2692 103.457 50.2692H101.938ZM115.329 50.2692C115.122 50.2692 114.946 50.2069 114.802 50.0831C114.678 49.9382 114.616 49.7626 114.616 49.5558V36.6262H111.98C111.773 36.6262 111.598 36.5642 111.453 36.4401C111.329 36.2954 111.267 36.1197 111.267 35.913V34.8588C111.267 34.6521 111.329 34.4867 111.453 34.3627C111.598 34.218 111.773 34.1456 111.98 34.1456H114.616V32.5953C114.616 29.0813 116.394 27.3242 119.949 27.3242H121.685C121.892 27.3242 122.058 27.3966 122.181 27.5412C122.326 27.6653 122.399 27.8307 122.399 28.0374V29.0916C122.399 29.2983 122.326 29.474 122.181 29.6187C122.058 29.7427 121.892 29.8047 121.685 29.8047H120.011C119.081 29.8047 118.43 30.0528 118.057 30.5489C117.686 31.0243 117.499 31.7581 117.499 32.7503V34.1456H124.135V28.0374C124.135 27.8307 124.197 27.6653 124.321 27.5412C124.466 27.3966 124.641 27.3242 124.848 27.3242H126.274C126.481 27.3242 126.646 27.3966 126.77 27.5412C126.915 27.6653 126.988 27.8307 126.988 28.0374V49.5558C126.988 49.7626 126.915 49.9382 126.77 50.0831C126.646 50.2069 126.481 50.2692 126.274 50.2692H124.848C124.641 50.2692 124.466 50.2069 124.321 50.0831C124.197 49.9382 124.135 49.7626 124.135 49.5558V36.6262H117.499V49.5558C117.499 49.7626 117.427 49.9382 117.283 50.0831C117.158 50.2069 116.993 50.2692 116.786 50.2692H115.329ZM138.2 50.5792C135.926 50.5792 134.159 49.9382 132.898 48.6566C131.657 47.3751 130.996 45.6698 130.913 43.5405L130.882 42.2075L130.913 40.8742C130.996 38.7655 131.668 37.0706 132.929 35.789C134.189 34.4867 135.947 33.8356 138.2 33.8356C140.453 33.8356 142.21 34.4867 143.471 35.789C144.732 37.0706 145.403 38.7655 145.486 40.8742C145.507 41.1016 145.517 41.5459 145.517 42.2075C145.517 42.8687 145.507 43.3131 145.486 43.5405C145.403 45.6698 144.732 47.3751 143.471 48.6566C142.23 49.9382 140.473 50.5792 138.2 50.5792ZM138.2 48.1917C139.502 48.1917 140.525 47.7781 141.269 46.9514C142.034 46.1246 142.448 44.9358 142.51 43.3855C142.53 43.1787 142.54 42.7862 142.54 42.2075C142.54 41.6285 142.53 41.2359 142.51 41.0291C142.448 39.4789 142.034 38.29 141.269 37.4633C140.525 36.6365 139.502 36.2231 138.2 36.2231C136.897 36.2231 135.864 36.6365 135.099 37.4633C134.334 38.29 133.931 39.4789 133.89 41.0291L133.859 42.2075L133.89 43.3855C133.931 44.9358 134.334 46.1246 135.099 46.9514C135.864 47.7781 136.897 48.1917 138.2 48.1917ZM153.255 50.2692C152.986 50.2692 152.78 50.2069 152.635 50.0831C152.49 49.9588 152.366 49.7626 152.263 49.4939L147.86 35.1068L147.798 34.7968C147.798 34.6107 147.86 34.4557 147.984 34.3317C148.128 34.2076 148.283 34.1456 148.449 34.1456H149.813C150.02 34.1456 150.185 34.2076 150.309 34.3317C150.454 34.435 150.547 34.5487 150.588 34.6728L154.03 46.3622L157.72 34.7968C157.761 34.6314 157.854 34.4867 157.999 34.3627C158.144 34.218 158.34 34.1456 158.588 34.1456H159.642C159.89 34.1456 160.087 34.218 160.231 34.3627C160.376 34.4867 160.469 34.6314 160.511 34.7968L164.2 46.3622L167.642 34.6728C167.663 34.5694 167.735 34.4557 167.859 34.3317C168.004 34.2076 168.179 34.1456 168.386 34.1456H169.781C169.947 34.1456 170.091 34.2076 170.216 34.3317C170.339 34.4557 170.401 34.6107 170.401 34.7968L170.339 35.1068L165.967 49.4939C165.864 49.7626 165.74 49.9588 165.596 50.0831C165.451 50.2069 165.234 50.2692 164.944 50.2692H163.735C163.177 50.2692 162.836 50.0106 162.712 49.4939L159.115 38.3936L155.518 49.4939C155.353 50.0106 155.002 50.2692 154.464 50.2692H153.255Z" fill="#51504F"/>
</g>
</g>
<defs>
<clipPath id="clip0_81_853">
<rect width="170" height="65.6733" fill="white" transform="translate(0.861816 0.0527344)"/>
</clipPath>
</defs>
</svg>
