<svg width="171" height="67" viewBox="0 0 171 67" fill="none" xmlns="http://www.w3.org/2000/svg">
<mask id="mask0_1_101" style="mask-type:luminance" maskUnits="userSpaceOnUse" x="0" y="0" width="171" height="67">
<path d="M170.978 0.892975H0.977539V66.5663H170.978V0.892975Z" fill="white"/>
</mask>
<g mask="url(#mask0_1_101)">
<path d="M2.54839 65.6056L33.3998 33.9805C33.5931 33.7824 33.6301 33.4761 33.469 33.2511C31.5922 30.6314 28.1312 30.1774 26.8481 28.4174C23.0476 23.2039 22.0832 20.2531 20.4501 20.4361C20.336 20.4489 20.2343 20.5103 20.1542 20.5925L9.009 32.0171C2.59739 38.5894 1.67793 53.0601 1.50931 65.177C1.50169 65.7245 2.166 65.9973 2.54839 65.6056Z" fill="#017CEE"/>
<path d="M65.6901 64.8238L34.0651 33.9723C33.8669 33.779 33.5606 33.7419 33.3357 33.9031C30.716 35.7798 30.262 39.2409 28.502 40.524C23.2885 44.3244 20.3377 45.2889 20.5207 46.9221C20.5335 47.0361 20.5949 47.1378 20.6771 47.2178L32.1017 58.3631C38.674 64.7747 53.1446 65.6941 65.2616 65.8626C65.8091 65.8705 66.0819 65.2062 65.6901 64.8238Z" fill="#00AD46"/>
<path fill-rule="evenodd" clip-rule="evenodd" d="M32.1015 58.3631C28.5114 54.861 26.8458 47.9323 33.7284 33.6442C22.5427 38.6431 18.6228 45.2142 20.5511 47.0954L32.1015 58.3631Z" fill="#04D659"/>
<path d="M64.9077 1.68277L34.0563 33.3078C33.863 33.5059 33.826 33.8122 33.9872 34.0371C35.8639 36.6568 39.3251 37.1109 40.6078 38.8709C44.4086 44.0842 45.3731 47.035 47.0059 46.8523C47.12 46.8395 47.2217 46.778 47.302 46.6958L58.4469 35.2711C64.8589 28.6987 65.7783 14.2282 65.9468 2.1112C65.9543 1.56365 65.2901 1.29079 64.9077 1.68277Z" fill="#00C7D4"/>
<path fill-rule="evenodd" clip-rule="evenodd" d="M58.4473 35.2711C54.9448 38.8611 48.0161 40.527 33.7281 33.6442C38.7269 44.8299 45.298 48.75 47.1793 46.8215L58.4473 35.2711Z" fill="#11E1EE"/>
<path d="M1.7668 2.46437L33.3918 33.3158C33.5899 33.5091 33.8962 33.5461 34.1212 33.385C36.7409 31.5082 37.1949 28.0471 38.9547 26.7641C44.1684 22.9635 47.1192 21.9992 46.9361 20.3661C46.9233 20.252 46.8618 20.1503 46.78 20.0702L35.3552 8.925C28.7828 2.51338 14.3123 1.59392 2.19523 1.4253C1.64768 1.41768 1.37482 2.08198 1.7668 2.46437Z" fill="#E43921"/>
<path fill-rule="evenodd" clip-rule="evenodd" d="M35.355 8.9248C38.945 12.4271 40.6108 19.3557 33.7281 33.6438C44.9137 28.645 48.8339 22.0738 46.9053 20.1927L35.355 8.9248Z" fill="#FF7557"/>
<path fill-rule="evenodd" clip-rule="evenodd" d="M9.00937 32.0172C12.5117 28.427 19.4402 26.7614 33.7284 33.6441C28.7296 22.4583 22.1584 18.5384 20.2773 20.4667L9.00937 32.0172Z" fill="#0CB6FF"/>
<path d="M33.7501 35.0192C34.512 35.0098 35.1219 34.3845 35.1125 33.6227C35.1031 32.8609 34.4778 32.2509 33.716 32.2604C32.9541 32.2698 32.3442 32.895 32.3536 33.6569C32.3631 34.4187 32.9883 35.0287 33.7501 35.0192Z" fill="#4A4848"/>
<path d="M74.5425 22.4442C74.4776 22.4442 74.4206 22.4198 74.3718 22.371C74.323 22.3222 74.2986 22.2652 74.2986 22.2001C74.2986 22.135 74.3027 22.0903 74.3106 22.0659L77.3376 14.1694C77.4025 13.9904 77.5327 13.9009 77.7282 13.9009H78.558C78.7531 13.9009 78.8833 13.9904 78.9486 14.1694L81.9632 22.0659L81.9876 22.2001C81.9876 22.2652 81.9632 22.3222 81.9144 22.371C81.8657 22.4198 81.8086 22.4442 81.7433 22.4442H81.1211C81.0314 22.4442 80.9624 22.4239 80.9136 22.3832C80.8648 22.3344 80.8321 22.2855 80.816 22.2368L80.1446 20.5037H76.1416L75.4702 22.2368C75.4541 22.2855 75.4173 22.3344 75.3602 22.3832C75.3115 22.4239 75.2465 22.4442 75.1651 22.4442H74.5425ZM79.7908 19.4541L78.1429 15.1214L76.4955 19.4541H79.7908ZM83.4268 24.7631C83.3454 24.7631 83.2763 24.7346 83.2193 24.6777C83.1705 24.6289 83.1461 24.5638 83.1461 24.4824V16.3785C83.1461 16.2971 83.1705 16.232 83.2193 16.1832C83.2763 16.1263 83.3454 16.0978 83.4268 16.0978H83.9882C84.0696 16.0978 84.1346 16.1263 84.1834 16.1832C84.2404 16.232 84.2689 16.2971 84.2689 16.3785V16.9155C84.7245 16.289 85.3917 15.9757 86.2703 15.9757C87.1248 15.9757 87.7635 16.2442 88.1864 16.7813C88.6176 17.3182 88.8495 18.0098 88.8822 18.856C88.8904 18.9455 88.8946 19.0839 88.8946 19.271C88.8946 19.4581 88.8904 19.5965 88.8822 19.686C88.8495 20.524 88.6176 21.2156 88.1864 21.7608C87.7552 22.2978 87.1165 22.5663 86.2703 22.5663C85.4244 22.5663 84.765 22.2612 84.2933 21.6509V24.4824C84.2933 24.5638 84.2689 24.6289 84.2201 24.6777C84.1713 24.7346 84.106 24.7631 84.0246 24.7631H83.4268ZM86.0139 21.5777C86.5919 21.5777 87.0107 21.3987 87.2711 21.0407C87.5398 20.6827 87.6862 20.2108 87.7106 19.6249C87.7188 19.5436 87.723 19.4256 87.723 19.271C87.723 17.7332 87.1533 16.9643 86.0139 16.9643C85.4525 16.9643 85.0296 17.1515 84.7448 17.5257C84.4682 17.8918 84.3177 18.3312 84.2933 18.8439L84.2809 19.3076L84.2933 19.7836C84.3094 20.2636 84.4641 20.6827 84.7572 21.0407C85.0499 21.3987 85.469 21.5777 86.0139 21.5777ZM92.1737 22.5663C91.7752 22.5663 91.4052 22.4849 91.0633 22.3222C90.7214 22.1595 90.449 21.9398 90.2456 21.6631C90.0504 21.3784 89.9525 21.0651 89.9525 20.7233C89.9525 20.1864 90.1724 19.747 90.6118 19.4053C91.0592 19.0554 91.6611 18.8276 92.418 18.7218L94.2366 18.4655V18.1115C94.2366 17.2817 93.7604 16.8667 92.8087 16.8667C92.4507 16.8667 92.1576 16.944 91.9298 17.0986C91.702 17.245 91.5313 17.4199 91.4172 17.6234C91.3928 17.6966 91.3601 17.7495 91.3196 17.782C91.287 17.8146 91.2382 17.8308 91.1732 17.8308H90.6482C90.5751 17.8308 90.5101 17.8064 90.4531 17.7576C90.4043 17.7006 90.3799 17.6356 90.3799 17.5624C90.3878 17.3671 90.4775 17.1474 90.6482 16.9033C90.8272 16.6511 91.0997 16.4354 91.466 16.2564C91.8322 16.0693 92.2837 15.9757 92.8207 15.9757C93.7319 15.9757 94.3871 16.1914 94.7856 16.6226C95.1842 17.0457 95.3838 17.5746 95.3838 18.2092V22.1635C95.3838 22.2449 95.3553 22.314 95.2983 22.371C95.2495 22.4198 95.1842 22.4442 95.1031 22.4442H94.5417C94.4603 22.4442 94.3912 22.4198 94.3342 22.371C94.2854 22.314 94.261 22.2449 94.261 22.1635V21.6387C94.082 21.8991 93.8216 22.1188 93.4797 22.2978C93.1382 22.4768 92.7029 22.5663 92.1737 22.5663ZM92.43 21.6509C92.9592 21.6509 93.3904 21.4801 93.724 21.1383C94.0655 20.7885 94.2366 20.2881 94.2366 19.6371V19.2954L92.8207 19.5029C92.2432 19.5843 91.8078 19.7226 91.5147 19.9179C91.222 20.105 91.0753 20.345 91.0753 20.6379C91.0753 20.9634 91.2096 21.2156 91.4783 21.3946C91.7467 21.5655 92.0641 21.6509 92.43 21.6509ZM99.7014 22.5663C98.8308 22.5663 98.147 22.3222 97.6509 21.834C97.1626 21.3377 96.9022 20.6461 96.8696 19.7592L96.8575 19.271L96.8696 18.7828C96.9022 17.8959 97.1626 17.2084 97.6509 16.7202C98.147 16.2239 98.8308 15.9757 99.7014 15.9757C100.287 15.9757 100.783 16.0815 101.19 16.2931C101.597 16.5046 101.898 16.765 102.093 17.0742C102.297 17.3834 102.407 17.6925 102.423 18.0017C102.431 18.0831 102.407 18.1482 102.35 18.197C102.293 18.2458 102.224 18.2702 102.142 18.2702H101.556C101.475 18.2702 101.414 18.254 101.373 18.2214C101.333 18.1888 101.292 18.1238 101.251 18.0261C101.113 17.6356 100.918 17.3589 100.665 17.1962C100.413 17.0253 100.096 16.9399 99.7134 16.9399C99.209 16.9399 98.8064 17.0986 98.505 17.4159C98.2123 17.7251 98.0536 18.201 98.0292 18.8439L98.0172 19.2832L98.0292 19.6982C98.0536 20.3491 98.2123 20.8291 98.505 21.1383C98.7981 21.4475 99.2008 21.6021 99.7134 21.6021C100.096 21.6021 100.413 21.5207 100.665 21.358C100.918 21.1871 101.113 20.9064 101.251 20.5159C101.292 20.4182 101.333 20.3531 101.373 20.3206C101.414 20.2799 101.475 20.2596 101.556 20.2596H102.142C102.224 20.2596 102.293 20.2881 102.35 20.345C102.407 20.3938 102.431 20.4589 102.423 20.5403C102.407 20.8413 102.297 21.1505 102.093 21.4679C101.898 21.777 101.597 22.0374 101.19 22.249C100.792 22.4605 100.295 22.5663 99.7014 22.5663ZM104.165 22.4442C104.084 22.4442 104.015 22.4198 103.958 22.371C103.909 22.314 103.885 22.2449 103.885 22.1635V14.0596C103.885 13.9782 103.909 13.9131 103.958 13.8643C104.015 13.8073 104.084 13.7789 104.165 13.7789H104.775C104.857 13.7789 104.922 13.8073 104.971 13.8643C105.028 13.9131 105.056 13.9782 105.056 14.0596V16.9033C105.292 16.6023 105.569 16.3744 105.886 16.2198C106.203 16.0571 106.598 15.9757 107.07 15.9757C107.851 15.9757 108.457 16.228 108.889 16.7324C109.328 17.2287 109.548 17.8918 109.548 18.7218V22.1635C109.548 22.2449 109.519 22.314 109.462 22.371C109.413 22.4198 109.348 22.4442 109.267 22.4442H108.657C108.575 22.4442 108.506 22.4198 108.449 22.371C108.4 22.314 108.376 22.2449 108.376 22.1635V18.7828C108.376 18.2051 108.233 17.7576 107.949 17.4403C107.672 17.123 107.269 16.9643 106.74 16.9643C106.228 16.9643 105.817 17.127 105.508 17.4525C105.207 17.7698 105.056 18.2133 105.056 18.7828V22.1635C105.056 22.2449 105.028 22.314 104.971 22.371C104.922 22.4198 104.857 22.4442 104.775 22.4442H104.165ZM113.848 22.5663C113.01 22.5663 112.339 22.31 111.834 21.7974C111.338 21.2767 111.065 20.5688 111.017 19.6738L111.004 19.2588L111.017 18.856C111.073 17.9773 111.35 17.2776 111.846 16.7568C112.351 16.2361 113.014 15.9757 113.836 15.9757C114.739 15.9757 115.439 16.2646 115.935 16.8423C116.432 17.4118 116.68 18.1848 116.68 19.1611V19.3686C116.68 19.45 116.651 19.5192 116.594 19.5761C116.545 19.6249 116.48 19.6493 116.399 19.6493H112.176V19.7592C112.2 20.2881 112.359 20.7396 112.652 21.1139C112.953 21.4801 113.348 21.6631 113.836 21.6631C114.21 21.6631 114.515 21.5899 114.751 21.4434C114.995 21.2888 115.174 21.1302 115.288 20.9675C115.362 20.8698 115.414 20.8128 115.447 20.7966C115.488 20.7722 115.557 20.76 115.654 20.76H116.253C116.326 20.76 116.387 20.7803 116.435 20.821C116.484 20.8617 116.509 20.9186 116.509 20.9919C116.509 21.1709 116.395 21.3865 116.167 21.6387C115.947 21.8909 115.634 22.1106 115.227 22.2978C114.828 22.4768 114.369 22.5663 113.848 22.5663ZM115.52 18.8072V18.7706C115.52 18.2092 115.365 17.7536 115.056 17.4037C114.755 17.0457 114.348 16.8667 113.836 16.8667C113.323 16.8667 112.916 17.0457 112.615 17.4037C112.323 17.7536 112.176 18.2092 112.176 18.7706V18.8072H115.52Z" fill="#51504F"/>
<path d="M74.3106 22.0659L74.2232 22.0323L74.2217 22.0362L74.3106 22.0659ZM77.3376 14.1695L77.425 14.203L77.4258 14.2015L77.3376 14.1695ZM78.9486 14.1695L78.8604 14.2015L78.8608 14.2029L78.9486 14.1695ZM81.9632 22.0659L82.0555 22.0491C82.0544 22.0434 82.0529 22.0378 82.0507 22.0324L81.9632 22.0659ZM81.9876 22.2001H82.0814C82.0814 22.1945 82.0807 22.1889 82.0799 22.1834L81.9876 22.2001ZM80.9136 22.3832L80.8472 22.4495C80.849 22.4515 80.8513 22.4534 80.8535 22.4553L80.9136 22.3832ZM80.816 22.2368L80.905 22.207L80.9035 22.2029L80.816 22.2368ZM80.1446 20.5037L80.2321 20.4698C80.2182 20.4337 80.1833 20.4098 80.1446 20.4098V20.5037ZM76.1416 20.5037V20.4098C76.1029 20.4098 76.068 20.4337 76.0541 20.4698L76.1416 20.5037ZM75.4702 22.2368L75.3828 22.2028L75.3813 22.2071L75.4702 22.2368ZM75.3602 22.3832L75.4203 22.4553L75.4214 22.4544L75.3602 22.3832ZM79.7908 19.4541V19.5479C79.8215 19.5479 79.8504 19.5328 79.8681 19.5073C79.8853 19.4819 79.8895 19.4496 79.8786 19.4207L79.7908 19.4541ZM78.1429 15.1214L78.2307 15.0881C78.2168 15.0517 78.1819 15.0276 78.1429 15.0276C78.1043 15.0276 78.0694 15.0517 78.0555 15.0881L78.1429 15.1214ZM76.4955 19.4541L76.4076 19.4207C76.3968 19.4496 76.4005 19.4819 76.4181 19.5073C76.4358 19.5328 76.4647 19.5479 76.4955 19.5479V19.4541ZM74.5425 22.3504C74.5042 22.3504 74.4705 22.3371 74.4382 22.3047L74.3053 22.4374C74.3706 22.5026 74.451 22.538 74.5425 22.538V22.3504ZM74.4382 22.3047C74.4059 22.2723 74.3924 22.2387 74.3924 22.2001H74.2048C74.2048 22.2917 74.2401 22.3721 74.3053 22.4374L74.4382 22.3047ZM74.3924 22.2001C74.3924 22.1343 74.3969 22.1038 74.3999 22.0955L74.2217 22.0362C74.2081 22.0768 74.2048 22.1358 74.2048 22.2001H74.3924ZM74.3984 22.0995L77.425 14.203L77.2498 14.1359L74.2232 22.0323L74.3984 22.0995ZM77.4258 14.2015C77.4532 14.1265 77.4911 14.077 77.5372 14.0454C77.5834 14.0137 77.6449 13.9948 77.7282 13.9948V13.8071C77.616 13.8071 77.5151 13.8329 77.431 13.8907C77.3466 13.9487 77.2873 14.0334 77.2494 14.1374L77.4258 14.2015ZM77.7282 13.9948H78.558V13.8071H77.7282V13.9948ZM78.558 13.9948C78.6413 13.9948 78.7028 14.0137 78.749 14.0454C78.7948 14.077 78.8331 14.1265 78.8604 14.2015L79.0368 14.1374C78.9989 14.0334 78.9396 13.9487 78.8552 13.8907C78.7711 13.8329 78.6702 13.8071 78.558 13.8071V13.9948ZM78.8608 14.2029L81.8754 22.0993L82.0507 22.0324L79.0361 14.136L78.8608 14.2029ZM81.8709 22.0827L81.8953 22.2169L82.0799 22.1834L82.0555 22.0491L81.8709 22.0827ZM81.8938 22.2001C81.8938 22.2387 81.8803 22.2723 81.848 22.3047L81.9805 22.4374C82.0458 22.3721 82.0814 22.2917 82.0814 22.2001H81.8938ZM81.848 22.3047C81.8157 22.3371 81.782 22.3504 81.7433 22.3504V22.538C81.8349 22.538 81.9156 22.5026 81.9805 22.4374L81.848 22.3047ZM81.7433 22.3504H81.1211V22.538H81.7433V22.3504ZM81.1211 22.3504C81.0446 22.3504 80.9999 22.333 80.9736 22.3111L80.8535 22.4553C80.9248 22.5148 81.0183 22.538 81.1211 22.538V22.3504ZM80.98 22.3168C80.938 22.275 80.9151 22.2382 80.905 22.207L80.7271 22.2664C80.7492 22.3329 80.7912 22.3938 80.8472 22.4495L80.98 22.3168ZM80.9035 22.2029L80.2321 20.4698L80.0572 20.5376L80.7286 22.2707L80.9035 22.2029ZM80.1446 20.4098H76.1416V20.5975H80.1446V20.4098ZM76.0541 20.4698L75.3828 22.2028L75.5576 22.2707L76.229 20.5376L76.0541 20.4698ZM75.3813 22.2071C75.3723 22.234 75.349 22.2695 75.2995 22.312L75.4214 22.4544C75.4856 22.3993 75.5355 22.3371 75.5591 22.2664L75.3813 22.2071ZM75.3002 22.3111C75.2728 22.3342 75.2308 22.3504 75.1651 22.3504V22.538C75.2623 22.538 75.3505 22.5136 75.4203 22.4553L75.3002 22.3111ZM75.1651 22.3504H74.5425V22.538H75.1651V22.3504ZM79.8786 19.4207L78.2307 15.0881L78.0555 15.1547L79.7029 19.4874L79.8786 19.4207ZM78.0555 15.0881L76.4076 19.4207L76.5833 19.4874L78.2307 15.1547L78.0555 15.0881ZM76.4955 19.5479H79.7908V19.3603H76.4955V19.5479ZM84.1834 16.1832L84.1121 16.2443C84.1154 16.2479 84.1188 16.2513 84.1222 16.2545L84.1834 16.1832ZM84.2689 16.9155H84.1751C84.1751 16.9561 84.2014 16.9922 84.24 17.0047C84.2787 17.0173 84.3207 17.0035 84.3447 16.9707L84.2689 16.9155ZM88.1864 16.7813L88.1129 16.8393L88.1132 16.84L88.1864 16.7813ZM88.8822 18.8561L88.7884 18.8597L88.7887 18.8645L88.8822 18.8561ZM88.8822 19.686L88.7887 19.6775L88.7884 19.6823L88.8822 19.686ZM88.1864 21.7608L88.2596 21.8195L88.26 21.819L88.1864 21.7608ZM84.2933 21.6509L84.3676 21.5935C84.3429 21.5618 84.3008 21.5492 84.2629 21.5621C84.225 21.5751 84.1995 21.6108 84.1995 21.6509H84.2933ZM84.2201 24.6777L84.1537 24.6114C84.1518 24.6131 84.1503 24.6148 84.1488 24.6167L84.2201 24.6777ZM87.2711 21.0407L87.1961 20.9844L87.1953 20.9855L87.2711 21.0407ZM87.7106 19.625L87.6171 19.6156C87.6171 19.6174 87.6168 19.6192 87.6168 19.6211L87.7106 19.625ZM84.2933 18.8439L84.1995 18.8394V18.8414L84.2933 18.8439ZM84.2809 19.3076L84.1871 19.3051V19.31L84.2809 19.3076ZM84.2933 19.7836L84.1995 19.786V19.7868L84.2933 19.7836ZM83.4268 24.6693C83.3701 24.6693 83.3247 24.6505 83.2857 24.6114L83.1529 24.744C83.2275 24.8188 83.3206 24.8569 83.4268 24.8569V24.6693ZM83.2857 24.6114C83.2576 24.5833 83.2399 24.5437 83.2399 24.4824H83.0523C83.0523 24.5839 83.0834 24.6745 83.1529 24.744L83.2857 24.6114ZM83.2399 24.4824V16.3785H83.0523V24.4824H83.2399ZM83.2399 16.3785C83.2399 16.3172 83.2576 16.2777 83.2857 16.2496L83.1529 16.1169C83.0834 16.1864 83.0523 16.277 83.0523 16.3785H83.2399ZM83.2857 16.2496C83.3247 16.2104 83.3701 16.1916 83.4268 16.1916V16.004C83.3206 16.004 83.2275 16.0421 83.1529 16.1169L83.2857 16.2496ZM83.4268 16.1916H83.9882V16.004H83.4268V16.1916ZM83.9882 16.1916C84.0449 16.1916 84.0828 16.21 84.1121 16.2443L84.2547 16.1222C84.1864 16.0425 84.0944 16.004 83.9882 16.004V16.1916ZM84.1222 16.2545C84.1567 16.2838 84.1751 16.3219 84.1751 16.3785H84.3627C84.3627 16.2724 84.3241 16.1803 84.2445 16.112L84.1222 16.2545ZM84.1751 16.3785V16.9155H84.3627V16.3785H84.1751ZM84.3447 16.9707C84.7801 16.372 85.4169 16.0696 86.2703 16.0696V15.8819C85.3662 15.8819 84.669 16.206 84.1931 16.8603L84.3447 16.9707ZM86.2703 16.0696C87.1038 16.0696 87.7121 16.3304 88.1129 16.8393L88.2604 16.7232C87.8149 16.158 87.1458 15.8819 86.2703 15.8819V16.0696ZM88.1132 16.84C88.5294 17.358 88.7565 18.0289 88.7884 18.8597L88.976 18.8525C88.943 17.9909 88.7062 17.2785 88.2596 16.7225L88.1132 16.84ZM88.7887 18.8645C88.7966 18.9496 88.8008 19.0844 88.8008 19.271H88.9884C88.9884 19.0834 88.9843 18.9415 88.9756 18.8475L88.7887 18.8645ZM88.8008 19.271C88.8008 19.4577 88.7966 19.5924 88.7887 19.6775L88.9756 19.6945C88.9843 19.6005 88.9884 19.4586 88.9884 19.271H88.8008ZM88.7884 19.6823C88.7565 20.5047 88.5294 21.176 88.1129 21.7026L88.26 21.819C88.7062 21.2552 88.943 20.5433 88.976 19.6896L88.7884 19.6823ZM88.1132 21.702C87.7042 22.2118 87.0955 22.4725 86.2703 22.4725V22.6601C87.1379 22.6601 87.8066 22.3837 88.2596 21.8195L88.1132 21.702ZM86.2703 22.4725C85.4499 22.4725 84.8198 22.1783 84.3676 21.5935L84.219 21.7083C84.7106 22.344 85.3985 22.6601 86.2703 22.6601V22.4725ZM84.1995 21.6509V24.4824H84.3871V21.6509H84.1995ZM84.1995 24.4824C84.1995 24.5437 84.1819 24.5833 84.1537 24.6114L84.2866 24.744C84.356 24.6745 84.3871 24.5839 84.3871 24.4824H84.1995ZM84.1488 24.6167C84.1196 24.6509 84.0813 24.6693 84.0246 24.6693V24.8569C84.1308 24.8569 84.2231 24.8184 84.2914 24.7387L84.1488 24.6167ZM84.0246 24.6693H83.4268V24.8569H84.0246V24.6693ZM86.014 21.6715C86.6118 21.6715 87.064 21.4853 87.3469 21.0959L87.1953 20.9855C86.9578 21.3121 86.572 21.4839 86.014 21.4839V21.6715ZM87.3462 21.097C87.6291 20.7197 87.7793 20.2278 87.8044 19.6289L87.6168 19.6211C87.5931 20.1937 87.4501 20.6456 87.1961 20.9844L87.3462 21.097ZM87.804 19.6343C87.8127 19.5482 87.8168 19.4265 87.8168 19.271H87.6291C87.6291 19.4247 87.625 19.539 87.6171 19.6156L87.804 19.6343ZM87.8168 19.271C87.8168 18.4933 87.6731 17.8929 87.371 17.4851C87.0651 17.0721 86.6069 16.8705 86.014 16.8705V17.0581C86.5604 17.0581 86.9567 17.241 87.2201 17.5969C87.4877 17.9579 87.6291 18.511 87.6291 19.271H87.8168ZM86.014 16.8705C85.4297 16.8705 84.9763 17.0667 84.6701 17.4689L84.8195 17.5826C85.0829 17.2362 85.4758 17.0581 86.014 17.0581V16.8705ZM84.6701 17.4689C84.3808 17.8519 84.2246 18.3103 84.1995 18.8394L84.3871 18.8483C84.4108 18.3522 84.5556 17.9316 84.8198 17.5823L84.6701 17.4689ZM84.1995 18.8414L84.1871 19.3051L84.3748 19.3101L84.3871 18.8463L84.1995 18.8414ZM84.1871 19.31L84.1995 19.786L84.3871 19.7812L84.3748 19.3052L84.1871 19.31ZM84.1995 19.7868C84.2164 20.2865 84.3781 20.7255 84.6844 21.1001L84.8296 20.9813C84.5504 20.6399 84.4025 20.2408 84.3871 19.7804L84.1995 19.7868ZM84.6844 21.1001C84.9985 21.4839 85.4465 21.6715 86.014 21.6715V21.4839C85.4916 21.4839 85.1017 21.3135 84.8296 20.9813L84.6844 21.1001ZM90.2456 21.6631L90.1683 21.7162L90.1701 21.7187L90.2456 21.6631ZM90.6118 19.4053L90.6693 19.4793L90.6696 19.4792L90.6118 19.4053ZM92.418 18.7218L92.4308 18.8147H92.4312L92.418 18.7218ZM94.2366 18.4655L94.2498 18.5584C94.2959 18.5519 94.3304 18.5123 94.3304 18.4655H94.2366ZM91.9298 17.0986L91.9805 17.1775L91.9823 17.1762L91.9298 17.0986ZM91.4172 17.6234L91.3354 17.5775C91.3324 17.5827 91.3301 17.5881 91.3282 17.5937L91.4172 17.6234ZM91.3196 17.7821L91.2611 17.7088C91.2581 17.7109 91.2558 17.7133 91.2532 17.7157L91.3196 17.7821ZM90.4531 17.7576L90.3818 17.8187C90.3848 17.8223 90.3882 17.8257 90.3919 17.8288L90.4531 17.7576ZM90.3799 17.5624L90.2861 17.5584V17.5624H90.3799ZM90.6482 16.9033L90.5717 16.849L90.5713 16.8495L90.6482 16.9033ZM91.466 16.2564L91.5072 16.3407L91.5087 16.34L91.466 16.2564ZM94.7857 16.6226L94.717 16.6863L94.7174 16.6869L94.7857 16.6226ZM94.3342 22.371L94.2629 22.4321C94.2659 22.4357 94.2693 22.4391 94.273 22.4422L94.3342 22.371ZM94.261 21.6387H94.3548C94.3548 21.5976 94.3278 21.5613 94.2888 21.5491C94.2494 21.537 94.207 21.5517 94.1837 21.5856L94.261 21.6387ZM94.2366 19.2954H94.3304C94.3304 19.2681 94.3184 19.2423 94.2978 19.2244C94.2772 19.2066 94.2498 19.1986 94.2227 19.2026L94.2366 19.2954ZM92.8207 19.5029L92.8338 19.5958L92.8342 19.5957L92.8207 19.5029ZM91.5148 19.9179L91.5654 19.9969L91.5669 19.9959L91.5148 19.9179ZM91.4784 21.3946L91.4262 21.4727L91.4277 21.4738L91.4784 21.3946ZM92.1737 22.4725C91.7883 22.4725 91.4322 22.3939 91.1034 22.2375L91.0228 22.4069C91.3778 22.5759 91.7621 22.6601 92.1737 22.6601V22.4725ZM91.1034 22.2375C90.7743 22.0807 90.5146 21.8705 90.321 21.6075L90.1701 21.7187C90.3833 22.009 90.6685 22.2382 91.0228 22.4069L91.1034 22.2375ZM90.3229 21.6101C90.1382 21.3408 90.0463 21.0459 90.0463 20.7234H89.8587C89.8587 21.0843 89.9622 21.416 90.1683 21.7162L90.3229 21.6101ZM90.0463 20.7234C90.0463 20.2165 90.2519 19.804 90.6693 19.4793L90.554 19.3312C90.0928 19.69 89.8587 20.1562 89.8587 20.7234H90.0463ZM90.6696 19.4792C91.1001 19.1424 91.6851 18.919 92.4308 18.8147L92.4049 18.6289C91.6375 18.7362 91.0183 18.9683 90.554 19.3312L90.6696 19.4792ZM92.4312 18.8147L94.2498 18.5584L94.2235 18.3726L92.4049 18.6289L92.4312 18.8147ZM94.3304 18.4655V18.1115H94.1428V18.4655H94.3304ZM94.3304 18.1115C94.3304 17.6786 94.2055 17.3377 93.9413 17.1072C93.6793 16.8788 93.2962 16.7729 92.8087 16.7729V16.9605C93.2729 16.9605 93.6039 17.062 93.8178 17.2486C94.0295 17.4331 94.1428 17.7147 94.1428 18.1115H94.3304ZM92.8087 16.7729C92.4372 16.7729 92.1246 16.8531 91.8773 17.021L91.9823 17.1762C92.1906 17.0349 92.4638 16.9605 92.8087 16.9605V16.7729ZM91.8791 17.0196C91.6405 17.1731 91.4577 17.3587 91.3354 17.5775L91.499 17.6692C91.6044 17.4812 91.7636 17.317 91.9805 17.1775L91.8791 17.0196ZM91.3282 17.5937C91.3068 17.6575 91.2821 17.6917 91.2611 17.7088L91.3782 17.8553C91.4382 17.8072 91.4787 17.7357 91.5061 17.653L91.3282 17.5937ZM91.2532 17.7157C91.2446 17.7244 91.2239 17.737 91.1733 17.737V17.9247C91.2528 17.9247 91.3297 17.9047 91.386 17.8484L91.2532 17.7157ZM91.1733 17.737H90.6482V17.9247H91.1733V17.737ZM90.6482 17.737C90.598 17.737 90.5544 17.721 90.5143 17.6864L90.3919 17.8288C90.4655 17.8919 90.5522 17.9247 90.6482 17.9247V17.737ZM90.5244 17.6966C90.4895 17.6561 90.4737 17.6126 90.4737 17.5624H90.2861C90.2861 17.6585 90.3187 17.7452 90.3818 17.8187L90.5244 17.6966ZM90.4734 17.5663C90.4805 17.396 90.5597 17.1937 90.7252 16.9571L90.5713 16.8495C90.3953 17.1011 90.2951 17.3382 90.2861 17.5584L90.4734 17.5663ZM90.7248 16.9576C90.8922 16.7216 91.1507 16.515 91.5072 16.3407L91.4247 16.1722C91.049 16.3559 90.7623 16.5806 90.5717 16.849L90.7248 16.9576ZM91.5087 16.34C91.8581 16.1613 92.2942 16.0696 92.8207 16.0696V15.8819C92.2732 15.8819 91.806 15.9773 91.4232 16.1729L91.5087 16.34ZM92.8207 16.0696C93.7202 16.0696 94.3436 16.2827 94.717 16.6863L94.8547 16.5589C94.4303 16.1 93.7439 15.8819 92.8207 15.8819V16.0696ZM94.7174 16.6869C95.0983 17.0909 95.29 17.5961 95.29 18.2092H95.4777C95.4777 17.553 95.2705 17.0004 94.854 16.5582L94.7174 16.6869ZM95.29 18.2092V22.1635H95.4777V18.2092H95.29ZM95.29 22.1635C95.29 22.2203 95.2713 22.2655 95.2319 22.3047L95.3647 22.4374C95.4394 22.3626 95.4777 22.2695 95.4777 22.1635H95.29ZM95.2319 22.3047C95.2037 22.3328 95.1643 22.3504 95.1031 22.3504V22.538C95.2045 22.538 95.2953 22.5069 95.3647 22.4374L95.2319 22.3047ZM95.1031 22.3504H94.5417V22.538H95.1031V22.3504ZM94.5417 22.3504C94.4806 22.3504 94.4336 22.3327 94.395 22.2998L94.273 22.4422C94.3485 22.5069 94.44 22.538 94.5417 22.538V22.3504ZM94.4055 22.3099C94.3725 22.2715 94.3548 22.2245 94.3548 22.1635H94.1672C94.1672 22.2652 94.1984 22.3566 94.2629 22.4321L94.4055 22.3099ZM94.3548 22.1635V21.6387H94.1672V22.1635H94.3548ZM94.1837 21.5856C94.0148 21.8309 93.7675 22.0412 93.4362 22.2147L93.5232 22.3809C93.8756 22.1963 94.1488 21.9673 94.3383 21.6919L94.1837 21.5856ZM93.4362 22.2147C93.1119 22.3845 92.6931 22.4725 92.1737 22.4725V22.6601C92.7126 22.6601 93.1641 22.569 93.5232 22.3809L93.4362 22.2147ZM92.43 21.7447C92.9813 21.7447 93.4377 21.5657 93.7912 21.2039L93.6568 21.0728C93.3427 21.3944 92.9367 21.5571 92.43 21.5571V21.7447ZM93.7912 21.2039C94.1548 20.8313 94.3304 20.3042 94.3304 19.6372H94.1428C94.1428 20.2719 93.9762 20.7456 93.6568 21.0728L93.7912 21.2039ZM94.3304 19.6372V19.2954H94.1428V19.6372H94.3304ZM94.2227 19.2026L92.8072 19.4101L92.8342 19.5957L94.2501 19.3882L94.2227 19.2026ZM92.8076 19.41C92.224 19.4922 91.7726 19.6332 91.463 19.8398L91.5669 19.9959C91.8427 19.812 92.2619 19.6763 92.8338 19.5958L92.8076 19.41ZM91.4645 19.8388C91.1504 20.0394 90.9815 20.3066 90.9815 20.6379H91.1691C91.1691 20.3834 91.2937 20.1706 91.5654 19.9969L91.4645 19.8388ZM90.9815 20.6379C90.9815 20.9945 91.1312 21.2761 91.4262 21.4727L91.5301 21.3166C91.2881 21.1551 91.1691 20.9323 91.1691 20.6379H90.9815ZM91.4277 21.4738C91.7136 21.6556 92.0488 21.7447 92.43 21.7447V21.5571C92.0792 21.5571 91.7797 21.4754 91.5286 21.3155L91.4277 21.4738ZM97.6509 21.834L97.5841 21.8998L97.5852 21.9009L97.6509 21.834ZM96.8696 19.7592L96.7761 19.7616V19.7626L96.8696 19.7592ZM96.8576 19.271L96.7637 19.2687V19.2734L96.8576 19.271ZM96.8696 18.7828L96.7761 18.7794V18.7805L96.8696 18.7828ZM102.093 17.0742L102.014 17.1243L102.015 17.1257L102.093 17.0742ZM102.423 18.0017L102.329 18.0067L102.329 18.011L102.423 18.0017ZM101.251 18.0261L101.163 18.0575L101.165 18.0622L101.251 18.0261ZM100.665 17.1962L100.613 17.2739L100.614 17.2751L100.665 17.1962ZM98.0292 18.8439L97.9354 18.8403V18.8412L98.0292 18.8439ZM98.0172 19.2832L97.9233 19.2806C97.9233 19.2824 97.9233 19.2842 97.9233 19.286L98.0172 19.2832ZM98.0292 19.6982L97.9354 19.7009V19.7017L98.0292 19.6982ZM100.665 21.358L100.716 21.4369L100.718 21.4357L100.665 21.358ZM101.251 20.5159L101.165 20.4798L101.163 20.4846L101.251 20.5159ZM101.373 20.3206L101.432 20.3939C101.434 20.3917 101.437 20.3894 101.44 20.387L101.373 20.3206ZM102.35 20.345L102.283 20.4113C102.285 20.4131 102.287 20.4147 102.289 20.4163L102.35 20.345ZM102.423 20.5403L102.329 20.5309L102.329 20.5352L102.423 20.5403ZM102.093 21.4679L102.014 21.4172L102.014 21.4178L102.093 21.4679ZM101.19 22.249L101.147 22.1657L101.146 22.1661L101.19 22.249ZM99.7014 22.4725C98.8488 22.4725 98.1913 22.234 97.7166 21.7671L97.5852 21.9009C98.1031 22.4104 98.8124 22.6601 99.7014 22.6601V22.4725ZM97.7177 21.7682C97.2501 21.2928 96.9953 20.6259 96.9634 19.7557L96.7761 19.7626C96.8091 20.6663 97.0752 21.3826 97.5841 21.8998L97.7177 21.7682ZM96.9634 19.7569L96.9514 19.2687L96.7637 19.2734L96.7761 19.7616L96.9634 19.7569ZM96.9514 19.2734L96.9634 18.7852L96.7761 18.7805L96.7637 19.2687L96.9514 19.2734ZM96.9634 18.7863C96.9953 17.9161 97.2501 17.2536 97.7173 16.7866L97.5845 16.6539C97.0752 17.1632 96.8091 17.8758 96.7761 18.7794L96.9634 18.7863ZM97.7173 16.7866C98.192 16.3119 98.8491 16.0696 99.7014 16.0696V15.8819C98.812 15.8819 98.1023 16.1359 97.5845 16.6539L97.7173 16.7866ZM99.7014 16.0696C100.276 16.0696 100.757 16.1734 101.147 16.3763L101.234 16.2098C100.81 15.9897 100.298 15.8819 99.7014 15.8819V16.0696ZM101.147 16.3763C101.543 16.5821 101.83 16.8323 102.014 17.1243L102.173 17.0241C101.967 16.6977 101.651 16.4271 101.234 16.2098L101.147 16.3763ZM102.015 17.1257C102.211 17.4237 102.314 17.7171 102.329 18.0067L102.517 17.9968C102.499 17.668 102.382 17.343 102.172 17.0226L102.015 17.1257ZM102.329 18.011C102.335 18.0651 102.32 18.0989 102.289 18.1258L102.411 18.2682C102.493 18.1974 102.527 18.101 102.516 17.9924L102.329 18.011ZM102.289 18.1258C102.25 18.1587 102.203 18.1764 102.142 18.1764V18.364C102.244 18.364 102.335 18.3329 102.411 18.2682L102.289 18.1258ZM102.142 18.1764H101.556V18.364H102.142V18.1764ZM101.556 18.1764C101.485 18.1764 101.449 18.1617 101.432 18.1481L101.315 18.2947C101.379 18.3462 101.465 18.364 101.556 18.364V18.1764ZM101.432 18.1481C101.411 18.1312 101.377 18.0852 101.338 17.99L101.165 18.0622C101.206 18.1623 101.254 18.2465 101.315 18.2947L101.432 18.1481ZM101.34 17.9948C101.197 17.592 100.992 17.2949 100.716 17.1174L100.614 17.2751C100.844 17.423 101.029 17.6792 101.163 18.0575L101.34 17.9948ZM100.718 17.1185C100.447 16.9348 100.11 16.8461 99.7134 16.8461V17.0337C100.082 17.0337 100.38 17.1159 100.613 17.2739L100.718 17.1185ZM99.7134 16.8461C99.1876 16.8461 98.7587 17.0124 98.4371 17.3513L98.5733 17.4805C98.8536 17.1847 99.2304 17.0337 99.7134 17.0337V16.8461ZM98.4371 17.3513C98.1222 17.6837 97.9601 18.186 97.9354 18.8403L98.123 18.8474C98.147 18.2161 98.3024 17.7665 98.5733 17.4805L98.4371 17.3513ZM97.9354 18.8412L97.9233 19.2806L98.1106 19.2858L98.123 18.8464L97.9354 18.8412ZM97.9233 19.286L97.9354 19.7009L98.123 19.6954L98.1106 19.2805L97.9233 19.286ZM97.9354 19.7017C97.9601 20.3638 98.1219 20.8703 98.4371 21.2028L98.5733 21.0738C98.3024 20.788 98.147 20.3344 98.123 19.6946L97.9354 19.7017ZM98.4371 21.2028C98.7512 21.5345 99.1809 21.6959 99.7134 21.6959V21.5083C99.221 21.5083 98.845 21.3605 98.5733 21.0738L98.4371 21.2028ZM99.7134 21.6959C100.109 21.6959 100.445 21.6117 100.716 21.4369L100.614 21.2792C100.381 21.4298 100.083 21.5083 99.7134 21.5083V21.6959ZM100.718 21.4357C100.992 21.2502 101.197 20.9499 101.34 20.5472L101.163 20.4846C101.029 20.8629 100.843 21.1241 100.613 21.2803L100.718 21.4357ZM101.338 20.552C101.377 20.4568 101.411 20.4107 101.432 20.3939L101.315 20.2474C101.254 20.2955 101.206 20.3797 101.165 20.4798L101.338 20.552ZM101.44 20.387C101.457 20.3701 101.49 20.3534 101.556 20.3534V20.1658C101.461 20.1658 101.371 20.1898 101.307 20.2543L101.44 20.387ZM101.556 20.3534H102.142V20.1658H101.556V20.3534ZM102.142 20.3534C102.199 20.3534 102.244 20.3722 102.283 20.4113L102.416 20.2787C102.341 20.2039 102.248 20.1658 102.142 20.1658V20.3534ZM102.289 20.4163C102.32 20.4431 102.335 20.4769 102.329 20.5309L102.516 20.5496C102.527 20.441 102.493 20.3446 102.411 20.2738L102.289 20.4163ZM102.329 20.5352C102.314 20.8165 102.211 21.1102 102.014 21.4172L102.172 21.5185C102.382 21.1909 102.499 20.8662 102.517 20.5454L102.329 20.5352ZM102.014 21.4178C101.83 21.7098 101.543 21.9599 101.147 22.1657L101.234 22.3322C101.651 22.1149 101.967 21.8443 102.173 21.518L102.014 21.4178ZM101.146 22.1661C100.765 22.3685 100.285 22.4725 99.7014 22.4725V22.6601C100.306 22.6601 100.818 22.5525 101.234 22.3318L101.146 22.1661ZM103.958 22.371L103.886 22.4321C103.889 22.4357 103.893 22.4391 103.897 22.4422L103.958 22.371ZM104.971 13.8643L104.899 13.9254C104.903 13.929 104.906 13.9324 104.909 13.9355L104.971 13.8643ZM105.056 16.9033H104.962C104.962 16.9433 104.988 16.9789 105.025 16.992C105.063 17.005 105.105 16.9927 105.13 16.9612L105.056 16.9033ZM105.886 16.2198L105.927 16.3042L105.929 16.3033L105.886 16.2198ZM108.889 16.7324L108.817 16.7934L108.818 16.7946L108.889 16.7324ZM108.449 22.371L108.378 22.4321C108.381 22.4357 108.385 22.4391 108.388 22.4422L108.449 22.371ZM107.949 17.4403L107.878 17.5019L107.879 17.503L107.949 17.4403ZM104.165 22.3504C104.104 22.3504 104.057 22.3327 104.019 22.2998L103.897 22.4422C103.972 22.5069 104.064 22.538 104.165 22.538V22.3504ZM104.029 22.3099C103.996 22.2715 103.978 22.2245 103.978 22.1635H103.791C103.791 22.2652 103.822 22.3566 103.886 22.4321L104.029 22.3099ZM103.978 22.1635V14.0596H103.791V22.1635H103.978ZM103.978 14.0596C103.978 13.9983 103.996 13.9588 104.024 13.9307L103.891 13.798C103.822 13.8675 103.791 13.9581 103.791 14.0596H103.978ZM104.024 13.9307C104.063 13.8915 104.108 13.8727 104.165 13.8727V13.6851C104.059 13.6851 103.966 13.7232 103.891 13.798L104.024 13.9307ZM104.165 13.8727H104.776V13.6851H104.165V13.8727ZM104.776 13.8727C104.832 13.8727 104.87 13.8911 104.899 13.9254L105.042 13.8033C104.974 13.7236 104.882 13.6851 104.776 13.6851V13.8727ZM104.909 13.9355C104.944 13.9649 104.962 14.003 104.962 14.0596H105.15C105.15 13.9535 105.111 13.8614 105.032 13.7931L104.909 13.9355ZM104.962 14.0596V16.9033H105.15V14.0596H104.962ZM105.13 16.9612C105.358 16.6704 105.624 16.452 105.927 16.3042L105.845 16.1355C105.514 16.2968 105.226 16.5341 104.982 16.8454L105.13 16.9612ZM105.929 16.3033C106.229 16.1492 106.608 16.0696 107.07 16.0696V15.8819C106.588 15.8819 106.178 15.965 105.843 16.1364L105.929 16.3033ZM107.07 16.0696C107.829 16.0696 108.407 16.3135 108.817 16.7934L108.96 16.6715C108.508 16.1424 107.873 15.8819 107.07 15.8819V16.0696ZM108.818 16.7946C109.239 17.2698 109.454 17.9088 109.454 18.7218H109.641C109.641 17.8749 109.417 17.1877 108.959 16.6703L108.818 16.7946ZM109.454 18.7218V22.1635H109.641V18.7218H109.454ZM109.454 22.1635C109.454 22.2203 109.435 22.2655 109.396 22.3047L109.528 22.4374C109.603 22.3626 109.641 22.2695 109.641 22.1635H109.454ZM109.396 22.3047C109.368 22.3328 109.328 22.3504 109.267 22.3504V22.538C109.368 22.538 109.459 22.5069 109.528 22.4374L109.396 22.3047ZM109.267 22.3504H108.657V22.538H109.267V22.3504ZM108.657 22.3504C108.595 22.3504 108.549 22.3327 108.51 22.2998L108.388 22.4422C108.463 22.5069 108.555 22.538 108.657 22.538V22.3504ZM108.52 22.3099C108.487 22.2715 108.47 22.2245 108.47 22.1635H108.282C108.282 22.2652 108.313 22.3566 108.378 22.4321L108.52 22.3099ZM108.47 22.1635V18.7828H108.282V22.1635H108.47ZM108.47 18.7828C108.47 18.1903 108.323 17.7175 108.019 17.3777L107.879 17.503C108.143 17.7978 108.282 18.22 108.282 18.7828H108.47ZM108.019 17.3787C107.721 17.0359 107.289 16.8705 106.74 16.8705V17.0581C107.25 17.0581 107.623 17.2101 107.878 17.5019L108.019 17.3787ZM106.74 16.8705C106.206 16.8705 105.769 17.0411 105.44 17.3879L105.576 17.5171C105.865 17.213 106.25 17.0581 106.74 17.0581V16.8705ZM105.44 17.3879C105.117 17.7274 104.962 18.1967 104.962 18.7828H105.15C105.15 18.2298 105.296 17.8122 105.576 17.5171L105.44 17.3879ZM104.962 18.7828V22.1635H105.15V18.7828H104.962ZM104.962 22.1635C104.962 22.2203 104.944 22.2655 104.904 22.3047L105.037 22.4374C105.112 22.3626 105.15 22.2695 105.15 22.1635H104.962ZM104.904 22.3047C104.876 22.3328 104.837 22.3504 104.776 22.3504V22.538C104.877 22.538 104.968 22.5069 105.037 22.4374L104.904 22.3047ZM104.776 22.3504H104.165V22.538H104.776V22.3504ZM111.834 21.7974L111.767 21.8621L111.768 21.8632L111.834 21.7974ZM111.017 19.6738L110.923 19.6765V19.6789L111.017 19.6738ZM111.004 19.2588L110.911 19.2559C110.911 19.2578 110.911 19.2597 110.911 19.2616L111.004 19.2588ZM111.017 18.8561L110.923 18.85V18.8532L111.017 18.8561ZM111.846 16.7568L111.779 16.6916L111.779 16.6921L111.846 16.7568ZM115.935 16.8423L115.864 16.9034L115.865 16.9039L115.935 16.8423ZM112.176 19.6494V19.5555C112.124 19.5555 112.082 19.5975 112.082 19.6494H112.176ZM112.176 19.7592H112.082L112.083 19.7635L112.176 19.7592ZM112.652 21.1139L112.578 21.1718L112.58 21.1735L112.652 21.1139ZM114.751 21.4434L114.801 21.5232L114.801 21.5227L114.751 21.4434ZM115.288 20.9675L115.213 20.9111L115.212 20.9137L115.288 20.9675ZM115.447 20.7966L115.489 20.8805C115.491 20.8794 115.493 20.8783 115.495 20.877L115.447 20.7966ZM116.167 21.6387L116.097 21.5758L116.096 21.5771L116.167 21.6387ZM115.227 22.2978L115.266 22.3833L115.266 22.383L115.227 22.2978ZM115.52 18.8072V18.901C115.572 18.901 115.614 18.8591 115.614 18.8072H115.52ZM115.056 17.4037L114.985 17.4641L114.986 17.4658L115.056 17.4037ZM112.615 17.4037L112.544 17.3433L112.543 17.3435L112.615 17.4037ZM112.176 18.8072H112.082C112.082 18.8591 112.124 18.901 112.176 18.901V18.8072ZM113.848 22.4725C113.031 22.4725 112.385 22.2233 111.901 21.7316L111.768 21.8632C112.293 22.3967 112.99 22.6601 113.848 22.6601V22.4725ZM111.902 21.7327C111.425 21.2318 111.158 20.547 111.11 19.6686L110.923 19.6789C110.973 20.5905 111.251 21.3215 111.767 21.8621L111.902 21.7327ZM111.111 19.671L111.098 19.2561L110.911 19.2616L110.923 19.6765L111.111 19.671ZM111.098 19.2617L111.111 18.8589L110.923 18.8532L110.911 19.2559L111.098 19.2617ZM111.11 18.8621C111.166 18.0002 111.437 17.323 111.914 16.8216L111.779 16.6921C111.264 17.2321 110.981 17.9544 110.923 18.85L111.11 18.8621ZM111.914 16.8221C112.398 16.3221 113.036 16.0696 113.836 16.0696V15.8819C112.993 15.8819 112.304 16.1501 111.779 16.6916L111.914 16.8221ZM113.836 16.0696C114.717 16.0696 115.389 16.3504 115.864 16.9034L116.006 16.7811C115.489 16.1788 114.761 15.8819 113.836 15.8819V16.0696ZM115.865 16.9039C116.342 17.4519 116.586 18.2007 116.586 19.1612H116.773C116.773 18.1689 116.521 17.3718 116.006 16.7806L115.865 16.9039ZM116.586 19.1612V19.3686H116.773V19.1612H116.586ZM116.586 19.3686C116.586 19.4254 116.567 19.4706 116.528 19.5098L116.66 19.6425C116.735 19.5677 116.773 19.4746 116.773 19.3686H116.586ZM116.528 19.5098C116.5 19.5379 116.46 19.5555 116.399 19.5555V19.7432C116.5 19.7432 116.591 19.712 116.66 19.6425L116.528 19.5098ZM116.399 19.5555H112.176V19.7432H116.399V19.5555ZM112.082 19.6494V19.7592H112.27V19.6494H112.082ZM112.083 19.7635C112.108 20.3095 112.272 20.7804 112.578 21.1718L112.726 21.0561C112.447 20.6989 112.293 20.2666 112.27 19.7549L112.083 19.7635ZM112.58 21.1735C112.899 21.5621 113.321 21.7569 113.836 21.7569V21.5693C113.375 21.5693 113.007 21.3981 112.725 21.0543L112.58 21.1735ZM113.836 21.7569C114.222 21.7569 114.545 21.6815 114.801 21.5232L114.702 21.3637C114.485 21.4983 114.199 21.5693 113.836 21.5693V21.7569ZM114.801 21.5227C115.052 21.3642 115.242 21.1977 115.365 21.0212L115.212 20.9137C115.107 21.0627 114.939 21.2135 114.701 21.3642L114.801 21.5227ZM115.363 21.0238C115.399 20.9763 115.428 20.9405 115.452 20.9153C115.463 20.9028 115.473 20.8938 115.48 20.8876C115.487 20.8811 115.49 20.8798 115.489 20.8805L115.405 20.7127C115.373 20.7289 115.341 20.7582 115.314 20.7877C115.284 20.8195 115.251 20.861 115.213 20.9111L115.363 21.0238ZM115.495 20.877C115.513 20.8667 115.559 20.8538 115.654 20.8538V20.6662C115.554 20.6662 115.463 20.6777 115.399 20.7161L115.495 20.877ZM115.654 20.8538H116.253V20.6662H115.654V20.8538ZM116.253 20.8538C116.307 20.8538 116.346 20.8685 116.375 20.8931L116.496 20.7489C116.427 20.6921 116.344 20.6662 116.253 20.6662V20.8538ZM116.375 20.8931C116.399 20.9131 116.415 20.9418 116.415 20.9919H116.603C116.603 20.8955 116.569 20.8103 116.496 20.7489L116.375 20.8931ZM116.415 20.9919C116.415 21.1342 116.322 21.3272 116.097 21.5758L116.237 21.7016C116.468 21.4457 116.603 21.2075 116.603 20.9919H116.415ZM116.096 21.5771C115.888 21.8165 115.587 22.0292 115.188 22.2125L115.266 22.383C115.681 22.1921 116.007 21.9654 116.238 21.7003L116.096 21.5771ZM115.189 22.2122C114.804 22.3848 114.358 22.4725 113.848 22.4725V22.6601C114.38 22.6601 114.853 22.5687 115.266 22.3833L115.189 22.2122ZM115.614 18.8072V18.7706H115.426V18.8072H115.614ZM115.614 18.7706C115.614 18.1912 115.454 17.7119 115.127 17.3416L114.986 17.4658C115.277 17.7952 115.426 18.2272 115.426 18.7706H115.614ZM115.128 17.3433C114.807 16.9619 114.373 16.7729 113.836 16.7729V16.9605C114.324 16.9605 114.703 17.1294 114.985 17.4641L115.128 17.3433ZM113.836 16.7729C113.299 16.7729 112.864 16.9619 112.544 17.3433L112.687 17.4641C112.969 17.1294 113.348 16.9605 113.836 16.9605V16.7729ZM112.543 17.3435C112.233 17.7138 112.082 18.1924 112.082 18.7706H112.27C112.27 18.226 112.412 17.7933 112.687 17.4639L112.543 17.3435ZM112.082 18.7706V18.8072H112.27V18.7706H112.082ZM112.176 18.901H115.52V18.7134H112.176V18.901Z" fill="#51504F"/>
<path d="M72.0049 51.1079C71.8394 51.1079 71.6949 51.0456 71.5707 50.9218C71.4468 50.7976 71.3846 50.6531 71.3846 50.4876C71.3846 50.3221 71.3951 50.2087 71.4157 50.1465L79.1055 30.0853C79.2706 29.6306 79.6016 29.4032 80.0977 29.4032H82.206C82.7021 29.4032 83.0327 29.6306 83.1982 30.0853L90.8569 50.1465L90.9188 50.4876C90.9188 50.6531 90.8569 50.7976 90.7327 50.9218C90.6088 51.0456 90.464 51.1079 90.2988 51.1079H88.7174C88.49 51.1079 88.3144 51.0561 88.1902 50.9529C88.0663 50.8287 87.9834 50.7049 87.9421 50.5806L86.2368 46.1779H76.0669L74.3612 50.5806C74.32 50.7049 74.2269 50.8287 74.0824 50.9529C73.9582 51.0561 73.7927 51.1079 73.5863 51.1079H72.0049ZM85.3377 43.5112L81.1519 32.5038L76.966 43.5112H85.3377ZM94.2963 31.9767C94.0895 31.9767 93.9139 31.9147 93.769 31.7907C93.6448 31.646 93.5829 31.4703 93.5829 31.2636V29.5892C93.5829 29.3825 93.6448 29.2068 93.769 29.0621C93.9139 28.9174 94.0895 28.8451 94.2963 28.8451H96.2496C96.4564 28.8451 96.632 28.9174 96.7765 29.0621C96.9213 29.2068 96.9938 29.3825 96.9938 29.5892V31.2636C96.9938 31.4703 96.9213 31.646 96.7765 31.7907C96.632 31.9147 96.4564 31.9767 96.2496 31.9767H94.2963ZM94.5443 51.1079C94.3376 51.1079 94.1619 51.0456 94.0171 50.9218C93.8929 50.7769 93.8309 50.6013 93.8309 50.3945V35.6975C93.8309 35.4908 93.8929 35.3254 94.0171 35.2014C94.1619 35.0567 94.3376 34.9844 94.5443 34.9844H96.0323C96.2391 34.9844 96.4046 35.0567 96.5284 35.2014C96.6733 35.3254 96.7457 35.4908 96.7457 35.6975V50.3945C96.7457 50.6013 96.6733 50.7769 96.5284 50.9218C96.4046 51.0456 96.2391 51.1079 96.0323 51.1079H94.5443ZM102.054 51.1079C101.847 51.1079 101.671 51.0456 101.526 50.9218C101.403 50.7769 101.341 50.6013 101.341 50.3945V35.7285C101.341 35.5218 101.403 35.3461 101.526 35.2014C101.671 35.0567 101.847 34.9844 102.054 34.9844H103.48C103.686 34.9844 103.862 35.0567 104.007 35.2014C104.152 35.3461 104.224 35.5218 104.224 35.7285V37.0928C105.072 35.6872 106.519 34.9844 108.565 34.9844H109.774C109.981 34.9844 110.146 35.0567 110.27 35.2014C110.415 35.3254 110.487 35.4908 110.487 35.6975V36.9688C110.487 37.1755 110.415 37.3409 110.27 37.4649C110.146 37.5889 109.981 37.6509 109.774 37.6509H107.914C106.797 37.6509 105.919 37.9817 105.278 38.6431C104.637 39.2841 104.317 40.1626 104.317 41.2787V50.3945C104.317 50.6013 104.245 50.7769 104.1 50.9218C103.955 51.0456 103.779 51.1079 103.573 51.1079H102.054ZM115.445 51.1079C115.238 51.1079 115.062 51.0456 114.918 50.9218C114.793 50.7769 114.732 50.6013 114.732 50.3945V37.4649H112.096C111.889 37.4649 111.714 37.4029 111.569 37.2788C111.445 37.1341 111.383 36.9584 111.383 36.7517V35.6975C111.383 35.4908 111.445 35.3254 111.569 35.2014C111.714 35.0567 111.889 34.9844 112.096 34.9844H114.732V33.434C114.732 29.92 116.509 28.1629 120.065 28.1629H121.801C122.008 28.1629 122.173 28.2353 122.297 28.38C122.442 28.504 122.514 28.6694 122.514 28.8761V29.9303C122.514 30.137 122.442 30.3127 122.297 30.4574C122.173 30.5814 122.008 30.6434 121.801 30.6434H120.127C119.197 30.6434 118.545 30.8915 118.173 31.3876C117.801 31.863 117.615 32.5969 117.615 33.589V34.9844H124.25V28.8761C124.25 28.6694 124.313 28.504 124.437 28.38C124.581 28.2353 124.757 28.1629 124.964 28.1629H126.39C126.597 28.1629 126.762 28.2353 126.886 28.38C127.031 28.504 127.103 28.6694 127.103 28.8761V50.3945C127.103 50.6013 127.031 50.7769 126.886 50.9218C126.762 51.0456 126.597 51.1079 126.39 51.1079H124.964C124.757 51.1079 124.581 51.0456 124.437 50.9218C124.313 50.7769 124.25 50.6013 124.25 50.3945V37.4649H117.615V50.3945C117.615 50.6013 117.543 50.7769 117.398 50.9218C117.274 51.0456 117.109 51.1079 116.902 51.1079H115.445ZM138.315 51.4179C136.042 51.4179 134.274 50.7769 133.013 49.4953C131.773 48.2138 131.112 46.5085 131.029 44.3792L130.998 43.0462L131.029 41.7129C131.112 39.6042 131.783 37.9093 133.044 36.6277C134.305 35.3254 136.062 34.6743 138.315 34.6743C140.569 34.6743 142.326 35.3254 143.587 36.6277C144.847 37.9093 145.519 39.6042 145.602 41.7129C145.623 41.9403 145.633 42.3846 145.633 43.0462C145.633 43.7075 145.623 44.1518 145.602 44.3792C145.519 46.5085 144.847 48.2138 143.587 49.4953C142.346 50.7769 140.589 51.4179 138.315 51.4179ZM138.315 49.0304C139.618 49.0304 140.641 48.6168 141.385 47.7901C142.15 46.9634 142.564 45.7745 142.625 44.2242C142.646 44.0174 142.656 43.6249 142.656 43.0462C142.656 42.4672 142.646 42.0746 142.625 41.8679C142.564 40.3176 142.15 39.1287 141.385 38.3021C140.641 37.4752 139.618 37.0618 138.315 37.0618C137.013 37.0618 135.98 37.4752 135.215 38.3021C134.45 39.1287 134.047 40.3176 134.006 41.8679L133.975 43.0462L134.006 44.2242C134.047 45.7745 134.45 46.9634 135.215 47.7901C135.98 48.6168 137.013 49.0304 138.315 49.0304ZM153.371 51.1079C153.102 51.1079 152.895 51.0456 152.75 50.9218C152.606 50.7976 152.482 50.6013 152.378 50.3326L147.975 35.9456L147.913 35.6355C147.913 35.4494 147.975 35.2944 148.1 35.1704C148.244 35.0464 148.399 34.9844 148.565 34.9844H149.929C150.135 34.9844 150.301 35.0464 150.425 35.1704C150.57 35.2737 150.663 35.3874 150.704 35.5115L154.146 47.2009L157.835 35.6355C157.877 35.4701 157.97 35.3254 158.115 35.2014C158.259 35.0567 158.456 34.9844 158.704 34.9844H159.758C160.006 34.9844 160.202 35.0567 160.347 35.2014C160.492 35.3254 160.585 35.4701 160.626 35.6355L164.316 47.2009L167.758 35.5115C167.778 35.4081 167.851 35.2944 167.975 35.1704C168.119 35.0464 168.295 34.9844 168.502 34.9844H169.897C170.063 34.9844 170.207 35.0464 170.331 35.1704C170.455 35.2944 170.517 35.4494 170.517 35.6355L170.455 35.9456L166.083 50.3326C165.98 50.6013 165.856 50.7976 165.711 50.9218C165.566 51.0456 165.35 51.1079 165.06 51.1079H163.851C163.293 51.1079 162.951 50.8493 162.828 50.3326L159.231 39.2323L155.634 50.3326C155.469 50.8493 155.117 51.1079 154.58 51.1079H153.371Z" fill="#51504F"/>
</g>
</svg>
