<svg width="171" height="53" viewBox="0 0 171 53" fill="none" xmlns="http://www.w3.org/2000/svg">
<g clip-path="url(#clip0_81_840)">
<path d="M170.794 0.542969H0.793945V52.6665H170.794V0.542969Z" fill="#222222"/>
<path d="M107.713 17.7114C107.539 17.5455 107.401 17.3452 107.309 17.1233C107.216 16.9014 107.17 16.6627 107.174 16.4221C107.174 15.9337 107.368 15.4652 107.713 15.1198C108.059 14.7744 108.527 14.5803 109.016 14.5803C109.256 14.5763 109.495 14.6222 109.717 14.7151C109.939 14.8079 110.139 14.9458 110.305 15.12C110.476 15.2908 110.61 15.4943 110.701 15.7184C110.791 15.9424 110.836 16.1824 110.832 16.424C110.836 16.6645 110.79 16.9033 110.697 17.1252C110.604 17.3471 110.466 17.5473 110.292 17.7133C110.125 17.8824 109.926 18.0162 109.707 18.1067C109.487 18.1973 109.251 18.2426 109.014 18.24C108.773 18.2434 108.533 18.1984 108.31 18.1076C108.087 18.0168 107.884 17.8821 107.713 17.7114Z" fill="white"/>
<path d="M23.4133 33.4702C23.2549 33.189 23.1321 32.6365 23.045 31.8126C22.1314 33.1313 20.6733 33.7901 18.6706 33.7888C17.1763 33.7888 15.9859 33.4291 15.0994 32.7095C14.2128 31.99 13.7696 30.988 13.7696 29.7037C13.7696 27.227 15.5089 25.815 18.9874 25.4675L21.0429 25.2833C21.7281 25.1967 22.2198 25.0328 22.5164 24.7971C22.6691 24.6662 22.7891 24.5015 22.8669 24.316C22.9446 24.1305 22.9778 23.9294 22.9639 23.7288C22.9639 23.1492 22.7754 22.7232 22.3985 22.4506C22.0215 22.178 21.3843 22.0417 20.4867 22.0417C19.5216 22.0417 18.8278 22.2044 18.4054 22.5298C17.9836 22.8558 17.7368 23.412 17.6687 24.204H14.3995C14.5922 21.1122 16.6305 19.5657 20.5143 19.5645C24.2925 19.5645 26.181 20.9262 26.1797 23.6496V30.8972C26.1797 32.0931 26.3639 32.9526 26.7323 33.4757L23.4133 33.4702ZM21.9896 30.5638C22.6404 29.9928 22.9652 29.1714 22.9639 28.0994V26.8617C22.649 27.1435 22.1296 27.3277 21.4094 27.4143L19.6173 27.6169C18.7333 27.7237 18.107 27.9306 17.7387 28.2376C17.5473 28.4003 17.3964 28.6054 17.2979 28.8365C17.1995 29.0676 17.1562 29.3185 17.1714 29.5692C17.1567 29.8264 17.2021 30.0835 17.3041 30.3201C17.4061 30.5567 17.5618 30.7663 17.7589 30.9322C18.1556 31.2563 18.7222 31.4184 19.4589 31.4184C20.4965 31.4147 21.3401 31.1299 21.9896 30.5638Z" fill="white"/>
<path d="M42.6511 21.4794C43.7415 22.7797 44.2861 24.5104 44.2848 26.6715C44.2836 28.8326 43.739 30.5516 42.6511 31.8286C41.5461 33.1289 40.0615 33.7791 38.1976 33.7791C36.3337 33.7791 34.9278 33.0853 33.9799 31.6978V38.6286H30.6646V19.8715H33.8528V21.822C34.8351 20.3117 36.2846 19.5559 38.2013 19.5547C40.0616 19.5547 41.5448 20.1963 42.6511 21.4794ZM37.4075 31.0458C38.4954 31.0458 39.3549 30.6504 39.986 29.8597C40.6172 29.0689 40.9241 27.9712 40.9069 26.5665C40.9069 25.1778 40.6037 24.1187 39.9971 23.3894C39.3905 22.66 38.5255 22.2953 37.402 22.2953C36.2969 22.2953 35.4374 22.6735 34.8234 23.4299C34.2095 24.1863 33.9025 25.2668 33.9025 26.6715C33.9025 28.0934 34.2187 29.1739 34.851 29.9131C35.4478 30.6682 36.2999 31.0458 37.4075 31.0458Z" fill="white"/>
<path d="M59.7322 21.4794C60.8226 22.7797 61.3671 24.5104 61.3659 26.6715C61.3647 28.8326 60.8201 30.5516 59.7322 31.8286C58.6271 33.1289 57.1426 33.7791 55.2787 33.7791C53.4148 33.7791 52.0088 33.0853 51.0609 31.6978V38.6286H47.7456V19.8715H50.9357V21.822C51.918 20.3117 53.3675 19.5559 55.2842 19.5547C57.1371 19.5547 58.6197 20.1963 59.7322 21.4794ZM54.4885 31.0458C55.5764 31.0458 56.436 30.6504 57.0671 29.8597C57.6982 29.0689 58.0052 27.9712 57.988 26.5665C57.988 25.1778 57.6847 24.1187 57.0781 23.3894C56.4716 22.66 55.6065 22.2953 54.483 22.2953C53.3779 22.2953 52.5184 22.6735 51.9045 23.4299C51.2905 24.1863 50.9836 25.2668 50.9836 26.6715C50.9836 28.0934 51.3003 29.1739 51.9339 29.9131C52.5233 30.6682 53.3718 31.0458 54.4793 31.0458H54.4885Z" fill="white"/>
<path d="M64.3607 29.1487H67.6023C67.6907 29.9923 67.9676 30.5896 68.4329 30.9408C68.8983 31.292 69.632 31.4676 70.6339 31.4676C72.4266 31.4676 73.323 30.923 73.323 29.8339C73.3325 29.611 73.2841 29.3895 73.1824 29.191C73.0807 28.9924 72.9292 28.8237 72.7428 28.7012C72.356 28.4372 71.6617 28.2174 70.6597 28.0418L69.1052 27.7784C66.1362 27.2873 64.6517 25.9169 64.6517 23.6675C64.6517 22.3843 65.1428 21.3781 66.1251 20.6487C67.1075 19.9194 68.4956 19.5547 70.2895 19.5547C74.1721 19.5547 76.1754 21.0895 76.2994 24.1592H73.1683C73.1327 23.3525 72.8779 22.7773 72.4039 22.4335C71.93 22.0896 71.227 21.9184 70.295 21.9196C68.7135 21.9196 67.9228 22.447 67.9228 23.5017C67.9145 23.7093 67.9583 23.9157 68.0503 24.102C68.1424 24.2883 68.2796 24.4485 68.4495 24.5681C68.8019 24.8223 69.3821 25.02 70.19 25.1612L71.9029 25.4246C73.5544 25.7229 74.7535 26.1975 75.5 26.8483C76.2466 27.4991 76.6198 28.404 76.6198 29.5631C76.6198 30.9335 76.0931 31.9876 75.0396 32.7255C73.986 33.4635 72.5009 33.8319 70.5842 33.8306C66.6132 33.8368 64.5387 32.2761 64.3607 29.1487Z" fill="white"/>
<path d="M99.3479 20.8734C100.182 21.7526 100.599 22.9559 100.6 24.4834V33.4715H97.2851V25.0102C97.2851 23.2911 96.5029 22.4316 94.9386 22.4316C94.5499 22.4167 94.163 22.4906 93.8072 22.6476C93.4513 22.8046 93.1359 23.0407 92.8849 23.3378C92.368 23.9431 92.1089 24.826 92.1077 25.9863V33.4715H88.8182V25.0102C88.8182 23.2911 88.0281 22.4316 86.4478 22.4316C86.0646 22.4205 85.684 22.4966 85.3346 22.6543C84.9852 22.8119 84.6762 23.0469 84.431 23.3415C83.9116 23.9468 83.6525 24.8297 83.6537 25.99V33.4752H80.3385V19.8715H83.5543V21.822C84.4838 20.3117 85.7731 19.5559 87.4221 19.5547C89.496 19.5547 90.9019 20.3982 91.6399 22.0853C92.6578 20.3982 94.0631 19.5547 95.8558 19.5547C97.3501 19.5547 98.5142 19.9943 99.3479 20.8734Z" fill="white"/>
<path d="M126.038 22.4008H121.802V29.7534C121.802 30.1917 121.92 30.4987 122.157 30.6743C122.394 30.8499 122.791 30.9358 123.349 30.9321H125.774V33.4628C125.054 33.5328 123.183 33.5678 122.743 33.5678C121.269 33.5678 120.193 33.2909 119.514 32.7371C118.835 32.1833 118.497 31.3005 118.499 30.0886V22.4008H115.416V19.8702H118.499V15.3301H121.802V19.8702H126.038V22.4008Z" fill="white"/>
<path d="M140.894 20.8316C141.747 21.685 142.173 22.8932 142.172 24.4563V33.4702H138.857V25.0088C138.857 23.2898 138.005 22.4303 136.3 22.4303C135.897 22.4219 135.497 22.4983 135.125 22.6544C134.753 22.8105 134.418 23.0428 134.142 23.3365C133.555 23.9418 133.261 24.7805 133.259 25.8524V33.4702H129.944V15.3301H133.259V21.688C134.296 20.2662 135.675 19.5546 137.396 19.5534C138.877 19.5534 140.043 19.9794 140.894 20.8316Z" fill="white"/>
<path d="M144.854 37.9506V35.4199H157.82V37.9506H144.854Z" fill="white"/>
<path d="M110.705 30.9404V19.8711H103.722V22.4018H107.386V30.9404H103.722V33.4711H114.368V30.9404H110.705Z" fill="white"/>
</g>
<defs>
<clipPath id="clip0_81_840">
<rect width="170" height="52.1235" fill="white" transform="translate(0.793945 0.542969)"/>
</clipPath>
</defs>
</svg>
