<svg width="171" height="53" viewBox="0 0 171 53" fill="none" xmlns="http://www.w3.org/2000/svg">
<g clip-path="url(#clip0_1_87)">
<path d="M170.91 0.384079H0.909668V52.5076H170.91V0.384079Z" fill="#222222"/>
<path d="M107.829 17.5517C107.655 17.3857 107.517 17.1855 107.424 16.9636C107.331 16.7417 107.286 16.5029 107.29 16.2624C107.29 15.7739 107.484 15.3055 107.829 14.96C108.174 14.6146 108.643 14.4206 109.131 14.4206C109.372 14.4166 109.611 14.4624 109.833 14.5553C110.054 14.6482 110.255 14.7861 110.421 14.9602C110.591 15.1311 110.726 15.3346 110.817 15.5587C110.907 15.7827 110.952 16.0227 110.947 16.2643C110.951 16.5048 110.906 16.7435 110.813 16.9654C110.72 17.1873 110.582 17.3876 110.408 17.5535C110.241 17.7227 110.042 17.8565 109.822 17.947C109.603 18.0375 109.367 18.0828 109.13 18.0803C108.888 18.0837 108.649 18.0387 108.426 17.9479C108.202 17.8571 108 17.7223 107.829 17.5517Z" fill="white"/>
<path d="M23.529 33.3121C23.3706 33.031 23.2478 32.4784 23.1607 31.6545C22.2471 32.9733 20.789 33.632 18.7863 33.6308C17.292 33.6308 16.1016 33.271 15.215 32.5515C14.3285 31.8319 13.8853 30.83 13.8853 29.5456C13.8853 27.069 15.6245 25.6569 19.1031 25.3094L21.1586 25.1253C21.8438 25.0387 22.3355 24.8748 22.6321 24.639C22.7848 24.5082 22.9048 24.3435 22.9825 24.158C23.0603 23.9725 23.0935 23.7714 23.0796 23.5708C23.0796 22.9912 22.8911 22.5651 22.5142 22.2925C22.1372 22.0199 21.5 21.8837 20.6024 21.8837C19.6373 21.8837 18.9435 22.0463 18.5211 22.3717C18.0993 22.6977 17.8525 23.254 17.7844 24.0459H14.5152C14.7079 20.9541 16.7462 19.4076 20.63 19.4064C24.4082 19.4064 26.2967 20.7681 26.2954 23.4916V30.7391C26.2954 31.9351 26.4796 32.7946 26.848 33.3177L23.529 33.3121ZM22.1053 30.4058C22.7561 29.8348 23.0808 29.0133 23.0796 27.9414V26.7037C22.7647 26.9855 22.2453 27.1697 21.5251 27.2562L19.733 27.4588C18.849 27.5657 18.2227 27.7726 17.8544 28.0795C17.663 28.2423 17.5121 28.4473 17.4136 28.6784C17.3152 28.9095 17.2719 29.1604 17.2871 29.4112C17.2724 29.6684 17.3178 29.9255 17.4198 30.1621C17.5218 30.3987 17.6775 30.6082 17.8746 30.7741C18.2712 31.0983 18.8379 31.2604 19.5746 31.2604C20.6122 31.2567 21.4557 30.9718 22.1053 30.4058Z" fill="white"/>
<path d="M42.7668 21.3201C43.8572 22.6204 44.4018 24.3511 44.4005 26.5121C44.3993 28.6732 43.8547 30.3923 42.7668 31.6692C41.6617 32.9696 40.1772 33.6197 38.3133 33.6197C36.4494 33.6197 35.0435 32.926 34.0955 31.5385V38.4692H30.7803V19.7121H33.9685V21.6626C34.9508 20.1523 36.4003 19.3966 38.317 19.3954C40.1772 19.3954 41.6605 20.0369 42.7668 21.3201ZM37.5232 30.8865C38.6111 30.8865 39.4706 30.4911 40.1017 29.7003C40.7329 28.9096 41.0398 27.8119 41.0226 26.4072C41.0226 25.0184 40.7194 23.9594 40.1128 23.23C39.5062 22.5007 38.6412 22.136 37.5177 22.136C36.4126 22.136 35.553 22.5142 34.9391 23.2705C34.3252 24.0269 34.0182 25.1075 34.0182 26.5121C34.0182 27.934 34.3344 29.0146 34.9667 29.7538C35.5635 30.5089 36.4156 30.8865 37.5232 30.8865Z" fill="white"/>
<path d="M59.8479 21.3201C60.9383 22.6204 61.4828 24.3511 61.4816 26.5121C61.4804 28.6732 60.9358 30.3923 59.8479 31.6692C58.7428 32.9696 57.2583 33.6197 55.3944 33.6197C53.5305 33.6197 52.1245 32.926 51.1766 31.5385V38.4692H47.8613V19.7121H51.0514V21.6626C52.0337 20.1523 53.4832 19.3966 55.3999 19.3954C57.2528 19.3954 58.7354 20.0369 59.8479 21.3201ZM54.6042 30.8865C55.6921 30.8865 56.5516 30.4911 57.1828 29.7003C57.8139 28.9096 58.1209 27.8119 58.1037 26.4072C58.1037 25.0184 57.8004 23.9594 57.1938 23.23C56.5873 22.5007 55.7222 22.136 54.5987 22.136C53.4936 22.136 52.6341 22.5142 52.0202 23.2705C51.4062 24.0269 51.0992 25.1075 51.0992 26.5121C51.0992 27.934 51.416 29.0146 52.0496 29.7538C52.639 30.5089 53.4875 30.8865 54.595 30.8865H54.6042Z" fill="white"/>
<path d="M64.4764 28.9894H67.718C67.8065 29.8329 68.0833 30.4303 68.5487 30.7815C69.0141 31.1327 69.7477 31.3082 70.7497 31.3082C72.5424 31.3082 73.4387 30.7637 73.4387 29.6746C73.4483 29.4517 73.3998 29.2302 73.2982 29.0316C73.1965 28.8331 73.045 28.6643 72.8586 28.5418C72.4718 28.2778 71.7774 28.0581 70.7755 27.8825L69.221 27.6191C66.252 27.1279 64.7674 25.7576 64.7674 23.5081C64.7674 22.225 65.2586 21.2188 66.2409 20.4894C67.2232 19.76 68.6113 19.3954 70.4053 19.3954C74.2878 19.3954 76.2911 20.9302 76.4151 23.9999H73.284C73.2484 23.1932 72.9936 22.6179 72.5197 22.2741C72.0457 21.9303 71.3427 21.759 70.4108 21.7603C68.8293 21.7603 68.0385 22.2876 68.0385 23.3424C68.0302 23.55 68.0741 23.7564 68.1661 23.9427C68.2581 24.129 68.3954 24.2892 68.5653 24.4088C68.9177 24.663 69.4979 24.8607 70.3058 25.0019L72.0187 25.2652C73.6702 25.5636 74.8692 26.0382 75.6158 26.689C76.3623 27.3397 76.7356 28.2447 76.7356 29.4038C76.7356 30.7741 76.2088 31.8283 75.1553 32.5662C74.1018 33.3042 72.6167 33.6725 70.7 33.6713C66.729 33.6774 64.6545 32.1168 64.4764 28.9894Z" fill="white"/>
<path d="M99.4637 20.7141C100.297 21.5933 100.715 22.7966 100.716 24.3241V33.3121H97.4008V24.8508C97.4008 23.1318 96.6186 22.2723 95.0543 22.2723C94.6657 22.2574 94.2787 22.3313 93.9229 22.4883C93.5671 22.6453 93.2517 22.8813 93.0007 23.1785C92.4838 23.7838 92.2247 24.6666 92.2235 25.827V33.3121H88.934V24.8508C88.934 23.1318 88.1438 22.2723 86.5635 22.2723C86.1804 22.2612 85.7997 22.3373 85.4504 22.4949C85.101 22.6526 84.792 22.8875 84.5467 23.1821C84.0274 23.7875 83.7683 24.6703 83.7695 25.8307V33.3158H80.4542V19.7121H83.67V21.6626C84.5995 20.1523 85.8888 19.3966 87.5379 19.3954C89.6118 19.3954 91.0177 20.2389 91.7556 21.926C92.7735 20.2389 94.1789 19.3954 95.9716 19.3954C97.4659 19.3954 98.6299 19.8349 99.4637 20.7141Z" fill="white"/>
<path d="M126.153 22.2428H121.917V29.5954C121.917 30.0337 122.036 30.3407 122.273 30.5163C122.51 30.6918 122.907 30.7778 123.464 30.7741H125.89V33.3048C125.17 33.3748 123.299 33.4098 122.858 33.4098C121.385 33.4098 120.309 33.1329 119.63 32.5791C118.951 32.0253 118.612 31.1425 118.615 29.9306V22.2428H115.532V19.7121H118.615V15.1721H121.917V19.7121H126.153V22.2428Z" fill="white"/>
<path d="M141.01 20.6736C141.863 21.527 142.289 22.7352 142.288 24.2983V33.3121H138.972V24.8508C138.972 23.1318 138.12 22.2723 136.416 22.2723C136.013 22.2639 135.612 22.3403 135.241 22.4963C134.869 22.6524 134.534 22.8848 134.257 23.1785C133.671 23.7838 133.376 24.6224 133.375 25.6944V33.3121H130.06V15.1721H133.375V21.53C134.412 20.1081 135.79 19.3966 137.512 19.3954C138.993 19.3954 140.159 19.8214 141.01 20.6736Z" fill="white"/>
<path d="M144.969 37.7914V35.2608H157.936V37.7914H144.969Z" fill="white"/>
<path d="M110.82 30.7815V19.7121H103.838V22.2428H107.501V30.7815H103.838V33.3121H114.484V30.7815H110.82Z" fill="white"/>
</g>
<defs>
<clipPath id="clip0_1_87">
<rect width="170" height="52.1235" fill="white" transform="translate(0.909668 0.384079)"/>
</clipPath>
</defs>
</svg>
