<svg width="285" height="48" viewBox="0 0 285 48" fill="none" xmlns="http://www.w3.org/2000/svg">
<path d="M176.022 2H2.02197V45.5982H176.022V2Z" fill="white" stroke="#1D1D1B" stroke-width="3"/>
<path d="M283.022 2H176.022V45.5982H283.022V2Z" fill="white" stroke="#1D1D1B" stroke-width="3"/>
<path d="M14.962 31V17H19.882C24.782 17 27.062 19.78 27.062 24C27.062 28.22 24.782 31 19.882 31H14.962ZM17.762 28.6H19.722C23.102 28.6 24.202 26.9 24.202 24C24.202 21.12 23.102 19.38 19.722 19.38H17.762V28.6ZM31.8488 31.24C29.6488 31.24 28.2888 29.9 28.2888 28.26C28.2888 26.22 29.9088 25.02 32.3088 25.02C33.4488 25.02 34.2488 25.22 34.7688 25.38V24.9C34.7688 23.6 33.9288 23.04 32.7488 23.04C31.9488 23.04 31.2288 23.3 31.0488 24.16H28.4288C28.6488 22.04 30.4488 20.84 32.7488 20.84C35.7288 20.84 37.5688 22.28 37.5688 24.9V26.96C37.5688 28.5 37.8088 28.66 38.4688 28.66H38.5488V31H37.9288C36.4888 31 35.5088 30.72 35.0688 29.68C34.3688 30.58 33.2688 31.24 31.8488 31.24ZM32.5088 29.12C33.6488 29.12 34.3288 28.3 34.6088 27.16C34.0688 27 33.3288 26.82 32.6088 26.82C31.7888 26.82 31.1088 27.24 31.1088 28.02C31.1088 28.66 31.6488 29.12 32.5088 29.12ZM43.9706 31C41.8906 31 40.7906 30.46 40.7906 27.84V23.42H39.0906V21.08H40.7906V18.36H43.5906V21.08H46.0306V23.42H43.5906V27.5C43.5906 28.42 43.8506 28.62 44.7906 28.62H45.9706V31H43.9706ZM50.627 31.24C48.427 31.24 47.067 29.9 47.067 28.26C47.067 26.22 48.687 25.02 51.087 25.02C52.227 25.02 53.027 25.22 53.547 25.38V24.9C53.547 23.6 52.707 23.04 51.527 23.04C50.727 23.04 50.007 23.3 49.827 24.16H47.207C47.427 22.04 49.227 20.84 51.527 20.84C54.507 20.84 56.347 22.28 56.347 24.9V26.96C56.347 28.5 56.587 28.66 57.247 28.66H57.327V31H56.707C55.267 31 54.287 30.72 53.847 29.68C53.147 30.58 52.047 31.24 50.627 31.24ZM51.287 29.12C52.427 29.12 53.107 28.3 53.387 27.16C52.847 27 52.107 26.82 51.387 26.82C50.567 26.82 49.887 27.24 49.887 28.02C49.887 28.66 50.427 29.12 51.287 29.12ZM65.8135 31V17H68.6135V22.72H74.6335V17H77.4335V31H74.6335V24.98H68.6135V31H65.8135ZM83.1696 31.24C80.8696 31.24 79.4896 29.6 79.4896 26.62V21.08H82.2696V26.36C82.2696 27.98 82.8896 28.88 84.1096 28.88C85.4496 28.88 86.2096 27.88 86.2096 26.2V21.08H89.0096V31H86.2096V29.58C85.6296 30.6 84.6296 31.24 83.1696 31.24ZM97.1313 31.24C95.6713 31.24 94.5713 30.68 93.8913 29.72V31H91.0913V16.6H93.8913V22.44C94.5313 21.58 95.4913 20.84 97.1313 20.84C99.8913 20.84 101.991 23.08 101.991 26.06C101.991 29.04 99.8913 31.24 97.1313 31.24ZM96.4713 28.8C98.0313 28.8 99.1513 27.64 99.1513 26.06C99.1513 24.46 98.0313 23.28 96.4713 23.28C94.9113 23.28 93.8113 24.46 93.8113 26.04C93.8113 27.64 94.9113 28.8 96.4713 28.8ZM111.075 31V17H116.215C119.135 17 120.595 18.54 120.595 20.56C120.595 22.36 119.475 23.38 118.135 23.78C119.715 24.06 120.955 25.44 120.955 27.18C120.955 29.32 119.335 31 116.395 31H111.075ZM112.875 23.1H116.055C117.795 23.1 118.755 22.22 118.755 20.78C118.755 19.38 117.855 18.48 115.995 18.48H112.875V23.1ZM112.875 29.5H116.195C118.035 29.5 119.115 28.58 119.115 27.04C119.115 25.5 117.975 24.52 116.155 24.52H112.875V29.5ZM127.789 31.24C124.909 31.24 122.869 29.18 122.869 26.06C122.869 22.92 124.869 20.84 127.809 20.84C130.709 20.84 132.509 23.02 132.509 25.52C132.509 25.8 132.509 26.08 132.489 26.44H124.629C124.749 28.62 126.209 29.74 127.769 29.74C129.089 29.74 130.029 29.08 130.449 28.02H132.229C131.709 29.86 130.129 31.24 127.789 31.24ZM127.769 22.34C126.229 22.34 124.869 23.3 124.649 25.12H130.729C130.649 23.4 129.409 22.34 127.769 22.34ZM135.162 31V21.08H136.962V22.64C137.402 21.62 138.182 21 139.302 21H140.782V22.68H139.122C137.822 22.68 136.962 23.7 136.962 26.28V31H135.162ZM143.399 31V16.6H145.199V31H143.399ZM148.057 19.18V16.98H150.237V19.18H148.057ZM148.257 31V21.08H150.057V31H148.257ZM153.056 31V21.08H154.856V22.72C155.496 21.56 156.736 20.84 158.216 20.84C160.556 20.84 162.056 22.26 162.056 25.24V31H160.256V25.42C160.256 23.4 159.396 22.38 157.756 22.38C156.076 22.38 154.856 23.62 154.856 25.86V31H153.056Z" fill="#222222"/>
<path d="M188.962 31V17H194.302C197.682 17 199.322 18.88 199.322 21.36C199.322 23.66 197.782 25.7 194.302 25.7H191.762V31H188.962ZM191.762 23.44H194.122C195.782 23.44 196.482 22.64 196.482 21.36C196.482 20.06 195.782 19.28 194.122 19.28H191.762V23.44ZM201.119 31V21.08H203.919V22.58C204.459 21.6 205.259 20.98 206.279 20.98H207.499V23.46H205.999C204.499 23.46 203.919 24.64 203.919 26.8V31H201.119ZM213.38 31.24C210.38 31.24 208.04 29.1 208.04 26.04C208.04 22.98 210.4 20.84 213.38 20.84C216.36 20.84 218.72 22.98 218.72 26.04C218.72 29.1 216.38 31.24 213.38 31.24ZM213.38 28.82C214.74 28.82 215.84 27.88 215.84 26.04C215.84 24.2 214.72 23.26 213.38 23.26C212.04 23.26 210.92 24.2 210.92 26.04C210.92 27.88 212.02 28.82 213.38 28.82ZM224.547 31C222.467 31 221.367 30.46 221.367 27.84V23.42H219.667V21.08H221.367V18.36H224.167V21.08H226.607V23.42H224.167V27.5C224.167 28.42 224.427 28.62 225.367 28.62H226.547V31H224.547ZM232.686 31.24C229.686 31.24 227.346 29.1 227.346 26.04C227.346 22.98 229.706 20.84 232.686 20.84C235.666 20.84 238.026 22.98 238.026 26.04C238.026 29.1 235.686 31.24 232.686 31.24ZM232.686 28.82C234.046 28.82 235.146 27.88 235.146 26.04C235.146 24.2 234.026 23.26 232.686 23.26C231.346 23.26 230.226 24.2 230.226 26.04C230.226 27.88 231.326 28.82 232.686 28.82ZM243.853 31C241.773 31 240.673 30.46 240.673 27.84V23.42H238.973V21.08H240.673V18.36H243.473V21.08H245.913V23.42H243.473V27.5C243.473 28.42 243.733 28.62 244.673 28.62H245.853V31H243.853ZM246.791 35.4V33.2H248.951C249.551 33.2 249.791 33.1 250.211 32.14L250.671 31.12L246.551 21.08H249.591L252.231 27.84L254.971 21.08H257.971L252.711 33.14C251.871 35.06 251.591 35.4 250.211 35.4H246.791ZM259.056 35.4V21.08H261.856V22.44C262.496 21.58 263.456 20.84 265.096 20.84C267.856 20.84 269.956 23.08 269.956 26.06C269.956 29.04 267.856 31.24 265.096 31.24C263.636 31.24 262.536 30.68 261.856 29.72V35.4H259.056ZM264.436 28.8C265.996 28.8 267.116 27.64 267.116 26.06C267.116 24.46 265.996 23.28 264.436 23.28C262.876 23.28 261.776 24.46 261.776 26.04C261.776 27.64 262.876 28.8 264.436 28.8Z" fill="#222222"/>
</svg>
