<?xml version="1.0" encoding="UTF-8"?><svg id="uuid-6d3695a6-0e9f-4f8e-a0b8-d132fc83e2e4" xmlns="http://www.w3.org/2000/svg" width="737.49mm" height="100mm" viewBox="0 0 2090.53 283.46"><path d="M93.26,86.56h37.62c38.25,0,56.04,21.54,56.04,54.64s-17.8,54.64-56.04,54.64h-37.62v-109.28ZM129.79,178.51c27.32,0,36.37-13.89,36.37-37.31s-9.05-37.47-36.37-37.47h-16.24v74.78h16.24Z" fill="#141414"/><path d="M195.36,174.45c0-16.08,12.8-25.45,31.69-25.45,8.9,0,15.3,1.56,19.51,2.97v-3.75c0-10.77-6.71-15.61-16.55-15.61-6.87,0-12.8,2.34-14.36,9.52h-19.2c1.87-16.55,16.08-25.6,33.56-25.6,23.1,0,36.84,11.55,36.84,31.69v17.48c0,12.02,1.87,13.11,7.18,13.11h.62v17.02h-4.37c-11.08,0-18.58-2.19-21.7-10.77-5.31,7.34-13.89,12.65-25.29,12.65-17.48,0-27.94-10.62-27.94-23.26ZM245.47,165.09c-4.37-1.25-10.46-2.65-16.24-2.65-7.96,0-13.43,3.75-13.43,10.3,0,5.46,4.53,9.52,12.02,9.52,9.84,0,15.77-7.49,17.64-17.17Z" fill="#141414"/><path d="M291.52,171.96v-36.53h-13.27v-17.02h13.27v-20.76h20.29v20.76h19.51v17.02h-19.51v34.03c0,7.81,1.87,9.05,9.68,9.05h9.37v17.33h-15.46c-15.61,0-23.89-4.06-23.89-23.88Z" fill="#141414"/><path d="M341.79,174.45c0-16.08,12.8-25.45,31.69-25.45,8.9,0,15.3,1.56,19.51,2.97v-3.75c0-10.77-6.71-15.61-16.55-15.61-6.87,0-12.8,2.34-14.36,9.52h-19.2c1.87-16.55,16.08-25.6,33.56-25.6,23.1,0,36.84,11.55,36.84,31.69v17.48c0,12.02,1.87,13.11,7.18,13.11h.62v17.02h-4.37c-11.08,0-18.58-2.19-21.7-10.77-5.31,7.34-13.89,12.65-25.29,12.65-17.48,0-27.94-10.62-27.94-23.26ZM391.9,165.09c-4.37-1.25-10.46-2.65-16.24-2.65-7.96,0-13.43,3.75-13.43,10.3,0,5.46,4.53,9.52,12.02,9.52,9.83,0,15.77-7.49,17.64-17.17Z" fill="#141414"/><path d="M466.84,86.56h20.29v45.27h48.86v-45.27h20.29v109.28h-20.29v-47.61h-48.86v47.61h-20.29v-109.28Z" fill="#141414"/><path d="M572.21,161.96v-43.56h20.29v41.68c0,13.27,5.15,20.45,14.99,20.45,11.08,0,17.33-8.12,17.33-22.17v-39.96h20.29v77.43h-20.29v-11.4c-4.53,8.27-12.49,13.27-23.88,13.27-17.64,0-28.73-12.49-28.73-35.75Z" fill="#141414"/><path d="M681.33,185.38v10.46h-20.29v-112.4h20.29v46.05c5-6.87,12.65-12.96,25.76-12.96,21.86,0,38.09,17.48,38.09,40.75s-16.24,40.43-38.09,40.43c-11.71,0-20.45-4.53-25.76-12.33ZM724.58,157.28c0-13.43-9.21-23.1-22.01-23.1s-21.7,9.68-21.7,22.95,8.9,22.95,21.7,22.95,22.01-9.52,22.01-22.79Z" fill="#141414"/><path d="M791.55,86.56h40.12c22.79,0,34.19,12.02,34.19,27.79,0,14.05-8.74,22.01-19.2,25.13,12.33,2.19,22.01,12.96,22.01,26.54,0,16.7-12.65,29.82-35.59,29.82h-41.53v-109.28ZM830.42,134.18c13.58,0,21.08-6.87,21.08-18.11s-7.03-17.95-21.54-17.95h-24.35v36.06h24.82ZM831.51,184.13c14.36,0,22.79-7.18,22.79-19.2s-8.9-19.67-23.1-19.67h-25.6v38.87h25.92Z" fill="#141414"/><path d="M882.09,157.28c0-24.51,15.61-40.75,38.56-40.75s36.69,17.02,36.69,36.53c0,2.19,0,4.37-.16,7.18h-61.35c.94,17.02,12.33,25.76,24.51,25.76,10.3,0,17.64-5.15,20.92-13.43h13.89c-4.06,14.36-16.39,25.13-34.66,25.13-22.48,0-38.4-16.08-38.4-40.43ZM895.99,149.94h47.46c-.62-13.43-10.3-21.7-23.1-21.7-12.02,0-22.64,7.49-24.35,21.7Z" fill="#141414"/><path d="M976.54,118.41h14.05v12.18c3.43-7.96,9.52-12.8,18.27-12.8h11.55v13.11h-12.96c-10.15,0-16.86,7.96-16.86,28.1v36.84h-14.05v-77.43Z" fill="#141414"/><path d="M1036.17,83.44h14.05v112.4h-14.05v-112.4Z" fill="#141414"/><path d="M1070.99,86.41h17.02v17.17h-17.02v-17.17ZM1072.55,118.41h14.05v77.43h-14.05v-77.43Z" fill="#141414"/><path d="M1108.45,118.41h14.05v12.8c5-9.05,14.67-14.67,26.23-14.67,18.27,0,29.97,11.08,29.97,34.34v44.96h-14.05v-43.56c0-15.77-6.71-23.73-19.51-23.73s-22.64,9.68-22.64,27.16v40.12h-14.05v-77.43Z" fill="#141414"/><path d="M2090.53,0H0v283.46h1258.76s18,0,18,0h0s813.77,0,813.77,0V0ZM18,265.46V18h1240.76v247.46H18ZM2072.53,265.46h-795.77V18h795.77v247.46Z" fill="#141414"/><path d="M1370.02,86.56h40.75c26.23,0,38.87,14.52,38.87,33.72,0,17.8-12.02,33.41-38.87,33.41h-20.45v42.15h-20.29v-109.28ZM1409.52,137.3c13.74,0,19.51-6.56,19.51-17.02s-5.78-17.17-19.51-17.17h-19.2v34.19h19.2Z" fill="#141414"/><path d="M1463.53,118.41h20.29v11.86c4.06-7.81,10.3-12.64,18.42-12.64h9.83v18.11h-11.86c-11.4,0-16.39,9.05-16.39,26.54v33.56h-20.29v-77.43Z" fill="#141414"/><path d="M1515.52,157.12c0-24.04,18.27-40.59,41.37-40.59s41.37,16.55,41.37,40.59-18.11,40.59-41.37,40.59-41.37-16.55-41.37-40.59ZM1577.34,157.12c0-15.3-9.37-23.1-20.45-23.1s-20.45,7.81-20.45,23.1,9.21,23.1,20.45,23.1,20.45-7.81,20.45-23.1Z" fill="#141414"/><path d="M1617.93,171.96v-36.53h-13.27v-17.02h13.27v-20.76h20.29v20.76h19.51v17.02h-19.51v34.03c0,7.81,1.87,9.05,9.68,9.05h9.37v17.33h-15.46c-15.61,0-23.89-4.06-23.89-23.88Z" fill="#141414"/><path d="M1666.01,157.12c0-24.04,18.26-40.59,41.37-40.59s41.37,16.55,41.37,40.59-18.11,40.59-41.37,40.59-41.37-16.55-41.37-40.59ZM1727.83,157.12c0-15.3-9.37-23.1-20.45-23.1s-20.45,7.81-20.45,23.1,9.21,23.1,20.45,23.1,20.45-7.81,20.45-23.1Z" fill="#141414"/><path d="M1768.42,171.96v-36.53h-13.27v-17.02h13.27v-20.76h20.29v20.76h19.51v17.02h-19.51v34.03c0,7.81,1.87,9.05,9.68,9.05h9.37v17.33h-15.46c-15.61,0-23.89-4.06-23.89-23.88Z" fill="#141414"/><path d="M1817.91,214.11h16.55c4.68,0,6.4-.78,9.83-8.74l4.22-9.21-32.32-77.74h22.01l21.54,54.17,22.48-54.17h21.54l-41.21,93.98c-6.71,15.3-8.74,17.8-19.36,17.8h-25.29v-16.08Z" fill="#141414"/><path d="M1912.05,118.41h20.29v11.08c5-6.87,12.64-12.96,25.76-12.96,21.86,0,38.09,17.48,38.09,40.75s-16.24,40.43-38.09,40.43c-11.71,0-20.45-4.53-25.76-12.33v44.8h-20.29v-111.78ZM1975.58,157.28c0-13.43-9.21-23.1-22.01-23.1s-21.7,9.68-21.7,22.95,8.9,22.95,21.7,22.95,22.01-9.52,22.01-22.79Z" fill="#141414"/></svg>