<svg width="1703" height="378" viewBox="0 0 1703 378" fill="none" xmlns="http://www.w3.org/2000/svg">
<g clip-path="url(#clip0_68_1170)">
<path d="M1678.36 24.004V353.949H24.0223V24.004H1678.36ZM1702.36 0.00411987H0.0224609V377.949H1702.36V0.00411987Z" fill="#141414"/>
<path d="M124.368 115.417H174.528C225.528 115.417 249.247 144.137 249.247 188.27C249.247 232.403 225.514 261.123 174.528 261.123H124.368V115.417ZM173.075 238.016C209.501 238.016 221.568 219.496 221.568 188.27C221.568 157.043 209.501 138.31 173.075 138.31H151.421V238.016H173.075Z" fill="#141414"/>
<path d="M260.501 232.603C260.501 211.163 277.567 198.67 302.754 198.67C314.62 198.67 323.154 200.75 328.767 202.63V197.63C328.767 183.27 319.82 176.816 306.7 176.816C297.54 176.816 289.634 179.936 287.554 189.51H261.954C264.447 167.443 283.394 155.377 306.7 155.377C337.5 155.377 355.82 170.777 355.82 197.63V220.936C355.82 236.963 358.313 238.416 365.393 238.416H366.22V261.109H360.393C345.62 261.109 335.62 258.189 331.46 246.749C324.38 256.536 312.94 263.616 297.74 263.616C274.434 263.616 260.487 249.456 260.487 232.603H260.501ZM327.314 220.123C321.487 218.456 313.367 216.59 305.66 216.59C295.047 216.59 287.754 221.59 287.754 230.323C287.754 237.603 293.794 243.016 303.78 243.016C316.9 243.016 324.807 233.029 327.3 220.123H327.314Z" fill="#141414"/>
<path d="M388.714 229.283V180.576H371.021V157.883H388.714V130.203H415.767V157.883H441.78V180.576H415.767V225.95C415.767 236.363 418.26 238.016 428.674 238.016H441.167V261.123H420.554C399.74 261.123 388.7 255.709 388.7 229.269L388.714 229.283Z" fill="#141414"/>
<path d="M455.74 232.603C455.74 211.163 472.806 198.67 497.993 198.67C509.86 198.67 518.393 200.75 524.006 202.63V197.63C524.006 183.27 515.06 176.816 501.94 176.816C492.78 176.816 484.873 179.936 482.793 189.51H457.193C459.687 167.443 478.633 155.377 501.94 155.377C532.739 155.377 551.059 170.777 551.059 197.63V220.936C551.059 236.963 553.553 238.416 560.633 238.416H561.459V261.109H555.633C540.859 261.109 530.859 258.189 526.7 246.749C519.62 256.536 508.18 263.616 492.98 263.616C469.673 263.616 455.727 249.456 455.727 232.603H455.74ZM522.553 220.123C516.726 218.456 508.606 216.59 500.9 216.59C490.286 216.59 482.993 221.59 482.993 230.323C482.993 237.603 489.033 243.016 499.02 243.016C512.126 243.016 520.046 233.029 522.54 220.123H522.553Z" fill="#141414"/>
<path d="M622.473 115.417H649.526V175.776H714.672V115.417H741.725V261.123H714.672V197.643H649.526V261.123H622.473V115.417Z" fill="#141414"/>
<path d="M762.965 215.95V157.87H790.018V213.443C790.018 231.136 796.885 240.709 810.005 240.709C824.778 240.709 833.111 229.883 833.111 211.15V157.87H860.164V261.109H833.111V245.909C827.071 256.936 816.458 263.603 801.271 263.603C777.751 263.603 762.965 246.949 762.965 215.936V215.95Z" fill="#141414"/>
<path d="M908.458 247.176V261.123H881.404V111.257H908.458V172.656C915.124 163.497 925.324 155.377 942.804 155.377C971.951 155.377 993.59 178.683 993.59 209.71C993.59 240.736 971.937 263.616 942.804 263.616C927.191 263.616 915.537 257.576 908.458 247.176ZM966.124 209.71C966.124 191.803 953.844 178.91 936.777 178.91C919.711 178.91 907.844 191.816 907.844 209.51C907.844 227.203 919.711 240.109 936.777 240.109C953.844 240.109 966.124 227.416 966.124 209.723V209.71Z" fill="#141414"/>
<path d="M1055.42 115.417H1108.91C1139.3 115.417 1154.5 131.443 1154.5 152.47C1154.5 171.203 1142.84 181.816 1128.9 185.976C1145.34 188.896 1158.24 203.256 1158.24 221.363C1158.24 243.629 1141.38 261.123 1110.79 261.123H1055.42V115.417ZM1107.24 178.91C1125.35 178.91 1135.35 169.75 1135.35 154.763C1135.35 139.777 1125.98 130.83 1106.63 130.83H1074.16V178.91H1107.26H1107.24ZM1108.7 245.509C1127.84 245.509 1139.08 235.936 1139.08 219.91C1139.08 203.883 1127.22 193.683 1108.28 193.683H1074.15V245.509H1108.71H1108.7Z" fill="#141414"/>
<path d="M1176.14 209.71C1176.14 177.03 1196.95 155.377 1227.55 155.377C1258.15 155.377 1276.47 178.07 1276.47 204.083C1276.47 207.003 1276.47 209.91 1276.26 213.656H1194.46C1195.71 236.349 1210.9 248.003 1227.14 248.003C1240.87 248.003 1250.66 241.136 1255.03 230.096H1273.55C1268.14 249.243 1251.7 263.603 1227.34 263.603C1197.36 263.603 1176.14 242.163 1176.14 209.696V209.71ZM1194.67 199.923H1257.95C1257.12 182.016 1244.22 170.99 1227.15 170.99C1211.12 170.99 1196.96 180.976 1194.68 199.923H1194.67Z" fill="#141414"/>
<path d="M1302.07 157.883H1320.8V174.123C1325.37 163.51 1333.49 157.057 1345.16 157.057H1360.56V174.536H1343.28C1329.75 174.536 1320.8 185.15 1320.8 212.003V261.123H1302.07V157.883Z" fill="#141414"/>
<path d="M1381.57 111.257H1400.31V261.123H1381.57V111.257Z" fill="#141414"/>
<path d="M1428 115.217H1450.69V138.11H1428V115.217ZM1430.08 157.883H1448.81V261.123H1430.08V157.883Z" fill="#141414"/>
<path d="M1477.95 157.883H1496.68V174.95C1503.35 162.883 1516.24 155.39 1531.65 155.39C1556.01 155.39 1571.61 170.163 1571.61 201.176V261.123H1552.88V203.043C1552.88 182.016 1543.93 171.403 1526.87 171.403C1509.8 171.403 1496.68 184.31 1496.68 207.616V261.109H1477.95V157.87V157.883Z" fill="#141414"/>
</g>
<defs>
<clipPath id="clip0_68_1170">
<rect width="1702.34" height="377.953" fill="white" transform="translate(0.0224609)"/>
</clipPath>
</defs>
</svg>
