<svg width="41" height="41" viewBox="0 0 41 41" fill="none" xmlns="http://www.w3.org/2000/svg">
<g clip-path="url(#clip0_48_66)">
<path d="M15.2207 31.7639C6.88741 34.2639 6.88741 27.5972 3.55408 26.7639M26.8874 36.7639V30.3139C26.9499 29.5192 26.8426 28.7202 26.5724 27.9702C26.3023 27.2202 25.8756 26.5363 25.3207 25.9639C30.5541 25.3806 36.0541 23.3972 36.0541 14.2972C36.0536 11.9703 35.1586 9.73256 33.5541 8.04723C34.3138 6.0114 34.2601 3.76114 33.4041 1.76389C33.4041 1.76389 31.4374 1.18056 26.8874 4.23056C23.0674 3.19526 19.0407 3.19526 15.2207 4.23056C10.6707 1.18056 8.70408 1.76389 8.70408 1.76389C7.84804 3.76114 7.79432 6.0114 8.55408 8.04723C6.93762 9.74506 6.04161 12.003 6.05408 14.3472C6.05408 23.3806 11.5541 25.3639 16.7874 26.0139C16.2391 26.5805 15.8162 27.2562 15.5463 27.9971C15.2763 28.7379 15.1654 29.5273 15.2207 30.3139V36.7639" stroke="#222222" stroke-width="2" stroke-linecap="round" stroke-linejoin="round"/>
</g>
<defs>
<clipPath id="clip0_48_66">
<rect width="40" height="40" fill="white" transform="translate(0.220703 0.097168)"/>
</clipPath>
</defs>
</svg>
