<svg width="170" height="61" viewBox="0 0 170 61" fill="none" xmlns="http://www.w3.org/2000/svg">
<mask id="mask0_1_15" style="mask-type:luminance" maskUnits="userSpaceOnUse" x="64" y="18" width="106" height="25">
<path d="M169.91 18.7732H64.1324V42.2771H169.91V18.7732Z" fill="white"/>
</mask>
<g mask="url(#mask0_1_15)">
<path d="M86.7795 30.8278C86.5597 36.4852 82.0969 40.8922 76.5513 40.8922C70.698 40.8922 66.347 36.1536 66.347 30.4402C66.347 24.6709 71.0576 19.9323 76.799 19.9323C79.392 19.9323 81.9291 21.047 84.0746 23.0527L82.4005 25.1144C80.7544 23.692 78.7767 22.7171 76.799 22.7171C72.5878 22.7171 69.1318 26.1731 69.1318 30.4402C69.1318 34.7592 72.3921 38.1074 76.5473 38.1074C80.283 38.1074 83.2116 35.3745 83.7949 31.8626H75.3247V29.3814H86.7835V30.8278H86.7795Z" fill="#414042"/>
</g>
<mask id="mask1_1_15" style="mask-type:luminance" maskUnits="userSpaceOnUse" x="29" y="18" width="141" height="29">
<path d="M169.91 18.7732H29.9957V46.1951H169.91V18.7732Z" fill="white"/>
</mask>
<g mask="url(#mask1_1_15)">
<path d="M96.5075 29.464H94.9453C93.2193 29.464 91.8249 30.8624 91.8249 32.5844V40.723H89.0361V26.7831H91.3215V27.9537C92.0726 27.2026 93.2712 26.7831 94.6097 26.7831H97.6182L96.5075 29.464Z" fill="#414042"/>
</g>
<mask id="mask2_1_15" style="mask-type:luminance" maskUnits="userSpaceOnUse" x="29" y="18" width="141" height="29">
<path d="M169.91 18.7732H29.9957V46.1951H169.91V18.7732Z" fill="white"/>
</mask>
<g mask="url(#mask2_1_15)">
<path d="M111.698 40.7245H109.329V38.9665C107.495 40.7564 104.606 41.6155 101.678 40.3289C99.5083 39.374 97.8941 37.3963 97.4626 35.063C96.6316 30.5562 100.1 26.5568 104.53 26.5568C106.396 26.5568 108.07 27.308 109.297 28.5345V26.7766H111.694V40.7245H111.698ZM108.845 34.7554C109.505 31.9226 107.359 29.3496 104.562 29.3496C102.137 29.3496 100.187 31.3273 100.187 33.7246C100.187 36.4374 102.573 38.535 105.346 38.0636C107.052 37.7719 108.454 36.4454 108.845 34.7554Z" fill="#414042"/>
</g>
<mask id="mask3_1_15" style="mask-type:luminance" maskUnits="userSpaceOnUse" x="29" y="18" width="141" height="29">
<path d="M169.91 18.7732H29.9957V46.1951H169.91V18.7732Z" fill="white"/>
</mask>
<g mask="url(#mask3_1_15)">
<path d="M117.315 26.0077V26.7868H121.746V29.24H117.315V40.7267H114.554V26.0916C114.554 23.0231 116.756 21.2132 119.517 21.2132H122.861L121.746 23.8342H119.521C118.294 23.8342 117.315 24.8091 117.315 26.0077Z" fill="#414042"/>
</g>
<mask id="mask4_1_15" style="mask-type:luminance" maskUnits="userSpaceOnUse" x="29" y="18" width="141" height="29">
<path d="M169.91 18.7732H29.9957V46.1951H169.91V18.7732Z" fill="white"/>
</mask>
<g mask="url(#mask4_1_15)">
<path d="M136.521 40.7245H134.152V38.9665C132.318 40.7564 129.429 41.6155 126.501 40.3289C124.331 39.374 122.717 37.3963 122.285 35.063C121.454 30.5562 124.922 26.5568 129.353 26.5568C131.219 26.5568 132.893 27.308 134.12 28.5345V26.7766H136.517V40.7245H136.521ZM133.672 34.7554C134.332 31.9226 132.186 29.3496 129.389 29.3496C126.964 29.3496 125.014 31.3273 125.014 33.7246C125.014 36.4374 127.4 38.535 130.172 38.0636C131.874 37.7719 133.281 36.4454 133.672 34.7554Z" fill="#414042"/>
</g>
<mask id="mask5_1_15" style="mask-type:luminance" maskUnits="userSpaceOnUse" x="29" y="18" width="141" height="29">
<path d="M169.91 18.7732H29.9957V46.1951H169.91V18.7732Z" fill="white"/>
</mask>
<g mask="url(#mask5_1_15)">
<path d="M151.412 32.47V40.7205H148.623V32.47C148.623 30.74 147.201 29.3496 145.502 29.3496C143.744 29.3496 142.354 30.744 142.354 32.47V40.7205H139.565V26.7806H141.879V27.9792C142.881 27.0882 144.22 26.5568 145.614 26.5568C148.847 26.5608 151.412 29.2098 151.412 32.47Z" fill="#414042"/>
</g>
<mask id="mask6_1_15" style="mask-type:luminance" maskUnits="userSpaceOnUse" x="29" y="18" width="141" height="29">
<path d="M169.91 18.7732H29.9957V46.1951H169.91V18.7732Z" fill="white"/>
</mask>
<g mask="url(#mask6_1_15)">
<path d="M167.805 40.7245H165.436V38.9665C163.602 40.7564 160.713 41.6155 157.784 40.3289C155.615 39.374 154.001 37.3963 153.569 35.063C152.738 30.5562 156.206 26.5568 160.637 26.5568C162.503 26.5568 164.177 27.308 165.404 28.5345V26.7766H167.801V40.7245H167.805ZM164.952 34.7554C165.611 31.9226 163.466 29.3496 160.669 29.3496C158.244 29.3496 156.294 31.3273 156.294 33.7246C156.294 36.4374 158.679 38.535 161.452 38.0636C163.154 37.7719 164.561 36.4454 164.952 34.7554Z" fill="#414042"/>
</g>
<mask id="mask7_1_15" style="mask-type:luminance" maskUnits="userSpaceOnUse" x="0" y="0" width="56" height="61">
<path d="M24.7074 7.24214C24.7074 7.24214 24.6863 7.32969 24.6591 7.47762C24.4085 7.55008 24.1579 7.61951 23.9074 7.70103C23.5602 7.80669 23.219 7.93349 22.8719 8.05727C22.5307 8.1901 22.1835 8.32294 21.8454 8.47389C21.1631 8.76673 20.4869 9.0958 19.8257 9.46713C19.1857 9.82639 18.5547 10.2219 17.9419 10.6506C17.8543 10.6083 17.7849 10.5781 17.7849 10.5781C11.5265 8.18708 5.96859 11.0642 5.96859 11.0642C5.4614 17.721 8.4683 21.9174 9.06304 22.6782C8.91511 23.0888 8.77624 23.5054 8.64944 23.925C8.18754 25.4345 7.84035 26.9832 7.62601 28.5833C7.59582 28.8127 7.56865 29.0452 7.54147 29.2777C1.76013 32.1336 0.0453491 37.9874 0.0453491 37.9874C4.8727 43.5393 10.5001 43.8835 10.5001 43.8835C10.5061 43.8805 10.5091 43.8744 10.5152 43.8714C11.2307 45.1484 12.0579 46.3651 12.9907 47.4972C13.3802 47.9712 13.7908 48.4301 14.2164 48.8739C12.4564 53.9065 14.464 58.0938 14.464 58.0938C19.8378 58.2961 23.367 55.742 24.1096 55.1533C24.644 55.3345 25.1874 55.4945 25.7338 55.6364C27.3852 56.0621 29.0759 56.3126 30.7665 56.3851C31.1891 56.4032 31.6118 56.4123 32.0314 56.4092H32.2367L32.3696 56.4062L32.6352 56.3972L32.8979 56.3851L32.9039 56.3941C35.4338 60.0048 39.8868 60.5151 39.8868 60.5151C43.0537 57.1761 43.2349 53.8642 43.2349 53.1487C43.2349 53.1487 43.2349 53.1246 43.2349 53.1004C43.2349 53.0401 43.2318 53.0008 43.2318 53.0008C43.2288 52.9495 43.2288 52.9012 43.2228 52.8468C43.887 52.3819 44.521 51.8808 45.1217 51.3434C46.3897 50.1962 47.4977 48.892 48.4154 47.4821C48.503 47.3493 48.5875 47.2164 48.669 47.0806C52.2526 47.2859 54.7794 44.8616 54.7794 44.8616C54.1847 41.1272 52.0563 39.3067 51.6125 38.9626C51.6125 38.9626 51.5944 38.9475 51.5673 38.9294C51.5431 38.9112 51.525 38.8992 51.525 38.8992C51.5038 38.8841 51.4767 38.866 51.4465 38.8478C51.4676 38.6214 51.4888 38.398 51.5008 38.1746C51.528 37.7731 51.5371 37.3685 51.5401 36.97L51.5371 36.6712L51.534 36.5202V36.4447C51.534 36.3421 51.531 36.3813 51.531 36.3421L51.5189 36.0915L51.5008 35.7534C51.4948 35.6356 51.4857 35.536 51.4767 35.4304C51.4676 35.3277 51.4586 35.222 51.4465 35.1194L51.4103 34.8084L51.368 34.5005C51.3076 34.0899 51.2291 33.6824 51.1355 33.2808C50.7612 31.6717 50.1332 30.1441 49.303 28.7705C48.4728 27.3968 47.4403 26.1802 46.278 25.1568C45.1157 24.1303 43.8115 23.3061 42.4439 22.6903C41.0763 22.0744 39.6393 21.6789 38.2083 21.4978C37.4928 21.4042 36.7803 21.3679 36.0738 21.377L35.8112 21.383L35.7448 21.3861C35.7267 21.3861 35.6452 21.3891 35.6542 21.3891L35.5455 21.3951L35.2829 21.4132C35.1832 21.4193 35.0806 21.4283 34.9931 21.4374C34.6308 21.4736 34.2715 21.5219 33.9153 21.5883C32.4964 21.854 31.1559 22.3672 29.9755 23.0737C28.7951 23.7801 27.7686 24.6647 26.9324 25.667C26.0991 26.6663 25.4501 27.7742 25.0033 28.9214C24.5564 30.0686 24.3059 31.2521 24.2364 32.4023C24.2183 32.6891 24.2123 32.9759 24.2183 33.2597C24.2183 33.3291 24.2213 33.4016 24.2244 33.471L24.2334 33.7005C24.2425 33.8394 24.2545 33.9752 24.2666 34.1111C24.324 34.6937 24.4296 35.2522 24.5866 35.7926C24.8976 36.8704 25.3987 37.8455 26.0146 38.6727C26.6305 39.503 27.3671 40.1883 28.149 40.7226C28.9309 41.257 29.7672 41.6404 30.5944 41.8849C31.4246 42.1295 32.2488 42.2351 33.0247 42.2321C33.1213 42.2321 33.2179 42.2291 33.3145 42.2261C33.3658 42.2261 33.4171 42.22 33.4685 42.22C33.5198 42.217 33.5711 42.214 33.6224 42.211C33.7039 42.2019 33.7885 42.1959 33.87 42.1868C33.8881 42.1868 33.9153 42.1808 33.9394 42.1778L34.0149 42.1687C34.0662 42.1627 34.1145 42.1536 34.1659 42.1476C34.2685 42.1355 34.356 42.1144 34.4466 42.0993C34.5372 42.0812 34.6278 42.063 34.7183 42.0389C34.8964 41.9997 35.0685 41.9453 35.2406 41.894C35.5787 41.7823 35.8957 41.6464 36.1916 41.4955C36.4874 41.3445 36.7592 41.1725 37.0128 40.9943C37.0852 40.943 37.1546 40.8887 37.2241 40.8343C37.4958 40.623 37.5381 40.2245 37.3207 39.9588C37.1305 39.7264 36.8044 39.666 36.5448 39.8109C36.4814 39.8471 36.415 39.8803 36.3486 39.9135C36.1222 40.0222 35.8867 40.1249 35.6361 40.2064C35.3855 40.2849 35.1259 40.3513 34.8542 40.3996C34.7183 40.4177 34.5825 40.4388 34.4436 40.4509C34.3742 40.46 34.3047 40.463 34.2323 40.463C34.1628 40.466 34.0874 40.472 34.024 40.469C33.9575 40.469 33.8911 40.466 33.8217 40.466C33.7372 40.463 33.6526 40.457 33.5681 40.4539C33.5681 40.4539 33.5258 40.4539 33.559 40.4509L33.5319 40.4479L33.4745 40.4419C33.4353 40.4388 33.399 40.4358 33.3598 40.4298C33.2843 40.4207 33.2088 40.4117 33.1334 40.3996C32.5265 40.3151 31.9107 40.1369 31.319 39.8683C30.7242 39.5996 30.1566 39.2313 29.6434 38.7693C29.1302 38.3105 28.6834 37.755 28.3332 37.127C27.983 36.5021 27.7384 35.8047 27.6237 35.0741C27.5664 34.7088 27.5422 34.3314 27.5513 33.9631C27.5573 33.8605 27.5603 33.7609 27.5664 33.6582C27.5664 33.6854 27.5694 33.6431 27.5694 33.6401L27.5724 33.6039L27.5784 33.5284C27.5815 33.4771 27.5875 33.4288 27.5935 33.3774C27.6147 33.1782 27.6449 32.9759 27.6811 32.7797C27.9618 31.1887 28.7589 29.6369 29.9906 28.4565C30.2985 28.1637 30.6306 27.8889 30.9839 27.6474C31.3371 27.4059 31.7144 27.1885 32.1069 27.0074C32.4994 26.8263 32.91 26.6783 33.3296 26.5636C33.7492 26.4519 34.1809 26.3764 34.6187 26.3372C34.8361 26.3191 35.0565 26.31 35.2768 26.31C35.3342 26.31 35.3795 26.313 35.4248 26.313L35.6029 26.3191L35.7146 26.3221C35.7599 26.3221 35.7146 26.3221 35.7357 26.3251L35.781 26.3281L35.9591 26.3402C36.4331 26.3795 36.9071 26.4459 37.372 26.5515C38.3049 26.7598 39.2106 27.101 40.0559 27.5689C41.7465 28.5048 43.1866 29.969 44.0711 31.7351C44.5179 32.6136 44.8259 33.5616 44.9829 34.5398C45.0191 34.7843 45.0493 35.0318 45.0704 35.2794L45.0855 35.4666L45.0946 35.6538C45.0976 35.7172 45.0976 35.7775 45.1006 35.8409C45.1006 35.9013 45.1036 35.9707 45.1036 36.016V36.176L45.1006 36.3572C45.0946 36.4779 45.0855 36.6742 45.0795 36.7949C45.0583 37.0636 45.0372 37.3353 45.001 37.604C44.9678 37.8697 44.9225 38.1354 44.8742 38.401C44.8198 38.6637 44.7655 38.9263 44.6961 39.186C44.5662 39.7082 44.3972 40.2185 44.2009 40.7196C43.8055 41.7219 43.2771 42.6729 42.6401 43.5514C41.3631 45.3054 39.6212 46.7394 37.6407 47.6391C36.6505 48.0859 35.6059 48.415 34.5312 48.5931C33.9938 48.6837 33.4504 48.738 32.9069 48.7561L32.8073 48.7592H32.7198L32.5447 48.7622H32.276H32.1431C32.2186 48.7622 32.1311 48.7622 32.1341 48.7592L32.0797 48.7561C31.7869 48.7501 31.4971 48.735 31.2073 48.7139C30.0449 48.6263 28.8947 48.421 27.7807 48.095C26.6667 47.7719 25.5859 47.3402 24.5625 46.7968C22.5186 45.7039 20.6921 44.2065 19.2612 42.4012C18.5426 41.5015 17.9147 40.5354 17.3954 39.5181C16.8762 38.5007 16.4686 37.435 16.1667 36.3451C15.8678 35.2553 15.6806 34.1382 15.6082 33.0152L15.5961 32.8038L15.5931 32.7525V32.7072L15.5901 32.6136L15.584 32.4295L15.581 32.3842V32.3208V32.191L15.578 31.9283V31.877C15.578 31.8861 15.578 31.8861 15.578 31.8589V31.7563C15.578 31.6204 15.584 31.4815 15.5871 31.3457C15.6082 30.7902 15.6535 30.2196 15.7259 29.649C15.7984 29.0784 15.892 28.5048 16.0097 27.9342C16.1275 27.3667 16.2663 26.8021 16.4233 26.2496C16.7403 25.1417 17.1358 24.0669 17.6037 23.0525C18.5426 21.0208 19.7744 19.2305 21.2537 17.7874C21.622 17.4252 22.0054 17.084 22.4039 16.764C22.8024 16.444 23.216 16.1481 23.6417 15.8704C24.0644 15.5896 24.5021 15.336 24.9519 15.1005C25.1753 14.9798 25.4048 14.8741 25.6342 14.7624C25.7489 14.7111 25.8667 14.6598 25.9814 14.6085C26.0961 14.5571 26.2139 14.5058 26.3316 14.4605C26.7995 14.2613 27.2826 14.0952 27.7656 13.9382C27.8894 13.902 28.0102 13.8628 28.1309 13.8265C28.2517 13.7873 28.3785 13.7601 28.4992 13.7239C28.7438 13.6545 28.9943 13.5971 29.2419 13.5337C29.3657 13.5005 29.4925 13.4794 29.6163 13.4522C29.743 13.425 29.8668 13.3978 29.9936 13.3737C30.1204 13.3495 30.2472 13.3284 30.371 13.3043L30.5612 13.271L30.7514 13.2409C30.8782 13.2227 31.005 13.2016 31.1318 13.1835C31.2737 13.1593 31.4186 13.1473 31.5605 13.1261C31.6782 13.111 31.8684 13.0899 31.9862 13.0748C32.0767 13.0658 32.1643 13.0567 32.2548 13.0476L32.433 13.0295L32.5235 13.0205L32.6292 13.0144C32.7741 13.0054 32.916 12.9963 33.0609 12.9873L33.2753 12.9722C33.2753 12.9722 33.3537 12.9691 33.2843 12.9691L33.3296 12.9661L33.4202 12.9631C33.5439 12.9571 33.6647 12.951 33.7885 12.945C34.2776 12.9299 34.7636 12.9299 35.2436 12.945C36.2067 12.9842 37.1516 13.0899 38.0694 13.259C39.908 13.6001 41.6378 14.1918 43.2017 14.9647C44.7685 15.7315 46.1723 16.6734 47.392 17.6969C47.4675 17.7603 47.543 17.8267 47.6184 17.8901C47.6939 17.9565 47.7664 18.0199 47.8388 18.0863C47.9867 18.2161 48.1286 18.352 48.2705 18.4818C48.4124 18.6146 48.5483 18.7505 48.6871 18.8833C48.82 19.0192 48.9558 19.152 49.0856 19.2909C49.6019 19.8373 50.0819 20.3928 50.5136 20.9513C51.3801 22.0653 52.0714 23.1884 52.6239 24.2511C52.6601 24.3175 52.6933 24.3839 52.7265 24.4503C52.7597 24.5167 52.793 24.5832 52.8231 24.6496C52.8865 24.7794 52.953 24.9092 53.0103 25.039C53.0707 25.1688 53.1311 25.2956 53.1884 25.4224C53.2428 25.5492 53.2971 25.676 53.3515 25.7968C53.5568 26.2949 53.7439 26.7659 53.8979 27.2157C54.1515 27.9372 54.3357 28.5893 54.4806 29.1539C54.5379 29.3803 54.7523 29.5313 54.9847 29.5101C55.2263 29.489 55.4104 29.2897 55.4165 29.0482C55.4285 28.4414 55.4134 27.7259 55.344 26.9108C55.2534 25.9025 55.0813 24.7341 54.7402 23.451C54.4051 22.168 53.907 20.7642 53.1824 19.306C52.4548 17.8508 51.5069 16.3353 50.2751 14.8711C49.7951 14.2975 49.2698 13.7299 48.7022 13.1775C49.5476 9.81431 47.6728 6.89798 47.6728 6.89798C44.4364 6.69571 42.3775 7.9033 41.6137 8.45577C41.4869 8.40143 41.3571 8.34709 41.2272 8.29275C40.6748 8.06934 40.1102 7.86103 39.5276 7.67688C38.9449 7.49272 38.3502 7.32366 37.7433 7.18176C37.1335 7.03987 36.5146 6.91911 35.8837 6.8225C35.772 6.80741 35.6633 6.79232 35.5516 6.7742C34.1447 2.26385 30.0902 0.376984 30.0902 0.376984C25.5678 3.22992 24.7074 7.24214 24.7074 7.24214Z" fill="white"/>
</mask>
<g mask="url(#mask7_1_15)">
<path d="M55.4258 0.363983H0.0455933V60.5111H55.4258V0.363983Z" fill="url(#paint0_linear_1_15)"/>
</g>
<defs>
<linearGradient id="paint0_linear_1_15" x1="27.7292" y1="74.0388" x2="27.7292" y2="19.0882" gradientUnits="userSpaceOnUse">
<stop stop-color="#FFF200"/>
<stop offset="1" stop-color="#F15A29"/>
</linearGradient>
</defs>
</svg>
