<svg width="171" height="61" viewBox="0 0 171 61" fill="none" xmlns="http://www.w3.org/2000/svg">
<mask id="mask0_81_768" style="mask-type:luminance" maskUnits="userSpaceOnUse" x="65" y="18" width="106" height="25">
<path d="M170.794 18.9316H65.0167V42.4355H170.794V18.9316Z" fill="white"/>
</mask>
<g mask="url(#mask0_81_768)">
<path d="M87.6638 30.9853C87.4441 36.6428 82.9812 41.0497 77.4356 41.0497C71.5824 41.0497 67.2314 36.3111 67.2314 30.5977C67.2314 24.8284 71.942 20.0898 77.6833 20.0898C80.2763 20.0898 82.8134 21.2046 84.9589 23.2102L83.2849 25.2719C81.6388 23.8495 79.661 22.8746 77.6833 22.8746C73.4722 22.8746 70.0162 26.3306 70.0162 30.5977C70.0162 34.9167 73.2764 38.2649 77.4316 38.2649C81.1673 38.2649 84.0959 35.532 84.6793 32.0201H76.209V29.5389H87.6678V30.9853H87.6638Z" fill="#414042"/>
</g>
<mask id="mask1_81_768" style="mask-type:luminance" maskUnits="userSpaceOnUse" x="30" y="18" width="141" height="29">
<path d="M170.794 18.9316H30.88V46.3535H170.794V18.9316Z" fill="white"/>
</mask>
<g mask="url(#mask1_81_768)">
<path d="M97.3918 29.6223H95.8296C94.1036 29.6223 92.7092 31.0207 92.7092 32.7427V40.8813H89.9204V26.9414H92.2058V28.1121C92.9569 27.3609 94.1556 26.9414 95.494 26.9414H98.5025L97.3918 29.6223Z" fill="#414042"/>
</g>
<mask id="mask2_81_768" style="mask-type:luminance" maskUnits="userSpaceOnUse" x="30" y="18" width="141" height="29">
<path d="M170.794 18.9316H30.88V46.3535H170.794V18.9316Z" fill="white"/>
</mask>
<g mask="url(#mask2_81_768)">
<path d="M112.583 40.8825H110.213V39.1245C108.379 40.9145 105.491 41.7735 102.562 40.487C100.393 39.5321 98.7785 37.5543 98.3469 35.221C97.5159 30.7142 100.984 26.7148 105.415 26.7148C107.281 26.7148 108.955 27.466 110.181 28.6926V26.9346H112.579V40.8825H112.583ZM109.73 34.9134C110.389 32.0807 108.244 29.5076 105.447 29.5076C103.022 29.5076 101.072 31.4853 101.072 33.8826C101.072 36.5955 103.457 38.693 106.23 38.2216C107.936 37.9299 109.338 36.6034 109.73 34.9134Z" fill="#414042"/>
</g>
<mask id="mask3_81_768" style="mask-type:luminance" maskUnits="userSpaceOnUse" x="30" y="18" width="141" height="29">
<path d="M170.794 18.9316H30.88V46.3535H170.794V18.9316Z" fill="white"/>
</mask>
<g mask="url(#mask3_81_768)">
<path d="M118.2 26.1656V26.9447H122.63V29.3978H118.2V40.8846H115.439V26.2495C115.439 23.181 117.64 21.3711 120.401 21.3711H123.745L122.63 23.9921H120.405C119.178 23.9921 118.2 24.9669 118.2 26.1656Z" fill="#414042"/>
</g>
<mask id="mask4_81_768" style="mask-type:luminance" maskUnits="userSpaceOnUse" x="30" y="18" width="141" height="29">
<path d="M170.794 18.9316H30.88V46.3535H170.794V18.9316Z" fill="white"/>
</mask>
<g mask="url(#mask4_81_768)">
<path d="M137.405 40.8825H135.036V39.1245C133.202 40.9145 130.314 41.7735 127.385 40.487C125.215 39.5321 123.601 37.5543 123.17 35.221C122.339 30.7142 125.807 26.7148 130.238 26.7148C132.104 26.7148 133.778 27.466 135.004 28.6926V26.9346H137.401V40.8825H137.405ZM134.557 34.9134C135.216 32.0807 133.07 29.5076 130.274 29.5076C127.848 29.5076 125.899 31.4853 125.899 33.8826C125.899 36.5955 128.284 38.693 131.057 38.2216C132.759 37.9299 134.165 36.6034 134.557 34.9134Z" fill="#414042"/>
</g>
<mask id="mask5_81_768" style="mask-type:luminance" maskUnits="userSpaceOnUse" x="30" y="18" width="141" height="29">
<path d="M170.794 18.9316H30.88V46.3535H170.794V18.9316Z" fill="white"/>
</mask>
<g mask="url(#mask5_81_768)">
<path d="M152.296 32.628V40.8785H149.507V32.628C149.507 30.898 148.085 29.5076 146.387 29.5076C144.629 29.5076 143.238 30.902 143.238 32.628V40.8785H140.45V26.9386H142.763V28.1372C143.766 27.2462 145.104 26.7148 146.499 26.7148C149.731 26.7188 152.296 29.3678 152.296 32.628Z" fill="#414042"/>
</g>
<mask id="mask6_81_768" style="mask-type:luminance" maskUnits="userSpaceOnUse" x="30" y="18" width="141" height="29">
<path d="M170.794 18.9316H30.88V46.3535H170.794V18.9316Z" fill="white"/>
</mask>
<g mask="url(#mask6_81_768)">
<path d="M168.689 40.8825H166.32V39.1245C164.486 40.9145 161.597 41.7735 158.669 40.487C156.499 39.5321 154.885 37.5543 154.454 35.221C153.623 30.7142 157.091 26.7148 161.521 26.7148C163.387 26.7148 165.061 27.466 166.288 28.6926V26.9346H168.685V40.8825H168.689ZM165.837 34.9134C166.496 32.0807 164.35 29.5076 161.553 29.5076C159.128 29.5076 157.178 31.4853 157.178 33.8826C157.178 36.5955 159.564 38.693 162.337 38.2216C164.039 37.9299 165.445 36.6034 165.837 34.9134Z" fill="#414042"/>
</g>
<mask id="mask7_81_768" style="mask-type:luminance" maskUnits="userSpaceOnUse" x="0" y="0" width="57" height="61">
<path d="M25.5917 7.40032C25.5917 7.40032 25.5706 7.48787 25.5434 7.6358C25.2929 7.70825 25.0423 7.77769 24.7917 7.8592C24.4445 7.96486 24.1034 8.09166 23.7562 8.21544C23.415 8.34828 23.0679 8.48111 22.7297 8.63206C22.0474 8.9249 21.3712 9.25397 20.71 9.6253C20.07 9.98456 19.439 10.38 18.8262 10.8087C18.7386 10.7665 18.6692 10.7363 18.6692 10.7363C12.4109 8.34526 6.85293 11.2223 6.85293 11.2223C6.34574 17.8792 9.35264 22.0756 9.94738 22.8364C9.79945 23.2469 9.66058 23.6636 9.53378 24.0832C9.07187 25.5927 8.72469 27.1414 8.51034 28.7415C8.48015 28.9709 8.45298 29.2034 8.42581 29.4358C2.64447 32.2918 0.929688 38.1456 0.929688 38.1456C5.75704 43.6975 11.3844 44.0417 11.3844 44.0417C11.3905 44.0387 11.3935 44.0326 11.3995 44.0296C12.115 45.3066 12.9422 46.5233 13.8751 47.6554C14.2645 48.1294 14.6751 48.5883 15.1008 49.032C13.3407 54.0647 15.3483 58.252 15.3483 58.252C20.7221 58.4543 24.2513 55.9002 24.994 55.3115C25.5283 55.4927 26.0717 55.6527 26.6182 55.7946C28.2696 56.2202 29.9602 56.4708 31.6508 56.5433C32.0735 56.5614 32.4961 56.5704 32.9158 56.5674H33.1211L33.2539 56.5644L33.5196 56.5553L33.7822 56.5433L33.7883 56.5523C36.3182 60.163 40.7712 60.6732 40.7712 60.6732C43.9381 57.3342 44.1192 54.0224 44.1192 53.3069C44.1192 53.3069 44.1192 53.2828 44.1192 53.2586C44.1192 53.1982 44.1162 53.159 44.1162 53.159C44.1132 53.1077 44.1132 53.0594 44.1071 53.005C44.7713 52.5401 45.4053 52.0389 46.0061 51.5016C47.274 50.3544 48.382 49.0502 49.2998 47.6403C49.3873 47.5075 49.4719 47.3746 49.5534 47.2388C53.1369 47.4441 55.6638 45.0198 55.6638 45.0198C55.069 41.2853 52.9407 39.4649 52.4969 39.1207C52.4969 39.1207 52.4788 39.1056 52.4516 39.0875C52.4274 39.0694 52.4093 39.0573 52.4093 39.0573C52.3882 39.0422 52.361 39.0241 52.3308 39.006C52.352 38.7796 52.3731 38.5562 52.3852 38.3328C52.4123 37.9313 52.4214 37.5267 52.4244 37.1282L52.4214 36.8293L52.4184 36.6784V36.6029C52.4184 36.5003 52.4154 36.5395 52.4154 36.5003L52.4033 36.2497L52.3852 35.9116C52.3791 35.7938 52.3701 35.6942 52.361 35.5885C52.352 35.4859 52.3429 35.3802 52.3308 35.2776L52.2946 34.9666L52.2523 34.6587C52.192 34.2481 52.1135 33.8405 52.0199 33.439C51.6455 31.8299 51.0176 30.3023 50.1874 28.9287C49.3571 27.555 48.3246 26.3384 47.1623 25.3149C46 24.2885 44.6958 23.4643 43.3282 22.8484C41.9606 22.2326 40.5236 21.8371 39.0926 21.6559C38.3771 21.5623 37.6646 21.5261 36.9582 21.5352L36.6955 21.5412L36.6291 21.5442C36.611 21.5442 36.5295 21.5473 36.5385 21.5473L36.4299 21.5533L36.1672 21.5714C36.0676 21.5774 35.9649 21.5865 35.8774 21.5956C35.5151 21.6318 35.1559 21.6801 34.7996 21.7465C33.3807 22.0122 32.0403 22.5254 30.8598 23.2318C29.6794 23.9383 28.653 24.8228 27.8167 25.8251C26.9835 26.8244 26.3344 27.9324 25.8876 29.0796C25.4408 30.2268 25.1902 31.4103 25.1208 32.5605C25.1027 32.8473 25.0966 33.1341 25.1027 33.4179C25.1027 33.4873 25.1057 33.5598 25.1087 33.6292L25.1178 33.8587C25.1268 33.9975 25.1389 34.1334 25.151 34.2692C25.2083 34.8519 25.314 35.4104 25.471 35.9508C25.7819 37.0286 26.2831 38.0037 26.8989 38.8309C27.5148 39.6611 28.2514 40.3464 29.0334 40.8808C29.8153 41.4152 30.6515 41.7986 31.4787 42.0431C32.309 42.2876 33.1331 42.3933 33.909 42.3903C34.0056 42.3903 34.1022 42.3873 34.1988 42.3843C34.2502 42.3843 34.3015 42.3782 34.3528 42.3782C34.4041 42.3752 34.4555 42.3722 34.5068 42.3692C34.5883 42.3601 34.6728 42.3541 34.7543 42.345C34.7724 42.345 34.7996 42.339 34.8238 42.3359L34.8992 42.3269C34.9506 42.3209 34.9989 42.3118 35.0502 42.3058C35.1528 42.2937 35.2404 42.2725 35.331 42.2575C35.4215 42.2393 35.5121 42.2212 35.6027 42.1971C35.7808 42.1578 35.9529 42.1035 36.125 42.0522C36.4631 41.9405 36.7801 41.8046 37.0759 41.6537C37.3718 41.5027 37.6435 41.3306 37.8971 41.1525C37.9695 41.1012 38.039 41.0468 38.1084 40.9925C38.3801 40.7812 38.4224 40.3827 38.205 40.117C38.0148 39.8845 37.6888 39.8242 37.4291 39.9691C37.3657 40.0053 37.2993 40.0385 37.2329 40.0717C37.0065 40.1804 36.771 40.283 36.5204 40.3646C36.2699 40.443 36.0102 40.5095 35.7385 40.5578C35.6027 40.5759 35.4668 40.597 35.3279 40.6091C35.2585 40.6181 35.1891 40.6212 35.1166 40.6212C35.0472 40.6242 34.9717 40.6302 34.9083 40.6272C34.8419 40.6272 34.7755 40.6242 34.706 40.6242C34.6215 40.6212 34.537 40.6151 34.4524 40.6121C34.4524 40.6121 34.4102 40.6121 34.4434 40.6091L34.4162 40.6061L34.3588 40.6C34.3196 40.597 34.2834 40.594 34.2441 40.588C34.1687 40.5789 34.0932 40.5698 34.0177 40.5578C33.4109 40.4732 32.795 40.2951 32.2033 40.0264C31.6086 39.7577 31.041 39.3894 30.5278 38.9275C30.0145 38.4686 29.5677 37.9131 29.2175 37.2852C28.8673 36.6603 28.6228 35.9629 28.5081 35.2323C28.4507 34.867 28.4266 34.4896 28.4356 34.1213C28.4416 34.0187 28.4447 33.919 28.4507 33.8164C28.4507 33.8436 28.4537 33.8013 28.4537 33.7983L28.4567 33.762L28.4628 33.6866C28.4658 33.6353 28.4718 33.5869 28.4779 33.5356C28.499 33.3364 28.5292 33.1341 28.5654 32.9379C28.8462 31.3469 29.6432 29.7951 30.8749 28.6147C31.1829 28.3218 31.515 28.0471 31.8682 27.8056C32.2214 27.5641 32.5988 27.3467 32.9912 27.1656C33.3837 26.9844 33.7943 26.8365 34.2139 26.7218C34.6336 26.6101 35.0653 26.5346 35.503 26.4954C35.7204 26.4772 35.9408 26.4682 36.1612 26.4682C36.2185 26.4682 36.2638 26.4712 36.3091 26.4712L36.4872 26.4772L36.5989 26.4803C36.6442 26.4803 36.5989 26.4803 36.6201 26.4833L36.6653 26.4863L36.8435 26.4984C37.3174 26.5376 37.7914 26.604 38.2563 26.7097C39.1892 26.918 40.0949 27.2592 40.9402 27.7271C42.6309 28.663 44.0709 30.1272 44.9555 31.8933C45.4023 32.7718 45.7102 33.7198 45.8672 34.6979C45.9034 34.9425 45.9336 35.19 45.9547 35.4376L45.9698 35.6248L45.9789 35.8119C45.9819 35.8753 45.9819 35.9357 45.9849 35.9991C45.9849 36.0595 45.988 36.1289 45.988 36.1742V36.3342L45.9849 36.5154C45.9789 36.6361 45.9698 36.8323 45.9638 36.9531C45.9427 37.2218 45.9215 37.4935 45.8853 37.7622C45.8521 38.0279 45.8068 38.2935 45.7585 38.5592C45.7042 38.8219 45.6498 39.0845 45.5804 39.3441C45.4506 39.8664 45.2815 40.3766 45.0853 40.8778C44.6898 41.8801 44.1615 42.8311 43.5245 43.7096C42.2474 45.4636 40.5055 46.8976 38.525 47.7973C37.5348 48.2441 36.4902 48.5732 35.4155 48.7513C34.8781 48.8418 34.3347 48.8962 33.7913 48.9143L33.6917 48.9173H33.6041L33.429 48.9203H33.1603H33.0275C33.1029 48.9203 33.0154 48.9203 33.0184 48.9173L32.9641 48.9143C32.6712 48.9083 32.3814 48.8932 32.0916 48.872C30.9293 48.7845 29.7791 48.5792 28.6651 48.2531C27.551 47.9301 26.4703 47.4984 25.4468 46.955C23.403 45.8621 21.5765 44.3647 20.1455 42.5593C19.427 41.6597 18.799 40.6936 18.2798 39.6762C17.7605 38.6588 17.3529 37.5931 17.051 36.5033C16.7522 35.4134 16.565 34.2964 16.4925 33.1733L16.4804 32.962L16.4774 32.9107V32.8654L16.4744 32.7718L16.4684 32.5877L16.4654 32.5424V32.479V32.3492L16.4623 32.0865V32.0352C16.4623 32.0442 16.4623 32.0442 16.4623 32.0171V31.9144C16.4623 31.7786 16.4684 31.6397 16.4714 31.5038C16.4925 30.9484 16.5378 30.3778 16.6103 29.8072C16.6827 29.2366 16.7763 28.663 16.894 28.0924C17.0118 27.5248 17.1507 26.9603 17.3076 26.4078C17.6246 25.2998 18.0201 24.2251 18.4881 23.2107C19.427 21.1789 20.6587 19.3887 22.138 17.9456C22.5063 17.5833 22.8897 17.2422 23.2882 16.9222C23.6868 16.6022 24.1004 16.3063 24.526 16.0286C24.9487 15.7478 25.3864 15.4942 25.8363 15.2587C26.0597 15.138 26.2891 15.0323 26.5186 14.9206C26.6333 14.8693 26.751 14.8179 26.8657 14.7666C26.9805 14.7153 27.0982 14.664 27.2159 14.6187C27.6839 14.4194 28.1669 14.2534 28.65 14.0964C28.7737 14.0602 28.8945 14.0209 29.0153 13.9847C29.136 13.9455 29.2628 13.9183 29.3836 13.8821C29.6281 13.8126 29.8787 13.7553 30.1262 13.6919C30.25 13.6587 30.3768 13.6375 30.5006 13.6104C30.6274 13.5832 30.7512 13.556 30.878 13.5319C31.0048 13.5077 31.1316 13.4866 31.2553 13.4624L31.4455 13.4292L31.6357 13.399C31.7625 13.3809 31.8893 13.3598 32.0161 13.3417C32.158 13.3175 32.3029 13.3054 32.4448 13.2843C32.5625 13.2692 32.7527 13.2481 32.8705 13.233C32.9611 13.2239 33.0486 13.2149 33.1392 13.2058L33.3173 13.1877L33.4079 13.1786L33.5135 13.1726C33.6584 13.1635 33.8003 13.1545 33.9452 13.1454L34.1596 13.1303C34.1596 13.1303 34.2381 13.1273 34.1687 13.1273L34.2139 13.1243L34.3045 13.1213C34.4283 13.1152 34.549 13.1092 34.6728 13.1032C35.1619 13.0881 35.6479 13.0881 36.128 13.1032C37.091 13.1424 38.036 13.2481 38.9537 13.4171C40.7923 13.7583 42.5222 14.35 44.086 15.1229C45.6528 15.8897 47.0567 16.8316 48.2763 17.855C48.3518 17.9184 48.4273 17.9849 48.5028 18.0483C48.5782 18.1147 48.6507 18.1781 48.7232 18.2445C48.8711 18.3743 49.013 18.5102 49.1549 18.64C49.2968 18.7728 49.4326 18.9087 49.5715 19.0415C49.7043 19.1774 49.8402 19.3102 49.97 19.4491C50.4862 19.9955 50.9663 20.551 51.398 21.1095C52.2644 22.2235 52.9558 23.3466 53.5082 24.4092C53.5445 24.4757 53.5777 24.5421 53.6109 24.6085C53.6441 24.6749 53.6773 24.7413 53.7075 24.8078C53.7709 24.9376 53.8373 25.0674 53.8947 25.1972C53.955 25.327 54.0154 25.4538 54.0728 25.5806C54.1271 25.7074 54.1815 25.8342 54.2358 25.955C54.4411 26.4531 54.6283 26.9241 54.7822 27.3739C55.0358 28.0954 55.22 28.7475 55.3649 29.3121C55.4223 29.5385 55.6366 29.6894 55.8691 29.6683C56.1106 29.6472 56.2948 29.4479 56.3008 29.2064C56.3129 28.5996 56.2978 27.8841 56.2283 27.069C56.1378 26.0606 55.9657 24.8923 55.6245 23.6092C55.2894 22.3261 54.7913 20.9223 54.0667 19.4642C53.3392 18.009 52.3912 16.4935 51.1595 15.0293C50.6795 14.4557 50.1541 13.8881 49.5866 13.3356C50.4319 9.97249 48.5571 7.05615 48.5571 7.05615C45.3208 6.85388 43.2618 8.06147 42.498 8.61394C42.3712 8.5596 42.2414 8.50526 42.1116 8.45092C41.5591 8.22752 40.9946 8.01921 40.4119 7.83505C39.8292 7.65089 39.2345 7.48183 38.6277 7.33994C38.0178 7.19804 37.399 7.07728 36.768 6.98068C36.6563 6.96558 36.5476 6.95049 36.4359 6.93237C35.0291 2.42202 30.9746 0.535156 30.9746 0.535156C26.4521 3.38809 25.5917 7.40032 25.5917 7.40032Z" fill="white"/>
</mask>
<g mask="url(#mask7_81_768)">
<path d="M56.3101 0.521484H0.929932V60.6686H56.3101V0.521484Z" fill="url(#paint0_linear_81_768)"/>
</g>
<defs>
<linearGradient id="paint0_linear_81_768" x1="28.6136" y1="74.1963" x2="28.6136" y2="19.2457" gradientUnits="userSpaceOnUse">
<stop stop-color="#FFF200"/>
<stop offset="1" stop-color="#F15A29"/>
</linearGradient>
</defs>
</svg>
