<svg width="171" height="32" viewBox="0 0 171 32" fill="none" xmlns="http://www.w3.org/2000/svg">
<g clip-path="url(#clip0_81_886)">
<path d="M16.1947 0.566406C7.77231 0.566535 0.944623 7.39426 0.944542 15.8167C0.944541 24.2391 7.77215 31.0671 16.1947 31.0671H23.1547V23.5984H32.8702L25.5624 15.0677H15.7986L23.0994 23.5902H16.1947C11.9017 23.5902 8.42157 20.11 8.42149 15.8168C8.42149 11.5237 11.9017 8.0435 16.1947 8.04336C18.3281 8.04342 20.2595 8.90175 21.6651 10.2938L22.2812 10.9043L27.5017 5.5475L26.8913 4.94686C24.1397 2.23877 20.3615 0.566471 16.1947 0.566406Z" fill="#ECE7E3"/>
<path d="M16.1947 0.566406C7.77231 0.566535 0.944623 7.39426 0.944542 15.8167C0.944541 24.2391 7.77215 31.0671 16.1947 31.0671H23.1547V23.5984H32.8702L25.5624 15.0677H15.7986L23.0994 23.5902H16.1947C11.9017 23.5902 8.42157 20.11 8.42149 15.8168C8.42149 11.5237 11.9017 8.0435 16.1947 8.04336C18.3281 8.04342 20.2595 8.90175 21.6651 10.2938L22.2812 10.9043L27.5017 5.5475L26.8913 4.94686C24.1397 2.23877 20.3615 0.566471 16.1947 0.566406Z" fill="url(#paint0_linear_81_886)"/>
<path d="M156.16 7.89453H170.857V9.74821H159.663C158.874 9.74821 158.235 10.3875 158.235 11.1761V13.1972C158.235 13.9858 158.874 14.6251 159.663 14.6251H169.6V16.4788H159.663C158.874 16.4788 158.235 17.1181 158.235 17.9067V20.4574C158.235 21.2461 158.874 21.8853 159.663 21.8853H170.857V23.7389H156.16V7.89453Z" fill="#230E0E"/>
<path d="M138.345 7.89453H153.042V9.74821H141.847C141.058 9.74821 140.419 10.3875 140.419 11.1761V13.1972C140.419 13.9858 141.058 14.6251 141.847 14.6251H151.784V16.4788H141.847C141.058 16.4788 140.419 17.1181 140.419 17.9067V20.4574C140.419 21.2461 141.058 21.8853 141.847 21.8853H153.042V23.7389H138.345V7.89453Z" fill="#230E0E"/>
<path d="M135.747 9.74821H129.694C128.905 9.74821 128.266 10.3875 128.266 11.1761V23.7389H126.148V11.1761C126.148 10.3875 125.508 9.74821 124.72 9.74821H118.667V7.89453H135.747V9.74821Z" fill="#230E0E"/>
<path d="M116.059 7.89453V23.7389H113.94V7.89453H116.059Z" fill="#230E0E"/>
<path d="M103.426 23.7389H100.998L92.6788 7.89453H94.9518L101.392 20.1492C101.748 20.8281 102.72 20.8281 103.077 20.1492L109.516 7.89453H111.767L103.426 23.7389Z" fill="#230E0E"/>
<path d="M84.9656 7.89453H87.2825L95.602 23.7389H93.3512L91.0561 19.3476H81.192L78.8748 23.7389H76.6241L84.9656 7.89453ZM86.9755 11.5701C86.6195 10.8916 85.6485 10.8905 85.2909 11.5682L82.9 16.0976C82.5653 16.7315 83.0249 17.4939 83.7418 17.4939H88.5104C89.2263 17.4939 89.6859 16.7334 89.3532 16.0995L86.9755 11.5701Z" fill="#230E0E"/>
<path d="M62.1301 17.0967V23.7389H60.0117V7.89453H69.9201C73.2301 7.89453 75.5252 9.46132 75.5252 12.4846C75.5252 15.0223 73.848 16.5891 71.2883 16.9863L75.8562 23.7389H73.4288L68.9711 17.0967H62.1301ZM62.1301 14.3132C62.1301 14.8389 62.5564 15.2651 63.082 15.2651H69.8096C72.0606 15.2651 73.4508 14.272 73.4508 12.4846C73.4508 10.6971 72.0606 9.72614 69.8096 9.72614H63.082C62.5564 9.72614 62.1301 10.1523 62.1301 10.6781V14.3132Z" fill="#230E0E"/>
<path d="M48.1224 7.65234C52.2268 7.65234 55.2501 9.68255 56.3755 12.772L54.5881 13.7209C53.6391 11.139 51.3883 9.55016 48.1224 9.55016C43.9517 9.55016 40.9945 12.0658 40.9945 15.7952C40.9945 19.5467 43.9294 22.0846 48.034 22.0846C50.9433 22.0846 53.4679 20.7972 54.3355 18.792C54.6556 18.0521 53.9869 17.362 53.1806 17.362H46.8865V15.5084H54.1503C55.4646 15.5084 56.5301 16.5738 56.5301 17.8882V23.7395H54.544V20.981C53.5729 22.6582 51.1455 23.9602 48.034 23.9823C42.7158 23.9823 38.8319 20.5618 38.8319 15.7952C38.8319 11.0287 42.782 7.65234 48.1224 7.65234Z" fill="#230E0E"/>
</g>
<defs>
<linearGradient id="paint0_linear_81_886" x1="29.7903" y1="2.22138" x2="4.38631" y2="31.0671" gradientUnits="userSpaceOnUse">
<stop stop-color="#FF7200"/>
<stop offset="1" stop-color="#F01114"/>
</linearGradient>
<clipPath id="clip0_81_886">
<rect width="170" height="30.6429" fill="white" transform="translate(0.861816 0.566406)"/>
</clipPath>
</defs>
</svg>
