<svg width="171" height="32" viewBox="0 0 171 32" fill="none" xmlns="http://www.w3.org/2000/svg">
<g clip-path="url(#clip0_1_133)">
<path d="M16.3104 0.408142C7.88801 0.408271 1.06032 7.23599 1.06024 15.6584C1.06024 24.0809 7.88785 30.9088 16.3104 30.9088H23.2704V23.4401H32.9859L25.6781 14.9094H15.9143L23.2151 23.4319H16.3104C12.0174 23.4319 8.53727 19.9517 8.53719 15.6586C8.53719 11.3655 12.0174 7.88523 16.3104 7.8851C18.4438 7.88516 20.3752 8.74349 21.7808 10.1356L22.3969 10.7461L27.6174 5.38924L27.007 4.7886C24.2554 2.08051 20.4772 0.408207 16.3104 0.408142Z" fill="#ECE7E3"/>
<path d="M16.3104 0.408142C7.88801 0.408271 1.06032 7.23599 1.06024 15.6584C1.06024 24.0809 7.88785 30.9088 16.3104 30.9088H23.2704V23.4401H32.9859L25.6781 14.9094H15.9143L23.2151 23.4319H16.3104C12.0174 23.4319 8.53727 19.9517 8.53719 15.6586C8.53719 11.3655 12.0174 7.88523 16.3104 7.8851C18.4438 7.88516 20.3752 8.74349 21.7808 10.1356L22.3969 10.7461L27.6174 5.38924L27.007 4.7886C24.2554 2.08051 20.4772 0.408207 16.3104 0.408142Z" fill="url(#paint0_linear_1_133)"/>
<path d="M156.276 7.73624H170.973V9.58992H159.778C158.99 9.58992 158.35 10.2292 158.35 11.0178V13.0389C158.35 13.8275 158.99 14.4668 159.778 14.4668H169.715V16.3205H159.778C158.99 16.3205 158.35 16.9598 158.35 17.7484V20.2991C158.35 21.0878 158.99 21.727 159.778 21.727H170.973V23.5806H156.276V7.73624Z" fill="#230E0E"/>
<path d="M138.46 7.73624H153.157V9.58992H141.963C141.174 9.58992 140.535 10.2292 140.535 11.0178V13.0389C140.535 13.8275 141.174 14.4668 141.963 14.4668H151.9V16.3205H141.963C141.174 16.3205 140.535 16.9598 140.535 17.7484V20.2991C140.535 21.0878 141.174 21.727 141.963 21.727H153.157V23.5806H138.46V7.73624Z" fill="#230E0E"/>
<path d="M135.863 9.58992H129.81C129.021 9.58992 128.382 10.2292 128.382 11.0178V23.5806H126.263V11.0178C126.263 10.2292 125.624 9.58992 124.836 9.58992H118.782V7.73624H135.863V9.58992Z" fill="#230E0E"/>
<path d="M116.174 7.73624V23.5806H114.056V7.73624H116.174Z" fill="#230E0E"/>
<path d="M103.541 23.5806H101.114L92.7945 7.73624H95.0675L101.507 19.9909C101.864 20.6698 102.836 20.6698 103.192 19.9909L109.632 7.73624H111.883L103.541 23.5806Z" fill="#230E0E"/>
<path d="M85.0813 7.73624H87.3982L95.7177 23.5806H93.4669L91.1718 19.1893H81.3077L78.9905 23.5806H76.7397L85.0813 7.73624ZM87.0912 11.4118C86.7352 10.7333 85.7642 10.7322 85.4066 11.4099L83.0157 15.9393C82.681 16.5732 83.1406 17.3356 83.8575 17.3356H88.6261C89.342 17.3356 89.8016 16.5751 89.4689 15.9412L87.0912 11.4118Z" fill="#230E0E"/>
<path d="M62.2458 16.9384V23.5806H60.1274V7.73624H70.0358C73.3458 7.73624 75.6409 9.30303 75.6409 12.3263C75.6409 14.864 73.9637 16.4308 71.404 16.8281L75.9719 23.5806H73.5445L69.0868 16.9384H62.2458ZM62.2458 14.1549C62.2458 14.6806 62.6721 15.1068 63.1977 15.1068H69.9253C72.1763 15.1068 73.5666 14.1138 73.5666 12.3263C73.5666 10.5388 72.1763 9.56784 69.9253 9.56784H63.1977C62.6721 9.56784 62.2458 9.99404 62.2458 10.5198V14.1549Z" fill="#230E0E"/>
<path d="M48.2381 7.4935C52.3425 7.4935 55.3658 9.5237 56.4912 12.6132L54.7038 13.5621C53.7548 10.9802 51.504 9.39131 48.2381 9.39131C44.0673 9.39131 41.1102 11.907 41.1102 15.6364C41.1102 19.3879 44.0451 21.9257 48.1497 21.9257C51.059 21.9257 53.5836 20.6383 54.4512 18.6332C54.7713 17.8932 54.1026 17.2032 53.2963 17.2032H47.0022V15.3495H54.266C55.5803 15.3495 56.6458 16.415 56.6458 17.7294V23.5807H54.6597V20.8222C53.6886 22.4994 51.2612 23.8014 48.1497 23.8235C42.8315 23.8235 38.9476 20.403 38.9476 15.6364C38.9476 10.8698 42.8976 7.4935 48.2381 7.4935Z" fill="#230E0E"/>
</g>
<defs>
<linearGradient id="paint0_linear_1_133" x1="29.906" y1="2.06312" x2="4.50201" y2="30.9088" gradientUnits="userSpaceOnUse">
<stop stop-color="#FF7200"/>
<stop offset="1" stop-color="#F01114"/>
</linearGradient>
<clipPath id="clip0_1_133">
<rect width="170" height="30.6429" fill="white" transform="translate(0.977539 0.408142)"/>
</clipPath>
</defs>
</svg>
