<svg width="41" height="41" viewBox="0 0 41 41" fill="none" xmlns="http://www.w3.org/2000/svg">
<path d="M29.036 4.26758H12.3693C7.76691 4.26758 4.03595 7.99854 4.03595 12.6009V29.2676C4.03595 33.87 7.76691 37.6009 12.3693 37.6009H29.036C33.6383 37.6009 37.3693 33.87 37.3693 29.2676V12.6009C37.3693 7.99854 33.6383 4.26758 29.036 4.26758Z" stroke="#222222" stroke-width="2" stroke-linecap="round" stroke-linejoin="round"/>
<path d="M27.3693 19.8841C27.575 21.2712 27.3381 22.6878 26.6923 23.9325C26.0464 25.1771 25.0246 26.1865 23.772 26.8169C22.5195 27.4473 21.1001 27.6668 19.7156 27.444C18.3312 27.2212 17.0523 26.5676 16.0607 25.576C15.0692 24.5845 14.4155 23.3056 14.1928 21.9211C13.97 20.5367 14.1894 19.1173 14.8199 17.8647C15.4503 16.6122 16.4596 15.5903 17.7043 14.9445C18.949 14.2987 20.3656 14.0617 21.7527 14.2674C23.1675 14.4772 24.4774 15.1365 25.4888 16.1479C26.5002 17.1593 27.1595 18.4692 27.3693 19.8841Z" stroke="#222222" stroke-width="2" stroke-linecap="round" stroke-linejoin="round"/>
<path d="M29.8693 11.7676H29.8793" stroke="#222222" stroke-width="2" stroke-linecap="round" stroke-linejoin="round"/>
</svg>
