<svg width="171" height="47" viewBox="0 0 171 47" fill="none" xmlns="http://www.w3.org/2000/svg">
<g clip-path="url(#clip0_81_870)">
<path d="M51.6783 28.9792C51.6783 33.6079 51.3248 35.119 50.384 36.2353C49.3559 37.1842 48.0121 37.7095 46.6179 37.7059L46.9714 40.4592C49.1319 40.4889 51.2268 39.7081 52.8476 38.2672C54.5341 36.5105 55.1224 34.0819 55.1224 30.3545V12.8535H51.6702V29.0026L51.6783 28.9792Z" fill="#4E4E4E"/>
<path d="M77.4257 26.8688L77.5822 32.1307H74.5618L74.3657 28.9655H74.2874C73.6536 30.0698 72.7367 30.9852 71.6313 31.6171C70.5285 32.2468 69.2783 32.5688 68.0109 32.5499C65.0301 32.5499 61.4682 30.8724 61.4682 24.0994V12.8164H64.9203V23.5219C64.9203 27.1935 66.0186 29.6617 69.1487 29.6617C70.131 29.6437 71.0853 29.3334 71.8939 28.7703C72.7026 28.2073 73.3277 27.4166 73.692 26.4965C73.9015 25.9217 74.0077 25.3128 74.0059 24.7002V12.8326H77.4581V26.8688H77.4266H77.4257Z" fill="#4E4E4E"/>
<path d="M83.9316 19.1283L83.7751 12.7987H86.8738L87.0303 16.1061H87.1085C87.7844 14.9232 88.7706 13.9475 89.9607 13.2844C91.147 12.6235 92.4923 12.3021 93.8492 12.3553C98.4311 12.3553 101.883 16.3112 101.883 22.1667C101.883 29.1061 97.7331 32.5322 93.2528 32.5322C92.102 32.5806 90.9586 32.3266 89.9365 31.7956C88.9112 31.2628 88.0423 30.4723 87.4152 29.5019H87.337V39.9861H83.9244V19.0968L83.9325 19.1283H83.9316ZM87.3442 24.2715C87.3531 24.7525 87.4055 25.2318 87.5007 25.7034C87.7804 26.8706 88.4425 27.9107 89.3815 28.6582C90.3166 29.4023 91.4758 29.8083 92.6709 29.8104C96.3191 29.8104 98.4293 26.7801 98.4293 22.3574C98.4293 18.4879 96.4288 15.1805 92.7887 15.1805C91.5645 15.2147 90.3871 15.6617 89.4427 16.4488C88.4982 17.2358 87.8443 18.3179 87.5798 19.5241C87.4413 19.9891 87.3622 20.4703 87.3442 20.956V24.2634V24.2715Z" fill="#4E4E4E"/>
<path d="M107.99 12.834L112.14 24.2357L113.356 28.1915H113.434L114.65 24.1637L118.416 12.8421H122.065L116.893 26.6013C114.423 33.216 112.743 36.6106 110.39 38.6839C109.201 39.7992 107.743 40.5827 106.162 40.955L105.299 38.0039C106.406 37.6324 107.431 37.0495 108.32 36.2868C109.575 35.229 110.569 33.8906 111.222 32.3777C111.362 32.1163 111.455 31.8326 111.497 31.5394C111.466 31.2228 111.386 30.9133 111.261 30.621L104.247 12.8421H108.013L107.99 12.834Z" fill="#4E4E4E"/>
<path d="M131.125 7.28516V12.8241H136.06V15.4982H131.125V25.8952C131.125 28.2689 131.792 29.646 133.714 29.646C134.388 29.6568 135.061 29.5767 135.714 29.4085L135.871 32.0431C134.889 32.3921 133.851 32.5531 132.811 32.518C132.121 32.5603 131.43 32.4514 130.786 32.1969C130.142 31.9423 129.562 31.5502 129.083 31.0465C128.103 30.0103 127.749 28.2932 127.749 26.022V15.4982H124.809V12.8241H127.751V8.19542L131.125 7.28516Z" fill="#4E4E4E"/>
<path d="M142.42 23.1137C142.498 27.8611 145.48 29.8156 148.924 29.8156C150.724 29.8723 152.515 29.5323 154.172 28.819L154.76 31.3276C152.775 32.1686 150.636 32.5752 148.484 32.5221C142.646 32.5221 139.155 28.613 139.155 22.7898C139.155 16.9667 142.529 12.3848 148.052 12.3848C154.242 12.3848 155.897 17.9237 155.897 21.4757C155.892 22.0235 155.852 22.5704 155.779 23.1137H142.443H142.42ZM152.532 20.6059C152.572 18.3743 151.63 14.9015 147.754 14.9015C144.264 14.9015 142.741 18.1693 142.466 20.6059H152.54H152.531H152.532Z" fill="#4E4E4E"/>
<path d="M160.917 18.8522L160.761 12.8302H163.781L163.899 16.6206H164.056C164.919 14.0256 166.998 12.3949 169.305 12.3949C169.636 12.3904 169.965 12.43 170.285 12.5136V15.821C169.898 15.7364 169.504 15.6959 169.109 15.7022C166.677 15.7022 164.959 17.5776 164.488 20.2041C164.391 20.7448 164.339 21.2927 164.332 21.842V32.1284H160.917V18.8522Z" fill="#4E4E4E"/>
<path d="M34.3168 3.79017C34.3393 4.31906 34.2061 4.84255 33.9345 5.29409C33.6629 5.74562 33.2635 6.10721 32.7877 6.33028C32.3119 6.55335 31.7812 6.6298 31.2631 6.54885C30.7439 6.46747 30.2607 6.23324 29.8752 5.87605C29.4882 5.51734 29.2156 5.05237 29.0918 4.53943C28.9676 4.02584 28.9973 3.48615 29.1772 2.98874C29.3563 2.49314 29.678 2.06158 30.1019 1.74837C30.5241 1.43629 31.0299 1.25745 31.5545 1.23478C32.257 1.20509 32.9415 1.45695 33.4596 1.93636C33.9777 2.41578 34.2853 3.08229 34.3159 3.79017H34.3168Z" fill="#767677"/>
<path d="M18.8557 35.2352C11.7949 35.2352 5.6281 32.6483 2.42688 28.8184C3.61868 32.2543 5.84127 35.2325 8.78524 37.339C11.7292 39.4456 15.2497 40.5771 18.8593 40.5771C22.4689 40.5771 25.9894 39.4456 28.9334 37.339C31.8774 35.2325 34.1 32.2543 35.2917 28.8184C32.0833 32.6483 25.9166 35.2352 18.8557 35.2352Z" fill="#F37726"/>
<path d="M18.8539 10.3244C25.9148 10.3244 32.0815 12.9122 35.2827 16.7412C34.0909 13.3052 31.8684 10.3271 28.9244 8.22052C25.9804 6.11396 22.4599 4.98242 18.8503 4.98242C15.2407 4.98242 11.7202 6.11396 8.77624 8.22052C5.83227 10.3271 3.60968 13.3052 2.41788 16.7412C5.62629 12.9194 11.7931 10.3244 18.8539 10.3244Z" fill="#F37726"/>
<path d="M9.16214 42.682C9.19139 43.3479 9.0237 44.0078 8.68003 44.5789C8.33643 45.1492 7.83362 45.6034 7.23368 45.885C6.63373 46.1665 5.96542 46.2628 5.31151 46.1602C4.65759 46.0577 4.04865 45.7627 3.56204 45.3111C3.07542 44.8596 2.73183 44.274 2.57532 43.6255C2.41949 42.9773 2.45765 42.2976 2.68505 41.671C2.91262 41.044 3.31918 40.4998 3.85347 40.1068C4.38775 39.7137 5.02548 39.4888 5.68659 39.4619C6.57077 39.425 7.43246 39.7443 8.08458 40.3478C8.73722 40.9539 9.12444 41.793 9.16214 42.6829V42.682Z" fill="#989798"/>
<path d="M3.23195 9.4592C2.84428 9.47629 2.4602 9.37645 2.1283 9.17317C1.79639 8.96989 1.53195 8.67217 1.36825 8.31687C1.20454 7.96158 1.14878 7.56582 1.20814 7.17904C1.26751 6.79227 1.43931 6.43158 1.70195 6.14375C1.9646 5.85592 2.30639 5.65264 2.68327 5.56C3.06015 5.46735 3.45592 5.48984 3.8211 5.62476C4.18629 5.75968 4.502 5.99984 4.73047 6.31645C4.99835 6.68643 5.13063 7.13738 5.10508 7.59344C5.07952 8.0495 4.89769 8.48284 4.59015 8.82058C4.23846 9.20645 3.75005 9.43582 3.23105 9.4583L3.23195 9.4592Z" fill="#6F7070"/>
</g>
<defs>
<clipPath id="clip0_81_870">
<rect width="170" height="45.873" fill="white" transform="translate(0.861816 0.953125)"/>
</clipPath>
</defs>
</svg>
