<svg width="171" height="47" viewBox="0 0 171 47" fill="none" xmlns="http://www.w3.org/2000/svg">
<g clip-path="url(#clip0_1_117)">
<path d="M51.7941 28.8188C51.7941 33.4475 51.4406 34.9586 50.4997 36.0748C49.4716 37.0238 48.1278 37.5491 46.7336 37.5455L47.0871 40.2987C49.2477 40.3284 51.3425 39.5477 52.9634 38.1067C54.6499 36.3501 55.2381 33.9215 55.2381 30.1941V12.6931H51.786V28.8422L51.7941 28.8188Z" fill="#4E4E4E"/>
<path d="M77.5414 26.7095L77.6979 31.9714H74.6775L74.4814 28.8062H74.4032C73.7693 29.9105 72.8525 30.8258 71.747 31.4578C70.6443 32.0874 69.394 32.4095 68.1267 32.3906C65.1458 32.3906 61.5839 30.7131 61.5839 23.94V12.6571H65.0361V23.3626C65.0361 27.0342 66.1343 29.5024 69.2645 29.5024C70.2467 29.4844 71.2011 29.1741 72.0097 28.611C72.8183 28.0479 73.4434 27.2573 73.8077 26.3371C74.0173 25.7624 74.1234 25.1534 74.1216 24.5409V12.6733H77.5738V26.7095H77.5423H77.5414Z" fill="#4E4E4E"/>
<path d="M84.0473 18.9678L83.8908 12.6382H86.9895L87.146 15.9456H87.2242C87.9001 14.7627 88.8864 13.787 90.0765 13.124C91.2627 12.463 92.608 12.1416 93.9649 12.1948C98.5468 12.1948 101.999 16.1507 101.999 22.0062C101.999 28.9456 97.8488 32.3717 93.3685 32.3717C92.2177 32.4201 91.0743 32.1661 90.0522 31.6351C89.027 31.1023 88.1581 30.3118 87.531 29.3414H87.4527V39.8256H84.0401V18.9363L84.0482 18.9678H84.0473ZM87.4599 24.111C87.4688 24.5921 87.5212 25.0713 87.6164 25.5429C87.8961 26.7101 88.5582 27.7502 89.4972 28.4977C90.4323 29.2418 91.5915 29.6478 92.7866 29.6499C96.4348 29.6499 98.545 26.6196 98.545 22.1969C98.545 18.3274 96.5446 15.02 92.9044 15.02C91.6802 15.0542 90.5028 15.5013 89.5584 16.2883C88.6139 17.0753 87.96 18.1574 87.6956 19.3636C87.5571 19.8286 87.4779 20.3098 87.4599 20.7955V24.1029V24.111Z" fill="#4E4E4E"/>
<path d="M108.105 12.6751L112.256 24.0768L113.472 28.0326H113.55L114.766 24.0048L118.532 12.6832H122.18L117.009 26.4424C114.538 33.0571 112.859 36.4517 110.506 38.525C109.317 39.6403 107.859 40.4238 106.278 40.7961L105.415 37.845C106.521 37.4735 107.547 36.8906 108.435 36.1279C109.691 35.0701 110.685 33.7317 111.338 32.2188C111.478 31.9574 111.57 31.6737 111.612 31.3805C111.582 31.0639 111.502 30.7544 111.377 30.4621L104.363 12.6832H108.129L108.105 12.6751Z" fill="#4E4E4E"/>
<path d="M131.241 7.12543V12.6644H136.175V15.3385H131.241V25.7355C131.241 28.1092 131.907 29.4863 133.829 29.4863C134.504 29.4971 135.177 29.417 135.83 29.2488L135.986 31.8834C135.005 32.2324 133.967 32.3934 132.926 32.3583C132.236 32.4006 131.546 32.2917 130.902 32.0372C130.258 31.7826 129.677 31.3905 129.199 30.8867C128.219 29.8506 127.865 28.1335 127.865 25.8623V15.3385H124.925V12.6644H127.867V8.03569L131.241 7.12543Z" fill="#4E4E4E"/>
<path d="M142.535 22.9542C142.614 27.7016 145.595 29.6562 149.039 29.6562C150.84 29.7129 152.631 29.3729 154.288 28.6596L154.876 31.1682C152.891 32.0092 150.752 32.4158 148.6 32.3627C142.762 32.3627 139.271 28.4536 139.271 22.6304C139.271 16.8072 142.645 12.2253 148.168 12.2253C154.358 12.2253 156.013 17.7643 156.013 21.3163C156.008 21.8641 155.968 22.4109 155.895 22.9542H142.559H142.535ZM152.648 20.4465C152.688 18.2149 151.746 14.7421 147.87 14.7421C144.379 14.7421 142.857 18.0098 142.582 20.4465H152.655H152.647H152.648Z" fill="#4E4E4E"/>
<path d="M161.033 18.6918L160.877 12.6698H163.897L164.015 16.4602H164.171C165.035 13.8652 167.113 12.2345 169.421 12.2345C169.752 12.23 170.081 12.2696 170.401 12.3532V15.6606C170.014 15.576 169.619 15.5355 169.225 15.5418C166.792 15.5418 165.074 17.4172 164.604 20.0437C164.507 20.5844 164.455 21.1323 164.447 21.6816V31.968H161.033V18.6918Z" fill="#4E4E4E"/>
<path d="M34.4325 3.62999C34.455 4.15888 34.3219 4.68237 34.0503 5.1339C33.7786 5.58544 33.3793 5.94702 32.9034 6.17009C32.4276 6.39316 31.8969 6.46962 31.3788 6.38866C30.8596 6.30729 30.3764 6.07306 29.9909 5.71586C29.6039 5.35715 29.3314 4.89219 29.2075 4.37925C29.0834 3.86565 29.1131 3.32597 29.293 2.82856C29.4721 2.33295 29.7938 1.90139 30.2176 1.58819C30.6399 1.27611 31.1457 1.09726 31.6703 1.07459C32.3727 1.04491 33.0572 1.29676 33.5753 1.77618C34.0934 2.2556 34.4011 2.9221 34.4316 3.62999H34.4325Z" fill="#767677"/>
<path d="M18.9715 35.0755C11.9107 35.0755 5.74388 32.4887 2.54266 28.6587C3.73446 32.0947 5.95706 35.0728 8.90102 37.1794C11.845 39.286 15.3655 40.4175 18.9751 40.4175C22.5847 40.4175 26.1052 39.286 29.0492 37.1794C31.9931 35.0728 34.2157 32.0947 35.4075 28.6587C32.1991 32.4887 26.0323 35.0755 18.9715 35.0755Z" fill="#F37726"/>
<path d="M18.9697 10.1647C26.0305 10.1647 32.1973 12.7525 35.3985 16.5815C34.2067 13.1456 31.9841 10.1674 29.0401 8.06085C26.0962 5.95429 22.5756 4.82275 18.9661 4.82275C15.3565 4.82275 11.836 5.95429 8.89199 8.06085C5.94802 10.1674 3.72543 13.1456 2.53363 16.5815C5.74204 12.7597 11.9088 10.1647 18.9697 10.1647Z" fill="#F37726"/>
<path d="M9.27788 42.5223C9.30713 43.1883 9.13943 43.8481 8.79577 44.4193C8.45217 44.9895 7.94936 45.4438 7.34942 45.7253C6.74947 46.0068 6.08116 46.1031 5.42725 46.0005C4.77333 45.898 4.16439 45.603 3.67778 45.1514C3.19116 44.6999 2.84756 44.1144 2.69106 43.4658C2.53522 42.8177 2.57338 42.138 2.80079 41.5113C3.02836 40.8844 3.43492 40.3402 3.9692 39.9471C4.50349 39.554 5.14121 39.3292 5.80233 39.3022C6.68651 39.2653 7.5482 39.5846 8.20032 40.1882C8.85296 40.7943 9.24017 41.6333 9.27788 42.5232V42.5223Z" fill="#989798"/>
<path d="M3.34767 9.29847C2.96 9.31556 2.57593 9.21571 2.24402 9.01243C1.91212 8.80915 1.64767 8.51143 1.48397 8.15614C1.32027 7.80085 1.2645 7.40508 1.32386 7.01831C1.38323 6.63154 1.55503 6.27085 1.81767 5.98302C2.08032 5.69519 2.42212 5.49191 2.799 5.39926C3.17587 5.30661 3.57164 5.3291 3.93683 5.46402C4.30201 5.59894 4.61773 5.8391 4.84619 6.15572C5.11407 6.52569 5.24636 6.97664 5.2208 7.4327C5.19525 7.88876 5.01341 8.32211 4.70587 8.65984C4.35418 9.04572 3.86577 9.27508 3.34677 9.29757L3.34767 9.29847Z" fill="#6F7070"/>
</g>
<defs>
<clipPath id="clip0_1_117">
<rect width="170" height="45.873" fill="white" transform="translate(0.977539 0.793121)"/>
</clipPath>
</defs>
</svg>
