<svg width="41" height="41" viewBox="0 0 41 41" fill="none" xmlns="http://www.w3.org/2000/svg">
<path d="M27.3693 14.2676C30.0215 14.2676 32.565 15.3211 34.4404 17.1965C36.3157 19.0719 37.3693 21.6154 37.3693 24.2676V35.9342H30.7026V24.2676C30.7026 23.3835 30.3514 22.5357 29.7263 21.9106C29.1012 21.2854 28.2533 20.9342 27.3693 20.9342C26.4852 20.9342 25.6374 21.2854 25.0123 21.9106C24.3871 22.5357 24.036 23.3835 24.036 24.2676V35.9342H17.3693V24.2676C17.3693 21.6154 18.4229 19.0719 20.2982 17.1965C22.1736 15.3211 24.7171 14.2676 27.3693 14.2676Z" stroke="#222222" stroke-width="2" stroke-linecap="round" stroke-linejoin="round"/>
<path d="M10.7026 15.9336H4.03598V35.9336H10.7026V15.9336Z" stroke="#222222" stroke-width="2" stroke-linecap="round" stroke-linejoin="round"/>
<path d="M7.36931 10.9342C9.21026 10.9342 10.7026 9.44186 10.7026 7.60091C10.7026 5.75996 9.21026 4.26758 7.36931 4.26758C5.52836 4.26758 4.03598 5.75996 4.03598 7.60091C4.03598 9.44186 5.52836 10.9342 7.36931 10.9342Z" stroke="#222222" stroke-width="2" stroke-linecap="round" stroke-linejoin="round"/>
</svg>
