<svg width="171" height="79" viewBox="0 0 171 79" fill="none" xmlns="http://www.w3.org/2000/svg">
<g clip-path="url(#clip0_81_803)">
<path d="M23.675 0.595703V23.0173H19.0804V5.1903L13.8426 23.1092H9.70745L4.56151 5.1903V23.0173H0.885834V0.595703H7.50205L12.2804 17.32L17.0588 0.595703H23.675Z" fill="#E10019"/>
<path d="M39.3885 16.8606H32.0372L30.1994 23.0173H25.5129L32.9561 0.595703H38.8372L46.4642 23.0173H41.3183L39.3885 16.8606ZM38.5615 13.92L35.621 4.27138L32.8642 13.92H38.5615Z" fill="#E10019"/>
<path d="M55.7453 23.2933C54.4588 23.2933 53.3561 23.2014 52.4372 23.0176C51.4264 22.8338 50.6912 22.5581 49.9561 22.2825C49.1291 22.0068 48.4858 21.6392 47.8426 21.2717L47.475 17.0446C48.1183 17.596 48.8534 18.0554 49.6804 18.5149C50.4156 18.8825 51.2426 19.25 52.2534 19.5257C53.1723 19.8014 54.275 19.9852 55.3777 19.9852C56.7561 19.9852 57.7669 19.7095 58.4102 19.25C59.0534 18.7906 59.421 18.0554 59.421 17.2284C59.421 16.3095 59.0534 15.6663 58.4102 15.2987C57.7669 14.8392 56.848 14.4717 55.6534 14.1041L53.2642 13.369C52.4372 13.0933 51.7021 12.8176 51.0588 12.45C50.4156 12.0825 49.7723 11.7149 49.3129 11.1636C48.8534 10.7041 48.4858 10.0609 48.2102 9.41761C47.9345 8.77437 47.8426 7.94734 47.8426 7.02842C47.8426 6.01761 48.0264 5.09869 48.302 4.27166C48.6696 3.44464 49.1291 2.7095 49.7723 2.15815C50.4156 1.69869 51.2426 1.14734 52.2534 0.871664C53.2642 0.504096 54.4588 0.320312 55.8372 0.320312C57.1237 0.320312 58.1345 0.412204 59.0534 0.595988C59.9723 0.779772 60.7075 0.963556 61.3507 1.23923C62.0858 1.51491 62.6372 1.79058 63.0966 2.15815L63.5561 6.66085C63.0048 6.1095 62.2696 5.65004 61.5345 5.19058C60.7993 4.82302 60.0642 4.45545 59.1453 4.17977C58.2264 3.9041 57.2156 3.72031 56.1129 3.72031C54.8264 3.72031 53.9075 3.99599 53.3561 4.45545C52.7129 4.91491 52.4372 5.65004 52.4372 6.47707C52.4372 7.3041 52.7129 7.94734 53.2642 8.31491C53.8156 8.77437 54.6426 9.14193 55.5615 9.41761L58.0426 10.0609C58.9615 10.3365 59.6966 10.6122 60.4318 10.9798C61.1669 11.3473 61.8102 11.7149 62.3615 12.2663C62.9129 12.7257 63.2804 13.369 63.5561 14.0122C63.8318 14.6554 64.0156 15.4825 64.0156 16.4933C64.0156 17.5041 63.8318 18.423 63.4642 19.25C63.0966 20.0771 62.5453 20.8122 61.9021 21.3636C61.1669 21.9149 60.3399 22.4663 59.3291 22.7419C58.4102 23.1095 57.1237 23.2933 55.7453 23.2933Z" fill="#E10019"/>
<path d="M76.5129 3.62814V23.0173H71.5507V3.62814H64.9345L65.2102 0.595703H82.7615L83.0372 3.62814H76.5129Z" fill="#E10019"/>
<path d="M100.405 19.893L100.037 23.0173H85.2426V0.595703H99.8534L100.221 3.72003H90.1129V10.1525H98.9345V13.0011H90.1129V19.893H100.405Z" fill="#E10019"/>
<path d="M111.432 13.2768H108.767V23.1092H103.897V0.595703H114.28C116.302 0.595703 117.956 1.14705 119.243 2.15787C120.529 3.16868 121.08 4.73084 121.08 6.75246C121.08 8.40651 120.621 9.78489 119.61 10.7957C118.691 11.8065 117.405 12.4498 115.934 12.8173L121.724 23.1092H116.578L111.432 13.2768ZM108.767 10.3362H112.81C113.821 10.3362 114.648 10.0606 115.291 9.41732C115.934 8.86597 116.302 7.94705 116.302 6.93624C116.302 5.83354 116.026 5.00651 115.383 4.45516C114.74 3.90381 113.913 3.62814 112.81 3.62814H108.767V10.3362Z" fill="#E10019"/>
<path d="M49.8642 30.002L0.793945 29.9102L49.7723 78.8885L49.8642 30.002Z" fill="#005CA9"/>
<path d="M127.972 23.0175H150.67L127.972 0.412109V23.0175Z" fill="#E10019"/>
<path d="M66.4048 30C68.4264 30 69.9885 30.4595 71.1831 31.4703C72.3777 32.4811 72.9291 33.9514 72.9291 35.973C72.9291 36.8919 72.7453 37.8108 72.4696 38.5459C72.1939 39.2811 71.7345 39.9243 71.0912 40.4757C70.5399 41.027 69.8047 41.3946 68.9777 41.6703C68.1507 41.9459 67.3237 42.0378 66.3129 42.1297H61.4426V51.7784H56.7561V30.1838L66.4048 30ZM65.0264 39.2811C66.1291 39.2811 66.9561 39.0054 67.5075 38.4541C68.0588 37.9027 68.4264 37.0757 68.3345 35.973C68.3345 34.8703 68.0588 34.0432 67.4156 33.5838C66.8642 33.1243 66.0372 32.8487 64.9345 32.8487H61.3507V39.2811H65.0264Z" fill="#005CA9"/>
<path d="M84.5993 51.8707C83.1291 51.8707 81.7507 51.687 80.4642 51.2275C79.1777 50.768 78.1669 50.1248 77.248 49.2059C76.3291 48.287 75.6858 47.1843 75.1345 45.714C74.675 44.3356 74.3993 42.5897 74.3993 40.6599C74.3993 38.7302 74.675 37.0762 75.1345 35.6978C75.6858 34.3194 76.3291 33.1248 77.248 32.2059C78.1669 31.287 79.2696 30.6437 80.5561 30.1843C81.8426 29.7248 83.221 29.541 84.6912 29.541C86.1615 29.541 87.5399 29.7248 88.8264 30.0924C90.1129 30.4599 91.1237 31.1032 92.0426 32.0221C92.9615 32.941 93.6047 34.0437 94.1561 35.4221C94.6156 36.8005 94.8912 38.5464 94.8912 40.4762C94.8912 42.4978 94.6156 44.1518 94.0642 45.6221C93.5129 47.0005 92.7777 48.1951 91.8588 49.114C90.9399 50.0329 89.8372 50.6762 88.5507 51.1356C87.448 51.687 86.0696 51.8707 84.5993 51.8707ZM84.6912 48.9302C85.5183 48.9302 86.2534 48.7464 86.8966 48.4707C87.5399 48.1951 88.0912 47.6437 88.5507 47.0005C89.0102 46.3572 89.3777 45.5302 89.5615 44.4275C89.8372 43.4167 89.9291 42.1302 89.9291 40.568C89.9291 39.0978 89.8372 37.8113 89.5615 36.8005C89.2858 35.7897 89.0102 34.9626 88.5507 34.3194C88.0912 33.6762 87.5399 33.2167 86.8966 32.941C86.2534 32.6653 85.5183 32.4816 84.6912 32.4816C83.8642 32.4816 83.1291 32.6653 82.4858 32.941C81.8426 33.2167 81.2912 33.6761 80.8318 34.4113C80.3723 35.0545 80.0048 35.8816 79.821 36.9843C79.5453 37.9951 79.4534 39.2816 79.4534 40.7518C79.4534 42.2221 79.5453 43.5086 79.821 44.5194C80.0966 45.5302 80.3723 46.4491 80.8318 47.0924C81.2912 47.7356 81.8426 48.1951 82.4858 48.5626C83.1291 48.8383 83.8642 48.9302 84.6912 48.9302Z" fill="#005CA9"/>
<path d="M105.643 42.0379H103.07V51.5028H98.3831V29.9082H108.399C110.421 29.9082 111.983 30.3677 113.178 31.3785C114.372 32.3893 115.016 33.8596 115.016 35.7893C115.016 37.4433 114.556 38.7298 113.637 39.6487C112.718 40.6596 111.524 41.3028 110.053 41.5785L115.659 51.4109H110.697L105.643 42.0379ZM103.07 39.2812H107.021C108.032 39.2812 108.767 39.0055 109.41 38.4541C110.053 37.9028 110.421 37.0758 110.329 35.9731C110.329 34.8704 110.053 34.0433 109.41 33.5839C108.859 33.0325 108.032 32.7569 106.929 32.7569H102.978L103.07 39.2812Z" fill="#005CA9"/>
<path d="M127.513 32.7569V51.5029H122.734V32.7569H116.394L116.67 29.8164H133.578L133.853 32.7569H127.513Z" fill="#005CA9"/>
<path d="M146.259 45.438H139.091L137.345 51.411H132.843L140.01 29.8164H145.707L153.059 51.411H148.097L146.259 45.438ZM145.432 42.5894L142.583 33.2164L139.918 42.5894H145.432Z" fill="#005CA9"/>
<path d="M170.794 48.3786L170.426 51.411H156.734V29.8164H161.513V48.3786H170.794Z" fill="#005CA9"/>
</g>
<defs>
<clipPath id="clip0_81_803">
<rect width="170" height="78.5676" fill="white" transform="translate(0.793945 0.320312)"/>
</clipPath>
</defs>
</svg>
