<svg width="171" height="79" viewBox="0 0 171 79" fill="none" xmlns="http://www.w3.org/2000/svg">
<g clip-path="url(#clip0_1_50)">
<path d="M23.7908 0.437729V22.8594H19.1962V5.03232L13.9584 22.9512H9.82327L4.67732 5.03232V22.8594H1.00165V0.437729H7.61786L12.3962 17.1621L17.1746 0.437729H23.7908Z" fill="#E10019"/>
<path d="M39.5043 16.7026H32.153L30.3151 22.8594H25.6287L33.0719 0.437729H38.953L46.58 22.8594H41.4341L39.5043 16.7026ZM38.6773 13.7621L35.7368 4.1134L32.98 13.7621H38.6773Z" fill="#E10019"/>
<path d="M55.8611 23.135C54.5746 23.135 53.4719 23.0431 52.553 22.8593C51.5422 22.6756 50.807 22.3999 50.0719 22.1242C49.2449 21.8485 48.6016 21.481 47.9584 21.1134L47.5908 16.8864C48.2341 17.4377 48.9692 17.8972 49.7962 18.3566C50.5314 18.7242 51.3584 19.0918 52.3692 19.3675C53.2881 19.6431 54.3908 19.8269 55.4935 19.8269C56.8719 19.8269 57.8827 19.5512 58.526 19.0918C59.1692 18.6323 59.5368 17.8972 59.5368 17.0702C59.5368 16.1512 59.1692 15.508 58.526 15.1404C57.8827 14.681 56.9638 14.3134 55.7692 13.9458L53.38 13.2107C52.553 12.935 51.8178 12.6593 51.1746 12.2918C50.5314 11.9242 49.8881 11.5566 49.4287 11.0053C48.9692 10.5458 48.6016 9.90259 48.326 9.25935C48.0503 8.6161 47.9584 7.78908 47.9584 6.87016C47.9584 5.85935 48.1422 4.94043 48.4178 4.1134C48.7854 3.28637 49.2449 2.55124 49.8881 1.99989C50.5314 1.54043 51.3584 0.989075 52.3692 0.7134C53.38 0.345832 54.5746 0.162048 55.953 0.162048C57.2395 0.162048 58.2503 0.25394 59.1692 0.437724C60.0881 0.621508 60.8233 0.805292 61.4665 1.08097C62.2016 1.35664 62.753 1.63232 63.2124 1.99989L63.6719 6.50259C63.1206 5.95124 62.3854 5.49178 61.6503 5.03232C60.9151 4.66475 60.18 4.29718 59.2611 4.02151C58.3422 3.74583 57.3314 3.56205 56.2287 3.56205C54.9422 3.56205 54.0233 3.83772 53.4719 4.29718C52.8287 4.75664 52.553 5.49178 52.553 6.3188C52.553 7.14583 52.8287 7.78907 53.38 8.15664C53.9314 8.6161 54.7584 8.98367 55.6773 9.25935L58.1584 9.90259C59.0773 10.1783 59.8124 10.4539 60.5476 10.8215C61.2827 11.1891 61.926 11.5566 62.4773 12.108C63.0287 12.5675 63.3962 13.2107 63.6719 13.8539C63.9476 14.4972 64.1314 15.3242 64.1314 16.335C64.1314 17.3458 63.9476 18.2648 63.58 19.0918C63.2124 19.9188 62.6611 20.6539 62.0178 21.2053C61.2827 21.7566 60.4557 22.308 59.4449 22.5837C58.526 22.9512 57.2395 23.135 55.8611 23.135Z" fill="#E10019"/>
<path d="M76.6287 3.47016V22.8594H71.6665V3.47016H65.0503L65.326 0.437729H82.8773L83.153 3.47016H76.6287Z" fill="#E10019"/>
<path d="M100.521 19.735L100.153 22.8594H85.3584V0.437729H99.9692L100.337 3.56205H90.2287V9.99448H99.0503V12.8431H90.2287V19.735H100.521Z" fill="#E10019"/>
<path d="M111.548 13.1188H108.883V22.9512H104.012V0.437729H114.396C116.418 0.437729 118.072 0.98908 119.358 1.99989C120.645 3.0107 121.196 4.57286 121.196 6.59449C121.196 8.24854 120.737 9.62692 119.726 10.6377C118.807 11.6485 117.521 12.2918 116.05 12.6594L121.839 22.9512H116.694L111.548 13.1188ZM108.883 10.1783H112.926C113.937 10.1783 114.764 9.90259 115.407 9.25935C116.05 8.708 116.418 7.78908 116.418 6.77827C116.418 5.67557 116.142 4.84854 115.499 4.29719C114.856 3.74584 114.029 3.47016 112.926 3.47016H108.883V10.1783Z" fill="#E10019"/>
<path d="M49.98 29.8431L0.909729 29.7512L49.8881 78.7296L49.98 29.8431Z" fill="#005CA9"/>
<path d="M128.088 22.8593H150.785L128.088 0.253937V22.8593Z" fill="#E10019"/>
<path d="M66.5205 29.8431C68.5422 29.8431 70.1043 30.3026 71.2989 31.3134C72.4935 32.3242 73.0449 33.7945 73.0449 35.8161C73.0449 36.735 72.8611 37.6539 72.5854 38.3891C72.3097 39.1242 71.8503 39.7675 71.207 40.3188C70.6557 40.8702 69.9205 41.2377 69.0935 41.5134C68.2665 41.7891 67.4395 41.881 66.4286 41.9729H61.5584V51.6215H56.8719V30.0269L66.5205 29.8431ZM65.1422 39.1242C66.2449 39.1242 67.0719 38.8485 67.6232 38.2972C68.1746 37.7458 68.5422 36.9188 68.4503 35.8161C68.4503 34.7134 68.1746 33.8864 67.5313 33.4269C66.98 32.9675 66.153 32.6918 65.0503 32.6918H61.4665V39.1242H65.1422Z" fill="#005CA9"/>
<path d="M84.7151 51.7134C83.2449 51.7134 81.8665 51.5296 80.58 51.0702C79.2935 50.6107 78.2827 49.9675 77.3638 49.0485C76.4449 48.1296 75.8016 47.0269 75.2503 45.5566C74.7908 44.1783 74.5151 42.4323 74.5151 40.5026C74.5151 38.5729 74.7908 36.9188 75.2503 35.5404C75.8016 34.162 76.4449 32.9675 77.3638 32.0485C78.2827 31.1296 79.3854 30.4864 80.6719 30.0269C81.9584 29.5675 83.3368 29.3837 84.807 29.3837C86.2773 29.3837 87.6557 29.5675 88.9422 29.935C90.2287 30.3026 91.2395 30.9458 92.1584 31.8647C93.0773 32.7837 93.7205 33.8864 94.2719 35.2647C94.7314 36.6431 95.007 38.3891 95.007 40.3188C95.007 42.3404 94.7314 43.9945 94.18 45.4647C93.6287 46.8431 92.8935 48.0377 91.9746 48.9566C91.0557 49.8756 89.953 50.5188 88.6665 50.9783C87.5638 51.5296 86.1854 51.7134 84.7151 51.7134ZM84.807 48.7729C85.6341 48.7729 86.3692 48.5891 87.0124 48.3134C87.6557 48.0377 88.207 47.4864 88.6665 46.8431C89.1259 46.1999 89.4935 45.3729 89.6773 44.2702C89.953 43.2593 90.0449 41.9729 90.0449 40.4107C90.0449 38.9404 89.953 37.6539 89.6773 36.6431C89.4016 35.6323 89.1259 34.8053 88.6665 34.162C88.207 33.5188 87.6557 33.0593 87.0124 32.7837C86.3692 32.508 85.6341 32.3242 84.807 32.3242C83.98 32.3242 83.2449 32.508 82.6016 32.7837C81.9584 33.0593 81.407 33.5188 80.9476 34.2539C80.4881 34.8972 80.1205 35.7242 79.9368 36.8269C79.6611 37.8377 79.5692 39.1242 79.5692 40.5945C79.5692 42.0647 79.6611 43.3512 79.9368 44.362C80.2124 45.3729 80.4881 46.2918 80.9476 46.935C81.407 47.5783 81.9584 48.0377 82.6016 48.4053C83.2449 48.681 83.98 48.7729 84.807 48.7729Z" fill="#005CA9"/>
<path d="M105.758 41.881H103.185V51.3458H98.4989V29.7512H108.515C110.537 29.7512 112.099 30.2107 113.294 31.2215C114.488 32.2323 115.131 33.7026 115.131 35.6323C115.131 37.2864 114.672 38.5729 113.753 39.4918C112.834 40.5026 111.639 41.1458 110.169 41.4215L115.775 51.2539H110.812L105.758 41.881ZM103.185 39.1242H107.137C108.148 39.1242 108.883 38.8485 109.526 38.2972C110.169 37.7458 110.537 36.9188 110.445 35.8161C110.445 34.7134 110.169 33.8864 109.526 33.4269C108.975 32.8756 108.148 32.5999 107.045 32.5999H103.093L103.185 39.1242Z" fill="#005CA9"/>
<path d="M127.629 32.5999V51.3458H122.85V32.5999H116.51L116.785 29.6593H133.693L133.969 32.5999H127.629Z" fill="#005CA9"/>
<path d="M146.375 45.281H139.207L137.461 51.2539H132.958L140.126 29.6593H145.823L153.175 51.2539H148.212L146.375 45.281ZM145.548 42.4323L142.699 33.0593L140.034 42.4323H145.548Z" fill="#005CA9"/>
<path d="M170.91 48.2215L170.542 51.2539H156.85V29.6593H161.629V48.2215H170.91Z" fill="#005CA9"/>
</g>
<defs>
<clipPath id="clip0_1_50">
<rect width="170" height="78.5676" fill="white" transform="translate(0.909729 0.162048)"/>
</clipPath>
</defs>
</svg>
