<svg width="171" height="30" viewBox="0 0 171 30" fill="none" xmlns="http://www.w3.org/2000/svg">
<g clip-path="url(#clip0_1_161)">
<path d="M65.1461 1.18744H55.6245V29.3064H65.1461V1.18744Z" fill="#CF163D"/>
<path d="M44.083 1.5759L24.7555 13.3797C24.4805 13.5475 24.1346 13.5475 23.8596 13.3797L4.53209 1.5759C4.11619 1.32195 3.63823 1.18744 3.15094 1.18744H3.12709C1.66343 1.18744 0.477051 2.37382 0.477051 3.83747V29.2745H9.99267V17.1671C9.99267 16.4237 10.8067 15.9675 11.4409 16.3554L22.272 22.9815C23.3397 23.6347 24.6801 23.6471 25.7596 23.014L37.1897 16.31C37.824 15.9379 38.6228 16.3954 38.6228 17.1309V29.2747H48.1385V3.83747C48.1385 2.37382 46.952 1.18744 45.4884 1.18744H45.4645C44.9772 1.18744 44.4989 1.32177 44.083 1.5759Z" fill="#CF163D"/>
<path d="M112.626 1.18744H102.97V13.9862C102.97 14.7043 102.205 15.1638 101.571 14.8261L76.5449 1.49861C76.1617 1.29433 75.7341 1.18762 75.2993 1.18762H75.2823C73.819 1.18762 72.6323 2.374 72.6323 3.83766V29.2763H82.2118V16.4921C82.2118 15.7747 82.9755 15.3152 83.609 15.6513L108.734 28.9768C109.116 29.1796 109.543 29.2856 109.975 29.2856C111.439 29.2856 112.625 28.0992 112.625 26.6356L112.626 1.18744Z" fill="#CF163D"/>
<path d="M120.112 29.3066V1.18744H124.494V29.3064L120.112 29.3066Z" fill="#CF163D"/>
<path d="M150.279 29.8081C138.493 29.8081 130.132 24.2171 130.132 15.2519C130.132 6.33656 138.543 0.69519 150.279 0.69519C162.015 0.69519 170.477 6.28616 170.477 15.2519C170.477 24.2177 162.216 29.8081 150.279 29.8081ZM150.279 4.42239C141.515 4.42239 134.765 8.25019 134.765 15.2519C134.765 22.3033 141.515 26.0809 150.279 26.0809C159.043 26.0809 165.843 22.3033 165.843 15.2519C165.843 8.25019 159.043 4.42239 150.279 4.42239Z" fill="#CF163D"/>
</g>
<defs>
<clipPath id="clip0_1_161">
<rect width="170" height="29.1615" fill="white" transform="translate(0.477051 0.69519)"/>
</clipPath>
</defs>
</svg>
