<svg width="171" height="31" viewBox="0 0 171 31" fill="none" xmlns="http://www.w3.org/2000/svg">
<g clip-path="url(#clip0_81_914)">
<path d="M65.0304 1.3457H55.5087V29.4647H65.0304V1.3457Z" fill="#CF163D"/>
<path d="M43.9673 1.73417L24.6397 13.5379C24.3648 13.7058 24.0189 13.7058 23.7439 13.5379L4.41637 1.73417C4.00047 1.48021 3.5225 1.3457 3.03522 1.3457H3.01137C1.54771 1.3457 0.361328 2.53209 0.361328 3.99574V29.4328H9.87695V17.3254C9.87695 16.582 10.691 16.1257 11.3252 16.5137L22.1563 23.1398C23.224 23.793 24.5644 23.8054 25.6439 23.1723L37.0739 16.4683C37.7082 16.0961 38.5071 16.5536 38.5071 17.2891V29.4329H48.0227V3.99574C48.0227 2.53209 46.8363 1.3457 45.3727 1.3457H45.3488C44.8615 1.3457 44.3832 1.48003 43.9673 1.73417Z" fill="#CF163D"/>
<path d="M112.51 1.3457H102.854V14.1445C102.854 14.8626 102.089 15.322 101.455 14.9843L76.4291 1.65687C76.046 1.45259 75.6184 1.34588 75.1836 1.34588H75.1666C73.7032 1.34588 72.5165 2.53227 72.5165 3.99592V29.4346H82.096V16.6503C82.096 15.9329 82.8597 15.4735 83.4933 15.8095L108.618 29.1351C109 29.3379 109.427 29.4439 109.86 29.4439C111.324 29.4439 112.51 28.2575 112.51 26.7938L112.51 1.3457Z" fill="#CF163D"/>
<path d="M119.996 29.4649V1.3457H124.378V29.4647L119.996 29.4649Z" fill="#CF163D"/>
<path d="M150.163 29.9664C138.377 29.9664 130.016 24.3754 130.016 15.4102C130.016 6.49489 138.427 0.853516 150.163 0.853516C161.899 0.853516 170.361 6.44449 170.361 15.4102C170.361 24.376 162.101 29.9664 150.163 29.9664ZM150.163 4.58071C141.399 4.58071 134.65 8.40851 134.65 15.4102C134.65 22.4616 141.399 26.2392 150.163 26.2392C158.928 26.2392 165.728 22.4616 165.728 15.4102C165.728 8.40851 158.928 4.58071 150.163 4.58071Z" fill="#CF163D"/>
</g>
<defs>
<clipPath id="clip0_81_914">
<rect width="170" height="29.1615" fill="white" transform="translate(0.361328 0.853516)"/>
</clipPath>
</defs>
</svg>
