<svg width="171" height="101" viewBox="0 0 171 101" fill="none" xmlns="http://www.w3.org/2000/svg">
<path d="M169.584 1.26346V60.2469H2.66382V1.26346H169.584Z" fill="#8F0000" stroke="white" stroke-width="0.195839"/>
<path d="M167.761 62.268H4.48706V97.5941H167.761V62.268Z" fill="white" stroke="white" stroke-width="2.30542"/>
<path d="M132.414 39.0684C131.175 39.0684 130.124 39.9643 130.124 41.2588V46.7012C130.124 47.9686 131.147 48.9912 132.414 48.9912H154.729C155.996 48.9912 157.02 47.9686 157.02 46.7012V41.2588C157.02 39.9644 155.968 39.0684 154.729 39.0684H132.414ZM57.9456 26.0332C56.682 26.0333 55.7045 26.9897 55.7043 28.2608V33.7998C55.7044 35.0703 56.6812 36.0303 57.9456 36.0303H80.3586C81.623 36.0303 82.5998 35.0703 82.5999 33.7998V28.2608C82.5997 26.9898 81.6222 26.0332 80.3586 26.0332H57.9456ZM110.119 11.6514C108.836 11.6516 107.928 12.6483 107.928 13.8994V19.4385C107.928 20.0609 108.152 20.6023 108.555 20.9873C108.956 21.3706 109.507 21.5732 110.119 21.5733H132.631C133.243 21.5732 133.795 21.3706 134.196 20.9873C134.598 20.6023 134.822 20.0609 134.823 19.4385V13.8994C134.822 12.6484 133.914 11.6516 132.631 11.6514H110.119ZM126.99 45.4502L126.604 45.4444C120.92 45.3692 116.914 44.4402 113.853 43.1182C110.792 41.7962 108.652 40.0716 106.703 38.3672C104.664 36.5836 102.706 34.852 99.6497 33.5537C96.5953 32.2564 92.4713 31.4022 86.092 31.3018L85.6946 31.295V33.7998C85.6945 36.6926 83.2595 39.0887 80.3586 39.0889H57.9456C55.0411 39.0889 52.5707 36.6893 52.5706 33.7998V28.2608C52.5707 25.3716 55.0409 22.9737 57.9456 22.9737H80.3586C83.0783 22.9739 85.329 25.1103 85.5891 27.7793L85.6282 28.1797L86.0286 28.1299C88.093 27.8692 89.532 27.3113 90.551 26.4659L90.7493 26.293C91.9184 25.221 92.7155 23.6968 93.635 22.0293C94.5654 20.3421 95.668 18.4744 97.6682 17.1016C99.2645 16.006 101.54 15.4429 104.422 15.3008L104.794 15.2823V13.8994C104.794 10.9976 107.228 8.5178 110.119 8.51761H132.632C135.524 8.51761 137.957 10.9975 137.957 13.8994V19.4385C137.957 22.3303 135.534 24.7071 132.632 24.7071H110.121C107.219 24.7071 104.796 22.3303 104.796 19.4385V18.3037L104.381 18.3282C102.157 18.4604 100.486 18.8784 99.4006 19.6231C98.0385 20.5582 97.2012 21.9038 96.3167 23.5078C95.4886 25.0094 94.5902 26.7073 93.1008 28.2012L92.5588 28.7442L93.3167 28.8643C101.454 30.1554 105.483 33.2368 108.718 36.0655C110.681 37.7821 112.485 39.3655 115.141 40.5166C117.797 41.6681 121.277 42.3767 126.596 42.416L126.99 42.419V41.2588C126.991 38.3707 129.509 35.9356 132.414 35.9356H154.729C157.634 35.9356 160.152 38.3707 160.153 41.2588V46.7979C160.153 49.6865 157.634 52.1241 154.729 52.1241H132.414C129.509 52.1241 126.991 49.6864 126.99 46.7979V45.4502Z" fill="white" stroke="white" stroke-width="0.783356"/>
<path d="M25.1857 70.6682L25.1066 70.6516L22.9005 70.1965V67.6144H32.1691V70.1945L29.6388 70.6516L29.5577 70.6662V90.259H25.1534L15.8693 74.9318L15.837 74.8791L15.7755 74.8849L15.6124 74.9016L15.5236 74.9094V87.2228L15.6046 87.2375L18.1349 87.6935V90.259H8.86633V87.6926L11.2179 87.2375L11.297 87.2219V70.6662L11.2179 70.6516L8.86633 70.1955V67.6144H15.7257L24.9562 82.9406L24.9962 83.008L25.0714 82.9826L25.1857 82.9445V70.6682Z" fill="#8F0000" stroke="white" stroke-width="0.196309"/>
<path d="M41.5736 73.1646C43.9048 73.1647 45.7481 73.8646 47.1146 75.2584L47.3822 75.5465C48.7859 77.1359 49.4915 79.1876 49.4916 81.7096V82.0396C49.4915 84.5719 48.7856 86.6281 47.3822 88.2174V88.2184C45.9922 89.7935 44.0706 90.5845 41.6049 90.5846C39.1071 90.5846 37.1635 89.7928 35.7631 88.2174C34.3704 86.6282 33.6713 84.5717 33.6713 82.0396V81.7096C33.6713 79.1981 34.3707 77.1516 35.764 75.5621C37.1647 73.9658 39.0974 73.1646 41.5736 73.1646ZM41.5736 76.4967C40.3499 76.4967 39.4473 76.9888 38.8842 77.9742C38.3293 78.9453 38.0551 80.1925 38.0551 81.7096V82.0396C38.0551 83.5004 38.2959 84.7019 38.7836 85.6383L38.8842 85.8219C39.4481 86.7871 40.3621 87.2672 41.6049 87.2672C42.818 87.2672 43.7146 86.7799 44.2777 85.8053C44.8434 84.8441 45.1224 83.5863 45.1224 82.0387V81.7096C45.1224 80.1923 44.8434 78.9445 44.2777 77.9732C43.7042 76.9887 42.7971 76.4967 41.5736 76.4967Z" fill="#8F0000" stroke="white" stroke-width="0.196309"/>
<path d="M62.7188 78.3104L62.7051 78.288C62.3799 77.7242 61.854 77.2945 61.3545 76.9969H61.3535C60.8551 76.6836 60.2676 76.5282 59.5947 76.5282C59.0204 76.5282 58.5185 76.6567 58.0928 76.9159C57.667 77.1752 57.3226 77.5621 57.0596 78.0721C56.5369 79.0857 56.3203 80.4008 56.3203 82.0077V82.3368C56.3203 83.8283 56.5261 85.0208 57.0303 85.9003L57.0312 85.9012C57.5538 86.783 58.4054 87.2196 59.5635 87.2196C60.246 87.2196 60.8431 87.0809 61.3516 86.7997C61.8509 86.5234 62.3781 86.1212 62.7041 85.5887L62.7188 85.5653V78.3104ZM62.7188 69.0302L62.6377 69.0155L60.1074 68.5585V65.9794H67.0918V87.2147L67.167 87.2333L69.0498 87.6844V90.2616H63.208L62.876 88.2665L62.8359 88.0253L62.6982 88.2274C62.1723 89.0008 61.5501 89.5857 60.833 89.9852C60.1277 90.3839 59.3181 90.5878 58.4023 90.5878C56.3383 90.5877 54.742 89.833 53.6016 88.3329H53.6006C52.4679 86.8288 51.9482 84.8336 51.9482 82.3368V82.0077C51.9482 79.3424 52.4743 77.2052 53.6191 75.5858C54.7606 73.9713 56.3617 73.164 58.4336 73.1639C59.2656 73.1639 60.0128 73.349 60.6768 73.7167H60.6777C61.3491 74.0782 62.0404 74.5933 62.542 75.2587L62.7188 75.4921V69.0302Z" fill="#8F0000" stroke="white" stroke-width="0.196309"/>
<path d="M78.4364 73.1577C80.7063 73.1577 82.4557 73.8333 83.6981 75.1889C84.9475 76.5519 85.783 78.3957 85.6971 80.7192V83.0786H75.4569L75.4393 83.1547L75.4071 83.2895L75.4042 83.3041L75.4052 83.3188C75.4849 84.3851 75.8221 85.28 76.4208 85.9975L76.5448 86.1391C77.2357 86.884 78.1684 87.2534 79.3309 87.2534C80.3509 87.2534 81.2032 87.1529 81.8846 86.9506H81.8856C82.536 86.7474 83.2419 86.4354 84.0048 86.02L85.1708 88.6762C84.4893 89.2014 83.611 89.6479 82.5311 90.0112C81.4343 90.3837 80.2057 90.5707 78.8446 90.5707C76.4203 90.5707 74.4916 89.7944 73.0487 88.2485C71.604 86.7004 70.8798 84.7333 70.8798 82.3393V81.7114C70.8798 79.3661 71.4812 77.4159 72.6796 75.8539L72.9266 75.5473C74.2113 74.0404 75.9027 73.2489 78.0096 73.1645L78.4364 73.1577ZM78.4364 76.4838C77.5602 76.4839 76.8614 76.8207 76.3505 77.4946C75.8454 78.1609 75.5372 79.0323 75.4208 80.101L75.4188 80.1235L75.4735 80.2739L75.4969 80.3373H81.3241V79.7817C81.3241 78.914 81.1096 78.1959 80.7372 77.6313L80.5682 77.3989C80.0954 76.7841 79.3781 76.4838 78.4364 76.4838Z" fill="#8F0000" stroke="white" stroke-width="0.196309"/>
<path d="M97.771 79.0321V82.4256H89.1558V79.0321H97.771Z" fill="#8F0000" stroke="white" stroke-width="0.196309"/>
<path d="M107.564 77.5871H107.645V77.6857H110.814C112.101 77.6857 113.085 77.411 113.748 76.8459C114.413 76.2793 114.74 75.4647 114.74 74.4182C114.74 73.4366 114.453 72.6338 113.872 72.0197L113.752 71.8996C113.1 71.2591 112.141 70.9474 110.892 70.9474H107.564V77.5871ZM103.191 70.6652L103.111 70.6516L100.58 70.1945V67.6144H110.892L111.37 67.6213C113.721 67.6908 115.572 68.2799 116.933 69.3801V69.381C118.378 70.5394 118.988 72.1439 118.988 74.2141C118.988 75.3545 118.801 76.3293 118.202 77.1525C117.597 77.9826 116.708 78.6584 115.528 79.176L115.282 79.2844L115.539 79.3596C116.872 79.7522 117.816 80.4053 118.386 81.3107L118.387 81.3117C118.972 82.2146 119.314 83.3408 119.314 84.6935V85.8547C119.314 86.3578 119.364 86.7784 119.581 87.0881L119.582 87.0891C119.803 87.3905 120.162 87.5612 120.639 87.6154V87.6144L120.946 87.676V90.259H118.846C117.366 90.259 116.351 89.8605 115.771 89.09C115.182 88.3084 114.941 87.292 114.941 86.0275V84.7248C114.941 83.6645 114.619 82.8137 114.072 82.1779L113.959 82.0539C113.352 81.3926 112.493 81.0507 111.397 81.0187H107.564V87.2209L107.643 87.2375L109.849 87.6916V90.259H100.58V87.6935L103.111 87.2375L103.191 87.2228V70.6652Z" fill="#8F0000" stroke="white" stroke-width="0.196309"/>
<path d="M125.385 70.6602L125.305 70.6456L122.775 70.1885V67.6075H140.514V73.6124H137.341L137.143 71.0919L137.136 71.001H129.759V76.7462H137.265V80.1397H129.759V86.8633H137.199L137.206 86.7735L137.403 84.253H140.546V90.254H122.775V87.6885L125.305 87.2325L125.385 87.2178V70.6602Z" fill="#8F0000" stroke="white" stroke-width="0.196309"/>
<path d="M149.994 86.931H150.091L153.281 86.9398C154.948 86.9441 156.263 86.3753 157.215 85.2415C158.163 84.1128 158.676 82.648 158.676 80.8402V77.0277C158.676 75.2407 158.163 73.7725 157.215 72.6439C156.263 71.5101 154.948 70.9458 153.282 70.9456L150.092 70.9369H149.994V86.931ZM145.621 70.641L145.542 70.6253L143.336 70.1947V67.6195L145.672 67.597L153.516 67.6214H153.563C156.139 67.6306 158.286 68.4014 160.009 69.9456L160.35 70.2669C162.139 72.0248 163.049 74.2757 163.049 77.0443V80.8246C163.049 83.4303 162.249 85.591 160.675 87.2992L160.35 87.6341C158.561 89.3816 156.286 90.2572 153.516 90.2572H143.336V87.6888L145.543 87.2113L145.621 87.1947V70.641Z" fill="#8F0000" stroke="white" stroke-width="0.196309"/>
</svg>
