<svg width="171" height="101" viewBox="0 0 171 101" fill="none" xmlns="http://www.w3.org/2000/svg">
<path d="M169.468 1.42188V60.4053H2.54803V1.42188H169.468Z" fill="#8F0000" stroke="white" stroke-width="0.195839"/>
<path d="M167.646 62.4258H4.37134V97.7519H167.646V62.4258Z" fill="white" stroke="white" stroke-width="2.30542"/>
<path d="M132.299 39.2275C131.06 39.2275 130.009 40.1235 130.009 41.418V46.8604C130.009 48.1277 131.031 49.1504 132.299 49.1504H154.613C155.88 49.1504 156.904 48.1277 156.904 46.8604V41.418C156.904 40.1235 155.852 39.2275 154.613 39.2275H132.299ZM57.8299 26.1924C56.5663 26.1924 55.5888 27.1489 55.5887 28.4199V33.959C55.5887 35.2294 56.5655 36.1894 57.8299 36.1895H80.243C81.5073 36.1895 82.4841 35.2294 82.4842 33.959V28.4199C82.484 27.1489 81.5066 26.1924 80.243 26.1924H57.8299ZM110.004 11.8105C108.721 11.8107 107.812 12.8075 107.812 14.0586V19.5977C107.812 20.2201 108.036 20.7615 108.439 21.1465C108.84 21.5297 109.392 21.7323 110.004 21.7324H132.515C133.128 21.7323 133.679 21.5297 134.08 21.1465C134.483 20.7615 134.707 20.2201 134.707 19.5977V14.0586C134.707 12.8075 133.799 11.8107 132.515 11.8105H110.004ZM126.875 45.6094L126.488 45.6035C120.804 45.5284 116.798 44.5994 113.737 43.2773C110.676 41.9553 108.537 40.2308 106.588 38.5264C104.548 36.7428 102.59 35.0111 99.534 33.7129C96.4796 32.4155 92.3556 31.5613 85.9763 31.4609L85.5789 31.4541V33.959C85.5788 36.8517 83.1438 39.2478 80.243 39.248H57.8299C54.9254 39.248 52.455 36.8484 52.4549 33.959V28.4199C52.455 25.5307 54.9252 23.1328 57.8299 23.1328H80.243C82.9626 23.133 85.2133 25.2695 85.4734 27.9385L85.5125 28.3389L85.9129 28.2891C87.9773 28.0284 89.4163 27.4704 90.4353 26.625L90.6336 26.4521C91.8027 25.3802 92.5998 23.8559 93.5193 22.1885C94.4497 20.5013 95.5524 18.6336 97.5525 17.2607C99.1488 16.1652 101.425 15.602 104.306 15.46L104.678 15.4414V14.0586C104.679 11.1568 107.112 8.67695 110.004 8.67676H132.516C135.408 8.67676 137.841 11.1567 137.842 14.0586V19.5977C137.841 22.4895 135.418 24.8662 132.516 24.8662H110.006C107.104 24.8662 104.681 22.4895 104.68 19.5977V18.4629L104.265 18.4873C102.041 18.6195 100.37 19.0375 99.2849 19.7822C97.9228 20.7174 97.0856 22.063 96.201 23.667C95.3729 25.1685 94.4745 26.8664 92.9851 28.3604L92.4431 28.9033L93.201 29.0234C101.339 30.3146 105.368 33.3959 108.602 36.2246C110.565 37.9412 112.37 39.5247 115.025 40.6758C117.682 41.8273 121.162 42.5359 126.48 42.5752L126.875 42.5781V41.418C126.875 38.5298 129.393 36.0947 132.299 36.0947H154.613C157.519 36.0947 160.037 38.5298 160.037 41.418V46.957C160.037 49.8456 157.519 52.2832 154.613 52.2832H132.299C129.393 52.2832 126.875 49.8455 126.875 46.957V45.6094Z" fill="white" stroke="white" stroke-width="0.783356"/>
<path d="M25.0698 70.8262L24.9907 70.8096L22.7846 70.3545V67.7725H32.0532V70.3525L29.5229 70.8096L29.4419 70.8242V90.417H25.0376L15.7534 75.0898L15.7212 75.0371L15.6596 75.043L15.4966 75.0596L15.4077 75.0674V87.3809L15.4887 87.3955L18.019 87.8516V90.417H8.75046V87.8506L11.102 87.3955L11.1811 87.3799V70.8242L11.102 70.8096L8.75046 70.3535V67.7725H15.6098L24.8403 83.0986L24.8803 83.166L24.9555 83.1406L25.0698 83.1025V70.8262Z" fill="#8F0000" stroke="white" stroke-width="0.196309"/>
<path d="M41.4579 73.3232C43.789 73.3233 45.6323 74.0232 46.9989 75.417L47.2664 75.7051C48.6701 77.2945 49.3758 79.3462 49.3758 81.8682V82.1982C49.3757 84.7305 48.6699 86.7867 47.2664 88.376V88.377C45.8764 89.9521 43.9548 90.7431 41.4891 90.7432C38.9913 90.7432 37.0477 89.9514 35.6473 88.376C34.2547 86.7868 33.5556 84.7303 33.5555 82.1982V81.8682C33.5556 79.3567 34.2549 77.3102 35.6483 75.7207C37.0489 74.1244 38.9817 73.3232 41.4579 73.3232ZM41.4579 76.6553C40.2341 76.6553 39.3315 77.1474 38.7684 78.1328C38.2135 79.1039 37.9393 80.3511 37.9393 81.8682V82.1982C37.9393 83.659 38.1801 84.8605 38.6678 85.7969L38.7684 85.9805C39.3323 86.9457 40.2463 87.4258 41.4891 87.4258C42.7022 87.4258 43.5988 86.9385 44.162 85.9639C44.7276 85.0027 45.0067 83.7449 45.0067 82.1973V81.8682C45.0067 80.3509 44.7276 79.1031 44.162 78.1318C43.5884 77.1473 42.6813 76.6553 41.4579 76.6553Z" fill="#8F0000" stroke="white" stroke-width="0.196309"/>
<path d="M62.6029 78.4688L62.5893 78.4463C62.264 77.8826 61.7382 77.4528 61.2387 77.1553H61.2377C60.7393 76.842 60.1518 76.6866 59.4789 76.6865C58.9046 76.6865 58.4027 76.815 57.977 77.0742C57.5512 77.3335 57.2068 77.7204 56.9438 78.2305C56.4211 79.244 56.2045 80.5591 56.2045 82.166V82.4951C56.2045 83.9866 56.4103 85.1791 56.9145 86.0586L56.9154 86.0596C57.438 86.9414 58.2896 87.3779 59.4477 87.3779C60.1301 87.3779 60.7272 87.2392 61.2357 86.958C61.7351 86.6818 62.2622 86.2795 62.5883 85.7471L62.6029 85.7236V78.4688ZM62.6029 69.1885L62.5219 69.1738L59.9916 68.7168V66.1377H66.976V87.373L67.0512 87.3916L68.934 87.8428V90.4199H63.0922L62.7602 88.4248L62.7201 88.1836L62.5824 88.3857C62.0565 89.1591 61.4343 89.744 60.7172 90.1436C60.0118 90.5422 59.2023 90.7461 58.2865 90.7461C56.2225 90.7461 54.6262 89.9913 53.4857 88.4912H53.4848C52.352 86.9872 51.8324 84.992 51.8324 82.4951V82.166C51.8324 79.5007 52.3584 77.3636 53.5033 75.7441C54.6448 74.1296 56.2459 73.3223 58.3178 73.3223C59.1498 73.3223 59.897 73.5073 60.5609 73.875H60.5619C61.2333 74.2365 61.9246 74.7517 62.4262 75.417L62.6029 75.6504V69.1885Z" fill="#8F0000" stroke="white" stroke-width="0.196309"/>
<path d="M78.3206 73.3154C80.5904 73.3154 82.3399 73.991 83.5823 75.3467C84.8316 76.7096 85.6672 78.5535 85.5813 80.877V83.2363H75.3411L75.3235 83.3125L75.2913 83.4473L75.2883 83.4619L75.2893 83.4766C75.369 84.5429 75.7063 85.4377 76.3049 86.1553L76.429 86.2969C77.1198 87.0418 78.0525 87.4111 79.2151 87.4111C80.2351 87.4111 81.0873 87.3107 81.7688 87.1084H81.7698C82.4202 86.9051 83.1261 86.5932 83.8889 86.1777L85.0549 88.834C84.3735 89.3592 83.4952 89.8056 82.4153 90.1689C81.3185 90.5414 80.0899 90.7285 78.7288 90.7285C76.3044 90.7285 74.3758 89.9522 72.9329 88.4062C71.4882 86.8582 70.764 84.8911 70.7639 82.4971V81.8691C70.7639 79.5238 71.3654 77.5737 72.5637 76.0117L72.8108 75.7051C74.0955 74.1982 75.7868 73.4067 77.8938 73.3223L78.3206 73.3154ZM78.3206 76.6416C77.4444 76.6416 76.7455 76.9785 76.2346 77.6523C75.7295 78.3187 75.4214 79.1901 75.3049 80.2588L75.303 80.2812L75.3577 80.4316L75.3811 80.4951H81.2083V79.9395C81.2082 79.0717 80.9937 78.3536 80.6213 77.7891L80.4524 77.5566C79.9796 76.9419 79.2623 76.6416 78.3206 76.6416Z" fill="#8F0000" stroke="white" stroke-width="0.196309"/>
<path d="M97.6552 79.1904V82.584H89.04V79.1904H97.6552Z" fill="#8F0000" stroke="white" stroke-width="0.196309"/>
<path d="M107.448 77.7451H107.529V77.8438H110.698C111.985 77.8437 112.97 77.569 113.633 77.0039C114.297 76.4373 114.624 75.6227 114.624 74.5762C114.624 73.5946 114.337 72.7918 113.757 72.1777L113.636 72.0576C112.984 71.4171 112.025 71.1055 110.776 71.1055H107.448V77.7451ZM103.075 70.8232L102.995 70.8096L100.465 70.3525V67.7725H110.776L111.254 67.7793C113.605 67.8488 115.456 68.4379 116.817 69.5381V69.5391C118.263 70.6974 118.872 72.302 118.872 74.3721C118.872 75.5125 118.685 76.4873 118.086 77.3105C117.481 78.1406 116.592 78.8164 115.412 79.334L115.166 79.4424L115.424 79.5176C116.756 79.9102 117.701 80.5633 118.27 81.4688L118.271 81.4697C118.856 82.3726 119.198 83.4988 119.198 84.8516V86.0127C119.198 86.5158 119.248 86.9364 119.466 87.2461L119.467 87.2471C119.687 87.5485 120.046 87.7193 120.523 87.7734V87.7725L120.83 87.834V90.417H118.73C117.25 90.417 116.235 90.0185 115.655 89.248C115.066 88.4664 114.825 87.45 114.825 86.1855V84.8828C114.825 83.8226 114.503 82.9717 113.956 82.3359L113.844 82.2119C113.236 81.5506 112.377 81.2087 111.281 81.1768H107.448V87.3789L107.527 87.3955L109.733 87.8496V90.417H100.465V87.8516L102.995 87.3955L103.075 87.3809V70.8232Z" fill="#8F0000" stroke="white" stroke-width="0.196309"/>
<path d="M125.27 70.8193L125.19 70.8047L122.659 70.3477V67.7666H140.399V73.7715H137.225L137.027 71.251L137.021 71.1602H129.643V76.9053H137.15V80.2988H129.643V87.0225H137.083L137.09 86.9326L137.287 84.4121H140.43V90.4131H122.659V87.8477L125.19 87.3916L125.27 87.377V70.8193Z" fill="#8F0000" stroke="white" stroke-width="0.196309"/>
<path d="M149.878 87.0889H149.975L153.165 87.0977C154.832 87.102 156.148 86.5332 157.099 85.3994C158.047 84.2706 158.56 82.8059 158.56 80.998V77.1855C158.56 75.3986 158.047 73.9304 157.099 72.8018C156.148 71.668 154.832 71.1037 153.166 71.1035L149.976 71.0947H149.878V87.0889ZM145.505 70.7988L145.426 70.7832L143.221 70.3525V67.7773L145.557 67.7549L153.4 67.7793H153.447C156.023 67.7885 158.17 68.5593 159.893 70.1035L160.234 70.4248C162.023 72.1827 162.933 74.4336 162.933 77.2021V80.9824C162.933 83.5881 162.133 85.7489 160.559 87.457L160.234 87.792C158.445 89.5395 156.17 90.415 153.4 90.415H143.221V87.8467L145.428 87.3691L145.505 87.3525V70.7988Z" fill="#8F0000" stroke="white" stroke-width="0.196309"/>
</svg>
