<svg width="174" height="52" viewBox="0 0 174 52" fill="none" xmlns="http://www.w3.org/2000/svg">
<path d="M37.4198 37.5926C37.7301 34.9554 37.6403 34.5716 39.5998 34.9962L40.0979 35.0452C41.684 35.1027 43.2644 34.8245 44.7355 34.2287C47.2258 33.0693 48.7118 31.1424 46.2542 31.6486C40.6367 32.808 40.253 30.9056 40.253 30.9056C46.1807 22.1121 48.6383 10.9507 46.5155 8.23179C40.6857 0.769108 30.5858 4.28817 30.4225 4.38615H30.3654C29.1347 4.1334 27.8822 4.00212 26.6259 3.99423C24.5045 3.89137 22.412 4.5197 20.6982 5.77419C20.6982 5.77419 2.68647 -1.63952 3.55195 15.1066C3.73158 18.6665 8.66315 42.0507 14.5418 35.0044C16.6892 32.4161 18.7876 30.2361 18.7876 30.2361C19.8285 30.9397 21.0792 31.2654 22.3311 31.1587L22.4291 31.0689C22.3977 31.404 22.4114 31.7418 22.4699 32.0732C20.9594 33.7715 21.4004 34.0654 18.3875 34.6859C15.3747 35.3065 17.1219 36.4414 18.2977 36.7353C19.5477 37.1387 20.8931 37.1373 22.1422 36.7312C23.3913 36.3251 24.4804 35.535 25.2542 34.4737L25.1643 34.8329C25.7604 35.3065 25.7196 38.254 25.8012 40.3524C25.7849 42.1134 26.0074 43.8685 26.4626 45.5697C26.8871 46.721 27.3933 49.7011 31.3615 48.8357C34.6764 48.1172 37.2075 47.1129 37.4525 37.5518" fill="#222222"/>
<path d="M37.4198 37.5926C37.7301 34.9554 37.6403 34.5716 39.5998 34.9962L40.0979 35.0452C41.684 35.1027 43.2644 34.8245 44.7355 34.2287C47.2258 33.0693 48.7118 31.1424 46.2542 31.6486C40.6368 32.808 40.253 30.9056 40.253 30.9056C46.1807 22.1121 48.6383 10.9507 46.5155 8.23179C40.6857 0.769108 30.5858 4.28817 30.4225 4.38615H30.3654C29.1347 4.1334 27.8822 4.00212 26.6259 3.99423C24.5045 3.89137 22.412 4.5197 20.6982 5.77419C20.6982 5.77419 2.68647 -1.63952 3.55195 15.1066C3.73158 18.6665 8.66315 42.0507 14.5418 35.0044C16.6892 32.4161 18.7876 30.2361 18.7876 30.2361C19.8285 30.9397 21.0792 31.2654 22.3311 31.1587L22.4291 31.0689C22.3977 31.404 22.4114 31.7418 22.4699 32.0732C20.9594 33.7715 21.4004 34.0654 18.3875 34.6859C15.3747 35.3065 17.1219 36.4414 18.2977 36.7353C19.5477 37.1387 20.8931 37.1373 22.1422 36.7312C23.3913 36.3251 24.4804 35.535 25.2542 34.4737L25.1643 34.8329C25.7604 35.3065 25.7196 38.254 25.8012 40.3524C25.7849 42.1134 26.0074 43.8685 26.4626 45.5697C26.8871 46.721 27.3933 49.7011 31.3615 48.8357C34.6764 48.1172 37.2075 47.1129 37.4525 37.5518" stroke="#222222" stroke-width="5.11"/>
<path d="M46.2542 31.6805C40.6367 32.8399 40.253 30.9375 40.253 30.9375C46.1807 22.1439 48.6383 10.9826 46.5155 8.26368C40.6857 0.800998 30.5858 4.32006 30.4225 4.41804H30.3654C29.1347 4.16529 27.8822 4.03401 26.6259 4.02612C24.5045 3.92326 22.412 4.55156 20.6982 5.80605C20.6982 5.80605 2.68647 -1.60765 3.55195 15.1385C3.73158 18.6984 8.66315 42.0826 14.5418 35.0363C16.6892 32.448 18.7876 30.268 18.7876 30.268C19.8285 30.9716 21.0792 31.2972 22.3311 31.1906L22.4291 31.1008C22.402 31.4333 22.4157 31.7678 22.4699 32.0969C20.9594 33.7871 21.4004 34.0891 18.3875 34.7097C15.3747 35.3302 17.1219 36.4651 18.2977 36.7509C19.5481 37.1558 20.8943 37.1559 22.1447 36.7513C23.3952 36.3467 24.4861 35.558 25.2623 34.4974L25.1725 34.8485C25.7604 35.3302 26.1768 37.943 26.1115 40.319C26.0462 42.6949 25.9972 44.3197 26.4626 45.5853C26.9279 46.8508 27.3933 49.7249 31.3615 48.8512C34.6682 48.1409 36.3829 46.3201 36.6278 43.2175C36.7911 41.0211 37.1993 41.3559 37.1993 39.3881L37.5096 38.4655C37.8607 35.4935 37.5668 34.5382 39.6162 34.9791L40.1142 35.0281C41.7003 35.0856 43.2807 34.8074 44.7518 34.2116C47.2421 33.0522 48.7281 31.1253 46.2705 31.6315L46.2542 31.6805Z" fill="#336791"/>
<path d="M25.443 33.3795C25.2878 38.9071 25.443 44.4755 26.0145 45.8227C26.5861 47.1699 27.7128 49.8072 31.7299 48.9499C35.053 48.2395 36.2696 46.8597 36.7921 43.8142C37.1759 41.577 37.9271 35.3554 38.0169 34.0735M20.6992 5.68426C20.6992 5.68426 2.68751 -1.66411 3.50399 15.0739C3.68362 18.6337 8.61519 42.0179 14.4939 34.9635C16.6413 32.3834 18.5763 30.3503 18.5763 30.3503M30.4236 4.34524C29.803 4.53303 40.45 0.450585 46.5083 8.18271C48.6394 10.9098 46.1654 22.063 40.2377 30.8729" stroke="white" stroke-width="1.7" stroke-linecap="round" stroke-linejoin="round"/>
<path d="M40.2148 30.8722C40.2148 30.8722 40.5985 32.7665 46.2159 31.6071C48.6654 31.1008 47.1957 33.0359 44.6973 34.1953C42.6479 35.1425 38.0593 35.3874 37.9858 34.0728C37.798 30.6844 40.4352 31.7132 40.2148 30.8722ZM40.2148 30.8722C39.9943 30.0313 38.8839 29.3536 38.1082 27.4838C37.4387 25.8508 28.8656 13.3259 40.4842 15.2365C40.8925 15.1467 37.455 4.1813 26.6039 4.00983C15.7528 3.83837 16.0794 17.2941 16.0794 17.2941" stroke="white" stroke-width="1.7" stroke-linecap="round" stroke-linejoin="bevel"/>
<path d="M22.3981 31.9927C20.8876 33.6828 21.3285 33.9849 18.3156 34.6054C15.3028 35.226 17.0501 36.3609 18.2258 36.6548C19.4758 37.0582 20.8212 37.0567 22.0703 36.6506C23.3194 36.2445 24.4085 35.4545 25.1823 34.3931C25.3137 34.1447 25.394 33.8725 25.4183 33.5925C25.4425 33.3125 25.4103 33.0305 25.3235 32.7632C25.2367 32.4959 25.097 32.2487 24.9129 32.0364C24.7287 31.8241 24.5038 31.651 24.2515 31.5273C23.946 31.3585 23.5881 31.3109 23.2492 31.3942C22.9103 31.4774 22.6151 31.6853 22.4225 31.9763L22.3981 31.9927Z" stroke="white" stroke-width="1.7" stroke-linecap="round" stroke-linejoin="round"/>
<path d="M22.2994 31.9919C22.1442 30.9958 22.6259 29.8119 23.1158 28.4239C23.8915 26.3419 25.6878 24.2598 24.2426 17.6626C23.1812 12.7637 16.0777 16.642 16.0777 17.3115C16.2482 19.4876 16.2071 21.6752 15.9553 23.8434C15.3756 27.9258 18.5762 31.4449 22.2585 31.0856" stroke="white" stroke-width="1.7" stroke-linecap="round" stroke-linejoin="round"/>
<path d="M20.601 17.2296C20.601 17.4583 21.0092 18.0461 21.6052 18.1441C21.8322 18.1718 22.0621 18.1267 22.2618 18.0151C22.4614 17.9036 22.6203 17.7314 22.7156 17.5236C22.7156 17.2949 22.3074 17.0418 21.7195 16.9602C21.1317 16.8785 20.6336 17.001 20.601 17.2296Z" fill="white" stroke="white" stroke-width="0.57"/>
<path d="M38.4092 16.7631C38.4092 16.9918 37.9928 17.5796 37.405 17.6776C37.1767 17.7072 36.9449 17.6629 36.7437 17.5512C36.5424 17.4396 36.3821 17.2664 36.2864 17.0571C36.2864 16.8284 36.6946 16.5835 37.2907 16.5019C37.8867 16.4202 38.4092 16.5345 38.4092 16.7631Z" fill="white" stroke="white" stroke-width="0.29"/>
<path d="M40.4813 15.187C40.5793 16.9751 40.0975 18.1917 40.0404 20.086C39.9505 22.8457 41.3549 26.0055 39.2239 29.1653" stroke="white" stroke-width="1.7" stroke-linecap="round" stroke-linejoin="round"/>
<path d="M163.447 36.0726H161.733V21.2697H163.447V23.3273C164.133 22.6033 164.838 22.0127 165.562 21.5555C166.305 21.0983 167.191 20.8697 168.22 20.8697C169.134 20.8697 169.982 21.0316 170.763 21.3555C171.544 21.6603 172.202 22.2033 172.735 22.9844C173.097 23.5178 173.306 24.0703 173.364 24.6418C173.44 25.1943 173.478 25.7754 173.478 26.385V36.0726H171.763V26.4136C171.763 25.08 171.468 24.0798 170.877 23.413C170.287 22.7462 169.306 22.4128 167.934 22.4128C167.401 22.4128 166.915 22.4985 166.477 22.67C166.038 22.8224 165.638 23.032 165.276 23.2987C164.933 23.5654 164.638 23.8702 164.39 24.2132C164.143 24.5561 163.952 24.9181 163.819 25.2991C163.647 25.7754 163.543 26.2326 163.505 26.6708C163.466 27.109 163.447 27.5853 163.447 28.0996V36.0726Z" fill="#222222"/>
<path d="M155.657 36.0741V21.2712H157.371V36.0741H155.657ZM155.571 18.042V15.4987H157.457V18.042H155.571Z" fill="#222222"/>
<path d="M133.582 36.0726H131.867V21.2697H133.582V23.4987H133.639C134.077 22.6414 134.706 21.9937 135.525 21.5555C136.344 21.0983 137.24 20.8697 138.211 20.8697C138.897 20.8697 139.478 20.9459 139.955 21.0983C140.431 21.2507 140.831 21.4602 141.155 21.727C141.498 21.9746 141.774 22.2699 141.984 22.6129C142.212 22.9558 142.403 23.3273 142.555 23.7274C143.05 22.7557 143.708 22.0413 144.527 21.5841C145.365 21.1078 146.318 20.8697 147.385 20.8697C148.394 20.8697 149.194 21.0411 149.785 21.384C150.395 21.7079 150.861 22.1461 151.185 22.6986C151.509 23.232 151.719 23.8512 151.814 24.5561C151.928 25.261 151.985 25.9849 151.985 26.7279V36.0726H150.271V25.8421C150.271 24.7752 150.042 23.9369 149.585 23.3273C149.147 22.7176 148.318 22.4128 147.099 22.4128C146.47 22.4128 145.86 22.5557 145.27 22.8415C144.698 23.1082 144.193 23.5273 143.755 24.0989C143.565 24.3465 143.403 24.6418 143.269 24.9848C143.155 25.3086 143.06 25.6515 142.984 26.0135C142.908 26.3755 142.85 26.7375 142.812 27.0995C142.793 27.4614 142.784 27.7948 142.784 28.0996V36.0726H141.069V25.8421C141.069 24.7752 140.84 23.9369 140.383 23.3273C139.945 22.7176 139.116 22.4128 137.897 22.4128C137.268 22.4128 136.659 22.5557 136.068 22.8415C135.497 23.1082 134.992 23.5273 134.553 24.0989C134.363 24.3465 134.201 24.6418 134.068 24.9848C133.953 25.3086 133.858 25.6515 133.782 26.0135C133.706 26.3755 133.649 26.7375 133.61 27.0995C133.591 27.4614 133.582 27.7948 133.582 28.0996V36.0726Z" fill="#222222"/>
<path d="M126.057 28.6155C126.057 27.7773 125.943 26.9867 125.714 26.2436C125.486 25.4816 125.152 24.8243 124.714 24.2718C124.295 23.7003 123.771 23.2526 123.142 22.9287C122.533 22.5858 121.837 22.4143 121.056 22.4143C120.161 22.4143 119.389 22.5953 118.742 22.9573C118.094 23.3002 117.56 23.7765 117.141 24.3861C116.722 24.9958 116.417 25.7102 116.227 26.5294C116.036 27.3296 115.96 28.1964 115.998 29.1299C115.998 30.0634 116.122 30.8922 116.37 31.6161C116.636 32.321 116.998 32.9211 117.456 33.4165C117.913 33.9118 118.446 34.2928 119.056 34.5596C119.666 34.8072 120.332 34.9311 121.056 34.9311C121.857 34.9311 122.571 34.7691 123.2 34.4453C123.828 34.1214 124.352 33.6832 124.771 33.1307C125.191 32.5592 125.505 31.8924 125.714 31.1303C125.943 30.3492 126.057 29.511 126.057 28.6155ZM126.057 15.4987H127.772V36.0741H126.057V33.4736H126C125.753 33.969 125.429 34.4072 125.029 34.7882C124.648 35.1502 124.219 35.455 123.743 35.7026C123.285 35.9503 122.809 36.1408 122.314 36.2742C121.818 36.4075 121.333 36.4742 120.856 36.4742C119.656 36.4742 118.637 36.2742 117.799 35.8741C116.96 35.474 116.265 34.9311 115.712 34.2452C115.179 33.5403 114.788 32.7116 114.541 31.759C114.293 30.8064 114.169 29.7872 114.169 28.7013C114.169 27.6725 114.303 26.6818 114.569 25.7293C114.836 24.7767 115.236 23.948 115.77 23.2431C116.322 22.5191 117.008 21.9476 117.827 21.5284C118.665 21.0903 119.647 20.8712 120.771 20.8712C121.818 20.8712 122.819 21.1093 123.771 21.5856C124.743 22.0428 125.505 22.7287 126.057 23.6431V15.4987Z" fill="#222222"/>
<path d="M93.9357 36.0741L102.023 15.4987H104.223L112.111 36.0741H110.11L107.738 29.6157H98.3652L95.9361 36.0741H93.9357ZM99.0224 27.9583H107.081L103.052 17.1562L99.0224 27.9583Z" fill="#222222"/>
<path d="M89.5259 28.7283C89.5259 27.8329 89.4116 27.0042 89.183 26.2421C88.9734 25.461 88.6591 24.7942 88.24 24.2417C87.8208 23.6702 87.2969 23.2225 86.6682 22.8986C86.0395 22.5748 85.3251 22.4128 84.5249 22.4128C83.801 22.4128 83.1342 22.5462 82.5245 22.8129C81.9149 23.0606 81.3815 23.4321 80.9242 23.9274C80.467 24.4227 80.105 25.0324 79.8383 25.7563C79.5906 26.4612 79.4668 27.2804 79.4668 28.214C79.4287 29.1475 79.5049 30.0238 79.6954 30.843C79.8859 31.6432 80.1908 32.3481 80.6099 32.9577C81.029 33.5674 81.5625 34.0532 82.2102 34.4152C82.8579 34.7581 83.6295 34.9296 84.5249 34.9296C85.306 34.9296 86.0014 34.7676 86.6111 34.4437C87.2398 34.1008 87.7637 33.6531 88.1828 33.1006C88.621 32.5291 88.9544 31.8718 89.183 31.1288C89.4116 30.3668 89.5259 29.5666 89.5259 28.7283ZM89.5259 21.2697H91.2405V34.6438C91.2405 35.6345 91.1358 36.5775 90.9262 37.4729C90.7357 38.3874 90.3832 39.1875 89.8688 39.8734C89.3545 40.5592 88.6496 41.1022 87.7541 41.5023C86.8587 41.9214 85.7061 42.131 84.2963 42.131C83.2104 42.131 82.2769 41.9881 81.4958 41.7023C80.7147 41.4356 80.0765 41.0927 79.5811 40.6735C79.0858 40.2544 78.7048 39.7877 78.438 39.2733C78.1904 38.7779 78.057 38.3112 78.038 37.873H79.8669C80.0002 38.4255 80.2098 38.8732 80.4956 39.2161C80.7814 39.5781 81.1147 39.8543 81.4958 40.0448C81.8959 40.2544 82.334 40.3973 82.8103 40.4735C83.2866 40.5497 83.7819 40.5878 84.2963 40.5878C85.4585 40.5878 86.392 40.3878 87.0969 39.9877C87.8018 39.5876 88.3352 39.0637 88.6972 38.416C89.0592 37.7682 89.2878 37.0347 89.383 36.2155C89.4973 35.3963 89.545 34.5581 89.5259 33.7007C88.9734 34.6152 88.2114 35.3106 87.2398 35.7869C86.2872 36.2441 85.287 36.4727 84.2392 36.4727C83.1151 36.4727 82.134 36.2632 81.2957 35.844C80.4765 35.4058 79.7907 34.8343 79.2382 34.1294C78.7048 33.4054 78.3047 32.5672 78.038 31.6146C77.7712 30.6621 77.6379 29.6714 77.6379 28.6426C77.6379 27.5567 77.7617 26.5374 78.0094 25.5849C78.257 24.6323 78.6476 23.8131 79.181 23.1272C79.7335 22.4223 80.4289 21.8699 81.2672 21.4698C82.1054 21.0697 83.1247 20.8697 84.3249 20.8697C84.8012 20.8697 85.287 20.9363 85.7823 21.0697C86.2777 21.2031 86.7539 21.3936 87.2112 21.6412C87.6875 21.8889 88.1161 22.2033 88.4971 22.5843C88.8972 22.9653 89.2211 23.394 89.4688 23.8702H89.5259V21.2697Z" fill="#222222"/>
<path d="M62.5412 28.7283C62.5412 29.5666 62.6555 30.3668 62.8841 31.1288C63.1127 31.8718 63.4366 32.5291 63.8557 33.1006C64.2939 33.6531 64.8178 34.1008 65.4274 34.4437C66.0561 34.7676 66.761 34.9296 67.5421 34.9296C68.4185 34.9296 69.1806 34.7581 69.8283 34.4152C70.4951 34.0532 71.0381 33.5674 71.4572 32.9577C71.8763 32.3481 72.1811 31.6432 72.3717 30.843C72.5622 30.0238 72.6384 29.1475 72.6003 28.214C72.6003 27.2804 72.4669 26.4612 72.2002 25.7563C71.9525 25.0324 71.6001 24.4227 71.1428 23.9274C70.6856 23.4321 70.1522 23.0606 69.5425 22.8129C68.9329 22.5462 68.2661 22.4128 67.5421 22.4128C66.742 22.4128 66.0276 22.5748 65.3989 22.8986C64.7702 23.2225 64.2463 23.6702 63.8271 24.2417C63.408 24.7942 63.0841 25.461 62.8555 26.2421C62.6459 27.0042 62.5412 27.8329 62.5412 28.7283ZM62.5412 41.9023H60.8265V21.2697H62.5412V23.8702H62.5983C62.846 23.394 63.1603 22.9653 63.5414 22.5843C63.9414 22.2033 64.3701 21.8889 64.8273 21.6412C65.3036 21.3936 65.7894 21.2031 66.2847 21.0697C66.7801 20.9363 67.2659 20.8697 67.7422 20.8697C68.9424 20.8697 69.9617 21.0697 70.7999 21.4698C71.6382 21.8699 72.324 22.4223 72.8575 23.1272C73.41 23.8131 73.81 24.6323 74.0577 25.5849C74.3054 26.5374 74.4292 27.5567 74.4292 28.6426C74.4292 29.6714 74.2958 30.6621 74.0291 31.6146C73.7624 32.5672 73.3528 33.4054 72.8003 34.1294C72.2669 34.8343 71.581 35.4058 70.7428 35.844C69.9236 36.2632 68.9519 36.4727 67.8279 36.4727C66.7801 36.4727 65.7704 36.2441 64.7987 35.7869C63.8462 35.3106 63.0936 34.6152 62.5412 33.7007V41.9023Z" fill="#222222"/>
</svg>
