<svg width="174" height="51" viewBox="0 0 174 51" fill="none" xmlns="http://www.w3.org/2000/svg">
<path d="M37.3041 36.7531C37.6143 34.1158 37.5245 33.7321 39.4841 34.1566L39.9821 34.2056C41.5683 34.2631 43.1487 33.9849 44.6198 33.3891C47.1101 32.2297 48.5961 30.3028 46.1384 30.809C40.521 31.9685 40.1373 30.0661 40.1373 30.0661C46.065 21.2725 48.5226 10.1111 46.3997 7.39222C40.57 -0.0704613 30.4701 3.4486 30.3068 3.54658H30.2496C29.0189 3.29383 27.7664 3.16255 26.5101 3.15466C24.3887 3.0518 22.2962 3.68013 20.5824 4.93462C20.5824 4.93462 2.57073 -2.47908 3.4362 14.2671C3.61583 17.8269 8.5474 41.2111 14.4261 34.1648C16.5735 31.5766 18.6718 29.3965 18.6718 29.3965C19.7128 30.1002 20.9635 30.4258 22.2154 30.3192L22.3134 30.2293C22.2819 30.5644 22.2957 30.9022 22.3542 31.2336C20.8437 32.9319 21.2846 33.2258 18.2718 33.8464C15.2589 34.4669 17.0062 35.6018 18.1819 35.8958C19.4319 36.2992 20.7774 36.2977 22.0265 35.8916C23.2756 35.4855 24.3647 34.6955 25.1384 33.6341L25.0486 33.9934C25.6446 34.4669 25.6038 37.4144 25.6855 39.5128C25.6692 41.2738 25.8916 43.0289 26.3468 44.7302C26.7714 45.8814 27.2776 48.8616 31.2457 47.9961C34.5607 47.2776 37.0918 46.2733 37.3367 36.7123" fill="#222222"/>
<path d="M37.3041 36.7531C37.6143 34.1158 37.5245 33.7321 39.4841 34.1566L39.9821 34.2056C41.5683 34.2631 43.1487 33.9849 44.6198 33.3891C47.1101 32.2297 48.5961 30.3028 46.1384 30.809C40.521 31.9685 40.1373 30.0661 40.1373 30.0661C46.065 21.2725 48.5226 10.1111 46.3997 7.39222C40.57 -0.0704612 30.4701 3.4486 30.3068 3.54658H30.2496C29.0189 3.29383 27.7664 3.16255 26.5101 3.15466C24.3887 3.0518 22.2962 3.68013 20.5824 4.93462C20.5824 4.93462 2.57073 -2.47908 3.4362 14.2671C3.61583 17.8269 8.5474 41.2111 14.4261 34.1648C16.5735 31.5766 18.6718 29.3965 18.6718 29.3965C19.7128 30.1002 20.9635 30.4258 22.2154 30.3192L22.3134 30.2294C22.2819 30.5644 22.2957 30.9022 22.3542 31.2336C20.8437 32.9319 21.2846 33.2258 18.2718 33.8464C15.2589 34.4669 17.0062 35.6018 18.1819 35.8958C19.4319 36.2992 20.7774 36.2977 22.0265 35.8916C23.2756 35.4855 24.3647 34.6955 25.1384 33.6341L25.0486 33.9934C25.6446 34.4669 25.6038 37.4144 25.6855 39.5128C25.6692 41.2738 25.8916 43.0289 26.3468 44.7302C26.7714 45.8814 27.2776 48.8616 31.2457 47.9961C34.5607 47.2776 37.0918 46.2733 37.3367 36.7123" stroke="#222222" stroke-width="5.11"/>
<path d="M46.1384 30.8403C40.521 31.9997 40.1373 30.0973 40.1373 30.0973C46.065 21.3037 48.5226 10.1424 46.3997 7.42347C40.57 -0.0392115 30.4701 3.47985 30.3068 3.57783H30.2496C29.0189 3.32508 27.7664 3.1938 26.5101 3.18591C24.3887 3.08305 22.2962 3.71135 20.5824 4.96584C20.5824 4.96584 2.57073 -2.44786 3.4362 14.2983C3.61583 17.8582 8.5474 41.2424 14.4261 34.1961C16.5735 31.6078 18.6718 29.4278 18.6718 29.4278C19.7128 30.1314 20.9635 30.457 22.2154 30.3504L22.3134 30.2606C22.2862 30.5931 22.3 30.9276 22.3542 31.2567C20.8437 32.9468 21.2846 33.2489 18.2718 33.8695C15.2589 34.49 17.0062 35.6249 18.1819 35.9107C19.4323 36.3155 20.7785 36.3157 22.029 35.9111C23.2794 35.5065 24.3704 34.7178 25.1466 33.6572L25.0568 34.0083C25.6446 34.49 26.061 37.1028 25.9957 39.4787C25.9304 41.8547 25.8814 43.4795 26.3468 44.7451C26.8122 46.0106 27.2776 48.8847 31.2457 48.011C34.5525 47.3007 36.2671 45.4799 36.5121 42.3773C36.6754 40.1809 37.0836 40.5157 37.0836 38.5479L37.3939 37.6253C37.745 34.6533 37.451 33.698 39.5004 34.1389L39.9985 34.1879C41.5846 34.2454 43.165 33.9672 44.6361 33.3714C47.1264 32.212 48.6124 30.2851 46.1548 30.7913L46.1384 30.8403Z" fill="#336791"/>
<path d="M25.3273 32.5391C25.1721 38.0667 25.3273 43.6352 25.8988 44.9824C26.4703 46.3296 27.5971 48.9668 31.6142 48.1095C34.9373 47.3992 36.1539 46.0193 36.6764 42.9738C37.0602 40.7367 37.8113 34.515 37.9011 33.2331M20.5835 4.8439C20.5835 4.8439 2.57179 -2.50448 3.38827 14.2335C3.5679 17.7934 8.49947 41.1776 14.3782 34.1231C16.5255 31.543 18.4606 29.5099 18.4606 29.5099M30.3078 3.50488C29.6873 3.69267 40.3343 -0.389778 46.3926 7.34235C48.5236 10.0694 46.0497 21.2226 40.122 30.0325" stroke="white" stroke-width="1.7" stroke-linecap="round" stroke-linejoin="round"/>
<path d="M40.099 30.032C40.099 30.032 40.4828 31.9262 46.1002 30.7668C48.5497 30.2606 47.08 32.1957 44.5816 33.3551C42.5322 34.3022 37.9435 34.5471 37.87 33.2326C37.6823 29.8442 40.3195 30.873 40.099 30.032ZM40.099 30.032C39.8786 29.191 38.7682 28.5133 37.9925 26.6436C37.323 25.0106 28.7499 12.4857 40.3685 14.3963C40.7767 14.3065 37.3393 3.34106 26.4882 3.16959C15.6371 2.99813 15.9637 16.4538 15.9637 16.4538" stroke="white" stroke-width="1.7" stroke-linecap="round" stroke-linejoin="bevel"/>
<path d="M22.2823 31.1522C20.7718 32.8423 21.2127 33.1444 18.1999 33.765C15.1871 34.3855 16.9343 35.5204 18.1101 35.8143C19.3601 36.2177 20.7055 36.2163 21.9546 35.8102C23.2037 35.4041 24.2928 34.614 25.0665 33.5527C25.198 33.3043 25.2783 33.032 25.3026 32.752C25.3268 32.472 25.2946 32.19 25.2078 31.9227C25.121 31.6554 24.9813 31.4083 24.7972 31.196C24.613 30.9837 24.3881 30.8105 24.1358 30.6868C23.8303 30.518 23.4724 30.4705 23.1335 30.5537C22.7945 30.6369 22.4994 30.8448 22.3068 31.1359L22.2823 31.1522Z" stroke="white" stroke-width="1.7" stroke-linecap="round" stroke-linejoin="round"/>
<path d="M22.1836 31.1507C22.0285 30.1545 22.5102 28.9706 23.0001 27.5826C23.7758 25.5006 25.572 23.4185 24.1269 16.8213C23.0654 11.9224 15.962 15.8007 15.962 16.4702C16.1324 18.6464 16.0914 20.8339 15.8395 23.0021C15.2598 27.0845 18.4604 30.6036 22.1428 30.2444" stroke="white" stroke-width="1.7" stroke-linecap="round" stroke-linejoin="round"/>
<path d="M20.4852 16.3885C20.4852 16.6172 20.8935 17.205 21.4895 17.303C21.7165 17.3307 21.9464 17.2856 22.146 17.174C22.3456 17.0625 22.5046 16.8903 22.5999 16.6825C22.5999 16.4539 22.1917 16.2007 21.6038 16.1191C21.0159 16.0374 20.5179 16.1599 20.4852 16.3885Z" fill="white" stroke="white" stroke-width="0.57"/>
<path d="M38.2936 15.9224C38.2936 16.151 37.8771 16.7388 37.2893 16.8368C37.061 16.8664 36.8293 16.8221 36.628 16.7104C36.4267 16.5988 36.2664 16.4256 36.1707 16.2163C36.1707 15.9877 36.5789 15.7427 37.175 15.6611C37.771 15.5794 38.2936 15.6937 38.2936 15.9224Z" fill="white" stroke="white" stroke-width="0.29"/>
<path d="M40.3655 14.3477C40.4635 16.1358 39.9818 17.3523 39.9246 19.2466C39.8348 22.0063 41.2392 25.1661 39.1081 28.3259" stroke="white" stroke-width="1.7" stroke-linecap="round" stroke-linejoin="round"/>
<path d="M163.332 35.2323H161.617V20.4294H163.332V22.4869C164.018 21.763 164.722 21.1724 165.446 20.7151C166.189 20.2579 167.075 20.0293 168.104 20.0293C169.019 20.0293 169.866 20.1912 170.647 20.5151C171.429 20.8199 172.086 21.3629 172.619 22.144C172.981 22.6774 173.191 23.2299 173.248 23.8015C173.324 24.354 173.362 24.935 173.362 25.5447V35.2323H171.648V25.5732C171.648 24.2396 171.352 23.2394 170.762 22.5727C170.171 21.9059 169.19 21.5725 167.818 21.5725C167.285 21.5725 166.799 21.6582 166.361 21.8296C165.923 21.9821 165.523 22.1916 165.161 22.4583C164.818 22.7251 164.522 23.0299 164.275 23.3728C164.027 23.7157 163.837 24.0777 163.703 24.4587C163.532 24.935 163.427 25.3923 163.389 25.8304C163.351 26.2686 163.332 26.7449 163.332 27.2593V35.2323Z" fill="#222222"/>
<path d="M155.541 35.2337V20.4308H157.256V35.2337H155.541ZM155.455 17.2016V14.6582H157.341V17.2016H155.455Z" fill="#222222"/>
<path d="M133.466 35.2323H131.752V20.4294H133.466V22.6584H133.523C133.962 21.8011 134.59 21.1533 135.409 20.7151C136.229 20.2579 137.124 20.0293 138.096 20.0293C138.782 20.0293 139.363 20.1055 139.839 20.2579C140.315 20.4103 140.715 20.6199 141.039 20.8866C141.382 21.1343 141.658 21.4296 141.868 21.7725C142.096 22.1154 142.287 22.4869 142.439 22.887C142.935 21.9154 143.592 21.201 144.411 20.7437C145.249 20.2674 146.202 20.0293 147.269 20.0293C148.279 20.0293 149.079 20.2008 149.669 20.5437C150.279 20.8676 150.746 21.3057 151.07 21.8582C151.394 22.3917 151.603 23.0108 151.698 23.7157C151.813 24.4206 151.87 25.1446 151.87 25.8876V35.2323H150.155V25.0017C150.155 23.9348 149.927 23.0966 149.469 22.4869C149.031 21.8773 148.202 21.5725 146.983 21.5725C146.354 21.5725 145.745 21.7153 145.154 22.0011C144.583 22.2678 144.078 22.687 143.64 23.2585C143.449 23.5062 143.287 23.8015 143.154 24.1444C143.039 24.4683 142.944 24.8112 142.868 25.1732C142.792 25.5351 142.735 25.8971 142.697 26.2591C142.678 26.6211 142.668 26.9545 142.668 27.2593V35.2323H140.953V25.0017C140.953 23.9348 140.725 23.0966 140.268 22.4869C139.829 21.8773 139.001 21.5725 137.781 21.5725C137.153 21.5725 136.543 21.7153 135.952 22.0011C135.381 22.2678 134.876 22.687 134.438 23.2585C134.247 23.5062 134.085 23.8015 133.952 24.1444C133.838 24.4683 133.742 24.8112 133.666 25.1732C133.59 25.5351 133.533 25.8971 133.495 26.2591C133.476 26.6211 133.466 26.9545 133.466 27.2593V35.2323Z" fill="#222222"/>
<path d="M125.942 27.7751C125.942 26.9368 125.827 26.1462 125.599 25.4032C125.37 24.6411 125.037 23.9838 124.599 23.4313C124.179 22.8598 123.655 22.4121 123.027 22.0882C122.417 21.7453 121.722 21.5738 120.941 21.5738C120.045 21.5738 119.274 21.7548 118.626 22.1168C117.978 22.4597 117.445 22.936 117.026 23.5457C116.606 24.1553 116.302 24.8697 116.111 25.6889C115.921 26.4891 115.844 27.3559 115.883 28.2894C115.883 29.223 116.006 30.0517 116.254 30.7756C116.521 31.4805 116.883 32.0807 117.34 32.576C117.797 33.0713 118.331 33.4524 118.94 33.7191C119.55 33.9667 120.217 34.0906 120.941 34.0906C121.741 34.0906 122.455 33.9286 123.084 33.6048C123.713 33.2809 124.237 32.8427 124.656 32.2902C125.075 31.7187 125.389 31.0519 125.599 30.2898C125.827 29.5087 125.942 28.6705 125.942 27.7751ZM125.942 14.6582H127.656V35.2337H125.942V32.6332H125.884C125.637 33.1285 125.313 33.5667 124.913 33.9477C124.532 34.3097 124.103 34.6145 123.627 34.8622C123.17 35.1098 122.693 35.3003 122.198 35.4337C121.703 35.5671 121.217 35.6337 120.741 35.6337C119.54 35.6337 118.521 35.4337 117.683 35.0336C116.845 34.6335 116.149 34.0906 115.597 33.4047C115.063 32.6998 114.673 31.8711 114.425 30.9185C114.177 29.966 114.054 28.9467 114.054 27.8608C114.054 26.832 114.187 25.8413 114.454 24.8888C114.72 23.9362 115.12 23.1075 115.654 22.4026C116.206 21.6786 116.892 21.1071 117.711 20.688C118.55 20.2498 119.531 20.0307 120.655 20.0307C121.703 20.0307 122.703 20.2688 123.655 20.7451C124.627 21.2023 125.389 21.8882 125.942 22.8027V14.6582Z" fill="#222222"/>
<path d="M93.82 35.2337L101.907 14.6582H104.108L111.995 35.2337H109.995L107.623 28.7753H98.2495L95.8204 35.2337H93.82ZM98.9067 27.1178H106.965L102.936 16.3157L98.9067 27.1178Z" fill="#222222"/>
<path d="M89.4102 27.888C89.4102 26.9926 89.2959 26.1638 89.0673 25.4018C88.8578 24.6207 88.5434 23.9539 88.1243 23.4014C87.7051 22.8298 87.1812 22.3821 86.5525 22.0583C85.9238 21.7344 85.2094 21.5725 84.4093 21.5725C83.6853 21.5725 83.0185 21.7058 82.4089 21.9725C81.7992 22.2202 81.2658 22.5917 80.8086 23.087C80.3513 23.5824 79.9894 24.192 79.7226 24.916C79.475 25.6209 79.3511 26.4401 79.3511 27.3736C79.313 28.3071 79.3892 29.1835 79.5797 30.0027C79.7703 30.8028 80.0751 31.5077 80.4942 32.1174C80.9133 32.727 81.4468 33.2128 82.0945 33.5748C82.7423 33.9177 83.5138 34.0892 84.4093 34.0892C85.1904 34.0892 85.8857 33.9273 86.4954 33.6034C87.1241 33.2605 87.648 32.8128 88.0671 32.2603C88.5053 31.6887 88.8387 31.0315 89.0673 30.2884C89.2959 29.5264 89.4102 28.7262 89.4102 27.888ZM89.4102 20.4294H91.1249V33.8034C91.1249 34.7941 91.0201 35.7371 90.8105 36.6325C90.62 37.547 90.2676 38.3472 89.7532 39.033C89.2388 39.7189 88.5339 40.2618 87.6385 40.6619C86.7431 41.081 85.5904 41.2906 84.1806 41.2906C83.0947 41.2906 82.1612 41.1477 81.3801 40.8619C80.599 40.5952 79.9608 40.2523 79.4654 39.8332C78.9701 39.414 78.5891 38.9473 78.3224 38.4329C78.0747 37.9376 77.9413 37.4708 77.9223 37.0326H79.7512C79.8846 37.5851 80.0941 38.0328 80.3799 38.3757C80.6657 38.7377 80.9991 39.014 81.3801 39.2045C81.7802 39.414 82.2184 39.5569 82.6946 39.6331C83.1709 39.7093 83.6663 39.7474 84.1806 39.7474C85.3428 39.7474 86.2763 39.5474 86.9812 39.1473C87.6861 38.7472 88.2195 38.2233 88.5815 37.5756C88.9435 36.9278 89.1721 36.1944 89.2674 35.3752C89.3817 34.5559 89.4293 33.7177 89.4102 32.8604C88.8578 33.7748 88.0957 34.4702 87.1241 34.9465C86.1715 35.4037 85.1713 35.6324 84.1235 35.6324C82.9995 35.6324 82.0183 35.4228 81.1801 35.0037C80.3609 34.5655 79.675 33.9939 79.1225 33.289C78.5891 32.5651 78.189 31.7268 77.9223 30.7743C77.6556 29.8217 77.5222 28.831 77.5222 27.8022C77.5222 26.7163 77.646 25.6971 77.8937 24.7445C78.1414 23.7919 78.5319 22.9727 79.0654 22.2869C79.6178 21.582 80.3132 21.0295 81.1515 20.6294C81.9897 20.2293 83.009 20.0293 84.2092 20.0293C84.6855 20.0293 85.1713 20.096 85.6667 20.2293C86.162 20.3627 86.6383 20.5532 87.0955 20.8009C87.5718 21.0485 88.0004 21.3629 88.3815 21.7439C88.7815 22.1249 89.1054 22.5536 89.3531 23.0299H89.4102V20.4294Z" fill="#222222"/>
<path d="M62.4255 27.888C62.4255 28.7262 62.5398 29.5264 62.7684 30.2884C62.997 31.0315 63.3209 31.6887 63.74 32.2603C64.1782 32.8128 64.7021 33.2605 65.3118 33.6034C65.9405 33.9273 66.6454 34.0892 67.4265 34.0892C68.3028 34.0892 69.0649 33.9177 69.7126 33.5748C70.3794 33.2128 70.9224 32.727 71.3415 32.1174C71.7607 31.5077 72.0655 30.8028 72.256 30.0027C72.4465 29.1835 72.5227 28.3071 72.4846 27.3736C72.4846 26.4401 72.3513 25.6209 72.0845 24.916C71.8369 24.192 71.4844 23.5824 71.0272 23.087C70.57 22.5917 70.0365 22.2202 69.4269 21.9725C68.8172 21.7058 68.1504 21.5725 67.4265 21.5725C66.6263 21.5725 65.9119 21.7344 65.2832 22.0583C64.6545 22.3821 64.1306 22.8298 63.7115 23.4014C63.2923 23.9539 62.9685 24.6207 62.7398 25.4018C62.5303 26.1638 62.4255 26.9926 62.4255 27.888ZM62.4255 41.062H60.7109V20.4294H62.4255V23.0299H62.4827C62.7303 22.5536 63.0447 22.1249 63.4257 21.7439C63.8258 21.3629 64.2544 21.0485 64.7117 20.8009C65.1879 20.5532 65.6738 20.3627 66.1691 20.2293C66.6644 20.096 67.1502 20.0293 67.6265 20.0293C68.8268 20.0293 69.846 20.2293 70.6843 20.6294C71.5225 21.0295 72.2084 21.582 72.7418 22.2869C73.2943 22.9727 73.6944 23.7919 73.942 24.7445C74.1897 25.6971 74.3135 26.7163 74.3135 27.8022C74.3135 28.831 74.1802 29.8217 73.9135 30.7743C73.6467 31.7268 73.2371 32.5651 72.6846 33.289C72.1512 33.9939 71.4654 34.5655 70.6271 35.0037C69.8079 35.4228 68.8363 35.6324 67.7122 35.6324C66.6644 35.6324 65.6547 35.4037 64.6831 34.9465C63.7305 34.4702 62.978 33.7748 62.4255 32.8604V41.062Z" fill="#222222"/>
</svg>
