<svg width="171" height="56" viewBox="0 0 171 56" fill="none" xmlns="http://www.w3.org/2000/svg">
<g clip-path="url(#clip0_1_187)">
<path d="M57.6412 36.1727L61.9626 28.6882L66.2837 36.1727H57.6412Z" fill="#9E005D"/>
<path d="M57.6413 36.1727L53.3203 28.6882H61.9626L57.6413 36.1727Z" fill="#C1272D"/>
<path d="M53.3203 28.6882L48.9991 21.2038H57.6413L53.3203 28.6882Z" fill="#F15A24"/>
<path d="M61.9626 43.6567L57.6412 36.1727H66.2837L61.9626 43.6567Z" fill="#662D91"/>
<path d="M81.2524 17.1866L79.2507 13.7195L74.9296 21.2038H78.6438C79.3891 19.793 80.2614 18.4476 81.2524 17.1866Z" fill="#1B1464"/>
<path d="M53.3208 28.6882L57.6412 21.2038L61.9626 28.6882H53.3208Z" fill="#ED1C24"/>
<path d="M48.9996 21.2038L53.3202 13.7195L57.6412 21.2038H48.9996Z" fill="#FBB03B"/>
<path d="M74.9295 21.2038L70.6084 13.7195H79.2505L74.9295 21.2038Z" fill="#2E3192"/>
<path d="M70.6084 28.6882L66.2871 21.2038H74.9289L70.6084 28.6882Z" fill="#22B573"/>
<path d="M66.2837 36.1727L61.9625 28.6882H70.6048L66.2837 36.1727Z" fill="#39B54A"/>
<path d="M61.9633 28.6882L66.2844 21.2038L70.6054 28.6882H61.9633Z" fill="#009245"/>
<path d="M66.2878 21.2038L70.6084 13.7195L74.9296 21.2038H66.2878Z" fill="#0071BC"/>
<path d="M47.6819 13.7396V18.9232L48.9991 21.2137L53.3203 13.7396H47.6819Z" fill="#FBB03B"/>
<path d="M4.51092 23.8022C4.51092 19.8798 4.38842 16.5092 4.26575 13.7513H12.3555L12.7845 17.9188H12.907C15.1133 14.732 18.5453 13.077 22.8965 13.077C29.4542 13.077 35.3376 18.7767 35.3376 28.337C35.3376 39.2463 28.4122 44.3941 21.732 44.3941C18.1161 44.3941 15.297 42.9233 13.9486 40.9623H13.8259V55.8547H4.51092V23.8022ZM13.8263 30.8501C13.8263 31.5854 13.8876 32.2594 14.0101 32.8111C14.623 35.3241 16.768 37.224 19.4647 37.224C23.5095 37.224 25.8997 33.8529 25.8997 28.7662C25.8997 23.9862 23.7547 20.3702 19.5872 20.3702C16.952 20.3702 14.623 22.3314 14.0101 25.0892C13.8876 25.5794 13.8263 26.1924 13.8263 26.7441V30.8501Z" fill="#4D4D4D"/>
<path d="M102.855 36.4874C100.664 37.0866 98.3722 37.4078 95.6234 37.4078C91.272 37.4078 87.4722 35.5695 87.1657 31.7083H101.774C101.7 30.9948 101.661 30.272 101.661 29.5414C101.661 25.7209 102.708 22.1079 104.526 18.9779C102.476 15.5147 98.9192 13.077 93.4169 13.077C82.9983 13.077 78.2793 21.4732 78.2793 29.0725C78.2793 38.4494 84.1015 44.3332 94.2749 44.3332C98.3197 44.3332 102.058 43.7203 105.123 42.4945L104.723 40.435C103.971 39.1925 103.343 37.8706 102.855 36.4874ZM92.8656 19.267C97.1554 19.267 98.1361 23.0667 98.1361 25.3344H87.1045C87.3497 22.8217 88.9434 19.267 92.8656 19.267Z" fill="#4D4D4D"/>
<path d="M133.62 13.7513C133.191 18.4703 132.762 26.9279 132.762 33.3016C132.762 36.6723 133.927 37.5303 135.582 37.4076L135.03 43.904C134.54 44.1491 133.069 44.3941 131.782 44.3941C128.288 44.3941 126.144 42.5558 125.286 38.9398H125.163C123.018 42.5556 119.525 44.3941 115.541 44.3941C108.616 44.3941 103.039 38.5719 103.039 29.3792C103.039 19.267 109.903 13.077 116.644 13.077C120.137 13.077 123.14 14.548 124.856 17.6735H125.102C125.285 16.2027 125.531 14.9157 125.837 13.7511L133.62 13.7513ZM118.115 37.0401C120.811 37.0401 122.957 34.4046 123.569 31.4629C123.692 30.4211 123.753 29.5631 123.753 28.4597C123.753 27.4794 123.753 26.6825 123.63 25.9472C123.079 22.515 120.995 20.1862 118.36 20.1862C114.744 20.1862 112.477 24.17 112.477 28.8887C112.477 33.5466 114.806 37.0401 118.115 37.0401Z" fill="#4D4D4D"/>
<path d="M164.62 34.0981C164.62 38.0208 164.743 41.2073 164.866 43.7203H156.776L156.347 39.4916H156.163C154.998 41.33 152.179 44.3943 146.786 44.3943C140.719 44.3943 136.245 40.5946 136.245 31.3404V13.7515H145.622V29.8697C145.622 34.2211 147.031 36.8566 150.279 36.8566C152.853 36.8566 154.324 35.0791 154.937 33.6083C155.182 33.0566 155.243 32.3213 155.243 31.5858V13.7513H164.62V34.0981H164.62Z" fill="#4D4D4D"/>
<path d="M41.6506 15.4885C40.0092 15.4885 38.4689 14.9808 37.1786 14.1179V43.7203H46.494V13.9201C46.4513 13.9301 46.408 13.9386 46.3653 13.9482C45.0275 14.9137 43.3965 15.4885 41.6506 15.4885Z" fill="#4D4D4D"/>
<path d="M46.7704 9.44302C46.7704 12.0172 44.8092 14.1011 41.7449 14.1011C38.8032 14.1011 36.8422 12.017 36.9034 9.44302C36.8422 6.74652 38.8032 4.724 41.8064 4.724C44.8092 4.724 46.7091 6.74652 46.7704 9.44302Z" fill="#4D4D4D"/>
</g>
<defs>
<clipPath id="clip0_1_187">
<rect width="170" height="55.0927" fill="white" transform="translate(0.478027 0.729614)"/>
</clipPath>
</defs>
</svg>
