<svg width="171" height="56" viewBox="0 0 171 56" fill="none" xmlns="http://www.w3.org/2000/svg">
<g clip-path="url(#clip0_81_940)">
<path d="M57.5255 36.3321L61.8468 28.8477L66.1679 36.3321H57.5255Z" fill="#9E005D"/>
<path d="M57.5255 36.3321L53.2045 28.8477H61.8468L57.5255 36.3321Z" fill="#C1272D"/>
<path d="M53.2045 28.8478L48.8834 21.3633H57.5255L53.2045 28.8478Z" fill="#F15A24"/>
<path d="M61.8468 43.816L57.5255 36.332H66.1679L61.8468 43.816Z" fill="#662D91"/>
<path d="M81.1367 17.346L79.135 13.8789L74.8138 21.3632H78.5281C79.2734 19.9524 80.1457 18.607 81.1367 17.346Z" fill="#1B1464"/>
<path d="M53.205 28.8478L57.5255 21.3633L61.8468 28.8478H53.205Z" fill="#ED1C24"/>
<path d="M48.8839 21.3632L53.2045 13.8789L57.5255 21.3632H48.8839Z" fill="#FBB03B"/>
<path d="M74.8138 21.3632L70.4927 13.8789H79.1348L74.8138 21.3632Z" fill="#2E3192"/>
<path d="M70.4927 28.8478L66.1714 21.3633H74.8131L70.4927 28.8478Z" fill="#22B573"/>
<path d="M66.1679 36.3321L61.8468 28.8477H70.4891L66.1679 36.3321Z" fill="#39B54A"/>
<path d="M61.8475 28.8478L66.1686 21.3633L70.4896 28.8478H61.8475Z" fill="#009245"/>
<path d="M66.1721 21.3632L70.4927 13.8789L74.8138 21.3632H66.1721Z" fill="#0071BC"/>
<path d="M47.5661 13.8984V19.0821L48.8834 21.3726L53.2045 13.8984H47.5661Z" fill="#FBB03B"/>
<path d="M4.39522 23.9616C4.39522 20.0392 4.27273 16.6685 4.15005 13.9107H12.2398L12.6688 18.0782H12.7913C14.9976 14.8914 18.4296 13.2363 22.7808 13.2363C29.3385 13.2363 35.2219 18.936 35.2219 28.4964C35.2219 39.4057 28.2965 44.5535 21.6163 44.5535C18.0004 44.5535 15.1813 43.0827 13.8329 41.1217H13.7102V56.0141H4.39522V23.9616ZM13.7106 31.0094C13.7106 31.7448 13.7719 32.4188 13.8944 32.9704C14.5073 35.4835 16.6523 37.3833 19.349 37.3833C23.3938 37.3833 25.784 34.0123 25.784 28.9256C25.784 24.1456 23.639 20.5296 19.4715 20.5296C16.8363 20.5296 14.5073 22.4907 13.8944 25.2486C13.7719 25.7387 13.7106 26.3518 13.7106 26.9034V31.0094Z" fill="#4D4D4D"/>
<path d="M102.739 36.6467C100.548 37.246 98.2564 37.5671 95.5076 37.5671C91.1563 37.5671 87.3564 35.7288 87.0499 31.8676H101.659C101.584 31.1542 101.546 30.4313 101.546 29.7007C101.546 25.8802 102.592 22.2673 104.41 19.1372C102.36 15.6741 98.8034 13.2363 93.3011 13.2363C82.8826 13.2363 78.1635 21.6325 78.1635 29.2319C78.1635 38.6088 83.9857 44.4925 94.1591 44.4925C98.204 44.4925 101.943 43.8797 105.007 42.6538L104.607 40.5944C103.856 39.3519 103.227 38.03 102.739 36.6467ZM92.7498 19.4264C97.0396 19.4264 98.0203 23.2261 98.0203 25.4937H86.9888C87.2339 22.9811 88.8276 19.4264 92.7498 19.4264Z" fill="#4D4D4D"/>
<path d="M133.505 13.9107C133.076 18.6297 132.647 27.0873 132.647 33.461C132.647 36.8316 133.811 37.6896 135.466 37.567L134.914 44.0633C134.424 44.3085 132.953 44.5535 131.666 44.5535C128.173 44.5535 126.028 42.7152 125.17 39.0991H125.047C122.902 42.715 119.409 44.5535 115.425 44.5535C108.5 44.5535 102.923 38.7313 102.923 29.5386C102.923 19.4264 109.787 13.2363 116.528 13.2363C120.022 13.2363 123.025 14.7073 124.741 17.8329H124.986C125.17 16.362 125.415 15.075 125.721 13.9105L133.505 13.9107ZM117.999 37.1995C120.696 37.1995 122.841 34.5639 123.454 31.6223C123.576 30.5804 123.637 29.7224 123.637 28.6191C123.637 27.6388 123.637 26.8419 123.515 26.1066C122.963 22.6744 120.88 20.3455 118.244 20.3455C114.628 20.3455 112.361 24.3294 112.361 29.0481C112.361 33.7059 114.69 37.1995 117.999 37.1995Z" fill="#4D4D4D"/>
<path d="M164.505 34.2569C164.505 38.1796 164.628 41.3661 164.75 43.8792H156.66L156.231 39.6505H156.047C154.883 41.4888 152.063 44.5532 146.67 44.5532C140.603 44.5532 136.129 40.7535 136.129 31.4993V13.9103H145.506V30.0286C145.506 34.38 146.916 37.0155 150.164 37.0155C152.738 37.0155 154.208 35.238 154.821 33.7671C155.066 33.2154 155.128 32.4801 155.128 31.7446V13.9102H164.504V34.2569H164.505Z" fill="#4D4D4D"/>
<path d="M41.5349 15.6465C39.8935 15.6465 38.3532 15.1388 37.0629 14.2759V43.8783H46.3783V14.0781C46.3356 14.0881 46.2923 14.0966 46.2496 14.1062C44.9118 15.0717 43.2808 15.6465 41.5349 15.6465Z" fill="#4D4D4D"/>
<path d="M46.6548 9.60184C46.6548 12.176 44.6936 14.2599 41.6292 14.2599C38.6875 14.2599 36.7265 12.1759 36.7877 9.60184C36.7265 6.90533 38.6875 4.88281 41.6907 4.88281C44.6936 4.88281 46.5934 6.90533 46.6548 9.60184Z" fill="#4D4D4D"/>
</g>
<defs>
<clipPath id="clip0_81_940">
<rect width="170" height="55.0927" fill="white" transform="translate(0.362305 0.888672)"/>
</clipPath>
</defs>
</svg>
