<svg width="241" height="41" viewBox="0 0 241 41" fill="none" xmlns="http://www.w3.org/2000/svg">
<g clip-path="url(#clip0_48_116)">
<mask id="mask0_48_116" style="mask-type:luminance" maskUnits="userSpaceOnUse" x="0" y="0" width="241" height="41">
<path d="M240.22 0.09375H0.249634V40.0888H240.22V0.09375Z" fill="white"/>
</mask>
<g mask="url(#mask0_48_116)">
<path d="M0.249634 0.0942383V40.0885H240.22V0.0942383H0.249634ZM120.234 39.29H1.04963V0.894237H120.234V39.29ZM200.224 39.29H121.034V0.894237H200.224V39.29ZM239.42 39.29H201.025V0.894237H239.421L239.42 39.29Z" fill="#222222"/>
<path d="M188.742 13.639V22.4489C188.742 22.5631 188.666 22.6012 188.609 22.487L183.582 13.5628C183.551 13.5162 183.509 13.4779 183.46 13.4513C183.411 13.4247 183.355 13.4107 183.299 13.4105H181.148C181.117 13.4095 181.088 13.4147 181.059 13.4259C181.032 13.437 181.006 13.4538 180.984 13.4752C180.963 13.4967 180.946 13.5222 180.935 13.5504C180.924 13.5786 180.918 13.6088 180.92 13.639V26.5011C180.918 26.5314 180.924 26.5616 180.935 26.5897C180.946 26.6179 180.963 26.6435 180.984 26.6649C181.006 26.6863 181.032 26.7031 181.059 26.7143C181.088 26.7254 181.117 26.7307 181.148 26.7297H183.015C183.045 26.7307 183.075 26.7254 183.104 26.7143C183.131 26.7031 183.158 26.6863 183.179 26.6649C183.2 26.6435 183.217 26.6179 183.229 26.5897C183.239 26.5616 183.244 26.5314 183.243 26.5011V17.711C183.243 17.5967 183.32 17.5586 183.376 17.6729L188.403 26.5773C188.434 26.6239 188.476 26.6623 188.525 26.6889C188.575 26.7154 188.63 26.7294 188.686 26.7297H190.837C190.868 26.7309 190.897 26.7258 190.926 26.7147C190.954 26.7037 190.98 26.6869 191.001 26.6654C191.023 26.6439 191.039 26.6182 191.051 26.5899C191.061 26.5617 191.067 26.5314 191.066 26.5011V13.639C191.067 13.6087 191.061 13.5785 191.051 13.5501C191.039 13.5219 191.023 13.4963 191.001 13.4748C190.98 13.4533 190.954 13.4365 190.926 13.4255C190.897 13.4144 190.868 13.4093 190.837 13.4105H188.97C188.94 13.4095 188.91 13.4147 188.881 13.4259C188.854 13.437 188.829 13.4538 188.806 13.4752C188.785 13.4967 188.768 13.5222 188.758 13.5504C188.746 13.5786 188.741 13.6088 188.742 13.639ZM175.287 26.7297H177.181C177.211 26.7307 177.241 26.7254 177.269 26.7143C177.297 26.7031 177.323 26.6863 177.345 26.6649C177.366 26.6435 177.383 26.6179 177.394 26.5897C177.405 26.5616 177.411 26.5314 177.409 26.5011V13.639C177.411 13.6088 177.405 13.5786 177.394 13.5504C177.383 13.5222 177.366 13.4967 177.345 13.4752C177.323 13.4538 177.297 13.437 177.269 13.4259C177.241 13.4147 177.211 13.4095 177.181 13.4105H175.294C175.263 13.4091 175.234 13.414 175.205 13.4249C175.177 13.436 175.15 13.4528 175.129 13.4743C175.108 13.4957 175.091 13.5215 175.079 13.5498C175.068 13.5782 175.063 13.6085 175.064 13.639V26.5011C175.063 26.5313 175.068 26.5615 175.079 26.5896C175.09 26.6178 175.107 26.6434 175.128 26.6648C175.149 26.6863 175.175 26.7031 175.203 26.7143C175.231 26.7254 175.261 26.7307 175.291 26.7297M167.773 24.4087V13.639C167.776 13.6087 167.77 13.5785 167.759 13.5501C167.748 13.5219 167.731 13.4963 167.71 13.4748C167.688 13.4533 167.662 13.4365 167.634 13.4255C167.606 13.4144 167.576 13.4093 167.545 13.4105H165.66C165.63 13.4089 165.599 13.4137 165.57 13.4245C165.542 13.4354 165.515 13.4521 165.494 13.4736C165.472 13.4951 165.455 13.5209 165.443 13.5494C165.432 13.5779 165.426 13.6083 165.427 13.639V26.5011C165.426 26.5314 165.432 26.5616 165.443 26.5897C165.454 26.6179 165.471 26.6435 165.492 26.6649C165.514 26.6863 165.54 26.7031 165.567 26.7143C165.596 26.7254 165.625 26.7307 165.656 26.7297H172.146C172.177 26.7309 172.207 26.7258 172.235 26.7147C172.263 26.7037 172.289 26.6869 172.311 26.6654C172.332 26.6439 172.349 26.6182 172.36 26.5899C172.371 26.5617 172.377 26.5314 172.375 26.5011V24.7515C172.377 24.7212 172.371 24.691 172.36 24.6627C172.349 24.6344 172.332 24.6088 172.311 24.5873C172.289 24.5658 172.263 24.549 172.235 24.538C172.207 24.5269 172.177 24.5218 172.146 24.5229H167.881C167.866 24.5238 167.851 24.5213 167.837 24.5161C167.822 24.5107 167.809 24.5024 167.799 24.4918C167.788 24.4811 167.78 24.4684 167.775 24.4544C167.769 24.4403 167.766 24.4252 167.767 24.4101M155.452 15.6144H157.185C158.727 15.6144 159.966 16.4327 159.966 18.1258C159.966 19.8189 158.727 20.6372 157.166 20.6372H155.452C155.437 20.6379 155.422 20.6353 155.407 20.6298C155.394 20.6242 155.381 20.6158 155.37 20.6052C155.36 20.5944 155.351 20.5816 155.346 20.5674C155.34 20.5533 155.337 20.5382 155.337 20.5229V15.7258C155.335 15.7103 155.338 15.6946 155.343 15.6799C155.347 15.6651 155.355 15.6516 155.367 15.6407C155.378 15.6297 155.391 15.6216 155.406 15.6167C155.421 15.6118 155.437 15.6106 155.452 15.6129M159.87 26.724H162.269C162.459 26.724 162.515 26.59 162.401 26.4419L159.544 22.5829C159.533 22.5701 159.525 22.5548 159.521 22.5383C159.516 22.5218 159.516 22.5045 159.52 22.4879C159.524 22.4713 159.531 22.4558 159.542 22.4427C159.552 22.4295 159.566 22.4191 159.582 22.4122C161.275 21.7265 162.404 20.2239 162.404 18.1314C162.404 15.1684 160.157 13.4118 157.3 13.4118H153.225C153.196 13.4107 153.165 13.4157 153.138 13.4267C153.109 13.4378 153.084 13.4544 153.062 13.4757C153.04 13.497 153.024 13.5225 153.013 13.5507C153.001 13.5787 152.997 13.6089 152.997 13.639V26.5011C152.996 26.5314 153.001 26.5617 153.013 26.5899C153.023 26.6182 153.04 26.6439 153.061 26.6654C153.082 26.6869 153.109 26.7037 153.136 26.7147C153.165 26.7258 153.196 26.7309 153.225 26.7297H155.111C155.141 26.7307 155.171 26.7254 155.2 26.7143C155.227 26.7031 155.253 26.6863 155.275 26.6649C155.296 26.6435 155.313 26.6179 155.324 26.5897C155.335 26.5616 155.341 26.5314 155.34 26.5011V22.9639C155.339 22.9488 155.342 22.9336 155.347 22.9194C155.352 22.9054 155.361 22.8925 155.371 22.8818C155.382 22.871 155.395 22.8626 155.409 22.8571C155.423 22.8515 155.438 22.849 155.454 22.8496H156.902C156.96 22.8552 157.014 22.8824 157.054 22.9258L159.604 26.5787C159.632 26.6254 159.671 26.664 159.717 26.6908C159.764 26.7175 159.817 26.7314 159.871 26.7311M149.534 15.3914V13.639C149.536 13.6087 149.531 13.5785 149.52 13.5501C149.509 13.5219 149.492 13.4963 149.471 13.4748C149.449 13.4533 149.423 13.4365 149.395 13.4255C149.367 13.4144 149.336 13.4093 149.306 13.4105H142.376C142.345 13.4093 142.315 13.4144 142.287 13.4255C142.258 13.4365 142.233 13.4533 142.212 13.4748C142.19 13.4963 142.173 13.5219 142.162 13.5501C142.151 13.5785 142.146 13.6087 142.147 13.639V26.5011C142.146 26.5314 142.151 26.5617 142.162 26.5899C142.173 26.6182 142.19 26.6439 142.212 26.6654C142.233 26.6869 142.258 26.7037 142.287 26.7147C142.315 26.7258 142.345 26.7309 142.376 26.7297H149.306C149.336 26.7309 149.367 26.7258 149.395 26.7147C149.423 26.7037 149.449 26.6869 149.471 26.6654C149.492 26.6439 149.509 26.6182 149.52 26.5899C149.531 26.5617 149.536 26.5314 149.534 26.5011V24.7515C149.536 24.7212 149.531 24.691 149.52 24.6627C149.509 24.6344 149.492 24.6088 149.471 24.5873C149.449 24.5658 149.423 24.549 149.395 24.538C149.367 24.5269 149.336 24.5218 149.306 24.5229H144.588C144.573 24.5238 144.558 24.5213 144.544 24.5161C144.53 24.5107 144.516 24.5024 144.506 24.4918C144.495 24.4811 144.487 24.4684 144.481 24.4544C144.476 24.4403 144.473 24.4252 144.474 24.4101V21.2129C144.473 21.1978 144.476 21.1826 144.481 21.1684C144.487 21.1544 144.495 21.1416 144.506 21.1308C144.516 21.1201 144.529 21.1116 144.544 21.1061C144.558 21.1006 144.572 21.0981 144.588 21.0986H149.31C149.341 21.1001 149.371 21.0951 149.4 21.0841C149.427 21.0731 149.454 21.0564 149.475 21.0348C149.496 21.0133 149.513 20.9875 149.525 20.9591C149.535 20.9308 149.541 20.9005 149.539 20.87V19.1417C149.541 19.1113 149.535 19.081 149.524 19.0528C149.513 19.0245 149.496 18.9989 149.475 18.9774C149.453 18.956 149.427 18.9391 149.399 18.9281C149.371 18.917 149.341 18.9119 149.31 18.9131H144.588C144.572 18.9154 144.557 18.9142 144.542 18.9093C144.527 18.9045 144.514 18.8963 144.503 18.8854C144.492 18.8744 144.484 18.8609 144.478 18.8462C144.473 18.8314 144.472 18.8156 144.474 18.8002V15.7329C144.473 15.7179 144.476 15.7028 144.481 15.6889C144.488 15.6749 144.496 15.6622 144.507 15.6516C144.517 15.641 144.53 15.6328 144.544 15.6274C144.558 15.6219 144.573 15.6194 144.588 15.62H149.31C149.341 15.6211 149.371 15.6161 149.399 15.6051C149.427 15.5939 149.453 15.5771 149.475 15.5556C149.496 15.5343 149.513 15.5085 149.524 15.4803C149.535 15.452 149.541 15.4218 149.539 15.3914M134.689 24.5229H132.67C132.655 24.5236 132.64 24.521 132.626 24.5156C132.612 24.5101 132.599 24.5019 132.588 24.4912C132.578 24.4806 132.57 24.4679 132.564 24.4539C132.559 24.44 132.557 24.4251 132.557 24.4101V21.2129C132.554 21.1975 132.555 21.1818 132.561 21.1669C132.566 21.152 132.573 21.1386 132.585 21.1275C132.596 21.1164 132.609 21.108 132.624 21.1029C132.639 21.098 132.655 21.0965 132.67 21.0986H134.689C135.926 21.0986 136.612 21.8041 136.612 22.8115C136.612 23.8189 135.926 24.5229 134.689 24.5229ZM134.498 15.6144C135.697 15.6144 136.365 16.2605 136.365 17.2496C136.365 18.2387 135.697 18.9046 134.498 18.9046H132.664C132.649 18.9067 132.634 18.9053 132.619 18.9003C132.604 18.8954 132.59 18.8872 132.58 18.8763C132.569 18.8653 132.561 18.8519 132.555 18.8373C132.551 18.8226 132.549 18.8071 132.551 18.7917V15.7329C132.549 15.7175 132.551 15.702 132.555 15.6873C132.561 15.6727 132.569 15.6593 132.58 15.6484C132.59 15.6374 132.604 15.6292 132.619 15.6243C132.634 15.6193 132.649 15.6179 132.664 15.62L134.498 15.6144ZM137.279 19.8048C137.757 19.5133 138.148 19.1015 138.416 18.6107C138.684 18.1198 138.817 17.5672 138.803 17.0083C138.803 14.9724 137.393 13.4118 134.804 13.4118H130.461C130.432 13.4107 130.401 13.4157 130.373 13.4267C130.345 13.4378 130.32 13.4544 130.298 13.4757C130.276 13.497 130.26 13.5225 130.249 13.5507C130.237 13.5787 130.233 13.6089 130.233 13.639V26.5011C130.232 26.5314 130.237 26.5617 130.249 26.5899C130.259 26.6182 130.276 26.6439 130.297 26.6654C130.32 26.6869 130.345 26.7037 130.372 26.7147C130.401 26.7258 130.432 26.7309 130.461 26.7297H134.977C137.642 26.7297 139.052 25.1113 139.052 22.9808C139.052 21.5925 138.384 20.5456 137.28 19.9557C137.204 19.8993 137.204 19.8415 137.28 19.8034" fill="#222222"/>
<path d="M226.097 31.4395C226.097 31.4395 225.392 26.8019 225.069 24.8463L225.21 24.8167C225.277 24.8026 225.34 24.7728 225.392 24.7298C225.445 24.6868 225.488 24.6318 225.515 24.5694C225.543 24.5069 225.554 24.4388 225.551 24.3706C225.547 24.3026 225.527 24.2363 225.492 24.1775C224.7 22.8145 224.419 21.1172 224.419 19.4297C224.418 18.4215 224.585 17.4203 224.912 16.4667C224.931 16.4131 224.95 16.3609 224.97 16.3072L225.008 16.193C225.377 15.3681 225.615 14.4908 225.714 13.5926C225.819 12.3741 225.62 11.1486 225.135 10.0258L225.072 9.91295C225.214 9.76462 225.302 9.57344 225.325 9.36925C225.347 9.16505 225.3 8.95933 225.194 8.7842C224.933 8.33835 224.403 8.16057 224.008 8.38914C223.966 8.41313 223.867 8.48226 223.824 8.51472C223.751 8.4611 223.709 8.4343 223.709 8.4343C223.709 8.4343 223.598 8.36092 223.501 8.31154L223.464 8.29179C223.049 8.10778 222.598 8.01401 222.143 8.01666C221.915 8.01673 221.689 8.03989 221.465 8.08579C221.001 8.18263 220.563 8.37904 220.182 8.66145C220.05 8.70192 219.913 8.72794 219.776 8.73906L219.239 8.76445C218.986 8.77433 218.698 8.76445 218.698 8.76445C218.669 8.76444 218.639 8.77037 218.611 8.78187C218.584 8.79337 218.559 8.81024 218.537 8.83148C218.516 8.85273 218.499 8.87794 218.489 8.90566C218.477 8.93338 218.472 8.96307 218.472 8.99302C218.472 9.00431 218.553 9.74081 218.553 9.74364C218.559 9.83401 218.584 9.92203 218.628 10.0013C218.672 10.0806 218.732 10.1492 218.806 10.2022L218.824 10.2149C218.861 10.2341 218.891 10.2648 218.909 10.3024C218.96 10.4473 219.05 10.5752 219.168 10.672C219.178 10.6779 219.187 10.6819 219.198 10.6835C219.207 10.6851 219.218 10.6846 219.228 10.6817C219.238 10.679 219.247 10.674 219.256 10.6672C219.263 10.6604 219.27 10.6519 219.274 10.6424C219.376 10.2403 219.616 10.6734 220.072 10.4265C220.188 10.363 220.252 10.648 220.203 10.7722L220.161 10.8794C220.114 10.997 220.037 11.1004 219.938 11.1791C219.839 11.2577 219.722 11.3092 219.596 11.3281C219.392 11.3577 219.277 11.3775 219.28 11.4058C219.304 11.6329 219.28 11.829 219.509 11.9701C219.541 11.9881 219.574 12.0028 219.61 12.0138C219.964 12.1069 220.997 12.5034 219.683 14.054C219.604 14.144 219.531 14.2383 219.462 14.3362C219.435 14.3762 219.41 14.4183 219.39 14.4617L219.362 14.5168L215.412 13.0395C215.274 12.9758 215.155 12.8789 215.065 12.7574L214.677 12.0886C214.586 11.9384 214.458 11.8139 214.306 11.7271C214.152 11.6405 213.98 11.5944 213.804 11.5934C213.621 11.579 213.438 11.579 213.255 11.5934C213.136 11.5934 213.069 11.6272 213.045 11.6963C213.012 11.8662 213.042 12.0425 213.13 12.1916L213.47 12.8138C213.499 12.8575 213.927 13.8141 213.927 13.8141C213.969 13.9318 214.042 14.036 214.138 14.1161L218.203 17.1665L213.93 19.2985C213.869 19.3315 213.802 19.3521 213.733 19.3591C213.664 19.3662 213.596 19.3594 213.529 19.3394L213.145 19.2236C212.44 18.9119 211.919 19.1292 211.611 19.3874L211.49 19.5016C211.464 19.5247 211.445 19.5538 211.435 19.5863C211.423 19.6187 211.42 19.6535 211.426 19.6874C211.433 19.7211 211.446 19.7529 211.469 19.7796C211.49 19.8064 211.517 19.8272 211.549 19.8403C211.549 19.8403 212.224 20.2368 212.372 20.3384L213.423 20.9606C213.586 21.0552 213.778 21.0863 213.962 21.048L218.112 20.2114C218.178 21.1958 218.346 22.1707 218.613 23.1207C217.514 24.1969 216.776 25.586 216.496 27.0981C216.294 28.2184 216.355 29.2329 216.665 30.4265C216.087 30.459 215.527 30.5437 215.062 30.8667C214.621 31.1743 214.531 31.7217 214.528 31.9955L217.773 32.0025H218.046C218.146 31.9979 218.241 31.9622 218.318 31.9004C218.396 31.8385 218.451 31.7537 218.477 31.6583C218.505 31.5479 218.525 31.4356 218.536 31.3225C218.639 30.4556 218.897 29.6143 219.298 28.8392C219.646 28.1892 220.08 27.5888 220.588 27.0543C221.577 28.417 222.823 29.5722 224.256 30.4548C223.787 30.4864 223.328 30.6096 222.906 30.8173C222.7 30.9411 222.53 31.1162 222.413 31.3254C222.295 31.5347 222.234 31.771 222.235 32.011H225.576C225.685 32.0112 225.79 31.9774 225.878 31.9144C225.966 31.8514 226.033 31.7623 226.068 31.6596C226.068 31.6385 226.08 31.6159 226.087 31.5948C226.092 31.5736 226.087 31.5623 226.087 31.5468C226.094 31.5115 226.097 31.4756 226.097 31.4395Z" fill="#222222"/>
<path d="M13.336 8.48665C13.6962 8.68602 13.9904 8.9861 14.1826 9.35014C14.391 9.75152 14.4954 10.1988 14.4859 10.651C14.4957 11.1037 14.3914 11.5515 14.1826 11.9533C13.9904 12.3173 13.6962 12.6175 13.336 12.8168C12.9578 13.0234 12.5324 13.1284 12.1015 13.1216H10.62C10.6104 13.123 10.6006 13.1221 10.5914 13.1191C10.5822 13.1161 10.5738 13.1109 10.567 13.104C10.5601 13.0972 10.5549 13.0888 10.5519 13.0796C10.5489 13.0704 10.548 13.0606 10.5494 13.051V8.25384C10.548 8.24425 10.5489 8.23446 10.5519 8.22524C10.5549 8.21603 10.5601 8.20766 10.567 8.20081C10.5738 8.19394 10.5822 8.18878 10.5914 8.18575C10.6006 8.18271 10.6104 8.18186 10.62 8.18329H12.1015C12.5323 8.1761 12.9576 8.2806 13.336 8.48665ZM11.1138 12.6206H12.0732C12.4093 12.6267 12.7415 12.5486 13.0397 12.3935C13.3234 12.2436 13.5536 12.0094 13.6986 11.7234C13.8652 11.391 13.9466 11.0225 13.9357 10.651C13.9462 10.2795 13.8647 9.91119 13.6986 9.57871C13.552 9.29371 13.3222 9.05999 13.0397 8.90851C12.7411 8.75495 12.409 8.67787 12.0732 8.68418H11.1138C11.0899 8.68418 11.0785 8.69546 11.0785 8.71803V12.584C11.0714 12.6079 11.0828 12.6206 11.1138 12.6206Z" fill="#222222"/>
<path d="M15.9561 12.986C15.7059 12.8462 15.5016 12.6369 15.3677 12.3835C15.2299 12.1044 15.1582 11.7974 15.1582 11.4862C15.1582 11.1749 15.2299 10.8679 15.3677 10.5888C15.4951 10.3394 15.6909 10.1314 15.9322 9.98914C16.18 9.84655 16.4617 9.77344 16.7476 9.7775C17.0308 9.77419 17.3096 9.84731 17.5547 9.98914C17.7929 10.1271 17.9883 10.3283 18.119 10.5704C18.2575 10.8274 18.3278 11.1154 18.3237 11.4071C18.3242 11.4613 18.3218 11.5155 18.3166 11.5694C18.3135 11.5857 18.3048 11.6004 18.2919 11.6107C18.2788 11.6211 18.2626 11.6264 18.246 11.6259H15.7698C15.7134 11.6259 15.6923 11.6555 15.7064 11.7175C15.7277 11.9983 15.8507 12.2615 16.0521 12.4583C16.2613 12.648 16.5359 12.7492 16.8182 12.7405C16.9923 12.7405 17.1644 12.7042 17.3236 12.6337C17.4828 12.5632 17.6254 12.4602 17.7423 12.3313C17.7946 12.2791 17.8341 12.2693 17.8623 12.3016L18.0951 12.5571C18.1275 12.5852 18.1275 12.6149 18.0951 12.6487C17.9304 12.8237 17.7322 12.9637 17.5124 13.0608C17.2934 13.1557 17.0569 13.2039 16.8182 13.2019C16.517 13.2057 16.22 13.1313 15.9561 12.986ZM17.7804 11.132C17.7434 10.8825 17.6201 10.6539 17.432 10.4858C17.2392 10.3267 16.9969 10.2397 16.747 10.2397C16.4969 10.2397 16.2548 10.3267 16.0619 10.4858C15.8721 10.6525 15.7484 10.8817 15.7134 11.132V11.1659C15.7134 11.1941 15.736 11.2096 15.784 11.2096H17.7169C17.7734 11.2143 17.7946 11.1884 17.7804 11.132Z" fill="#222222"/>
<path d="M20.6658 9.78433C20.7082 9.78433 20.7293 9.8069 20.7293 9.85488V10.2288C20.7293 10.2697 20.7124 10.2909 20.6799 10.2909C20.6458 10.2911 20.6118 10.2878 20.5783 10.281C20.5468 10.2742 20.5147 10.2704 20.4824 10.2697C20.3274 10.2664 20.1742 10.3038 20.0381 10.378C19.9019 10.4523 19.7876 10.5609 19.7064 10.693C19.6711 10.7443 19.6538 10.8058 19.657 10.8679V13.0506C19.6584 13.0603 19.6576 13.07 19.6546 13.0792C19.6515 13.0884 19.6464 13.0969 19.6395 13.1036C19.6326 13.1105 19.6242 13.1157 19.615 13.1188C19.6058 13.1217 19.5961 13.1226 19.5865 13.1212H19.2126C19.203 13.1226 19.1931 13.1217 19.1839 13.1188C19.1747 13.1157 19.1664 13.1105 19.1595 13.1036C19.1527 13.0969 19.1475 13.0884 19.1445 13.0792C19.1414 13.07 19.1406 13.0603 19.142 13.0506V9.91837C19.1406 9.90878 19.1414 9.89898 19.1445 9.88977C19.1475 9.88055 19.1527 9.87218 19.1595 9.86533C19.1664 9.85847 19.1747 9.85331 19.1839 9.85028C19.1931 9.84723 19.203 9.84639 19.2126 9.84782H19.5512C19.5608 9.84639 19.5706 9.84723 19.5798 9.85028C19.589 9.85331 19.5974 9.85847 19.6042 9.86533C19.6111 9.87218 19.6162 9.88055 19.6193 9.88977C19.6223 9.89898 19.6232 9.90878 19.6217 9.91837V10.1709C19.6217 10.1907 19.6217 10.202 19.6359 10.2076C19.65 10.2133 19.657 10.2076 19.6711 10.1935C19.7762 10.0588 19.9113 9.95039 20.0656 9.87692C20.2199 9.80345 20.3891 9.76692 20.56 9.77022C20.5957 9.77123 20.6311 9.77596 20.6658 9.78433Z" fill="#222222"/>
<path d="M23.6217 13.1216H23.2479C23.2382 13.123 23.2285 13.1221 23.2193 13.1191C23.2101 13.1161 23.2017 13.1109 23.1948 13.104C23.188 13.0972 23.1828 13.0888 23.1797 13.0796C23.1767 13.0704 23.1759 13.0606 23.1773 13.051V8.25384C23.1759 8.24425 23.1767 8.23446 23.1797 8.22524C23.1828 8.21603 23.188 8.20766 23.1948 8.20081C23.2017 8.19394 23.2101 8.18878 23.2193 8.18575C23.2285 8.18271 23.2382 8.18186 23.2479 8.18329H24.6235C24.9383 8.17774 25.2502 8.24637 25.5336 8.38365C25.7951 8.51187 26.014 8.71271 26.1643 8.96213C26.3229 9.23248 26.4026 9.5419 26.3942 9.85525C26.4075 10.2218 26.2917 10.5813 26.0669 10.8711C25.837 11.1463 25.5274 11.3435 25.1809 11.4355C25.1286 11.451 25.1201 11.4764 25.1526 11.5131L26.3801 13.0369C26.39 13.0493 26.3951 13.0649 26.3942 13.0806C26.3942 13.1074 26.3745 13.123 26.3378 13.123H25.8439C25.8209 13.1237 25.7979 13.1198 25.7762 13.1116C25.7554 13.1012 25.7375 13.0857 25.7241 13.0666L24.5529 11.571C24.5396 11.5524 24.5229 11.5366 24.5036 11.5244C24.4836 11.5158 24.4618 11.5119 24.4401 11.5131H23.7346C23.7106 11.5131 23.6994 11.5258 23.6994 11.5498V13.051C23.7012 13.0614 23.7003 13.0719 23.697 13.0818C23.6936 13.0917 23.6878 13.1006 23.6799 13.1076C23.6722 13.1147 23.6628 13.1197 23.6526 13.1221C23.6425 13.1245 23.6319 13.1243 23.6217 13.1216ZM23.6923 8.71803V10.9755C23.6923 10.9981 23.7036 11.0094 23.7275 11.0094H24.5671C24.8972 11.0234 25.2218 10.9209 25.4842 10.7202C25.7241 10.5283 25.8439 10.2362 25.8439 9.84678C25.8439 9.45737 25.7241 9.1639 25.4842 8.972C25.2209 8.77369 24.8963 8.67385 24.5671 8.68982H23.7275C23.7036 8.68417 23.6923 8.7011 23.6923 8.71803Z" fill="#222222"/>
<path d="M27.7516 12.986C27.5014 12.8462 27.2971 12.6369 27.1632 12.3835C27.0253 12.1044 26.9537 11.7974 26.9537 11.4862C26.9537 11.1749 27.0253 10.8679 27.1632 10.5888C27.2924 10.3384 27.4907 10.1303 27.7346 9.98914C27.9825 9.84655 28.2643 9.77344 28.5502 9.7775C28.8333 9.77419 29.1121 9.84731 29.3572 9.98914C29.5954 10.1271 29.7907 10.3283 29.9216 10.5704C30.0599 10.8274 30.1303 11.1154 30.1262 11.4071C30.1267 11.4613 30.1244 11.5155 30.1191 11.5694C30.1161 11.5857 30.1072 11.6004 30.0943 11.6107C30.0814 11.6211 30.0651 11.6264 30.0486 11.6259H27.5582C27.5004 11.6259 27.4807 11.6555 27.4947 11.7175C27.5188 11.9996 27.6453 12.2631 27.8503 12.4583C28.0595 12.648 28.3342 12.7492 28.6164 12.7405C28.7905 12.7405 28.9627 12.7042 29.1218 12.6337C29.281 12.5632 29.4236 12.4602 29.5407 12.3313C29.5928 12.2791 29.6323 12.2693 29.6606 12.3016L29.8934 12.5571C29.9258 12.5852 29.9258 12.6149 29.8934 12.6487C29.7291 12.8206 29.5325 12.9583 29.3148 13.0537C29.0959 13.1487 28.8594 13.1968 28.6207 13.1948C28.3177 13.202 28.0181 13.13 27.7516 12.986ZM29.5745 11.132C29.5385 10.8821 29.415 10.6531 29.2259 10.4858C29.0376 10.3228 28.7949 10.2362 28.5459 10.2431C28.2933 10.2374 28.0476 10.3265 27.8574 10.4928C27.6675 10.6595 27.5438 10.8888 27.5089 11.1391L27.5004 11.173C27.5004 11.2011 27.5244 11.2167 27.5709 11.2167H29.5124C29.5688 11.2167 29.5971 11.1884 29.5745 11.132Z" fill="#222222"/>
<path d="M31.5724 14.4293C31.3634 14.3386 31.176 14.205 31.0221 14.037C31.0153 14.0307 31.01 14.0231 31.0062 14.0146C31.0025 14.006 31.0007 13.9969 31.0007 13.9876C31.0007 13.9784 31.0025 13.9692 31.0062 13.9607C31.01 13.9523 31.0153 13.9446 31.0221 13.9383L31.2619 13.6772C31.2743 13.6622 31.292 13.6526 31.3113 13.6505C31.3302 13.6528 31.3474 13.6624 31.3593 13.6772C31.5773 13.9102 31.8712 14.0579 32.1883 14.0936C32.5054 14.1293 32.8248 14.0507 33.0891 13.8719C33.1849 13.7847 33.2595 13.6766 33.3069 13.556C33.3543 13.4354 33.3734 13.3055 33.3629 13.1764V12.691C33.3638 12.6836 33.3624 12.6761 33.3589 12.6694C33.3553 12.6628 33.3498 12.6575 33.3431 12.6543C33.3336 12.6535 33.3239 12.655 33.315 12.6586C33.3062 12.6623 33.2984 12.6681 33.2923 12.6754C33.1566 12.8023 32.9969 12.9007 32.8228 12.9652C32.6486 13.0296 32.4634 13.0587 32.2778 13.0508C31.998 13.0545 31.7223 12.9834 31.4793 12.8447C31.2402 12.7098 31.0446 12.5096 30.9148 12.2677C30.7745 12.0029 30.7041 11.7067 30.7103 11.4071C30.7052 11.1112 30.7782 10.8192 30.9219 10.5605C31.0567 10.3194 31.2555 10.1202 31.4962 9.98484C31.7435 9.84823 32.0221 9.77822 32.3047 9.78167C32.4932 9.77168 32.6818 9.80157 32.8581 9.8694C33.0343 9.93723 33.1943 10.0415 33.3275 10.1753C33.3459 10.1951 33.3614 10.2021 33.3727 10.1979C33.3839 10.1937 33.391 10.1781 33.391 10.1542V9.91852C33.3914 9.89992 33.3989 9.8822 33.4121 9.86904C33.4253 9.85589 33.443 9.84833 33.4616 9.84797H33.8072C33.8168 9.84654 33.8267 9.84739 33.8359 9.85043C33.8451 9.85346 33.8534 9.85862 33.8603 9.86549C33.8672 9.87234 33.8723 9.88071 33.8753 9.88992C33.8784 9.89914 33.8793 9.90893 33.8778 9.91852V13.2159C33.8875 13.4044 33.8534 13.5927 33.778 13.7658C33.7025 13.9389 33.5879 14.0922 33.4432 14.2134C33.1207 14.4616 32.7211 14.5879 32.3145 14.5704C32.0599 14.5762 31.807 14.528 31.5724 14.4293ZM32.948 12.4441C33.1058 12.3604 33.2395 12.2374 33.336 12.0871C33.3599 12.0497 33.3722 12.006 33.3713 11.9616V10.8624C33.3734 10.8179 33.3611 10.7738 33.336 10.7369C33.2403 10.5851 33.1066 10.461 32.948 10.3771C32.7718 10.2853 32.5752 10.2392 32.3766 10.243C32.2245 10.2368 32.0726 10.2624 31.931 10.3183C31.7893 10.3742 31.6609 10.4591 31.554 10.5675C31.4476 10.6804 31.3651 10.8135 31.3113 10.959C31.2575 11.1044 31.2336 11.2592 31.2407 11.4142C31.2344 11.5689 31.2587 11.7235 31.3125 11.8688C31.3664 12.0141 31.4484 12.1473 31.554 12.2606C31.6611 12.3689 31.7895 12.4536 31.9311 12.5095C32.0727 12.5654 32.2245 12.5912 32.3766 12.5852C32.5759 12.5869 32.7724 12.5384 32.948 12.4441Z" fill="#222222"/>
<path d="M34.9402 8.96919C34.9033 8.93416 34.874 8.89191 34.8541 8.84506C34.8342 8.79821 34.8241 8.74777 34.8245 8.69688C34.824 8.64679 34.8341 8.59718 34.854 8.55123C34.874 8.50529 34.9033 8.46405 34.9402 8.43021C34.9755 8.39374 35.0179 8.3648 35.0647 8.34515C35.1114 8.32551 35.1618 8.31557 35.2125 8.31593C35.2616 8.31611 35.3099 8.32635 35.3549 8.34601C35.3998 8.36566 35.4402 8.39432 35.4735 8.43021C35.5095 8.46463 35.5381 8.50602 35.5576 8.55188C35.5769 8.59774 35.5868 8.64708 35.5864 8.69688C35.5868 8.74749 35.5769 8.79767 35.5576 8.84444C35.5381 8.8912 35.5096 8.93362 35.4735 8.96919C35.4405 9.00572 35.4003 9.03499 35.3553 9.05515C35.3104 9.07531 35.2618 9.08592 35.2125 9.08629C35.1616 9.08645 35.1111 9.07614 35.0642 9.05599C35.0173 9.03585 34.9752 9.00631 34.9402 8.96919ZM34.9402 13.051V9.91874C34.9388 9.90914 34.9397 9.89936 34.9426 9.89014C34.9457 9.88093 34.9509 9.87256 34.9578 9.86571C34.9645 9.85885 34.973 9.85368 34.9822 9.85065C34.9914 9.84761 35.0012 9.84676 35.0108 9.84819H35.3846C35.3943 9.84676 35.404 9.84761 35.4132 9.85065C35.4224 9.85368 35.4309 9.85885 35.4377 9.86571C35.4445 9.87256 35.4497 9.88093 35.4528 9.89014C35.4558 9.89936 35.4566 9.90914 35.4552 9.91874V13.051C35.4566 13.0606 35.4558 13.0704 35.4528 13.0796C35.4497 13.0888 35.4445 13.0972 35.4377 13.104C35.4309 13.1109 35.4224 13.1161 35.4132 13.1191C35.404 13.1221 35.3943 13.123 35.3846 13.1216H35.015C35.0054 13.123 34.9957 13.1221 34.9864 13.1191C34.9772 13.1161 34.9688 13.1109 34.962 13.104C34.9551 13.0972 34.9499 13.0888 34.9469 13.0796C34.9439 13.0704 34.9431 13.0606 34.9444 13.051H34.9402Z" fill="#222222"/>
<path d="M37.099 12.986C36.8488 12.8462 36.6445 12.6369 36.5106 12.3835C36.3727 12.1044 36.3011 11.7974 36.3011 11.4862C36.3011 11.1749 36.3727 10.8679 36.5106 10.5888C36.638 10.3394 36.8338 10.1314 37.0749 9.98914C37.3229 9.84655 37.6046 9.77344 37.8905 9.7775C38.1737 9.77419 38.4525 9.84731 38.6976 9.98914C38.9357 10.1271 39.131 10.3283 39.2619 10.5704C39.4028 10.8267 39.4756 11.1148 39.4736 11.4071C39.4741 11.4613 39.4718 11.5155 39.4665 11.5694C39.4637 11.5859 39.4551 11.6007 39.442 11.6111C39.429 11.6215 39.4126 11.6267 39.396 11.6259H36.9056C36.8492 11.6259 36.8281 11.6555 36.8421 11.7175C36.8662 11.9996 36.9927 12.2631 37.1977 12.4583C37.4069 12.648 37.6816 12.7492 37.9638 12.7405C38.1379 12.7405 38.3101 12.7042 38.4692 12.6337C38.6284 12.5632 38.771 12.4602 38.8881 12.3313C38.9402 12.2791 38.9797 12.2693 39.008 12.3016L39.2408 12.5571C39.2733 12.5852 39.2733 12.6149 39.2408 12.6487C39.076 12.8237 38.8779 12.9637 38.658 13.0608C38.4391 13.1557 38.2026 13.2039 37.9638 13.2019C37.6617 13.2062 37.3636 13.1318 37.099 12.986ZM38.9233 11.132C38.8863 10.8825 38.7629 10.6539 38.5748 10.4858C38.3819 10.3267 38.1398 10.2397 37.8898 10.2397C37.6398 10.2397 37.3976 10.3267 37.2048 10.4858C37.0149 10.6525 36.8912 10.8817 36.8563 11.132L36.8492 11.1659C36.8492 11.1941 36.8718 11.2096 36.9198 11.2096H38.8598C38.9162 11.2143 38.9374 11.1884 38.9233 11.132Z" fill="#222222"/>
<path d="M41.8087 9.78433C41.851 9.78433 41.8722 9.8069 41.8722 9.85488V10.2288C41.8722 10.2697 41.8553 10.2909 41.8228 10.2909C41.7887 10.2911 41.7546 10.2878 41.7212 10.281C41.6897 10.2742 41.6575 10.2704 41.6252 10.2697C41.4702 10.2664 41.3171 10.3038 41.1809 10.378C41.0448 10.4523 40.9304 10.5609 40.8492 10.693C40.8149 10.7447 40.7977 10.8059 40.7998 10.8679V13.0506C40.8013 13.0603 40.8004 13.07 40.7974 13.0792C40.7943 13.0884 40.7892 13.0969 40.7823 13.1036C40.7755 13.1105 40.7671 13.1157 40.7579 13.1188C40.7487 13.1217 40.7389 13.1226 40.7293 13.1212H40.3554C40.3458 13.1226 40.336 13.1217 40.3268 13.1188C40.3176 13.1157 40.3092 13.1105 40.3023 13.1036C40.2955 13.0969 40.2904 13.0884 40.2873 13.0792C40.2843 13.07 40.2834 13.0603 40.2849 13.0506V9.91837C40.2834 9.90878 40.2843 9.89898 40.2873 9.88977C40.2904 9.88055 40.2955 9.87218 40.3023 9.86533C40.3092 9.85847 40.3176 9.85331 40.3268 9.85028C40.336 9.84723 40.3458 9.84639 40.3554 9.84782H40.694C40.7036 9.84639 40.7135 9.84723 40.7227 9.85028C40.7319 9.85331 40.7402 9.85847 40.7471 9.86533C40.7539 9.87218 40.7591 9.88055 40.7621 9.88977C40.7652 9.89898 40.7661 9.90878 40.7646 9.91837V10.1709C40.7646 10.1907 40.7646 10.202 40.7786 10.2076C40.7928 10.2133 40.7998 10.2076 40.814 10.1935C40.9191 10.0588 41.0541 9.95039 41.2084 9.87692C41.3627 9.80345 41.532 9.76692 41.7029 9.77022C41.7385 9.77123 41.774 9.77596 41.8087 9.78433Z" fill="#222222"/>
<path d="M42.9755 12.9858C42.7253 12.846 42.521 12.6367 42.3871 12.3833C42.2489 12.1045 42.1769 11.7973 42.1769 11.4859C42.1769 11.1747 42.2489 10.8675 42.3871 10.5886C42.5147 10.3394 42.7105 10.1315 42.9515 9.98898C43.1997 9.85021 43.4792 9.77734 43.7635 9.77734C44.0478 9.77734 44.3273 9.85021 44.5755 9.98898C44.8134 10.1272 45.0088 10.3283 45.1399 10.5703C45.2791 10.8269 45.3495 11.1151 45.3445 11.407C45.3473 11.4611 45.3473 11.5151 45.3445 11.5692C45.3414 11.5855 45.3326 11.6002 45.3197 11.6106C45.3067 11.621 45.2905 11.6263 45.2739 11.6256H42.7822C42.7257 11.6256 42.7046 11.6552 42.7187 11.7174C42.7431 11.9996 42.8701 12.2632 43.0757 12.4581C43.2842 12.6479 43.5585 12.7492 43.8404 12.7403C44.0145 12.7403 44.1866 12.704 44.3458 12.6336C44.505 12.5631 44.6476 12.46 44.7646 12.3311C44.8154 12.279 44.8563 12.269 44.8845 12.3015L45.1173 12.5499C45.1497 12.578 45.1497 12.6076 45.1173 12.6415C44.9527 12.8161 44.7551 12.9561 44.536 13.0536C44.3165 13.1486 44.0796 13.1966 43.8404 13.1946C43.5388 13.2011 43.2409 13.1291 42.9755 12.9858ZM44.7998 11.1319C44.7634 10.8818 44.6394 10.6528 44.45 10.4856C44.262 10.3218 44.0191 10.2351 43.7698 10.243C43.5172 10.2373 43.2715 10.3264 43.0813 10.4927C42.8914 10.6594 42.7677 10.8887 42.7328 11.1388L42.7257 11.1727C42.7257 11.201 42.7497 11.2165 42.7963 11.2165H44.7363C44.7928 11.2165 44.814 11.1883 44.7998 11.1319Z" fill="#222222"/>
<path d="M46.6058 13.1215H46.232C46.2223 13.1229 46.2125 13.1221 46.2033 13.1191C46.1941 13.116 46.1857 13.1108 46.1788 13.104C46.1721 13.0972 46.1669 13.0887 46.1638 13.0795C46.1607 13.0703 46.16 13.0606 46.1614 13.0509V9.91869C46.16 9.90909 46.1607 9.8993 46.1638 9.89009C46.1669 9.88088 46.1721 9.87251 46.1788 9.86565C46.1857 9.8588 46.1941 9.85363 46.2033 9.85059C46.2125 9.84756 46.2223 9.84671 46.232 9.84814H46.5706C46.5801 9.84671 46.5899 9.84756 46.5991 9.85059C46.6084 9.85363 46.6167 9.8588 46.6236 9.86565C46.6305 9.87251 46.6355 9.88088 46.6386 9.89009C46.6417 9.8993 46.6425 9.90909 46.6411 9.91869V10.1501C46.6411 10.1698 46.6411 10.1811 46.658 10.1868C46.6749 10.1924 46.6834 10.1868 46.6976 10.1656C46.802 10.0475 46.9292 9.9515 47.0714 9.88342C47.2217 9.81441 47.3858 9.78063 47.5511 9.78465C47.6995 9.77465 47.8482 9.7957 47.9879 9.84649C48.1276 9.89726 48.2551 9.97664 48.3624 10.0795C48.5579 10.2902 48.6619 10.5698 48.6516 10.857V13.0509C48.6531 13.0606 48.6523 13.0703 48.6492 13.0795C48.6461 13.0887 48.6411 13.0972 48.6342 13.104C48.6273 13.1108 48.6189 13.116 48.6097 13.1191C48.6005 13.1221 48.5907 13.1229 48.5812 13.1215H48.2072C48.1977 13.1229 48.1878 13.1221 48.1786 13.1191C48.1694 13.116 48.1611 13.1108 48.1542 13.104C48.1473 13.0972 48.1422 13.0887 48.1391 13.0795C48.1361 13.0703 48.1352 13.0606 48.1367 13.0509V10.9345C48.1434 10.8395 48.1313 10.7442 48.1011 10.6538C48.0708 10.5635 48.023 10.48 47.9603 10.4083C47.8923 10.3455 47.8121 10.2973 47.7248 10.2665C47.6375 10.2357 47.5448 10.223 47.4524 10.2291C47.3026 10.2273 47.1557 10.269 47.0291 10.349C46.8962 10.4355 46.7871 10.5539 46.7116 10.6933C46.6882 10.7396 46.6762 10.7909 46.6764 10.8429V13.0439C46.6791 13.054 46.6794 13.0646 46.6769 13.0748C46.6745 13.085 46.6695 13.0943 46.6624 13.1022C46.6554 13.1099 46.6466 13.1157 46.6366 13.1191C46.6268 13.1225 46.6161 13.1233 46.6058 13.1215Z" fill="#222222"/>
<path d="M52.2143 8.01386H52.5952C52.6049 8.01243 52.6146 8.01327 52.6238 8.01632C52.633 8.01935 52.6414 8.02451 52.6482 8.03136C52.6551 8.03822 52.6603 8.04659 52.6633 8.05581C52.6663 8.06501 52.6672 8.07481 52.6658 8.08441V13.0509C52.6672 13.0605 52.6663 13.0702 52.6633 13.0794C52.6603 13.0887 52.6551 13.0971 52.6482 13.1039C52.6414 13.1108 52.633 13.116 52.6238 13.119C52.6146 13.122 52.6049 13.1228 52.5952 13.1215H52.2425C52.2329 13.1228 52.2231 13.122 52.2138 13.119C52.2046 13.116 52.1963 13.1108 52.1894 13.1039C52.1825 13.0971 52.1774 13.0887 52.1744 13.0794C52.1713 13.0702 52.1705 13.0605 52.1719 13.0509V12.804C52.1719 12.78 52.1719 12.7673 52.1536 12.7644C52.1352 12.7617 52.1268 12.7644 52.1085 12.7898C51.8686 13.0565 51.5201 13.1919 51.0643 13.1919C50.777 13.1956 50.4942 13.121 50.246 12.9761C50.0015 12.8323 49.8014 12.6238 49.6675 12.3736C49.5286 12.098 49.4562 11.7935 49.4562 11.4847C49.4562 11.1761 49.5286 10.8716 49.6675 10.5959C49.8015 10.3454 50.0016 10.1366 50.246 9.99199C50.4945 9.84818 50.7772 9.77408 51.0643 9.77752C51.2498 9.76971 51.4351 9.7986 51.6094 9.86252C51.7837 9.92644 51.9437 10.0241 52.0802 10.15C52.0986 10.1698 52.1141 10.1768 52.1254 10.1712C52.1367 10.1655 52.1437 10.1528 52.1437 10.1288V8.08441C52.1423 8.07481 52.1432 8.06501 52.1461 8.05581C52.1492 8.04659 52.1544 8.03822 52.1613 8.03136C52.168 8.02451 52.1765 8.01935 52.1857 8.01632C52.1949 8.01327 52.2046 8.01243 52.2143 8.01386ZM51.7204 12.5839C51.8845 12.4955 52.0213 12.3638 52.1155 12.2029C52.1334 12.1684 52.1431 12.1302 52.1437 12.0914V10.8781C52.1433 10.8387 52.1335 10.8001 52.1155 10.7652C52.0213 10.6044 51.8845 10.4726 51.7204 10.3842C51.5431 10.288 51.3437 10.2393 51.142 10.2431C50.9846 10.2359 50.8275 10.2626 50.6815 10.3216C50.5353 10.3805 50.4037 10.4702 50.2954 10.5846C50.0744 10.8303 49.9589 11.1532 49.9737 11.4834C49.9584 11.8141 50.074 12.1374 50.2954 12.3835C50.4037 12.4979 50.5353 12.5876 50.6815 12.6465C50.8275 12.7055 50.9846 12.7323 51.142 12.725C51.3437 12.7288 51.5431 12.6802 51.7204 12.5839Z" fill="#222222"/>
<path d="M54.2278 12.9858C53.9776 12.8461 53.7732 12.6367 53.6394 12.3833C53.5011 12.1045 53.4291 11.7973 53.4291 11.4861C53.4291 11.1747 53.5011 10.8675 53.6394 10.5886C53.7686 10.3383 53.9669 10.1302 54.2108 9.98901C54.4587 9.85022 54.738 9.77734 55.022 9.77734C55.3062 9.77734 55.5855 9.85022 55.8334 9.98901C56.0714 10.1272 56.2666 10.3283 56.3977 10.5703C56.537 10.8269 56.6073 11.1152 56.6024 11.407C56.6052 11.4611 56.6052 11.5152 56.6024 11.5692C56.5993 11.5855 56.5905 11.6002 56.5775 11.6106C56.5646 11.621 56.5483 11.6263 56.5318 11.6257H54.0344C53.978 11.6257 53.9569 11.6554 53.9709 11.7174C53.9954 11.9997 54.1224 12.2632 54.3279 12.4581C54.5364 12.6481 54.8107 12.7492 55.0926 12.7403C55.2667 12.7403 55.4389 12.704 55.598 12.6336C55.7572 12.5631 55.8998 12.46 56.0168 12.3311C56.0676 12.279 56.1085 12.269 56.1368 12.3015L56.3696 12.557C56.4019 12.5851 56.4019 12.6147 56.3696 12.6486C56.205 12.8231 56.0073 12.9632 55.7882 13.0606C55.5687 13.1556 55.3318 13.2036 55.0926 13.2017C54.7905 13.2061 54.4924 13.1317 54.2278 12.9858ZM56.0521 11.1319C56.0149 10.8814 55.8899 10.6524 55.6993 10.4857C55.5114 10.3218 55.2684 10.2351 55.0193 10.243C54.7666 10.2373 54.521 10.3264 54.3307 10.4927C54.1409 10.6594 54.0172 10.8887 53.9823 11.139L53.9752 11.1728C53.9752 11.201 53.9992 11.2165 54.0458 11.2165H55.9858C56.0441 11.2165 56.0662 11.1883 56.0521 11.1319Z" fill="#222222"/>
<path d="M61.6252 8.35234C61.8296 8.4558 61.999 8.61729 62.112 8.81655C62.2244 9.02234 62.2817 9.25368 62.2784 9.48815C62.2812 9.70736 62.2236 9.92311 62.112 10.1118C62.0083 10.2936 61.8571 10.4438 61.6746 10.5463C61.6281 10.5746 61.6281 10.6 61.6746 10.624C61.8893 10.7287 62.0696 10.8926 62.1946 11.0962C62.3196 11.2999 62.3839 11.535 62.38 11.7739C62.3859 11.9548 62.3539 12.1349 62.2858 12.3026C62.2178 12.4702 62.1153 12.6217 61.985 12.7475C61.7206 13.0014 61.3491 13.1284 60.8704 13.1284H59.4453C59.4357 13.1298 59.4259 13.1289 59.4167 13.1259C59.4075 13.1229 59.3992 13.1177 59.3923 13.1108C59.3854 13.104 59.3802 13.0956 59.3773 13.0864C59.3742 13.0772 59.3733 13.0673 59.3747 13.0578V8.26064C59.3733 8.25104 59.3742 8.24124 59.3773 8.23204C59.3802 8.22283 59.3854 8.21446 59.3923 8.20759C59.3992 8.20074 59.4075 8.19558 59.4167 8.19254C59.4259 8.1895 59.4357 8.18866 59.4453 8.19009H60.8562C61.122 8.18017 61.3862 8.2359 61.6252 8.35234ZM59.9011 8.71778V10.3192C59.9011 10.3432 59.9123 10.3559 59.9363 10.3559H60.7969C61.049 10.3732 61.2983 10.2952 61.4954 10.1372C61.577 10.058 61.6408 9.96229 61.6821 9.8564C61.7235 9.7505 61.7416 9.63694 61.7353 9.52342C61.7416 9.40928 61.7235 9.2951 61.6821 9.18851C61.6408 9.08194 61.577 8.98542 61.4954 8.90543C61.2996 8.74478 61.0495 8.66548 60.7969 8.68392H59.9321C59.9081 8.68392 59.8968 8.70085 59.8968 8.71778H59.9011ZM59.9011 10.8906V12.5838C59.9011 12.6078 59.9123 12.6205 59.9363 12.6205H60.8252C61.098 12.6402 61.3683 12.5571 61.5829 12.3877C61.7486 12.2121 61.8409 11.9799 61.8409 11.7386C61.8409 11.4972 61.7486 11.265 61.5829 11.0896C61.3683 10.92 61.098 10.837 60.8252 10.8568H59.9321C59.9081 10.8568 59.8968 10.8681 59.8968 10.8906H59.9011Z" fill="#222222"/>
<path d="M65.3006 9.84819H65.6746C65.6841 9.84676 65.694 9.8476 65.7032 9.85065C65.7124 9.85368 65.7207 9.85884 65.7276 9.8657C65.7345 9.87256 65.7396 9.88093 65.7426 9.89014C65.7457 9.89936 65.7466 9.90915 65.7451 9.91874V13.051C65.7466 13.0606 65.7457 13.0704 65.7426 13.0796C65.7396 13.0888 65.7345 13.0972 65.7276 13.104C65.7207 13.1109 65.7124 13.1161 65.7032 13.1191C65.694 13.1221 65.6841 13.123 65.6746 13.1216H65.336C65.3263 13.123 65.3165 13.1221 65.3073 13.1191C65.2981 13.1161 65.2897 13.1109 65.2829 13.104C65.2761 13.0972 65.2709 13.0888 65.2678 13.0796C65.2648 13.0704 65.2639 13.0606 65.2654 13.051V12.8168C65.2654 12.7984 65.2654 12.7872 65.2471 12.783C65.2287 12.7787 65.2202 12.783 65.2019 12.8041C65.0982 12.9291 64.9675 13.0289 64.8196 13.0961C64.6717 13.1633 64.5107 13.1961 64.3483 13.1921C64.1998 13.2013 64.051 13.1789 63.9117 13.1267C63.7724 13.0744 63.6457 12.9933 63.5398 12.8888C63.3474 12.6772 63.246 12.3984 63.2577 12.1127V9.91874C63.2562 9.90915 63.257 9.89936 63.2601 9.89014C63.2632 9.88093 63.2683 9.87256 63.2751 9.8657C63.282 9.85884 63.2904 9.85368 63.2996 9.85065C63.3088 9.8476 63.3186 9.84676 63.3281 9.84819H63.7021C63.7116 9.84676 63.7215 9.8476 63.7307 9.85065C63.7399 9.85368 63.7483 9.85884 63.7551 9.8657C63.762 9.87256 63.7671 9.88093 63.7702 9.89014C63.7732 9.89936 63.7741 9.90915 63.7726 9.91874V12.0351C63.7657 12.1299 63.7777 12.2252 63.8079 12.3153C63.8382 12.4055 63.8862 12.4887 63.949 12.56C64.0168 12.6232 64.0969 12.6718 64.1842 12.703C64.2716 12.734 64.3644 12.7468 64.4569 12.7406C64.6066 12.7418 64.7534 12.7001 64.8802 12.6206C65.0131 12.5336 65.1222 12.4148 65.1977 12.275C65.2196 12.2311 65.2316 12.183 65.2329 12.1339V9.91874C65.2316 9.90941 65.2324 9.8999 65.2353 9.89093C65.2382 9.88196 65.2431 9.87376 65.2496 9.86696C65.2562 9.86016 65.2641 9.85494 65.273 9.85169C65.2818 9.84844 65.2913 9.84724 65.3006 9.84819ZM63.544 8.96919C63.508 8.93361 63.4795 8.8912 63.4601 8.84444C63.4407 8.79766 63.4309 8.74749 63.4312 8.69687C63.4312 8.59584 63.4713 8.49894 63.5428 8.42749C63.6142 8.35606 63.7111 8.31592 63.8122 8.31592C63.9131 8.31592 64.0101 8.35606 64.0815 8.42749C64.1529 8.49894 64.1931 8.59584 64.1931 8.69687C64.1933 8.74749 64.1836 8.79766 64.1641 8.84444C64.1448 8.8912 64.1162 8.93361 64.0802 8.96919C64.046 9.00618 64.0045 9.0357 63.9584 9.05585C63.9123 9.07601 63.8625 9.08637 63.8122 9.08629C63.7617 9.08664 63.7119 9.07638 63.6656 9.05621C63.6195 9.03603 63.5781 9.00639 63.544 8.96919ZM64.9339 8.96919C64.8976 8.93381 64.8688 8.89143 64.8494 8.84462C64.8301 8.79781 64.8203 8.74755 64.821 8.69687C64.8228 8.5964 64.8635 8.50055 64.9345 8.4295C65.0056 8.35845 65.1015 8.31773 65.2019 8.31592C65.3023 8.31773 65.3982 8.35845 65.4693 8.4295C65.5403 8.50055 65.5811 8.5964 65.5829 8.69687C65.5832 8.74749 65.5733 8.79766 65.554 8.84444C65.5345 8.8912 65.506 8.93361 65.4699 8.96919C65.4358 9.00611 65.3943 9.03557 65.3482 9.05572C65.302 9.07586 65.2523 9.08627 65.2019 9.08627C65.1515 9.08627 65.1018 9.07586 65.0557 9.05572C65.0095 9.03557 64.968 9.00611 64.9339 8.96919Z" fill="#222222"/>
<path d="M68.3413 9.78433C68.3836 9.78433 68.4048 9.8069 68.4048 9.85488V10.2288C68.4048 10.2697 68.3879 10.2909 68.3554 10.2909C68.3208 10.2909 68.2863 10.2876 68.2524 10.281C68.2213 10.2742 68.1897 10.2704 68.1578 10.2697C68.0028 10.2663 67.8495 10.3036 67.7134 10.3778C67.5773 10.4521 67.4629 10.5608 67.3818 10.693C67.3465 10.7443 67.3291 10.8058 67.3324 10.8679V13.0506C67.3339 13.0603 67.333 13.07 67.33 13.0792C67.3269 13.0884 67.3218 13.0969 67.3149 13.1036C67.3081 13.1105 67.2997 13.1157 67.2905 13.1188C67.2813 13.1217 67.2715 13.1226 67.2619 13.1212H66.888C66.8784 13.1226 66.8686 13.1217 66.8594 13.1188C66.8502 13.1157 66.8418 13.1105 66.8349 13.1036C66.8281 13.0969 66.823 13.0884 66.8199 13.0792C66.8168 13.07 66.816 13.0603 66.8175 13.0506V9.91837C66.816 9.90878 66.8168 9.89898 66.8199 9.88977C66.823 9.88055 66.8281 9.87218 66.8349 9.86533C66.8418 9.85847 66.8502 9.85331 66.8594 9.85028C66.8686 9.84723 66.8784 9.84639 66.888 9.84782H67.2266C67.2362 9.84639 67.2461 9.84723 67.2553 9.85028C67.2645 9.85331 67.2728 9.85847 67.2797 9.86533C67.2865 9.87218 67.2917 9.88055 67.2947 9.88977C67.2978 9.89898 67.2986 9.90878 67.2972 9.91837V10.1709C67.2972 10.1907 67.2972 10.202 67.3112 10.2076C67.3254 10.2133 67.3324 10.2076 67.3466 10.1935C67.4517 10.0588 67.5867 9.95039 67.741 9.87692C67.8953 9.80345 68.0646 9.76692 68.2355 9.77022C68.2711 9.77123 68.3066 9.77596 68.3413 9.78433Z" fill="#222222"/>
<path d="M69.59 14.4292C69.381 14.3385 69.1936 14.2049 69.0397 14.0369C69.033 14.0306 69.0276 14.0229 69.0239 14.0145C69.0203 14.0059 69.0184 13.9968 69.0184 13.9875C69.0184 13.9783 69.0203 13.9691 69.0239 13.9606C69.0276 13.9522 69.033 13.9445 69.0397 13.9382L69.2795 13.6771C69.2919 13.6621 69.3097 13.6525 69.3289 13.6504C69.3481 13.6529 69.3657 13.6624 69.3783 13.6771C69.4936 13.8164 69.6396 13.9272 69.8048 14.0006C69.9701 14.074 70.1501 14.1081 70.3307 14.1004C70.6084 14.1173 70.8831 14.0359 71.1067 13.8705C71.2024 13.7829 71.2769 13.6749 71.3245 13.5544C71.3722 13.4338 71.3918 13.3041 71.3818 13.1748V12.6909C71.3834 12.6828 71.3822 12.6746 71.3784 12.6674C71.3744 12.6602 71.3682 12.6545 71.3607 12.6514C71.3514 12.6506 71.3419 12.652 71.3333 12.6558C71.3247 12.6595 71.3171 12.6652 71.3113 12.6726C71.1751 12.7989 71.0152 12.8971 70.8408 12.9616C70.6665 13.026 70.4811 13.0553 70.2954 13.0478C70.0161 13.0516 69.7408 12.9805 69.4982 12.8419C69.2591 12.7071 69.0633 12.5069 68.9339 12.2647C68.7936 12 68.7231 11.7038 68.7293 11.4041C68.7243 11.1082 68.7973 10.8163 68.9409 10.5576C69.0757 10.3165 69.2744 10.1173 69.5152 9.98191C69.7625 9.8453 70.0411 9.77529 70.3236 9.77874C70.5122 9.76875 70.7008 9.79864 70.8771 9.86647C71.0534 9.9343 71.2134 10.0385 71.3466 10.1724C71.3649 10.1921 71.3805 10.1992 71.3917 10.195C71.403 10.1907 71.4101 10.1752 71.4101 10.1512V9.91842C71.4104 9.89982 71.4179 9.88209 71.4312 9.86894C71.4443 9.85578 71.4621 9.84823 71.4806 9.84787H71.8263C71.8359 9.84644 71.8457 9.84729 71.8549 9.85032C71.8641 9.85336 71.8724 9.85851 71.8793 9.86538C71.8862 9.87224 71.8914 9.88061 71.8944 9.88981C71.8974 9.89903 71.8982 9.90882 71.8969 9.91842V13.2158C71.9066 13.4042 71.8725 13.5923 71.7974 13.7654C71.7222 13.9384 71.608 14.0917 71.4636 14.2133C71.141 14.461 70.7414 14.5874 70.335 14.5702C70.0794 14.5764 69.8255 14.5283 69.59 14.4292ZM70.9657 12.444C71.126 12.3613 71.2622 12.2382 71.3607 12.087C71.3846 12.0496 71.3969 12.0059 71.3959 11.9615V10.8623C71.3981 10.8178 71.3858 10.7737 71.3607 10.7368C71.265 10.585 71.1313 10.4609 70.9726 10.377C70.7964 10.2851 70.5999 10.2391 70.4012 10.2429C70.2491 10.2367 70.0973 10.2623 69.9556 10.3182C69.814 10.3741 69.6855 10.459 69.5787 10.5674C69.4723 10.6803 69.3898 10.8134 69.336 10.9589C69.2822 11.1043 69.2581 11.2591 69.2654 11.4141C69.2591 11.5688 69.2834 11.7234 69.3372 11.8687C69.3909 12.014 69.4731 12.1472 69.5787 12.2605C69.6858 12.3688 69.8141 12.4535 69.9558 12.5094C70.0974 12.5653 70.2491 12.5911 70.4012 12.5851C70.5981 12.5856 70.7921 12.5371 70.9657 12.444Z" fill="#222222"/>
<path d="M73.5292 12.9858C73.279 12.846 73.0747 12.6367 72.9408 12.3833C72.8031 12.1042 72.7313 11.7973 72.7313 11.4859C72.7313 11.1747 72.8031 10.8677 72.9408 10.5886C73.071 10.3388 73.2691 10.131 73.5123 9.98898C73.7604 9.85021 74.04 9.77734 74.3243 9.77734C74.6086 9.77734 74.8881 9.85021 75.1363 9.98898C75.3743 10.1272 75.5695 10.3283 75.7006 10.5703C75.8398 10.8269 75.9103 11.1151 75.9053 11.407C75.9058 11.4612 75.9034 11.5154 75.8982 11.5692C75.8951 11.5855 75.8863 11.6002 75.8734 11.6106C75.8604 11.621 75.8442 11.6263 75.8276 11.6256H73.336C73.2795 11.6256 73.2583 11.6552 73.2725 11.7174C73.2969 11.9993 73.4234 12.2627 73.628 12.4581C73.8372 12.6478 74.1119 12.749 74.3942 12.7403C74.5681 12.7403 74.7403 12.704 74.8995 12.6336C75.0586 12.5631 75.2014 12.46 75.3183 12.3311C75.3691 12.279 75.41 12.269 75.4382 12.3015L75.671 12.5568C75.7035 12.5851 75.7035 12.6147 75.671 12.6486C75.5065 12.8231 75.3089 12.9632 75.0897 13.0605C74.8703 13.1556 74.6333 13.2036 74.3942 13.2017C74.092 13.2061 73.7939 13.1318 73.5292 12.9858ZM75.3535 11.1319C75.3171 10.8818 75.1931 10.6528 75.0037 10.4856C74.8158 10.3218 74.5728 10.2351 74.3236 10.243C74.0709 10.2373 73.8253 10.3264 73.635 10.4927C73.4452 10.6594 73.3215 10.8887 73.2866 11.1388V11.1727C73.2866 11.201 73.3106 11.2165 73.3571 11.2165H75.2971C75.3489 11.2165 75.3676 11.1883 75.3535 11.1319Z" fill="#222222"/>
<path d="M78.2389 9.78433C78.2813 9.78433 78.3024 9.8069 78.3024 9.85488V10.2288C78.3024 10.2697 78.2855 10.2909 78.253 10.2909C78.2185 10.2909 78.184 10.2876 78.15 10.281C78.1189 10.2742 78.0873 10.2704 78.0555 10.2697C77.9004 10.2663 77.7472 10.3036 77.611 10.3778C77.4749 10.4521 77.3606 10.5608 77.2795 10.693C77.2442 10.7443 77.2268 10.8058 77.2302 10.8679V13.0506C77.2315 13.0603 77.2307 13.07 77.2276 13.0792C77.2247 13.0884 77.2195 13.0969 77.2126 13.1036C77.2057 13.1105 77.1973 13.1157 77.1881 13.1188C77.1789 13.1217 77.1692 13.1226 77.1596 13.1212H76.7857C76.7761 13.1226 76.7662 13.1217 76.757 13.1188C76.7478 13.1157 76.7395 13.1105 76.7326 13.1036C76.7258 13.0969 76.7206 13.0884 76.7176 13.0792C76.7145 13.07 76.7136 13.0603 76.7151 13.0506V9.91837C76.7136 9.90878 76.7145 9.89898 76.7176 9.88977C76.7206 9.88055 76.7258 9.87218 76.7326 9.86533C76.7395 9.85847 76.7478 9.85331 76.757 9.85028C76.7662 9.84723 76.7761 9.84639 76.7857 9.84782H77.1243C77.1339 9.84639 77.1437 9.84723 77.1529 9.85028C77.1621 9.85331 77.1705 9.85847 77.1773 9.86533C77.1842 9.87218 77.1893 9.88055 77.1924 9.88977C77.1954 9.89898 77.1963 9.90878 77.1948 9.91837V10.1709C77.1948 10.1907 77.1948 10.202 77.209 10.2076C77.2231 10.2133 77.2302 10.2076 77.2442 10.1935C77.3493 10.0588 77.4844 9.95039 77.6387 9.87692C77.793 9.80345 77.9622 9.76692 78.1331 9.77022C78.1688 9.77123 78.2042 9.77596 78.2389 9.78433Z" fill="#222222"/>
<path d="M79.403 13.1214H79.029C79.0195 13.1228 79.0096 13.1219 79.0004 13.119C78.9912 13.1159 78.9829 13.1107 78.976 13.1038C78.9691 13.097 78.964 13.0886 78.961 13.0794C78.9579 13.0702 78.9571 13.0604 78.9585 13.0508V9.91855C78.9571 9.90895 78.9579 9.89917 78.961 9.88995C78.964 9.88074 78.9691 9.87237 78.976 9.86552C78.9829 9.85866 78.9912 9.85349 79.0004 9.85046C79.0096 9.84742 79.0195 9.84657 79.029 9.848H79.3676C79.3773 9.84657 79.3871 9.84742 79.3963 9.85046C79.4055 9.85349 79.4139 9.85866 79.4208 9.86552C79.4275 9.87237 79.4327 9.88074 79.4358 9.88995C79.4389 9.89917 79.4397 9.90895 79.4382 9.91855V10.1499C79.4382 10.1697 79.4382 10.181 79.4551 10.1866C79.4721 10.1923 79.4805 10.1866 79.4946 10.1655C79.5983 10.0404 79.7289 9.94044 79.8768 9.87322C80.0247 9.806 80.1859 9.77326 80.3483 9.77746C80.5506 9.77185 80.751 9.81747 80.931 9.91009C81.0891 9.9969 81.2215 10.1239 81.3147 10.2783C81.3331 10.3108 81.3571 10.3108 81.3853 10.2783C81.5037 10.131 81.647 10.0054 81.8086 9.90726C81.97 9.8169 82.1528 9.77203 82.3377 9.77746C82.4862 9.76816 82.6348 9.79025 82.7741 9.84227C82.9135 9.89429 83.0402 9.97509 83.1462 10.0794C83.3382 10.2917 83.4396 10.5708 83.4284 10.8568V13.0508C83.4298 13.0604 83.4289 13.0702 83.4259 13.0794C83.4229 13.0886 83.4177 13.097 83.4108 13.1038C83.4039 13.1107 83.3956 13.1159 83.3864 13.119C83.3772 13.1219 83.3674 13.1228 83.3578 13.1214H82.9839C82.9743 13.1228 82.9646 13.1219 82.9553 13.119C82.946 13.1159 82.9377 13.1107 82.9309 13.1038C82.924 13.097 82.9189 13.0886 82.9158 13.0794C82.9128 13.0702 82.912 13.0604 82.9133 13.0508V10.9344C82.9201 10.8391 82.9075 10.7433 82.8765 10.6529C82.8455 10.5625 82.7966 10.4793 82.7327 10.4082C82.6639 10.3469 82.5835 10.3002 82.4962 10.2706C82.409 10.241 82.3167 10.2293 82.2248 10.236C82.0736 10.2355 81.9251 10.2775 81.7966 10.3573C81.6682 10.4372 81.5647 10.5516 81.4982 10.6875C81.4687 10.739 81.454 10.7976 81.4559 10.8568V13.0508C81.4573 13.0604 81.4564 13.0702 81.4535 13.0794C81.4504 13.0886 81.4452 13.097 81.4383 13.1038C81.4314 13.1107 81.4231 13.1159 81.4139 13.119C81.4047 13.1219 81.3949 13.1228 81.3853 13.1214H81.0114C81.0018 13.1228 80.992 13.1219 80.9828 13.119C80.9736 13.1159 80.9652 13.1107 80.9583 13.1038C80.9516 13.097 80.9464 13.0886 80.9433 13.0794C80.9403 13.0702 80.9395 13.0604 80.9409 13.0508V10.9344C80.9476 10.8394 80.9355 10.744 80.9052 10.6537C80.8749 10.5633 80.8271 10.4799 80.7645 10.4082C80.6964 10.3454 80.6163 10.2972 80.5289 10.2664C80.4416 10.2356 80.3489 10.2228 80.2565 10.229C80.1069 10.2272 79.9598 10.2688 79.8332 10.3489C79.7004 10.4354 79.5913 10.5537 79.5158 10.6931C79.4919 10.7418 79.4798 10.7955 79.4805 10.8497V13.0508C79.4823 13.0612 79.4815 13.0718 79.4781 13.0816C79.4747 13.0915 79.4689 13.1004 79.4612 13.1074C79.4535 13.1145 79.444 13.1195 79.4339 13.1219C79.4237 13.1244 79.413 13.1241 79.403 13.1214Z" fill="#222222"/>
<path d="M85.0227 12.9858C84.7719 12.8465 84.5669 12.6372 84.4329 12.3833C84.2947 12.1045 84.2228 11.7973 84.2228 11.4861C84.2228 11.1747 84.2947 10.8675 84.4329 10.5886C84.5603 10.3392 84.7561 10.1312 84.9973 9.98901C85.2452 9.85022 85.5246 9.77734 85.8086 9.77734C86.0927 9.77734 86.372 9.85022 86.6199 9.98901C86.8579 10.1272 87.0531 10.3283 87.1843 10.5703C87.3234 10.8269 87.3939 11.1152 87.3888 11.407C87.3918 11.4611 87.3918 11.5152 87.3888 11.5692C87.3858 11.5855 87.3771 11.6002 87.364 11.6106C87.3511 11.621 87.3348 11.6263 87.3183 11.6257H84.828C84.7716 11.6257 84.7504 11.6554 84.7645 11.7174C84.7889 11.9997 84.9159 12.2632 85.1215 12.4581C85.3301 12.6481 85.6044 12.7492 85.8862 12.7403C86.0602 12.7403 86.2324 12.704 86.3916 12.6336C86.5507 12.5631 86.6934 12.46 86.8104 12.3311C86.8626 12.279 86.902 12.269 86.9303 12.3015L87.1631 12.5499C87.1956 12.578 87.1956 12.6076 87.1631 12.6415C86.9985 12.8161 86.801 12.9561 86.5818 13.0536C86.3342 13.1579 86.0666 13.2059 85.7981 13.1942C85.5298 13.1825 85.2673 13.1113 85.0298 12.9858H85.0227ZM86.8456 11.1319C86.8092 10.8818 86.6852 10.6528 86.4957 10.4857C86.3078 10.3218 86.0649 10.2351 85.8157 10.243C85.563 10.2373 85.3174 10.3264 85.1271 10.4927C84.9373 10.6594 84.8136 10.8887 84.7787 11.139L84.7716 11.1728C84.7716 11.201 84.7956 11.2165 84.8421 11.2165H86.7821C86.8385 11.2165 86.8597 11.1883 86.8456 11.1319Z" fill="#222222"/>
<path d="M88.203 8.96918C88.1663 8.93394 88.1372 8.89166 88.1173 8.84485C88.0974 8.79806 88.0872 8.74772 88.0872 8.69687C88.0871 8.64684 88.0973 8.59733 88.1173 8.55143C88.1372 8.50554 88.1664 8.46427 88.203 8.43021C88.2383 8.39386 88.2808 8.36501 88.3275 8.34538C88.3743 8.32574 88.4246 8.31572 88.4753 8.31592C88.5244 8.31593 88.5728 8.3261 88.6177 8.34577C88.6627 8.36543 88.703 8.39419 88.7363 8.43021C88.7741 8.46448 88.8043 8.50629 88.825 8.55296C88.8456 8.59961 88.8562 8.65008 88.8562 8.70111C88.8565 8.75172 88.8467 8.8019 88.8273 8.84866C88.808 8.89542 88.7794 8.93785 88.7433 8.97341C88.7104 9.01008 88.6702 9.03944 88.6252 9.05961C88.5802 9.07978 88.5316 9.09031 88.4824 9.09051C88.4299 9.09094 88.3779 9.08037 88.3298 9.05947C88.2817 9.03857 88.2384 9.0078 88.203 8.96918ZM88.203 13.051V9.91874C88.2015 9.90914 88.2024 9.89935 88.2054 9.89013C88.2085 9.88093 88.2136 9.87256 88.2204 9.8657C88.2273 9.85884 88.2357 9.85368 88.2449 9.85064C88.2541 9.8476 88.2639 9.84676 88.2735 9.84819H88.6474C88.657 9.84676 88.6668 9.8476 88.676 9.85064C88.6852 9.85368 88.6936 9.85884 88.7004 9.8657C88.7073 9.87256 88.7125 9.88093 88.7155 9.89013C88.7185 9.89935 88.7194 9.90914 88.7179 9.91874V13.051C88.7194 13.0606 88.7185 13.0704 88.7155 13.0796C88.7125 13.0888 88.7073 13.0972 88.7004 13.104C88.6936 13.1109 88.6852 13.1161 88.676 13.1191C88.6668 13.1221 88.657 13.1229 88.6474 13.1216H88.2777C88.2682 13.1229 88.2583 13.1221 88.2491 13.1191C88.2399 13.1161 88.2316 13.1109 88.2247 13.104C88.2178 13.0972 88.2127 13.0888 88.2097 13.0796C88.2066 13.0704 88.2057 13.0606 88.2072 13.051H88.203Z" fill="#222222"/>
<path d="M89.968 12.9859C89.7772 12.846 89.6371 12.6479 89.5687 12.4216V12.3919C89.5687 12.3637 89.5842 12.3453 89.6181 12.3368L89.9567 12.2169L89.985 12.2099C90.0131 12.2099 90.0343 12.2282 90.0485 12.2663C90.0857 12.4085 90.1715 12.5333 90.2911 12.619C90.403 12.7006 90.5379 12.7445 90.6763 12.7446C90.8392 12.7569 91.0008 12.7064 91.1278 12.6036C91.1786 12.5566 91.2187 12.4992 91.2455 12.4355C91.2723 12.3717 91.2851 12.3029 91.283 12.2338C91.2865 12.1674 91.2747 12.101 91.2486 12.04C91.2224 11.9788 91.1825 11.9244 91.132 11.8811C91.0088 11.7861 90.8628 11.7248 90.7088 11.7034L90.4265 11.6483C90.2042 11.6116 90.0018 11.4978 89.8551 11.3266C89.7328 11.176 89.6598 10.9913 89.6459 10.7978C89.632 10.6042 89.678 10.411 89.7776 10.2444C89.8691 10.0971 90.0001 9.97829 90.1556 9.90158C90.3254 9.81803 90.5126 9.77595 90.7017 9.77883C90.9373 9.77156 91.1689 9.84195 91.3606 9.97918C91.5482 10.1221 91.6816 10.3246 91.7387 10.5534L91.7458 10.5817C91.7458 10.6113 91.726 10.631 91.6893 10.6466L91.3578 10.7312L91.3295 10.7383C91.3014 10.7383 91.2829 10.72 91.2731 10.6819C91.2431 10.5526 91.1724 10.4364 91.0713 10.3503C90.9667 10.267 90.8353 10.2244 90.7017 10.2303C90.5571 10.2231 90.4151 10.2704 90.3038 10.363C90.255 10.4046 90.216 10.4566 90.1896 10.5152C90.1633 10.5737 90.1503 10.6374 90.1514 10.7016C90.1472 10.7613 90.1558 10.8212 90.1764 10.8774C90.1971 10.9336 90.2295 10.9847 90.2713 11.0275C90.3746 11.1128 90.4988 11.1688 90.6311 11.1898L90.9133 11.2448C91.1496 11.2881 91.3671 11.4023 91.5369 11.5721C91.7023 11.7623 91.7888 12.0085 91.7785 12.2603C91.7682 12.5121 91.6622 12.7505 91.4819 12.9266C91.2545 13.1173 90.9628 13.2143 90.6664 13.1975C90.4167 13.2052 90.1714 13.1309 89.968 12.9859Z" fill="#222222"/>
<path d="M92.8139 8.57104L93.1949 8.36504C93.2066 8.36335 93.2185 8.36335 93.2301 8.36504C93.2626 8.36504 93.2795 8.38339 93.2795 8.42148V9.8183C93.2788 9.8231 93.2792 9.828 93.2808 9.83261C93.2823 9.83721 93.2848 9.84139 93.2883 9.84483C93.2917 9.84826 93.2959 9.85083 93.3005 9.85235C93.3051 9.85388 93.31 9.85429 93.3148 9.85358H93.7028C93.7124 9.85215 93.7222 9.85299 93.7314 9.85602C93.7406 9.85907 93.7489 9.86422 93.7558 9.87108C93.7627 9.87794 93.7679 9.88631 93.7709 9.89553C93.7739 9.90473 93.7748 9.91453 93.7734 9.92412V10.2261C93.7748 10.2357 93.7739 10.2455 93.7709 10.2547C93.7679 10.2639 93.7627 10.2722 93.7558 10.2791C93.7489 10.286 93.7406 10.2911 93.7314 10.2942C93.7222 10.2972 93.7124 10.298 93.7028 10.2966H93.3148C93.2908 10.2966 93.2795 10.3093 93.2795 10.3333V13.0563C93.2809 13.066 93.2801 13.0758 93.2771 13.085C93.274 13.0942 93.2688 13.1026 93.2621 13.1095C93.2552 13.1163 93.2468 13.1214 93.2376 13.1245C93.2284 13.1276 93.2186 13.1284 93.2089 13.1269H92.8351C92.8254 13.1284 92.8157 13.1276 92.8065 13.1245C92.7973 13.1214 92.7889 13.1163 92.7821 13.1095C92.7752 13.1026 92.77 13.0942 92.7669 13.085C92.764 13.0758 92.7631 13.066 92.7645 13.0563V10.3277C92.7645 10.3037 92.7533 10.291 92.7292 10.291H92.3412C92.3317 10.2924 92.3218 10.2916 92.3126 10.2885C92.3034 10.2855 92.2951 10.2803 92.2882 10.2735C92.2813 10.2666 92.2762 10.2582 92.2732 10.249C92.2701 10.2398 92.2692 10.23 92.2707 10.2204V9.91848C92.2692 9.90888 92.2701 9.89909 92.2732 9.88988C92.2762 9.88067 92.2813 9.8723 92.2882 9.86544C92.2951 9.85858 92.3034 9.85342 92.3126 9.85038C92.3218 9.84735 92.3317 9.8465 92.3412 9.84793H92.7292C92.734 9.84865 92.739 9.84822 92.7435 9.84671C92.7482 9.84519 92.7523 9.84261 92.7558 9.83918C92.7592 9.83575 92.7617 9.83157 92.7633 9.82695C92.7648 9.82235 92.7652 9.81745 92.7645 9.81266V8.6557C92.7628 8.63817 92.7666 8.62054 92.7754 8.60532C92.7843 8.59012 92.7978 8.57811 92.8139 8.57104Z" fill="#222222"/>
<path d="M95.0459 12.986C94.7958 12.8462 94.5914 12.6369 94.4576 12.3834C94.3198 12.1044 94.248 11.7974 94.248 11.4861C94.248 11.1749 94.3198 10.8679 94.4576 10.5888C94.5877 10.339 94.7858 10.1311 95.029 9.98913C95.2769 9.84673 95.5586 9.77363 95.8446 9.77749C96.1277 9.77397 96.4066 9.8471 96.6517 9.98913C96.8897 10.1271 97.0851 10.3283 97.216 10.5704C97.3551 10.827 97.4256 11.1153 97.4205 11.4071C97.4211 11.4613 97.4187 11.5155 97.4135 11.5694C97.4105 11.5856 97.4017 11.6004 97.3887 11.6107C97.3758 11.6211 97.3596 11.6264 97.343 11.6259H94.8527C94.7962 11.6259 94.775 11.6554 94.7892 11.7175C94.8132 11.9996 94.9397 12.2631 95.1448 12.4582C95.354 12.648 95.6286 12.7491 95.9109 12.7405C96.085 12.7405 96.257 12.7042 96.4163 12.6337C96.5755 12.5632 96.7181 12.4601 96.835 12.3313C96.8858 12.2791 96.9268 12.2691 96.9549 12.3016L97.1877 12.557C97.2202 12.5852 97.2202 12.6149 97.1877 12.6487C97.0232 12.8232 96.8256 12.9633 96.6065 13.0607C96.3869 13.1556 96.1501 13.2036 95.9109 13.2018C95.6087 13.2063 95.3106 13.1319 95.0459 12.986ZM96.8703 11.132C96.8333 10.8822 96.7094 10.6533 96.5204 10.4858C96.3325 10.3219 96.0895 10.2352 95.8403 10.2431C95.5876 10.2374 95.342 10.3265 95.1518 10.4928C94.9619 10.6595 94.8382 10.8888 94.8033 11.1391V11.1729C94.8033 11.2011 94.8258 11.2167 94.8739 11.2167H96.8139C96.8703 11.2167 96.8891 11.1884 96.8703 11.132Z" fill="#222222"/>
<path d="M99.7556 9.78433C99.798 9.78433 99.8191 9.8069 99.8191 9.85488V10.2288C99.8191 10.2697 99.8022 10.2909 99.7697 10.2909C99.7352 10.2909 99.7007 10.2876 99.6668 10.281C99.6356 10.2742 99.604 10.2704 99.5723 10.2697C99.4171 10.2663 99.2639 10.3036 99.1277 10.3778C98.9916 10.4521 98.8773 10.5608 98.7962 10.693C98.7609 10.7443 98.7435 10.8058 98.7469 10.8679V13.0506C98.7482 13.0603 98.7474 13.07 98.7443 13.0792C98.7414 13.0884 98.7362 13.0969 98.7293 13.1036C98.7224 13.1105 98.7141 13.1157 98.7049 13.1188C98.6956 13.1217 98.6859 13.1226 98.6763 13.1212H98.3094C98.2999 13.1226 98.29 13.1217 98.2808 13.1188C98.2716 13.1157 98.2633 13.1105 98.2564 13.1036C98.2495 13.0969 98.2443 13.0884 98.2414 13.0792C98.2383 13.07 98.2375 13.0603 98.2389 13.0506V9.91837C98.2375 9.90878 98.2383 9.89898 98.2414 9.88977C98.2443 9.88055 98.2495 9.87218 98.2564 9.86533C98.2633 9.85847 98.2716 9.85331 98.2808 9.85028C98.29 9.84723 98.2999 9.84639 98.3094 9.84782H98.648C98.6577 9.84639 98.6674 9.84723 98.6767 9.85028C98.6859 9.85331 98.6943 9.85847 98.701 9.86533C98.7079 9.87218 98.7131 9.88055 98.7162 9.88977C98.7191 9.89898 98.72 9.90878 98.7186 9.91837V10.1709C98.7186 10.1907 98.7186 10.202 98.7327 10.2076C98.7469 10.2133 98.7539 10.2076 98.768 10.1935C98.8731 10.0588 99.0081 9.95039 99.1624 9.87692C99.3167 9.80345 99.486 9.76692 99.6569 9.77022C99.6901 9.77171 99.7233 9.77644 99.7556 9.78433Z" fill="#222222"/>
<path d="M12.4048 18.9768H12.8069C12.8577 18.9768 12.8775 19.0036 12.8634 19.0544L11.8193 22.1938C11.8129 22.2121 11.8005 22.2277 11.7841 22.238C11.7676 22.2483 11.7483 22.2526 11.729 22.2502H11.1843C11.165 22.2526 11.1453 22.2484 11.1286 22.2381C11.112 22.2278 11.0993 22.2122 11.0926 22.1938L10.0542 19.0544V19.0263C10.0542 18.9938 10.0754 18.9768 10.1177 18.9768H10.5128C10.5312 18.9754 10.5496 18.98 10.5649 18.9903C10.5803 19.0005 10.5917 19.0157 10.5974 19.0332L11.4439 21.6379C11.4452 21.6434 11.4483 21.6483 11.4526 21.6519C11.4569 21.6555 11.4623 21.6575 11.4679 21.6576C11.4806 21.6576 11.4877 21.6506 11.4933 21.6379L12.3314 19.0332C12.3368 19.0178 12.3467 19.0041 12.3597 18.9942C12.3728 18.9841 12.3885 18.9781 12.4048 18.9768Z" fill="#222222"/>
<path d="M14.1079 22.0921C13.859 21.9411 13.6545 21.7269 13.5153 21.4713C13.3744 21.2076 13.3008 20.9132 13.3008 20.6141C13.3008 20.3152 13.3744 20.0208 13.5153 19.757C13.6541 19.5011 13.8587 19.2868 14.1079 19.1363C14.3642 18.9844 14.6565 18.9043 14.9544 18.9043C15.2523 18.9043 15.5447 18.9844 15.801 19.1363C16.0505 19.2864 16.2552 19.5008 16.3936 19.757C16.5352 20.0205 16.6094 20.315 16.6094 20.6141C16.6094 20.9133 16.5352 21.2078 16.3936 21.4713C16.2547 21.7273 16.0502 21.9415 15.801 22.0921C15.5444 22.2431 15.2521 22.3227 14.9544 22.3227C14.6567 22.3227 14.3644 22.2431 14.1079 22.0921ZM15.5328 21.6829C15.7051 21.5726 15.8441 21.4175 15.935 21.2342C16.0306 21.0413 16.0804 20.8288 16.0804 20.6135C16.0804 20.3981 16.0306 20.1857 15.935 19.9927C15.8438 19.8099 15.7049 19.6554 15.5328 19.5454C15.3582 19.4366 15.1567 19.3789 14.9508 19.3789C14.7451 19.3789 14.5435 19.4366 14.3688 19.5454C14.1978 19.6547 14.059 19.8076 13.9667 19.9884C13.8721 20.1817 13.8228 20.394 13.8228 20.6093C13.8228 20.8244 13.8721 21.0368 13.9667 21.23C14.0579 21.4131 14.1969 21.5681 14.3688 21.6787C14.5438 21.7866 14.7453 21.8438 14.9508 21.8438C15.1564 21.8438 15.3579 21.7866 15.5328 21.6787V21.6829Z" fill="#222222"/>
<path d="M17.8862 22.2457H17.5124C17.5028 22.2472 17.493 22.2463 17.4838 22.2432C17.4746 22.2402 17.4662 22.2351 17.4594 22.2282C17.4525 22.2213 17.4473 22.213 17.4443 22.2038C17.4413 22.1946 17.4404 22.1847 17.4418 22.1752V19.0429C17.4404 19.0333 17.4413 19.0235 17.4443 19.0142C17.4473 19.005 17.4525 18.9967 17.4594 18.9898C17.4662 18.983 17.4746 18.9778 17.4838 18.9748C17.493 18.9717 17.5028 18.971 17.5124 18.9723H17.851C17.8606 18.971 17.8704 18.9717 17.8796 18.9748C17.8888 18.9778 17.8971 18.983 17.904 18.9898C17.9109 18.9967 17.9161 19.005 17.9192 19.0142C17.9221 19.0235 17.923 19.0333 17.9216 19.0429V19.2827C17.9216 19.3025 17.9216 19.3138 17.9385 19.3181C17.9555 19.3223 17.9639 19.3181 17.978 19.2969C18.0815 19.174 18.2087 19.0733 18.3519 19.0006C18.5024 18.9322 18.6664 18.8985 18.8316 18.9018C18.9805 18.893 19.1296 18.9154 19.2693 18.9677C19.4091 19.02 19.5363 19.1008 19.6429 19.2051C19.8381 19.4154 19.9421 19.6945 19.9322 19.9811V22.1752C19.9335 22.1847 19.9327 22.1946 19.9296 22.2038C19.9267 22.213 19.9215 22.2213 19.9146 22.2282C19.9077 22.2351 19.8994 22.2402 19.8902 22.2432C19.881 22.2463 19.8712 22.2472 19.8616 22.2457H19.4877C19.4781 22.2472 19.4683 22.2463 19.459 22.2432C19.4498 22.2402 19.4415 22.2351 19.4346 22.2282C19.4278 22.2213 19.4226 22.213 19.4196 22.2038C19.4165 22.1946 19.4158 22.1847 19.4171 22.1752V20.07C19.4237 19.9753 19.4115 19.8801 19.3813 19.79C19.351 19.7 19.3033 19.6168 19.2407 19.5451C19.1728 19.4822 19.0927 19.4337 19.0054 19.4026C18.9181 19.3716 18.8253 19.3587 18.7328 19.3646C18.5831 19.3628 18.4361 19.4045 18.3095 19.4845C18.1766 19.5715 18.0675 19.6903 17.9921 19.8302C17.9686 19.876 17.9564 19.9268 17.9568 19.9784V22.1794C17.9576 22.1886 17.9562 22.198 17.9528 22.2066C17.9495 22.2153 17.9442 22.2231 17.9375 22.2295C17.9307 22.2358 17.9225 22.2406 17.9138 22.2435C17.9049 22.2462 17.8955 22.2471 17.8862 22.2457Z" fill="#222222"/>
<path d="M25.1766 17.4811C25.3814 17.5845 25.5508 17.7467 25.6634 17.9467C25.7757 18.152 25.833 18.3829 25.8299 18.6168C25.8318 18.8336 25.7757 19.047 25.6676 19.2348C25.5634 19.416 25.4123 19.5656 25.2302 19.6679C25.1836 19.6962 25.1836 19.723 25.2302 19.7456C25.4415 19.8505 25.6197 20.0115 25.7452 20.2112C25.8725 20.4165 25.9385 20.6539 25.9357 20.8954C25.9417 21.0764 25.9096 21.2565 25.8415 21.4242C25.7735 21.592 25.6709 21.7435 25.5407 21.869C25.2767 22.123 24.9057 22.2499 24.4246 22.2499H23.001C22.9914 22.2514 22.9815 22.2506 22.9723 22.2475C22.9631 22.2444 22.9547 22.2394 22.9479 22.2325C22.9411 22.2256 22.9359 22.2172 22.9328 22.208C22.9298 22.1988 22.9289 22.189 22.9304 22.1795V17.3822C22.9289 17.3727 22.9298 17.3629 22.9328 17.3537C22.9359 17.3444 22.9411 17.3361 22.9479 17.3292C22.9547 17.3223 22.9631 17.3172 22.9723 17.3142C22.9815 17.3111 22.9914 17.3103 23.001 17.3117H24.4119C24.6769 17.3047 24.9394 17.3629 25.1766 17.4811ZM23.4524 17.8478V19.4493C23.4518 19.4541 23.4522 19.4589 23.4537 19.4636C23.4552 19.4681 23.4578 19.4724 23.4612 19.4758C23.4646 19.4793 23.4688 19.4818 23.4735 19.4833C23.478 19.4849 23.4829 19.4853 23.4878 19.4845H24.3484C24.6 19.5026 24.8492 19.4245 25.0454 19.2658C25.1278 19.1872 25.192 19.0915 25.2337 18.9856C25.2753 18.8796 25.2934 18.7658 25.2867 18.6521C25.2929 18.5381 25.2747 18.4239 25.233 18.3176C25.1915 18.2112 25.1274 18.115 25.0454 18.0356C24.8502 17.8747 24.6007 17.7949 24.3484 17.8126H23.4878C23.4829 17.8119 23.478 17.8123 23.4735 17.8139C23.4688 17.8153 23.4646 17.8179 23.4612 17.8214C23.4578 17.8248 23.4552 17.829 23.4537 17.8335C23.4522 17.8382 23.4518 17.8431 23.4524 17.8478ZM23.4524 20.0207V21.7139C23.4518 21.7186 23.4522 21.7235 23.4537 21.7281C23.4552 21.7327 23.4578 21.7369 23.4612 21.7403C23.4646 21.7438 23.4688 21.7463 23.4735 21.7478C23.478 21.7494 23.4829 21.7498 23.4878 21.7491H24.3766C24.6493 21.7689 24.9196 21.6858 25.1343 21.5163C25.2999 21.3408 25.3923 21.1086 25.3923 20.8673C25.3923 20.6259 25.2999 20.3938 25.1343 20.2182C24.9193 20.0497 24.649 19.9677 24.3766 19.9883H23.4878C23.4832 19.9876 23.4785 19.988 23.4742 19.9894C23.4698 19.9908 23.4657 19.993 23.4625 19.9962C23.4591 19.9993 23.4564 20.0031 23.4546 20.0073C23.4529 20.0115 23.4522 20.0161 23.4524 20.0207Z" fill="#222222"/>
<path d="M27.4693 22.1162C27.2184 21.9768 27.0135 21.7675 26.8796 21.5137C26.7422 21.2343 26.6708 20.927 26.6708 20.6157C26.6708 20.3042 26.7422 19.997 26.8796 19.7176C27.0096 19.4677 27.2077 19.2599 27.451 19.1179C27.6988 18.9792 27.9782 18.9062 28.2623 18.9062C28.5463 18.9062 28.8257 18.9792 29.0735 19.1179C29.3119 19.2563 29.5073 19.458 29.638 19.7006C29.7773 19.9567 29.8483 20.2445 29.8439 20.5359C29.8448 20.5902 29.842 20.6443 29.8354 20.6982C29.8333 20.715 29.8249 20.7304 29.8117 20.7412C29.7986 20.752 29.7819 20.7573 29.765 20.756H27.2761C27.2196 20.756 27.1984 20.7856 27.2111 20.8464C27.2352 21.1287 27.3623 21.3923 27.5681 21.5871C27.7778 21.7744 28.0518 21.873 28.3328 21.8622C28.507 21.8627 28.6792 21.8266 28.8385 21.756C28.9977 21.6855 29.1403 21.5823 29.257 21.453C29.3092 21.4009 29.3501 21.3924 29.3769 21.4248L29.6111 21.6787C29.6187 21.6838 29.6249 21.6906 29.6292 21.6986C29.6335 21.7066 29.6358 21.7156 29.6358 21.7247C29.6358 21.7337 29.6335 21.7427 29.6292 21.7507C29.6249 21.7586 29.6187 21.7655 29.6111 21.7705C29.4464 21.9458 29.2482 22.0864 29.0284 22.1839C28.809 22.2791 28.5719 22.3271 28.3328 22.325C28.0317 22.3314 27.7342 22.2595 27.4693 22.1162ZM29.2936 20.2607C29.2562 20.0114 29.1324 19.7833 28.9438 19.616C28.7516 19.456 28.5095 19.3684 28.2595 19.3684C28.0094 19.3684 27.7673 19.456 27.5751 19.616C27.3833 19.7847 27.2595 20.0174 27.2266 20.2707V20.3059C27.2266 20.3342 27.2492 20.3483 27.2972 20.3483H29.2301C29.2866 20.3464 29.3078 20.3173 29.2936 20.2607Z" fill="#222222"/>
<path d="M32.1791 18.9132C32.22 18.9132 32.2412 18.9372 32.2412 18.9837V19.3576C32.2412 19.3999 32.2256 19.4211 32.1918 19.4211C32.1576 19.4214 32.1234 19.4176 32.0902 19.4098C32.059 19.4042 32.0273 19.4009 31.9957 19.3999C31.8411 19.3961 31.6883 19.4324 31.552 19.5054C31.4157 19.5783 31.3006 19.6854 31.2182 19.8161C31.1841 19.8685 31.1669 19.9301 31.1688 19.9925V22.1795C31.1703 22.189 31.1694 22.1989 31.1664 22.2081C31.1633 22.2173 31.1582 22.2256 31.1513 22.2325C31.1445 22.2394 31.1361 22.2445 31.1269 22.2475C31.1177 22.2506 31.1078 22.2515 31.0983 22.25H30.7258C30.7162 22.2515 30.7064 22.2506 30.6972 22.2475C30.688 22.2445 30.6796 22.2394 30.6727 22.2325C30.6658 22.2256 30.6608 22.2173 30.6577 22.2081C30.6546 22.1989 30.6538 22.189 30.6553 22.1795V19.0472C30.6538 19.0376 30.6546 19.0278 30.6577 19.0186C30.6608 19.0093 30.6658 19.001 30.6727 18.9941C30.6796 18.9873 30.688 18.9822 30.6972 18.9791C30.7064 18.976 30.7162 18.9753 30.7258 18.9766H31.0645C31.074 18.9753 31.0838 18.976 31.093 18.9791C31.1022 18.9822 31.1106 18.9873 31.1175 18.9941C31.1244 19.001 31.1294 19.0093 31.1325 19.0186C31.1356 19.0278 31.1364 19.0376 31.1349 19.0472V19.3012C31.1349 19.3209 31.1349 19.3322 31.1491 19.3364C31.1632 19.3407 31.1688 19.3364 31.1844 19.3224C31.29 19.189 31.4251 19.082 31.5791 19.0098C31.7331 18.9376 31.9018 18.902 32.0719 18.9061C32.1077 18.9055 32.1436 18.9079 32.1791 18.9132Z" fill="#222222"/>
<path d="M33.7734 21.8905V22.208C33.7748 22.2176 33.774 22.2275 33.7709 22.2367C33.7679 22.2459 33.7628 22.2542 33.7559 22.2611C33.749 22.2679 33.7406 22.2731 33.7314 22.2761C33.7222 22.2792 33.7125 22.28 33.7029 22.2786H33.5745C33.3897 22.2904 33.207 22.2342 33.0609 22.1206C32.996 22.0573 32.9458 21.9805 32.9141 21.8956C32.8824 21.8107 32.8698 21.7198 32.8775 21.6296V17.2133C32.876 17.2038 32.8768 17.1939 32.8799 17.1847C32.883 17.1755 32.888 17.1671 32.8949 17.1603C32.9018 17.1534 32.9102 17.1483 32.9194 17.1452C32.9286 17.1422 32.9384 17.1413 32.948 17.1428H33.3219C33.3314 17.1413 33.3413 17.1422 33.3505 17.1452C33.3597 17.1483 33.368 17.1534 33.3749 17.1603C33.3818 17.1671 33.387 17.1755 33.39 17.1847C33.393 17.1939 33.3939 17.2038 33.3924 17.2133V21.5661C33.3924 21.7354 33.463 21.82 33.604 21.82H33.7029C33.7125 21.8186 33.7222 21.8194 33.7314 21.8225C33.7406 21.8256 33.749 21.8306 33.7559 21.8375C33.7628 21.8444 33.7679 21.8527 33.7709 21.862C33.774 21.8712 33.7748 21.881 33.7734 21.8905Z" fill="#222222"/>
<path d="M34.5734 18.0977C34.5362 18.0631 34.5067 18.0211 34.4866 17.9745C34.4664 17.9279 34.4561 17.8776 34.4563 17.8268C34.456 17.7764 34.4664 17.7265 34.4865 17.6804C34.5067 17.6342 34.5363 17.5928 34.5734 17.5587C34.609 17.5227 34.6513 17.4942 34.6981 17.4748C34.7449 17.4554 34.795 17.4456 34.8457 17.4458C34.8946 17.446 34.943 17.4561 34.9878 17.4755C35.0327 17.4949 35.0731 17.5233 35.1068 17.5587C35.1425 17.5934 35.1709 17.6352 35.1901 17.6813C35.2093 17.7274 35.2188 17.7769 35.2182 17.8268C35.2188 17.8771 35.2093 17.9271 35.1902 17.9736C35.171 18.0202 35.1427 18.0624 35.1068 18.0977C35.074 18.1345 35.0338 18.164 34.9887 18.1841C34.9437 18.2043 34.895 18.2148 34.8457 18.2148C34.7947 18.2152 34.7441 18.2051 34.6973 18.1849C34.6504 18.1647 34.6082 18.135 34.5734 18.0977ZM34.5734 22.1796V19.0473C34.572 19.0377 34.5728 19.0279 34.5759 19.0186C34.5788 19.0094 34.584 19.001 34.5909 18.9943C34.5978 18.9874 34.6061 18.9822 34.6154 18.9791C34.6246 18.9762 34.6344 18.9753 34.6439 18.9767H35.0193C35.0288 18.9753 35.0386 18.9762 35.0478 18.9791C35.057 18.9822 35.0654 18.9874 35.0723 18.9943C35.0792 19.001 35.0843 19.0094 35.0873 19.0186C35.0904 19.0279 35.0912 19.0377 35.0897 19.0473V22.1796C35.0912 22.1891 35.0904 22.1989 35.0873 22.2081C35.0843 22.2173 35.0792 22.2257 35.0723 22.2326C35.0654 22.2395 35.057 22.2445 35.0478 22.2476C35.0386 22.2507 35.0288 22.2515 35.0193 22.25H34.6439C34.6346 22.251 34.6251 22.2498 34.6162 22.2465C34.6074 22.2434 34.5994 22.2381 34.5929 22.2313C34.5864 22.2245 34.5815 22.2163 34.5786 22.2074C34.5757 22.1984 34.5749 22.1889 34.5762 22.1796H34.5734Z" fill="#222222"/>
<path d="M36.6093 22.2457H36.2355C36.2258 22.2472 36.2161 22.2464 36.2069 22.2433C36.1977 22.2402 36.1893 22.2351 36.1825 22.2283C36.1756 22.2214 36.1704 22.213 36.1674 22.2038C36.1644 22.1946 36.1635 22.1848 36.1649 22.1752V19.043C36.1635 19.0333 36.1644 19.0236 36.1674 19.0143C36.1704 19.0051 36.1756 18.9967 36.1825 18.99C36.1893 18.9831 36.1977 18.9779 36.2069 18.9748C36.2161 18.9719 36.2258 18.971 36.2355 18.9724H36.5741C36.5837 18.971 36.5935 18.9719 36.6027 18.9748C36.6119 18.9779 36.6203 18.9831 36.6271 18.99C36.634 18.9967 36.6392 19.0051 36.6422 19.0143C36.6452 19.0236 36.6461 19.0333 36.6447 19.043V19.2828C36.6447 19.3025 36.6447 19.3139 36.6616 19.3181C36.6785 19.3223 36.687 19.3181 36.6997 19.2969C36.804 19.1744 36.9316 19.0737 37.0749 19.0006C37.225 18.9323 37.3885 18.8985 37.5532 18.9018C37.7022 18.8929 37.8513 18.9152 37.9911 18.9675C38.1308 19.0197 38.2581 19.1007 38.3646 19.2052C38.4615 19.3091 38.5369 19.4312 38.5866 19.5643C38.6362 19.6976 38.6591 19.8392 38.6538 19.9812V22.1752C38.6553 22.1848 38.6544 22.1946 38.6513 22.2038C38.6484 22.213 38.6432 22.2214 38.6363 22.2283C38.6294 22.2351 38.6211 22.2402 38.6119 22.2433C38.6027 22.2464 38.5928 22.2472 38.5833 22.2457H38.2108C38.2012 22.2472 38.1914 22.2464 38.1821 22.2433C38.1729 22.2402 38.1646 22.2351 38.1578 22.2283C38.1509 22.2214 38.1457 22.213 38.1427 22.2038C38.1397 22.1946 38.1389 22.1848 38.1402 22.1752V20.0701C38.1469 19.9752 38.1346 19.8799 38.1041 19.7897C38.0736 19.6997 38.0254 19.6165 37.9624 19.5452C37.8948 19.4821 37.815 19.4336 37.7278 19.4025C37.6408 19.3714 37.5483 19.3585 37.4559 19.3647C37.3063 19.3634 37.1594 19.405 37.0326 19.4846C36.9005 19.5721 36.792 19.6908 36.7166 19.8303C36.693 19.8761 36.681 19.9269 36.6813 19.9784V22.1795C36.6821 22.1889 36.6808 22.1983 36.6773 22.2071C36.6739 22.2159 36.6685 22.2238 36.6615 22.2302C36.6546 22.2365 36.6463 22.2413 36.6373 22.244C36.6283 22.2467 36.6186 22.2473 36.6093 22.2457Z" fill="#222222"/>
<path d="M10.778 31.2037C10.4922 31.0048 10.2799 30.7172 10.1741 30.3853V30.3572C10.1745 30.3427 10.1795 30.3287 10.1884 30.3173C10.1973 30.3058 10.2096 30.2976 10.2235 30.2937L10.5833 30.1525C10.5944 30.1476 10.6064 30.1452 10.6186 30.1455C10.6251 30.1454 10.6316 30.1466 10.6376 30.149C10.6437 30.1514 10.6492 30.155 10.6538 30.1596C10.6628 30.1701 10.67 30.182 10.675 30.1948C10.7389 30.4326 10.8817 30.6416 11.0799 30.7874C11.2831 30.9308 11.527 31.005 11.7756 30.9991C12.056 31.0173 12.3325 30.9263 12.5473 30.7451C12.7169 30.5732 12.8143 30.3431 12.8195 30.1017C12.8248 29.8603 12.7375 29.6262 12.5756 29.4471C12.3903 29.2758 12.1586 29.1629 11.9095 29.1226L11.5497 29.052C11.2083 29.002 10.8925 28.8415 10.651 28.5948C10.4279 28.3501 10.3103 28.0271 10.3237 27.6961C10.3219 27.4533 10.3879 27.2149 10.5142 27.0075C10.6415 26.798 10.8227 26.6265 11.0391 26.5109C11.2377 26.3983 11.4584 26.3306 11.6859 26.3122C11.9134 26.2939 12.1422 26.3254 12.3563 26.4047C12.5704 26.484 12.7646 26.6091 12.9252 26.7712C13.0859 26.9333 13.2093 27.1286 13.2867 27.3434C13.2898 27.3525 13.2898 27.3624 13.2867 27.3716C13.286 27.3859 13.281 27.3999 13.2722 27.4112C13.2633 27.4227 13.2511 27.4309 13.2373 27.435L12.8704 27.5903C12.8588 27.5927 12.8468 27.5927 12.8351 27.5903C12.8286 27.5905 12.8221 27.5894 12.816 27.587C12.81 27.5846 12.8045 27.5809 12.7999 27.5762C12.79 27.5664 12.7827 27.5543 12.7787 27.5409C12.7022 27.3321 12.5658 27.1504 12.3865 27.0189C12.2158 26.894 12.0095 26.8272 11.7981 26.8284C11.6743 26.8215 11.5504 26.8392 11.4334 26.8803C11.3165 26.9215 11.2088 26.9853 11.1166 27.0683C11.0342 27.1472 10.9694 27.2428 10.9264 27.3485C10.8834 27.4543 10.8631 27.5678 10.8669 27.682C10.8594 27.884 10.9302 28.0812 11.0645 28.2323C11.2217 28.3916 11.4279 28.4935 11.65 28.5215L12.0097 28.5921C12.371 28.6568 12.7062 28.8232 12.9762 29.0718C13.1052 29.1977 13.2058 29.3496 13.2715 29.5175C13.3373 29.6854 13.3665 29.8653 13.3571 30.0453C13.3604 30.3053 13.2931 30.5613 13.1624 30.786C13.0305 31.0098 12.837 31.191 12.6052 31.3081C12.3428 31.4397 12.0521 31.505 11.7586 31.4985C11.4091 31.5044 11.0664 31.4013 10.778 31.2037Z" fill="#222222"/>
<path d="M14.8274 31.2461C14.5771 31.1057 14.3728 30.8959 14.239 30.6422C14.1012 30.3631 14.0294 30.056 14.0294 29.7448C14.0294 29.4336 14.1012 29.1265 14.239 28.8475C14.368 28.5992 14.5634 28.3916 14.8034 28.2478C15.0515 28.109 15.3311 28.0361 15.6153 28.0361C15.8997 28.0361 16.1793 28.109 16.4274 28.2478C16.6648 28.3868 16.8598 28.5878 16.9917 28.8291C17.1309 29.0857 17.2014 29.3739 17.1963 29.6658C17.1968 29.7199 17.1945 29.7741 17.1893 29.8281C17.1862 29.8444 17.1775 29.859 17.1646 29.8694C17.1515 29.8797 17.1353 29.8851 17.1187 29.8845H14.6412C14.5847 29.8845 14.5635 29.9141 14.5777 29.9762C14.6006 30.2549 14.7234 30.5158 14.9233 30.7113C15.1325 30.901 15.4072 31.0022 15.6894 30.9935C15.8635 30.9935 16.0357 30.9572 16.1948 30.8867C16.354 30.8162 16.4966 30.7132 16.6137 30.5843C16.6644 30.5321 16.7053 30.5236 16.7335 30.5561L16.9664 30.8101C16.9988 30.8382 16.9988 30.8679 16.9664 30.9017C16.8018 31.0762 16.6042 31.2163 16.3851 31.3138C16.1657 31.4094 15.9287 31.4575 15.6894 31.4549C15.3889 31.461 15.0919 31.389 14.8274 31.2461ZM16.6517 29.3906C16.6149 29.1407 16.491 28.9118 16.3018 28.7445C16.1085 28.5862 15.8658 28.5004 15.616 28.502C15.3661 28.5035 15.1246 28.5922 14.9332 28.753C14.7432 28.9189 14.6194 29.1478 14.5847 29.3977V29.433C14.5847 29.4612 14.6087 29.4753 14.6552 29.4753H16.5883C16.6447 29.4753 16.6658 29.4471 16.6517 29.3906Z" fill="#222222"/>
<path d="M18.4577 31.3805H18.0838C18.0742 31.3819 18.0644 31.3811 18.0552 31.378C18.046 31.375 18.0377 31.3699 18.0308 31.363C18.0239 31.3561 18.0187 31.3478 18.0158 31.3386C18.0127 31.3294 18.0118 31.3195 18.0132 31.31V28.172C18.0118 28.1625 18.0127 28.1526 18.0158 28.1434C18.0187 28.1342 18.0239 28.1259 18.0308 28.119C18.0377 28.1121 18.046 28.107 18.0552 28.104C18.0644 28.1009 18.0742 28.1 18.0838 28.1015H18.4224C18.432 28.1 18.4418 28.1009 18.451 28.104C18.4602 28.107 18.4686 28.1121 18.4754 28.119C18.4823 28.1259 18.4875 28.1342 18.4906 28.1434C18.4935 28.1526 18.4944 28.1625 18.493 28.172V28.4048C18.492 28.4117 18.4931 28.4188 18.4961 28.425C18.4991 28.4314 18.5039 28.4365 18.5099 28.4401C18.5226 28.4401 18.5353 28.4401 18.5494 28.419C18.6538 28.3008 18.781 28.2048 18.9233 28.1368C19.0736 28.0678 19.2377 28.034 19.4031 28.038C19.5519 28.0291 19.701 28.0516 19.8407 28.1038C19.9805 28.1561 20.1077 28.237 20.2143 28.3413C20.3112 28.4453 20.3865 28.5673 20.4362 28.7006C20.4858 28.8337 20.5088 28.9754 20.5036 29.1174V31.3114C20.505 31.321 20.5041 31.3307 20.5011 31.3399C20.4981 31.3491 20.4929 31.3575 20.486 31.3644C20.4791 31.3713 20.4708 31.3764 20.4616 31.3794C20.4524 31.3825 20.4426 31.3833 20.433 31.3819H20.0591C20.0495 31.3833 20.0397 31.3825 20.0305 31.3794C20.0213 31.3764 20.0129 31.3713 20.006 31.3644C19.9992 31.3575 19.9941 31.3491 19.991 31.3399C19.9879 31.3307 19.9872 31.321 19.9886 31.3114V29.195C20.0019 29.0031 19.9384 28.8138 19.8122 28.6687C19.7441 28.606 19.664 28.5577 19.5766 28.5269C19.4893 28.4961 19.3966 28.4833 19.3042 28.4895C19.1546 28.4878 19.0075 28.5294 18.8809 28.6095C18.7477 28.6961 18.6385 28.815 18.5635 28.9551C18.541 28.9988 18.529 29.047 18.5282 29.0962V31.2973C18.5323 31.3077 18.5334 31.319 18.5316 31.33C18.5297 31.341 18.525 31.3514 18.5178 31.3598C18.5105 31.3684 18.5011 31.3747 18.4906 31.3785C18.48 31.382 18.4687 31.3828 18.4577 31.3805Z" fill="#222222"/>
<path d="M22.0979 31.2347C21.8535 31.0909 21.6532 30.8825 21.5195 30.6323C21.3805 30.3565 21.3082 30.0521 21.3082 29.7434C21.3082 29.4346 21.3805 29.1302 21.5195 28.8545C21.6529 28.6041 21.8531 28.3955 22.0979 28.252C22.346 28.1071 22.629 28.0325 22.9163 28.0361C23.1154 28.024 23.3145 28.0572 23.499 28.1329C23.6834 28.2086 23.8484 28.3251 23.9815 28.4736C23.985 28.4775 23.9894 28.4802 23.9945 28.4815C23.9996 28.4828 24.0049 28.4825 24.0098 28.4806C24.0196 28.4806 24.0238 28.4665 24.0238 28.4524V28.1702C24.0225 28.1606 24.0233 28.1508 24.0263 28.1416C24.0293 28.1324 24.0345 28.124 24.0414 28.1172C24.0483 28.1103 24.0566 28.1051 24.0658 28.102C24.075 28.0991 24.0848 28.0982 24.0944 28.0996H24.4401C24.4496 28.0982 24.4595 28.0991 24.4687 28.102C24.4779 28.1051 24.4863 28.1103 24.4931 28.1172C24.5 28.124 24.5051 28.1324 24.5082 28.1416C24.5112 28.1508 24.5121 28.1606 24.5106 28.1702V31.3025C24.5121 31.3121 24.5112 31.3218 24.5082 31.331C24.5051 31.3402 24.5 31.3486 24.4931 31.3555C24.4863 31.3624 24.4779 31.3675 24.4687 31.3705C24.4595 31.3736 24.4496 31.3744 24.4401 31.373H24.0944C24.0848 31.3744 24.075 31.3736 24.0658 31.3705C24.0566 31.3675 24.0483 31.3624 24.0414 31.3555C24.0345 31.3486 24.0293 31.3402 24.0263 31.331C24.0233 31.3218 24.0225 31.3121 24.0238 31.3025V31.0202C24.0238 31.0062 24.0238 30.9963 24.0098 30.9921C24.0057 30.9888 24.0008 30.9871 23.9957 30.9871C23.9905 30.9871 23.9855 30.9888 23.9815 30.9921C23.8432 31.1338 23.6774 31.2457 23.4942 31.321C23.3109 31.3962 23.1143 31.4331 22.9163 31.4294C22.6309 31.4395 22.3482 31.3722 22.0979 31.2347ZM23.5865 30.8439C23.75 30.7595 23.8831 30.6264 23.9674 30.463C23.9866 30.4234 23.9962 30.3799 23.9957 30.336V29.1508C23.9962 29.1068 23.9866 29.0633 23.9674 29.0238C23.8762 28.8616 23.74 28.7293 23.5751 28.6429C23.3967 28.5468 23.1965 28.4982 22.9939 28.5017C22.8364 28.4947 22.6793 28.5218 22.5332 28.581C22.3872 28.6401 22.2556 28.7301 22.1473 28.8446C21.9383 29.0975 21.824 29.4153 21.824 29.7434C21.824 30.0715 21.9383 30.3892 22.1473 30.6421C22.2556 30.7567 22.3872 30.8466 22.5332 30.9057C22.6793 30.965 22.8364 30.992 22.9939 30.985C23.2 30.9879 23.4037 30.9394 23.5865 30.8439Z" fill="#222222"/>
<path d="M25.8016 26.83L26.1825 26.6254C26.1942 26.6229 26.2062 26.6229 26.2179 26.6254C26.2503 26.6254 26.2672 26.6437 26.2672 26.6818V28.0787C26.2664 28.0835 26.2669 28.0884 26.2685 28.093C26.2699 28.0976 26.2726 28.1017 26.276 28.1052C26.2794 28.1086 26.2836 28.1113 26.2881 28.1127C26.2928 28.1142 26.2977 28.1146 26.3025 28.114H26.6905C26.7001 28.1125 26.7098 28.1134 26.7191 28.1164C26.7283 28.1194 26.7367 28.1246 26.7435 28.1315C26.7504 28.1383 26.7555 28.1467 26.7586 28.1559C26.7616 28.1651 26.7624 28.175 26.761 28.1845V28.4879C26.7624 28.4975 26.7616 28.5072 26.7586 28.5164C26.7555 28.5256 26.7504 28.534 26.7435 28.5409C26.7367 28.5478 26.7283 28.553 26.7191 28.5559C26.7098 28.559 26.7001 28.5598 26.6905 28.5585H26.3025C26.2977 28.5577 26.2928 28.5581 26.2881 28.5596C26.2836 28.5612 26.2794 28.5637 26.276 28.5671C26.2726 28.5706 26.2699 28.5748 26.2685 28.5794C26.2669 28.584 26.2664 28.5889 26.2672 28.5937V31.3168C26.2687 31.3264 26.2678 31.3361 26.2648 31.3453C26.2617 31.3546 26.2566 31.363 26.2497 31.3698C26.2428 31.3767 26.2345 31.3818 26.2253 31.3849C26.2161 31.3879 26.2062 31.3887 26.1967 31.3873H25.8227C25.8132 31.3887 25.8034 31.3879 25.7942 31.3849C25.785 31.3818 25.7766 31.3767 25.7697 31.3698C25.7628 31.363 25.7577 31.3546 25.7547 31.3453C25.7516 31.3361 25.7508 31.3264 25.7523 31.3168V28.5937C25.7529 28.5889 25.7525 28.584 25.751 28.5794C25.7495 28.5748 25.7469 28.5706 25.7435 28.5671C25.74 28.5637 25.7359 28.5612 25.7312 28.5596C25.7267 28.5581 25.7218 28.5577 25.7169 28.5585H25.329C25.3194 28.5598 25.3095 28.559 25.3003 28.5559C25.2911 28.553 25.2827 28.5478 25.2759 28.5409C25.2691 28.534 25.2639 28.5256 25.2608 28.5164C25.2578 28.5072 25.2569 28.4975 25.2584 28.4879V28.1718C25.2569 28.1623 25.2578 28.1524 25.2608 28.1432C25.2639 28.134 25.2691 28.1256 25.2759 28.1188C25.2827 28.1119 25.2911 28.1068 25.3003 28.1037C25.3095 28.1007 25.3194 28.0998 25.329 28.1013H25.7169C25.7218 28.1019 25.7267 28.1015 25.7312 28.1C25.7359 28.0986 25.74 28.0959 25.7435 28.0925C25.7469 28.089 25.7495 28.0849 25.751 28.0803C25.7525 28.0757 25.7529 28.0708 25.7523 28.066V26.909C25.7514 26.8924 25.7558 26.8759 25.7645 26.8618C25.7734 26.8477 25.7863 26.8367 25.8016 26.83Z" fill="#222222"/>
<path d="M27.6458 31.2463C27.456 31.1056 27.3165 30.9077 27.2479 30.6818V30.6537C27.2478 30.6398 27.2527 30.6264 27.2618 30.616C27.2709 30.6056 27.2835 30.599 27.2973 30.5972L27.6359 30.4773L27.6641 30.4702C27.6923 30.4702 27.7135 30.4886 27.7275 30.5267C27.7644 30.6691 27.8504 30.794 27.9703 30.8794C28.0822 30.9612 28.2169 31.0056 28.3555 31.0064C28.5184 31.0191 28.6801 30.9686 28.8069 30.8653C28.8578 30.8183 28.898 30.7611 28.9248 30.6973C28.9516 30.6336 28.9643 30.5648 28.9622 30.4956C28.9655 30.429 28.9537 30.3626 28.9272 30.3014C28.9008 30.2402 28.8606 30.1859 28.8098 30.1429C28.6865 30.0481 28.5406 29.9872 28.3865 29.9665L28.1043 29.9101C27.8823 29.8733 27.6801 29.76 27.5328 29.5897C27.3913 29.421 27.3159 29.2063 27.3212 28.9859C27.3215 28.8158 27.3705 28.6493 27.4624 28.5061C27.5534 28.359 27.6838 28.2401 27.8391 28.1633C28.0092 28.0796 28.1969 28.0375 28.3865 28.0405C28.6222 28.0333 28.8537 28.1037 29.0454 28.241C29.2334 28.3841 29.3667 28.5872 29.4235 28.8166L29.4306 28.8448C29.4306 28.873 29.4122 28.8942 29.3741 28.9083L29.0426 28.9929L29.0143 29C28.9862 29 28.9664 28.9817 28.9579 28.9436C28.9275 28.8144 28.8569 28.6983 28.7561 28.612C28.6515 28.5287 28.5201 28.4861 28.3865 28.4921C28.2412 28.4849 28.0987 28.5327 27.9872 28.6261C27.938 28.6674 27.8988 28.7194 27.8726 28.778C27.8465 28.8366 27.834 28.9005 27.8362 28.9648C27.8322 29.0242 27.8409 29.0839 27.8615 29.1398C27.8822 29.1957 27.9144 29.2467 27.9561 29.2892C28.0593 29.3747 28.1835 29.4308 28.3159 29.4515L28.5981 29.5079C28.8395 29.5482 29.0625 29.6626 29.2359 29.8352C29.3183 29.9236 29.3825 30.0275 29.4244 30.1409C29.4663 30.2543 29.4851 30.3748 29.4799 30.4956C29.4837 30.6263 29.4588 30.7561 29.4068 30.8761C29.3549 30.996 29.2773 31.1031 29.1794 31.1897C28.9528 31.3812 28.6615 31.4786 28.3653 31.4621C28.1081 31.4729 27.8545 31.3969 27.6458 31.2463Z" fill="#222222"/>
<path d="M32.0944 31.317L31.2549 29.9061C31.245 29.8821 31.2323 29.8694 31.2154 29.8666C31.206 29.8664 31.1969 29.8686 31.1887 29.8731C31.1805 29.8775 31.1737 29.8841 31.1688 29.892L30.874 30.2447C30.846 30.2811 30.8312 30.3259 30.8317 30.3717V31.31C30.8315 31.3192 30.8296 31.3283 30.826 31.3368C30.8223 31.3452 30.8171 31.353 30.8105 31.3593C30.8029 31.3664 30.7941 31.372 30.7844 31.3756C30.7746 31.3792 30.7644 31.3809 30.754 31.3805H30.3872C30.3776 31.382 30.3677 31.3811 30.3585 31.378C30.3493 31.375 30.341 31.3699 30.3341 31.363C30.3272 31.3561 30.3221 31.3478 30.3191 31.3386C30.316 31.3294 30.3151 31.3195 30.3166 31.31V26.3378C30.3151 26.3282 30.316 26.3185 30.3191 26.3093C30.3221 26.3 30.3272 26.2917 30.3341 26.2848C30.341 26.2779 30.3493 26.2727 30.3585 26.2697C30.3677 26.2667 30.3776 26.2659 30.3872 26.2672H30.754C30.7644 26.2668 30.7746 26.2685 30.7844 26.2721C30.7941 26.2758 30.8029 26.2813 30.8105 26.2884C30.8171 26.2949 30.8223 26.3025 30.826 26.3109C30.8296 26.3195 30.8315 26.3286 30.8317 26.3378V29.463C30.8317 29.4913 30.8317 29.5068 30.8528 29.5096C30.874 29.5124 30.8824 29.4997 30.9021 29.4772L32.0027 28.1439C32.0125 28.1306 32.0252 28.1198 32.0399 28.1125C32.0546 28.1051 32.0709 28.1014 32.0873 28.1015H32.5741C32.5852 28.1004 32.5964 28.1025 32.6064 28.1075C32.6164 28.1124 32.6248 28.1202 32.6305 28.1297C32.6345 28.1406 32.6353 28.1522 32.6327 28.1635C32.6302 28.1748 32.6246 28.185 32.6164 28.1932L31.6288 29.3784C31.6131 29.3956 31.602 29.4164 31.5963 29.4391C31.5948 29.4604 31.6014 29.4815 31.6147 29.4984L32.6799 31.2902C32.6878 31.303 32.6927 31.3175 32.694 31.3325C32.694 31.3608 32.6714 31.3749 32.6305 31.3749H32.2002C32.179 31.3762 32.1577 31.3715 32.139 31.3612C32.1202 31.3511 32.1048 31.3357 32.0944 31.317Z" fill="#222222"/>
<path d="M33.858 31.2349C33.6132 31.0914 33.4129 30.883 33.2796 30.6325C33.1406 30.3567 33.0682 30.0523 33.0682 29.7436C33.0682 29.4348 33.1406 29.1304 33.2796 28.8547C33.4126 28.6039 33.6129 28.3953 33.858 28.2522C34.1055 28.1052 34.3885 28.0286 34.6764 28.0307C34.8754 28.0187 35.0746 28.0519 35.259 28.1276C35.4435 28.2033 35.6084 28.3197 35.7416 28.4681C35.7449 28.4722 35.7494 28.4751 35.7545 28.4764C35.7597 28.4777 35.765 28.4773 35.7698 28.4752C35.7746 28.4723 35.7785 28.4681 35.7809 28.4631C35.7835 28.4581 35.7845 28.4525 35.7839 28.4469V28.1648C35.7825 28.1551 35.7834 28.1453 35.7864 28.1361C35.7894 28.1269 35.7946 28.1185 35.8015 28.1117C35.8083 28.1049 35.8167 28.0997 35.8259 28.0966C35.8351 28.0936 35.8449 28.0927 35.8545 28.0942H36.2002C36.2097 28.0927 36.2196 28.0936 36.2288 28.0966C36.238 28.0997 36.2463 28.1049 36.2532 28.1117C36.2601 28.1185 36.2653 28.1269 36.2682 28.1361C36.2713 28.1453 36.2722 28.1551 36.2707 28.1648V31.2971C36.2722 31.3066 36.2713 31.3164 36.2682 31.3256C36.2653 31.3348 36.2601 31.3432 36.2532 31.3501C36.2463 31.3569 36.238 31.362 36.2288 31.3651C36.2196 31.3682 36.2097 31.369 36.2002 31.3675H35.8545C35.8449 31.369 35.8351 31.3682 35.8259 31.3651C35.8167 31.362 35.8083 31.3569 35.8015 31.3501C35.7946 31.3432 35.7894 31.3348 35.7864 31.3256C35.7834 31.3164 35.7825 31.3066 35.7839 31.2971V31.0148C35.7845 31.0092 35.7835 31.0037 35.7809 30.9986C35.7785 30.9937 35.7746 30.9895 35.7698 30.9866C35.7658 30.9834 35.7608 30.9816 35.7558 30.9816C35.7506 30.9816 35.7456 30.9834 35.7416 30.9866C35.6034 31.1284 35.4374 31.2403 35.2543 31.3156C35.0711 31.3908 34.8744 31.4276 34.6764 31.424C34.3915 31.4359 34.1088 31.3706 33.858 31.2349ZM35.3465 30.8441C35.51 30.7597 35.6432 30.6266 35.7275 30.4632C35.7467 30.4236 35.7564 30.3801 35.7558 30.3362V29.151C35.7564 29.107 35.7467 29.0635 35.7275 29.024C35.6359 28.8621 35.4998 28.7299 35.3352 28.6431C35.1567 28.5471 34.9566 28.4985 34.754 28.5019C34.5966 28.4953 34.4396 28.5223 34.2935 28.5815C34.1475 28.6407 34.0158 28.7305 33.9074 28.8448C33.7002 29.0985 33.587 29.416 33.587 29.7436C33.587 30.0711 33.7002 30.3886 33.9074 30.6423C34.0158 30.7566 34.1475 30.8465 34.2935 30.9056C34.4396 30.9648 34.5966 30.9919 34.754 30.9852C34.9602 30.9882 35.1638 30.9397 35.3465 30.8441Z" fill="#222222"/>
<path d="M37.7945 31.3805H37.4206C37.411 31.3819 37.4013 31.3811 37.3921 31.378C37.3829 31.3749 37.3745 31.3699 37.3676 31.363C37.3608 31.3561 37.3556 31.3478 37.3526 31.3385C37.3495 31.3293 37.3487 31.3195 37.3501 31.31V28.172C37.3487 28.1625 37.3495 28.1526 37.3526 28.1434C37.3556 28.1342 37.3608 28.1258 37.3676 28.119C37.3745 28.1121 37.3829 28.107 37.3921 28.1039C37.4013 28.1009 37.411 28.1 37.4206 28.1015H37.7593C37.7689 28.1 37.7786 28.1009 37.7878 28.1039C37.797 28.107 37.8054 28.1121 37.8123 28.119C37.8192 28.1258 37.8243 28.1342 37.8274 28.1434C37.8304 28.1526 37.8312 28.1625 37.8299 28.172V28.4048C37.8289 28.4117 37.83 28.4188 37.8329 28.425C37.836 28.4312 37.8408 28.4365 37.8468 28.4401C37.858 28.4401 37.8722 28.4401 37.8863 28.419C37.9907 28.3008 38.1179 28.2048 38.2601 28.1367C38.4104 28.0675 38.5745 28.0338 38.7399 28.038C38.8856 28.0262 39.0321 28.0458 39.1695 28.0956C39.307 28.1454 39.4322 28.2242 39.5365 28.3265C39.6409 28.4288 39.722 28.5524 39.7744 28.6888C39.8269 28.8253 39.8493 28.9715 39.8404 29.1174V31.3114C39.8418 31.321 39.841 31.3307 39.838 31.3399C39.8349 31.3491 39.8297 31.3575 39.8229 31.3644C39.816 31.3712 39.8076 31.3764 39.7984 31.3794C39.7892 31.3825 39.7795 31.3833 39.7699 31.3819H39.396C39.3864 31.3833 39.3765 31.3825 39.3673 31.3794C39.3581 31.3764 39.3497 31.3712 39.3429 31.3644C39.3361 31.3575 39.3309 31.3491 39.3278 31.3399C39.3248 31.3307 39.324 31.321 39.3254 31.3114V29.1949C39.3387 29.0031 39.2753 28.8138 39.149 28.6687C39.0812 28.6056 39.0011 28.5572 38.9137 28.5264C38.8263 28.4956 38.7336 28.483 38.6411 28.4894C38.4914 28.4878 38.3444 28.5293 38.2178 28.6094C38.0846 28.6961 37.9754 28.8149 37.9003 28.9551C37.8779 28.9988 37.8658 29.047 37.8651 29.0962V31.2973C37.8691 31.3076 37.8703 31.319 37.8685 31.33C37.8666 31.341 37.8618 31.3514 37.8546 31.3598C37.8473 31.3684 37.838 31.3747 37.8274 31.3784C37.8168 31.382 37.8055 31.3828 37.7945 31.3805Z" fill="#222222"/>
<path d="M41.4066 30.9358H43.1067C43.1532 30.9358 43.1773 30.9612 43.1773 31.0135V31.3098C43.1787 31.3193 43.1779 31.3291 43.1748 31.3383C43.1718 31.3475 43.1666 31.3559 43.1598 31.3628C43.1529 31.3697 43.1446 31.3747 43.1353 31.3778C43.1261 31.3809 43.1163 31.3817 43.1067 31.3802H40.6728C40.6164 31.3802 40.5882 31.3563 40.5882 31.3098C40.5872 31.2845 40.5946 31.2597 40.6093 31.2392L42.2955 28.5951C42.3082 28.5669 42.3024 28.5527 42.2743 28.5527H40.6658C40.6562 28.5542 40.6464 28.5534 40.6371 28.5503C40.6279 28.5472 40.6196 28.5421 40.6127 28.5353C40.6059 28.5284 40.6007 28.52 40.5977 28.5108C40.5946 28.5016 40.5939 28.4918 40.5952 28.4822V28.1718C40.5939 28.1622 40.5946 28.1524 40.5977 28.1432C40.6007 28.134 40.6059 28.1256 40.6127 28.1188C40.6196 28.1119 40.6279 28.1068 40.6371 28.1037C40.6464 28.1007 40.6562 28.0998 40.6658 28.1013H43.0079C43.0601 28.1013 43.0855 28.1238 43.0855 28.1718C43.0851 28.197 43.0771 28.2215 43.063 28.2424L41.3783 30.8935C41.3642 30.9217 41.3727 30.9358 41.4066 30.9358Z" fill="#222222"/>
<path d="M44.7928 31.0207V31.3381C44.7942 31.3478 44.7933 31.3575 44.7903 31.3667C44.7873 31.376 44.7821 31.3844 44.7752 31.3912C44.7684 31.398 44.76 31.4032 44.7508 31.4063C44.7416 31.4093 44.7319 31.4101 44.7222 31.4087H44.5952C44.4099 31.4202 44.2268 31.3634 44.0802 31.2493C44.0154 31.1863 43.9652 31.1098 43.9336 31.0251C43.9018 30.9405 43.8893 30.8498 43.8968 30.7597V26.3378C43.8955 26.3282 43.8962 26.3185 43.8993 26.3093C43.9023 26.3 43.9075 26.2917 43.9143 26.2848C43.9212 26.2779 43.9295 26.2727 43.9387 26.2697C43.9479 26.2667 43.9578 26.2659 43.9674 26.2672H44.3413C44.3509 26.2659 44.3606 26.2667 44.3699 26.2697C44.3791 26.2727 44.3874 26.2779 44.3943 26.2848C44.4012 26.2917 44.4064 26.3 44.4094 26.3093C44.4124 26.3185 44.4132 26.3282 44.4119 26.3378V30.6905C44.4119 30.8598 44.4823 30.9445 44.6235 30.9445H44.7222C44.7324 30.9428 44.7428 30.9436 44.7526 30.9469C44.7623 30.9503 44.7711 30.956 44.7781 30.9635C44.7851 30.9712 44.7901 30.9803 44.7926 30.9903C44.7952 31.0003 44.7953 31.0107 44.7928 31.0207Z" fill="#222222"/>
<path d="M46.105 31.2461C45.8547 31.1058 45.6504 30.8961 45.5166 30.6423C45.3788 30.3633 45.307 30.0562 45.307 29.745C45.307 29.4338 45.3788 29.1267 45.5166 28.8476C45.6466 28.5978 45.8448 28.3898 46.0881 28.2479C46.3359 28.1054 46.6176 28.0323 46.9035 28.0363C47.1867 28.033 47.4655 28.1061 47.7106 28.2479C47.9482 28.3868 48.1433 28.5877 48.2749 28.8293C48.4129 29.0862 48.4829 29.3743 48.4781 29.6659C48.4809 29.72 48.4809 29.7742 48.4781 29.8282C48.4752 29.8445 48.4663 29.8591 48.4534 29.8695C48.4404 29.8799 48.4241 29.8853 48.4076 29.8847H45.9074C45.8495 29.8847 45.8284 29.9143 45.8439 29.9764C45.8675 30.2585 45.9941 30.5221 46.1995 30.7171C46.4087 30.9068 46.6833 31.0079 46.9656 30.9993C47.1397 30.9994 47.3119 30.963 47.471 30.8925C47.6302 30.822 47.7728 30.719 47.8898 30.5902C47.9406 30.5379 47.9815 30.5294 48.0098 30.5619L48.2426 30.8159C48.2749 30.8441 48.2749 30.8738 48.2426 30.9076C48.0777 31.0824 47.8796 31.2225 47.6598 31.3196C47.441 31.415 47.2044 31.4631 46.9656 31.4606C46.665 31.4646 46.3685 31.3908 46.105 31.2461ZM47.9279 29.3908C47.8916 29.1411 47.7682 28.9122 47.5794 28.7447C47.3861 28.5863 47.1434 28.5005 46.8936 28.5021C46.6436 28.5036 46.4021 28.5924 46.2108 28.7531C46.0202 28.9186 45.8963 29.1477 45.8622 29.3979L45.8538 29.4331C45.8538 29.4614 45.8778 29.4754 45.9244 29.4754H47.8658C47.918 29.4754 47.9392 29.4416 47.9236 29.3908H47.9279Z" fill="#222222"/>
<path d="M49.2823 27.228C49.2454 27.1932 49.216 27.1513 49.1959 27.1048C49.1757 27.0581 49.1653 27.0079 49.1653 26.9571C49.165 26.9068 49.1752 26.8569 49.1954 26.8108C49.2157 26.7645 49.2452 26.7232 49.2823 26.6891C49.3179 26.6531 49.3603 26.6245 49.4071 26.6052C49.4539 26.5857 49.504 26.5759 49.5547 26.5762C49.6036 26.5764 49.6519 26.5864 49.6967 26.6059C49.7416 26.6253 49.7821 26.6536 49.8157 26.6891C49.8515 26.7238 49.8799 26.7655 49.899 26.8116C49.9182 26.8578 49.9278 26.9073 49.9272 26.9571C49.9275 27.0075 49.9179 27.0573 49.8987 27.1038C49.8796 27.1504 49.8513 27.1926 49.8157 27.228C49.7826 27.2646 49.7424 27.2939 49.6975 27.3141C49.6526 27.3342 49.6039 27.3448 49.5547 27.3452C49.5037 27.3453 49.4532 27.335 49.4064 27.3149C49.3595 27.2947 49.3174 27.2652 49.2823 27.228ZM49.2823 31.3099V28.1719C49.2823 28.124 49.305 28.1015 49.3515 28.1015H49.7268C49.7364 28.1 49.7462 28.1008 49.7554 28.1039C49.7647 28.1069 49.773 28.1121 49.7799 28.1189C49.7867 28.1258 49.7919 28.1342 49.7949 28.1434C49.7979 28.1526 49.7987 28.1624 49.7974 28.1719V31.3042C49.7987 31.3139 49.7979 31.3236 49.7949 31.3328C49.7919 31.3421 49.7867 31.3505 49.7799 31.3572C49.773 31.3641 49.7647 31.3693 49.7554 31.3724C49.7462 31.3753 49.7364 31.3762 49.7268 31.3748H49.3501C49.3416 31.375 49.3331 31.3734 49.3252 31.3703C49.3174 31.367 49.3102 31.3622 49.3042 31.3562C49.2983 31.35 49.2937 31.3428 49.2906 31.3348C49.2876 31.3269 49.2862 31.3184 49.2866 31.3099H49.2823Z" fill="#222222"/>
</g>
</g>
<defs>
<clipPath id="clip0_48_116">
<rect width="240" height="40" fill="white" transform="translate(0.249634 0.09375)"/>
</clipPath>
</defs>
</svg>
