<svg width="171" height="31" viewBox="0 0 171 31" fill="none" xmlns="http://www.w3.org/2000/svg">
<g clip-path="url(#clip0_1_68)">
<path d="M42.7087 0.76651C37.9056 0.76651 33.4812 3.46869 29.2052 8.19009C25.0034 3.39446 20.5047 0.76651 15.479 0.76651C7.15715 0.76651 1.08466 6.70537 1.08466 14.7006C1.08466 22.6958 7.15715 28.5604 15.479 28.5604C20.5938 28.5604 24.558 26.1626 28.9825 21.3818C33.2585 26.1774 37.6087 28.5752 42.7087 28.5752C51.0305 28.5604 57.103 22.718 57.103 14.7006C57.103 6.6831 51.0305 0.76651 42.7087 0.76651ZM15.5384 20.1717C12.0122 20.1717 9.91129 17.8482 9.91129 14.7748C9.91129 11.7014 12.0122 9.31105 15.5384 9.31105C18.5078 9.31105 20.9353 11.7014 23.5633 14.9233C21.0838 17.9224 18.4633 20.1717 15.5384 20.1717ZM42.4563 20.1717C39.5314 20.1717 37.0593 17.8482 34.4314 14.7748C37.1336 11.553 39.4571 9.31105 42.4563 9.31105C45.9825 9.31105 48.0611 11.7311 48.0611 14.7748C48.0611 17.8185 45.9825 20.1717 42.4563 20.1717Z" fill="#484848"/>
<path d="M35.248 26.5783L40.8454 19.8971C38.6183 19.229 36.562 17.2246 34.4314 14.7377L28.9825 21.3818C30.7664 23.4515 32.8843 25.2079 35.248 26.5783Z" fill="#20A7C9"/>
<path d="M74.5781 19.4442C74.6011 18.7642 74.3109 18.1095 73.7912 17.67C72.959 17.0709 72.0185 16.6374 71.0222 16.3932C69.1596 15.9329 67.398 15.1326 65.8257 14.0325C64.6676 13.158 64.0077 11.7705 64.0589 10.3207C64.0426 8.77285 64.805 7.3156 66.0855 6.44555C67.6051 5.38992 69.4336 4.8673 71.282 4.96084C73.1617 4.87695 75.0094 5.47826 76.4786 6.65341C77.751 7.65485 78.4688 9.20787 78.4087 10.8255V10.8997H74.6524C74.6828 10.0816 74.3547 9.28878 73.7541 8.73202C73.0541 8.14629 72.1558 7.85084 71.2449 7.908C70.389 7.85529 69.5405 8.09656 68.8397 8.59097C68.3 9.01708 67.9875 9.67036 67.9934 10.3578C68.006 10.9814 68.326 11.5597 68.8471 11.9019C69.8218 12.4794 70.8708 12.9211 71.965 13.2159C73.7333 13.6264 75.3873 14.4281 76.8052 15.5617C77.9017 16.5283 78.5074 17.9387 78.4532 19.3997C78.5037 20.9497 77.7651 22.4241 76.4934 23.3119C74.9627 24.3401 73.1379 24.8427 71.2969 24.7447C69.3393 24.7885 67.4158 24.2198 65.796 23.1189C64.2727 22.1212 63.3982 20.3781 63.5096 18.5608V18.4792H67.3624C67.28 19.4435 67.6742 20.39 68.4165 21.0106C69.2903 21.5978 70.3348 21.8799 71.386 21.8124C72.2404 21.8703 73.0904 21.6401 73.7986 21.1591C74.319 20.7463 74.6093 20.1072 74.5781 19.4442Z" fill="#484848"/>
<path d="M89.6331 22.4211C89.227 23.133 88.6473 23.7306 87.948 24.1582C86.0074 25.2332 83.5718 24.8857 82.0091 23.3119C81.1576 22.3224 80.7322 20.8176 80.7322 18.7984V10.1351H84.5925V18.8429C84.5339 19.6217 84.718 20.4004 85.1196 21.07C85.5011 21.5362 86.0846 21.7908 86.6859 21.753C87.2331 21.7649 87.7757 21.6639 88.282 21.456C88.7156 21.26 89.0897 20.9527 89.3659 20.5652V10.1351H93.241V24.4849H89.9375L89.6331 22.4211Z" fill="#484848"/>
<path d="M108.838 17.7071C108.927 19.5318 108.404 21.335 107.353 22.8294C106.387 24.1137 104.846 24.8397 103.241 24.7669C102.55 24.7781 101.866 24.6363 101.236 24.3512C100.652 24.0617 100.143 23.64 99.7515 23.1189V30.008H95.8912V10.1351H99.3803L99.6105 11.8276C100.002 11.2345 100.526 10.7393 101.14 10.38C101.78 10.0289 102.503 9.85222 103.233 9.86781C104.877 9.80323 106.443 10.5931 107.368 11.9538C108.424 13.5796 108.944 15.4964 108.853 17.4324L108.838 17.7071ZM104.963 17.4102C105.007 16.2729 104.775 15.1423 104.287 14.1141C103.907 13.3227 103.094 12.8269 102.216 12.8521C101.699 12.8372 101.186 12.9605 100.731 13.2084C100.318 13.4549 99.9794 13.809 99.7515 14.2329V20.5355C99.9831 20.9319 100.323 21.2541 100.731 21.4634C101.194 21.6869 101.703 21.796 102.216 21.7827C103.056 21.8346 103.857 21.4055 104.28 20.6765C104.759 19.7627 104.988 18.7382 104.941 17.7071L104.963 17.4102Z" fill="#484848"/>
<path d="M117.256 24.767C115.392 24.8516 113.58 24.1256 112.29 22.7774C111.034 21.4011 110.367 19.5845 110.434 17.722V17.1949C110.358 15.2826 110.984 13.4074 112.193 11.9242C114.648 9.32367 118.8 9.18634 121.421 11.6198C122.548 12.9315 123.128 14.6286 123.039 16.356V18.4643H114.45V18.546C114.487 19.4071 114.824 20.2289 115.4 20.8696C115.994 21.4902 116.829 21.8235 117.687 21.7827C118.408 21.799 119.128 21.7114 119.825 21.5228C120.47 21.315 121.092 21.0418 121.681 20.7063L122.727 23.1041C122.042 23.6363 121.264 24.0387 120.434 24.2918C119.408 24.6229 118.334 24.7833 117.256 24.767ZM116.907 12.8892C116.24 12.8669 115.603 13.1758 115.207 13.7132C114.769 14.3524 114.512 15.0992 114.465 15.8735L114.502 15.9403H119.253V15.5988C119.29 14.8943 119.085 14.1973 118.674 13.6242C118.248 13.0934 117.587 12.8046 116.907 12.8521V12.8892Z" fill="#484848"/>
<path d="M132.913 13.4608H131.487C130.991 13.4408 130.498 13.5648 130.069 13.8172C129.694 14.0629 129.399 14.414 129.223 14.8268V24.4848H125.363V10.1351H128.978L129.149 12.2582C129.435 11.573 129.887 10.968 130.463 10.4988C130.99 10.0801 131.646 9.85742 132.319 9.86781C132.498 9.86633 132.677 9.88117 132.853 9.91235L133.351 10.0237L132.913 13.4608Z" fill="#484848"/>
<path d="M142.578 20.5355C142.569 20.0879 142.338 19.6729 141.962 19.4294C141.26 19.0129 140.483 18.7353 139.676 18.6128C138.297 18.3968 136.984 17.8712 135.838 17.0761C134.982 16.4229 134.496 15.391 134.538 14.3146C134.536 13.0778 135.114 11.9093 136.097 11.1595C137.291 10.2487 138.77 9.79063 140.269 9.86784C141.83 9.78618 143.373 10.2398 144.642 11.1521C145.673 11.9049 146.259 13.1283 146.201 14.4036V14.4853H142.489C142.508 13.9597 142.309 13.449 141.94 13.0748C141.494 12.6866 140.911 12.4913 140.321 12.5329C139.788 12.5032 139.26 12.6665 138.837 12.9932C138.492 13.2716 138.295 13.694 138.302 14.1364C138.295 14.5714 138.508 14.9819 138.866 15.2277C139.572 15.6233 140.35 15.875 141.153 15.97C142.569 16.1786 143.919 16.7124 145.095 17.529C145.95 18.2112 146.428 19.2646 146.379 20.3574C146.392 21.6231 145.77 22.8146 144.724 23.5272C143.434 24.3973 141.897 24.8271 140.344 24.7521C138.703 24.8353 137.088 24.306 135.815 23.2674C134.781 22.5013 134.172 21.2875 134.175 20.001V19.9268H137.716C137.679 20.5704 137.955 21.1933 138.458 21.5971C139.011 21.9638 139.666 22.1457 140.329 22.1167C140.906 22.1531 141.478 22.0017 141.962 21.6862C142.349 21.433 142.583 20.9988 142.578 20.5355Z" fill="#484848"/>
<path d="M154.857 24.767C152.995 24.8516 151.185 24.1256 149.898 22.7774C148.642 21.4011 147.975 19.5845 148.042 17.722V17.1949C147.967 15.2841 148.59 13.4096 149.794 11.9242C152.248 9.32367 156.401 9.18634 159.021 11.6198C160.151 12.9301 160.729 14.6286 160.632 16.356V18.4643H152.058V18.546C152.093 19.4064 152.427 20.2282 153.001 20.8696C153.596 21.4924 154.434 21.8257 155.295 21.7827C156.014 21.799 156.731 21.7114 157.425 21.5228C158.073 21.3165 158.698 21.0433 159.289 20.7063L160.335 23.1041C159.649 23.6349 158.871 24.0372 158.041 24.2918C157.013 24.6229 155.937 24.7833 154.857 24.767ZM154.515 12.8892C153.847 12.864 153.209 13.1735 152.815 13.7132C152.377 14.3531 152.12 15.0992 152.073 15.8735L152.117 15.9403H156.869V15.5988C156.905 14.8943 156.701 14.1973 156.289 13.6242C155.862 13.0911 155.197 12.8016 154.515 12.8521V12.8892Z" fill="#484848"/>
<path d="M167.841 6.6163V10.1351H170.261V12.8521H167.841V20.1643C167.8 20.5927 167.926 21.0203 168.189 21.3595C168.434 21.6038 168.771 21.7337 169.117 21.7159C169.291 21.7166 169.465 21.7047 169.637 21.6787C169.81 21.6513 169.981 21.6142 170.149 21.5674L170.483 24.3661C170.111 24.496 169.728 24.5977 169.34 24.6705C168.942 24.7343 168.541 24.767 168.138 24.767C167.001 24.8427 165.882 24.4448 165.049 23.6683C164.246 22.6921 163.857 21.439 163.965 20.1792V12.8521H161.872V10.1351H163.965V6.6163H167.841Z" fill="#484848"/>
<path d="M29.2052 8.18267C27.4332 6.08328 25.3286 4.28752 22.9768 2.86739L17.372 9.62284C19.5026 10.3652 21.3882 12.2805 23.3925 14.7228L23.6152 14.8787L29.2052 8.18267Z" fill="#20A7C9"/>
</g>
<defs>
<clipPath id="clip0_1_68">
<rect width="170" height="30.4367" fill="white" transform="translate(0.909729 0.227493)"/>
</clipPath>
</defs>
</svg>
