<svg width="171" height="31" viewBox="0 0 171 31" fill="none" xmlns="http://www.w3.org/2000/svg">
<g clip-path="url(#clip0_81_821)">
<path d="M42.5929 0.925781C37.7898 0.925781 33.3654 3.62796 29.0894 8.34936C24.8876 3.55373 20.389 0.925781 15.3632 0.925781C7.04135 0.925781 0.968864 6.86465 0.968864 14.8598C0.968864 22.855 7.04135 28.7197 15.3632 28.7197C20.478 28.7197 24.4422 26.3219 28.8667 21.5411C33.1427 26.3367 37.4929 28.7345 42.5929 28.7345C50.9147 28.7197 56.9872 22.8773 56.9872 14.8598C56.9872 6.84238 50.9147 0.925781 42.5929 0.925781ZM15.4226 20.331C11.8964 20.331 9.7955 18.0074 9.7955 14.9341C9.7955 11.8607 11.8964 9.47032 15.4226 9.47032C18.392 9.47032 20.8195 11.8607 23.4475 15.0826C20.968 18.0817 18.3475 20.331 15.4226 20.331ZM42.3405 20.331C39.4156 20.331 36.9435 18.0074 34.3156 14.9341C37.0178 11.7122 39.3414 9.47032 42.3405 9.47032C45.8667 9.47032 47.9453 11.8904 47.9453 14.9341C47.9453 17.9777 45.8667 20.331 42.3405 20.331Z" fill="#484848"/>
<path d="M35.1322 26.7371L40.7296 20.0559C38.5025 19.3878 36.4462 17.3834 34.3156 14.8965L28.8667 21.5406C30.6506 23.6103 32.7685 25.3667 35.1322 26.7371Z" fill="#20A7C9"/>
<path d="M74.4623 19.6035C74.4853 18.9235 74.1951 18.2687 73.6754 17.8292C72.8432 17.2302 71.9027 16.7966 70.9064 16.5524C69.0438 16.0921 67.2822 15.2919 65.7099 14.1917C64.5518 13.3172 63.8919 11.9297 63.9431 10.4799C63.9268 8.93207 64.6892 7.47482 65.9697 6.60478C67.4893 5.54914 69.3178 5.02652 71.1662 5.12006C73.0459 5.03617 74.8936 5.63749 76.3628 6.81264C77.6352 7.81408 78.353 9.36709 78.2929 10.9847V11.0589H74.5366C74.567 10.2408 74.2389 9.44801 73.6383 8.89124C72.9383 8.30552 72.04 8.01006 71.1291 8.06722C70.2732 8.01452 69.4247 8.25578 68.7239 8.75019C68.1842 9.17631 67.8717 9.82958 67.8776 10.517C67.8902 11.1406 68.2102 11.7189 68.7313 12.0611C69.706 12.6387 70.755 13.0804 71.8492 13.3751C73.6175 13.7856 75.2715 14.5874 76.6894 15.7209C77.7859 16.6875 78.3916 18.098 78.3374 19.5589C78.3879 21.109 77.6493 22.5833 76.3776 23.4712C74.8469 24.4993 73.0221 25.0019 71.1811 24.9039C69.2235 24.9477 67.3 24.3791 65.6802 23.2781C64.1569 22.2804 63.2824 20.5374 63.3938 18.7201V18.6384H67.2466C67.1642 19.6027 67.5584 20.5492 68.3007 21.1698C69.1745 21.757 70.219 22.0391 71.2702 21.9716C72.1246 22.0295 72.9746 21.7994 73.6828 21.3183C74.2032 20.9056 74.4935 20.2664 74.4623 19.6035Z" fill="#484848"/>
<path d="M89.5173 22.5809C89.1113 23.2929 88.5315 23.8905 87.8322 24.3181C85.8917 25.393 83.456 25.0456 81.8933 23.4718C81.0418 22.4822 80.6165 20.9775 80.6165 18.9582V10.2949H84.4767V19.0028C84.4181 19.7815 84.6022 20.5603 85.0038 21.2299C85.3854 21.6961 85.9689 21.9507 86.5702 21.9128C87.1173 21.9247 87.66 21.8237 88.1662 21.6159C88.5998 21.4199 88.9739 21.1126 89.2501 20.7251V10.2949H93.1252V24.6447H89.8217L89.5173 22.5809Z" fill="#484848"/>
<path d="M108.722 17.8664C108.811 19.6911 108.289 21.4943 107.237 22.9887C106.272 24.273 104.73 24.999 103.125 24.9262C102.434 24.9374 101.75 24.7956 101.12 24.5105C100.536 24.221 100.028 23.7993 99.6357 23.2782V30.1673H95.7754V10.2944H99.2645L99.4946 11.9869C99.8866 11.3938 100.41 10.8986 101.024 10.5393C101.665 10.1882 102.387 10.0115 103.117 10.0271C104.762 9.96253 106.327 10.7524 107.252 12.1131C108.309 13.7389 108.828 15.6557 108.737 17.5917L108.722 17.8664ZM104.847 17.5695C104.892 16.4322 104.659 15.3016 104.172 14.2734C103.791 13.482 102.978 12.9862 102.1 13.0114C101.583 12.9965 101.07 13.1198 100.616 13.3677C100.202 13.6142 99.8636 13.9683 99.6357 14.3922V20.6948C99.8673 21.0912 100.207 21.4134 100.616 21.6227C101.078 21.8462 101.587 21.9553 102.1 21.942C102.941 21.9939 103.742 21.5648 104.164 20.8358C104.644 19.922 104.872 18.8976 104.825 17.8664L104.847 17.5695Z" fill="#484848"/>
<path d="M117.14 24.9254C115.276 25.01 113.464 24.284 112.174 22.9359C110.918 21.5595 110.251 19.743 110.318 17.8804V17.3533C110.243 15.441 110.868 13.5658 112.078 12.0826C114.532 9.48212 118.685 9.34479 121.305 11.7782C122.432 13.09 123.012 14.787 122.923 16.5145V18.6228H114.334V18.7044C114.371 19.5656 114.708 20.3874 115.285 21.028C115.878 21.6486 116.713 21.9819 117.571 21.9411C118.293 21.9574 119.013 21.8698 119.709 21.6813C120.354 21.4734 120.976 21.2002 121.565 20.8647L122.612 23.2625C121.926 23.7948 121.148 24.1971 120.318 24.4503C119.292 24.7814 118.218 24.9417 117.14 24.9254ZM116.792 13.0477C116.124 13.0254 115.487 13.3342 115.092 13.8717C114.653 14.5109 114.396 15.2577 114.349 16.0319L114.386 16.0988H119.137V15.7573C119.174 15.0528 118.97 14.3557 118.558 13.7826C118.132 13.2518 117.471 12.963 116.792 13.0105V13.0477Z" fill="#484848"/>
<path d="M132.797 13.6207H131.371C130.875 13.6007 130.382 13.7246 129.954 13.977C129.578 14.2228 129.283 14.5739 129.107 14.9866V24.6447H125.247V10.2949H128.862L129.033 12.4181C129.32 11.7329 129.771 11.1279 130.347 10.6587C130.874 10.24 131.53 10.0173 132.203 10.0277C132.382 10.0262 132.561 10.0411 132.737 10.0722L133.235 10.1836L132.797 13.6207Z" fill="#484848"/>
<path d="M142.462 20.6946C142.453 20.247 142.222 19.832 141.846 19.5885C141.144 19.1721 140.367 18.8944 139.56 18.7719C138.181 18.5559 136.869 18.0303 135.722 17.2353C134.866 16.582 134.38 15.5501 134.423 14.4737C134.42 13.2369 134.998 12.0684 135.982 11.3187C137.175 10.4078 138.654 9.94975 140.154 10.027C141.714 9.9453 143.257 10.3989 144.526 11.3112C145.557 12.064 146.144 13.2874 146.085 14.5628V14.6444H142.373C142.393 14.1188 142.194 13.6081 141.824 13.2339C141.378 12.8457 140.795 12.6504 140.206 12.692C139.672 12.6623 139.144 12.8256 138.721 13.1523C138.376 13.4307 138.179 13.8531 138.186 14.2955C138.18 14.7305 138.392 15.1411 138.751 15.3868C139.457 15.7825 140.234 16.0341 141.037 16.1291C142.453 16.3377 143.803 16.8715 144.979 17.6881C145.834 18.3703 146.312 19.4237 146.263 20.5165C146.277 21.7822 145.654 22.9737 144.608 23.6863C143.318 24.5564 141.782 24.9862 140.228 24.9112C138.587 24.9944 136.973 24.4651 135.699 23.4265C134.665 22.6604 134.056 21.4467 134.059 20.1601V20.0859H137.6C137.563 20.7295 137.84 21.3524 138.342 21.7562C138.895 22.1229 139.55 22.3048 140.213 22.2759C140.79 22.3122 141.362 22.1608 141.846 21.8453C142.234 21.5922 142.467 21.1579 142.462 20.6946Z" fill="#484848"/>
<path d="M154.741 24.9254C152.879 25.01 151.069 24.284 149.782 22.9359C148.526 21.5595 147.859 19.743 147.926 17.8804V17.3533C147.851 15.4425 148.475 13.5681 149.678 12.0826C152.132 9.48212 156.285 9.34479 158.906 11.7782C160.035 13.0885 160.613 14.787 160.516 16.5145V18.6228H151.942V18.7044C151.977 19.5648 152.311 20.3866 152.885 21.028C153.48 21.6509 154.319 21.9842 155.179 21.9411C155.898 21.9574 156.615 21.8698 157.309 21.6813C157.958 21.4749 158.582 21.2017 159.173 20.8647L160.22 23.2625C159.533 23.7933 158.756 24.1957 157.926 24.4503C156.897 24.7814 155.821 24.9417 154.741 24.9254ZM154.399 13.0477C153.731 13.0224 153.094 13.332 152.699 13.8717C152.261 14.5116 152.005 15.2577 151.957 16.0319L152.002 16.0988H156.753V15.7573C156.789 15.0528 156.585 14.3557 156.174 13.7826C155.746 13.2496 155.081 12.9601 154.399 13.0105V13.0477Z" fill="#484848"/>
<path d="M167.725 6.77539V10.2942H170.145V13.0112H167.725V20.3234C167.685 20.7518 167.81 21.1794 168.074 21.5186C168.319 21.7629 168.656 21.8928 169.002 21.875C169.175 21.8757 169.349 21.8638 169.521 21.8378C169.694 21.8104 169.865 21.7733 170.033 21.7265L170.368 24.5252C169.995 24.6551 169.613 24.7568 169.224 24.8295C168.826 24.8934 168.425 24.926 168.022 24.926C166.885 25.0018 165.766 24.6039 164.933 23.8274C164.13 22.8512 163.741 21.5981 163.85 20.3383V13.0112H161.756V10.2942H163.85V6.77539H167.725Z" fill="#484848"/>
<path d="M29.0894 8.34263C27.3174 6.24324 25.2128 4.44747 22.861 3.02734L17.2562 9.7828C19.3868 10.5252 21.2724 12.4404 23.2767 14.8828L23.4994 15.0387L29.0894 8.34263Z" fill="#20A7C9"/>
</g>
<defs>
<clipPath id="clip0_81_821">
<rect width="170" height="30.4367" fill="white" transform="translate(0.793945 0.386719)"/>
</clipPath>
</defs>
</svg>
