<svg width="134" height="41" viewBox="0 0 134 41" fill="none" xmlns="http://www.w3.org/2000/svg">
<g clip-path="url(#clip0_48_111)">
<path d="M81.2492 27.5605V34.0139H84.2892L84.2626 34.8939H80.3159V27.5605H81.2492ZM66.1292 27.5605V34.8939H70.3159L70.3426 34.0139H67.0626V31.4805H69.7559V30.6805H67.0626V28.4405H70.2092L70.1826 27.5605H66.1292ZM76.4226 29.6672C76.4226 28.7072 76.0492 28.3872 75.2226 28.3872H73.9426V30.9739H75.1959C76.0492 30.9739 76.4226 30.6539 76.4226 29.6672ZM76.0759 31.5605L77.8359 34.8672H76.7426L75.2492 31.7205H73.9426V34.8672H73.0092V27.5605H75.1959C76.6626 27.5605 77.3559 28.2005 77.3559 29.6405C77.3826 30.7872 76.9292 31.4005 76.0759 31.5605ZM61.1159 34.0672C61.9159 34.0672 62.3692 33.7472 62.3692 32.7339C62.3692 31.8272 61.9692 31.4539 61.0892 31.4539H59.5426V34.0672H61.1159ZM59.5159 30.7072H61.0092C61.7826 30.7072 62.1026 30.3339 62.1026 29.5339C62.1026 28.6805 61.7559 28.3872 60.9559 28.3872H59.4892V30.7072H59.5159ZM62.0492 31.0005C62.8226 31.1872 63.2759 31.7472 63.2759 32.7872C63.2759 34.1205 62.6626 34.8672 61.0892 34.8672H58.6092V27.5605H61.0092C62.3426 27.5605 63.0359 28.1472 63.0359 29.3739C63.0359 30.2805 62.6359 30.7872 62.0492 31.0005ZM86.7692 34.8672H87.7026V27.5605H87.2226H86.7426V34.8672H86.7692ZM95.1159 27.5605V32.3339L95.1426 33.1072H95.1159L94.7159 32.4139L91.8092 27.5605H90.9559V34.8939H91.7826V29.9605V29.1605H91.8092L92.2092 29.8539L95.2759 34.8939H95.9426V27.5605H95.1159ZM108.903 20.0405C108.689 20.0939 108.476 20.1205 108.209 20.1205C107.089 20.1205 106.689 19.6405 106.689 17.7472C106.689 15.8805 107.089 15.3739 108.396 15.3739C108.956 15.3739 109.543 15.4805 109.996 15.6672L110.156 14.3072C109.649 14.0939 108.956 13.9872 108.316 13.9872C106.049 13.9872 105.089 15.1605 105.089 17.8005C105.089 20.3605 105.943 21.5872 108.263 21.5872C109.009 21.5872 109.783 21.4272 110.289 21.1872V17.4539H108.903V20.0405ZM73.3559 14.0939H72.5826H71.8092V21.4272H73.3826V14.0939H73.3559ZM66.3159 21.4272H67.8626V15.5339H69.6492L69.6226 14.0939H64.5826L64.5559 15.5339H66.3426V21.4272H66.3159ZM60.3426 20.1739C59.6759 20.1739 59.0892 19.9872 58.5292 19.6939L58.3159 21.0539C58.8759 21.3739 59.5959 21.5605 60.3692 21.5605C61.9426 21.5605 62.8759 20.7072 62.8759 19.2672C62.8759 16.8672 59.8359 17.2939 59.8359 16.1205C59.8359 15.7205 60.0759 15.4005 60.9026 15.4005C61.4092 15.4005 61.9159 15.5072 62.4759 15.6939L62.6626 14.3605C62.1559 14.1205 61.4892 13.9872 60.8226 13.9872C59.1426 13.9872 58.3692 14.9472 58.3692 16.1739C58.3692 18.5739 61.4092 18.1472 61.4092 19.3472C61.3826 19.8805 61.0626 20.1739 60.3426 20.1739ZM101.276 17.7472L101.303 18.5205H101.276L98.5559 14.0672H97.2492V21.4272H98.6092V17.5605V16.7605H98.6359L99.0359 17.4539L101.543 21.4272H102.636V14.0939H101.276V17.7472ZM80.0759 17.1605H77.6759V15.5339H80.5292L80.5026 14.0939H76.1292V21.4272H77.6759V18.5205H80.0492L80.0759 17.1605ZM94.6092 18.9205V14.0939H93.0892V18.9205C93.0892 19.7739 92.7692 20.1205 91.9426 20.1205C91.1159 20.1205 90.7692 19.7472 90.7692 18.9205V14.0939H89.2226V18.9205C89.2226 20.6805 90.1559 21.5339 91.9159 21.5339C93.6759 21.5339 94.6092 20.6805 94.6092 18.9205ZM87.2492 14.0939H82.2092L82.1826 15.5339H83.9692V21.4272H85.5159V15.5339H87.3026L87.2492 14.0939ZM91.9959 7.56053V0.227194H90.6359V3.88053L90.6626 4.65386H90.6359L87.9426 0.227194H86.6359V7.56053H87.9959V3.69386V2.89386H88.0226L88.4226 3.58719L90.9292 7.56053C90.9026 7.56053 91.9959 7.56053 91.9959 7.56053ZM59.4359 7.56053H60.9826V1.66719H62.7692L62.7426 0.227194H57.7026L57.6759 1.66719H59.4626V7.56053H59.4359ZM130.236 6.17386V4.44053H132.663V3.16053H130.236V1.61386H133.116L133.089 0.200527H128.716V7.56053H133.223L133.249 6.17386H130.236ZM106.983 6.12053H104.289V0.227194H102.743V7.56053H106.956L106.983 6.12053ZM80.0759 4.52053H82.3426V7.56053H83.8892V0.227194H82.3426V3.08053H80.0759V0.227194H78.5292V7.56053H80.0759V4.52053ZM69.4892 6.17386H66.4759V4.44053H68.9026V3.16053H66.4759V1.61386H69.3559L69.3292 0.200527H64.9559V7.56053H69.4626L69.4892 6.17386ZM98.6626 3.88053C98.6626 1.93386 98.3426 1.53386 97.3292 1.53386C96.3426 1.53386 95.9959 1.96053 95.9959 3.88053C95.9959 5.82719 96.3426 6.25386 97.3292 6.25386C98.3426 6.25386 98.6626 5.82719 98.6626 3.88053ZM97.3292 7.66719C95.2759 7.66719 94.3959 6.57386 94.3959 3.88053C94.3959 1.16053 95.2492 0.0938607 97.3292 0.0938607C99.4092 0.0938607 100.263 1.16053 100.263 3.88053C100.289 6.65386 99.4092 7.66719 97.3292 7.66719ZM124.369 7.56053H125.943V0.227194H125.143H124.369V7.56053ZM74.5826 7.66719C75.1692 7.66719 75.7826 7.53386 76.2359 7.29386L76.0759 5.98719C75.7026 6.14719 75.3026 6.25386 74.8226 6.25386C73.6226 6.25386 73.1959 5.72053 73.1959 3.80053C73.1959 2.01386 73.5959 1.48053 74.7959 1.48053C75.2759 1.48053 75.7292 1.58719 76.0759 1.69386L76.2359 0.333861C75.8626 0.173861 75.2226 0.0405273 74.6892 0.0405273C72.5559 0.0405273 71.5959 1.26719 71.5959 3.77386C71.5959 6.49386 72.5559 7.66719 74.5826 7.66719ZM112.849 3.88053C112.849 1.93386 112.529 1.53386 111.516 1.53386C110.529 1.53386 110.183 1.96053 110.183 3.88053C110.183 5.82719 110.529 6.25386 111.516 6.25386C112.529 6.25386 112.849 5.82719 112.849 3.88053ZM114.476 3.88053C114.476 6.65386 113.623 7.66719 111.543 7.66719C109.489 7.66719 108.609 6.57386 108.609 3.88053C108.609 1.16053 109.463 0.0938607 111.543 0.0938607C113.623 0.0938607 114.476 1.18719 114.476 3.88053ZM120.369 6.17386C120.156 6.22719 119.916 6.25386 119.676 6.25386C118.556 6.25386 118.156 5.77386 118.156 3.88053C118.156 2.01386 118.556 1.50719 119.863 1.50719C120.423 1.50719 121.009 1.61386 121.463 1.80053L121.623 0.440527C121.143 0.227194 120.423 0.0938607 119.783 0.0938607C117.516 0.0938607 116.556 1.26719 116.556 3.90719C116.556 6.46719 117.436 7.69386 119.729 7.69386C120.476 7.69386 121.276 7.53386 121.756 7.29386V3.58719H120.369V6.17386Z" fill="#222222"/>
<path d="M2.76931 27.9606L3.38265 27.5872L13.7826 29.2139L13.3826 29.6139L2.76931 27.9606ZM30.1826 15.7739L29.836 16.1206L41.5426 21.2672L41.436 20.7072L30.1826 15.7739ZM25.7026 13.8006L25.2226 14.0939L27.4626 15.0806L27.8093 14.7339L25.7026 13.8006ZM50.396 24.5206L45.5426 35.2139L16.1293 30.2272L16.9026 29.4006L44.5826 34.1206L39.3826 5.24057L5.03598 40.6006L0.609314 27.3739L10.396 6.92057L23.1693 12.5472L22.2093 13.1339L10.8493 8.12057L2.10265 26.4139L39.916 3.08057L45.356 33.2939L49.1427 25.0006L44.236 22.8406L44.0493 21.7206L50.396 24.5206ZM5.43598 38.8406L37.916 5.42723L1.72931 27.7472L5.43598 38.8406Z" fill="#222222"/>
</g>
<defs>
<clipPath id="clip0_48_111">
<rect width="132.64" height="40" fill="white" transform="translate(0.609619 0.09375)"/>
</clipPath>
</defs>
</svg>
