<svg width="41" height="41" viewBox="0 0 41 41" fill="none" xmlns="http://www.w3.org/2000/svg">
<g clip-path="url(#clip0_81_1185)">
<path d="M38.2693 11.6329C38.0713 10.842 37.6681 10.1172 37.1004 9.53195C36.5327 8.94668 35.8206 8.52158 35.036 8.29961C32.1693 7.59961 20.7026 7.59961 20.7026 7.59961C20.7026 7.59961 9.23597 7.59961 6.3693 8.36628C5.58471 8.58825 4.87259 9.01334 4.30488 9.59862C3.73716 10.1839 3.33395 10.9086 3.13597 11.6996C2.61132 14.6089 2.35469 17.5601 2.3693 20.5163C2.3506 23.4947 2.60725 26.4684 3.13597 29.3996C3.35423 30.166 3.76648 30.8632 4.33287 31.4237C4.89927 31.9843 5.60067 32.3893 6.3693 32.5996C9.23597 33.3663 20.7026 33.3663 20.7026 33.3663C20.7026 33.3663 32.1693 33.3663 35.036 32.5996C35.8206 32.3776 36.5327 31.9525 37.1004 31.3673C37.6681 30.782 38.0713 30.0573 38.2693 29.2663C38.7899 26.3789 39.0465 23.4502 39.036 20.5163C39.0547 17.5379 38.798 14.5641 38.2693 11.6329Z" stroke="#222222" stroke-width="2" stroke-linecap="round" stroke-linejoin="round"/>
<path d="M16.9526 25.9664L26.536 20.5164L16.9526 15.0664V25.9664Z" stroke="#222222" stroke-width="2" stroke-linecap="round" stroke-linejoin="round"/>
</g>
<defs>
<clipPath id="clip0_81_1185">
<rect width="40" height="40" fill="white" transform="translate(0.702637 0.933594)"/>
</clipPath>
</defs>
</svg>
